<?xml version="1.0" encoding="iso-8859-1"?>
<!-- Generator: Adobe Illustrator 29.7.1, SVG Export Plug-In . SVG Version: 9.03 Build 0)  -->
<svg version="1.1" id="Layer_1" xmlns="http://www.w3.org/2000/svg" xmlns:xlink="http://www.w3.org/1999/xlink" x="0px" y="0px"
	 viewBox="0 0 2834.646 2834.646" style="enable-background:new 0 0 2834.646 2834.646;" xml:space="preserve">
<g>
	<g>
		<path style="fill:#010101;" d="M626.457,34.016v-2.295V14.173h-93.543V0H439.37v14.173H201.26V0h-93.543v14.173H14.173v17.547
			v2.295H0v53.858h14.173v19.842h93.543v14.173h93.543v-14.173h0.351H438.09h0.603h0.678v14.173h93.543v-14.173h93.543V87.874
			h14.173V34.016H626.457z M59.528,68.332c-0.001,0-0.002,0-0.002,0H42.522c-0.001,0-0.002,0-0.002,0c-4.07,0-7.37-3.3-7.37-7.37
			c0-0.003,0-0.006,0-0.009s0-0.006,0-0.009c0-4.07,3.3-7.37,7.37-7.37c0.115,0,0.227,0.012,0.341,0.017h16.667v0
			c4.07,0,7.37,3.3,7.37,7.37S63.598,68.332,59.528,68.332z M605.48,60.962c0,4.07-3.3,7.37-7.37,7.37c-0.001,0-0.002,0-0.002,0
			h-17.003c-0.001,0-0.002,0-0.002,0c-4.07,0-7.37-3.3-7.37-7.37s3.3-7.37,7.37-7.37v0h16.667c0.114-0.005,0.226-0.017,0.341-0.017
			c4.07,0,7.37,3.3,7.37,7.37c0,0.003,0,0.006,0,0.009C605.48,60.957,605.48,60.959,605.48,60.962z"/>
	</g>
</g>
</svg>
