<?xml version="1.0" encoding="iso-8859-1"?>
<!-- Generator: Adobe Illustrator 29.7.1, SVG Export Plug-In . SVG Version: 9.03 Build 0)  -->
<svg version="1.1" id="Layer_1" xmlns="http://www.w3.org/2000/svg" xmlns:xlink="http://www.w3.org/1999/xlink" x="0px" y="0px"
	 viewBox="0 0 2834.646 2834.646" style="enable-background:new 0 0 2834.646 2834.646;" xml:space="preserve">
<g>
	<g>
		<path style="fill:#010101;" d="M0,0v313.348h88.439v169.96h257.914L346.393,0L0,0z M222.52,50.032h24.378
			c4.07,0,7.37,3.3,7.37,7.37c0,4.07-3.3,7.37-7.37,7.37H222.52c-4.07,0-7.37-3.3-7.37-7.37
			C215.149,53.332,218.449,50.032,222.52,50.032z M246.711,381.685c-4.07,0-7.37-3.3-7.37-7.37v-24.378c0-4.07,3.3-7.37,7.37-7.37
			c4.07,0,7.37,3.3,7.37,7.37v24.378C254.081,378.386,250.781,381.685,246.711,381.685z M254.081,398.693c0,4.07-3.3,7.37-7.37,7.37
			s-7.37-3.3-7.37-7.37c0-4.07,3.3-7.37,7.37-7.37S254.081,394.623,254.081,398.693z M246.898,332.93
			c-0.163,0-0.322-0.014-0.483-0.024h-47.791c-0.16,0.01-0.32,0.024-0.483,0.024s-0.322-0.014-0.483-0.024h-0.085v-0.004
			c-3.804-0.291-6.803-3.463-6.803-7.341s2.998-7.051,6.803-7.341v-0.029h0.566c0,0,0.001,0,0.001,0s0.001,0,0.001,0h48.753
			c0,0,0.001,0,0.001,0c4.07,0,7.37,3.3,7.37,7.37S250.968,332.93,246.898,332.93z M222.52,357.307
			c-0.163,0-0.322-0.014-0.483-0.024h-47.791c-0.16,0.01-0.32,0.024-0.483,0.024s-0.322-0.014-0.483-0.024h-0.085v-0.004
			c-3.804-0.291-6.803-3.463-6.803-7.341s2.998-7.051,6.803-7.341v-0.029h0.566c0,0,0.001,0,0.001,0s0.001,0,0.001,0h48.753
			c0,0,0.001,0,0.001,0c4.07,0,7.37,3.3,7.37,7.37S226.59,357.307,222.52,357.307z M229.89,374.315v24.378
			c0,4.07-3.3,7.37-7.37,7.37c-4.07,0-7.37-3.3-7.37-7.37v-24.378c0-4.07,3.3-7.37,7.37-7.37
			C226.59,366.945,229.89,370.245,229.89,374.315z M205.511,374.315v24.378c0,4.07-3.3,7.37-7.37,7.37c-4.07,0-7.37-3.3-7.37-7.37
			v-24.378c0-4.07,3.3-7.37,7.37-7.37C202.212,366.945,205.511,370.245,205.511,374.315z M222.52,162.284
			c-0.163,0-0.322-0.014-0.483-0.024h-47.791c-0.16,0.01-0.32,0.024-0.483,0.024s-0.322-0.014-0.483-0.024h-0.085v-0.004
			c-3.804-0.291-6.803-3.463-6.803-7.341s2.998-7.051,6.803-7.341v-0.029h0.566c0,0,0.001,0,0.001,0s0.001,0,0.001,0h48.753
			c0,0,0.001,0,0.001,0c4.07,0,7.37,3.3,7.37,7.37S226.59,162.284,222.52,162.284z M229.89,179.292v24.378
			c0,4.07-3.3,7.37-7.37,7.37c-4.07,0-7.37-3.3-7.37-7.37v-24.378c0-4.07,3.3-7.37,7.37-7.37
			C226.59,171.922,229.89,175.222,229.89,179.292z M222.52,259.796c-0.163,0-0.322-0.014-0.483-0.024h-47.791
			c-0.16,0.01-0.32,0.024-0.483,0.024s-0.322-0.014-0.483-0.024h-0.085v-0.004c-3.804-0.291-6.803-3.463-6.803-7.341
			s2.998-7.051,6.803-7.341v-0.029h0.566c0,0,0.001,0,0.001,0s0.001,0,0.001,0h48.753c0,0,0.001,0,0.001,0
			c4.07,0,7.37,3.3,7.37,7.37S226.59,259.796,222.52,259.796z M229.89,276.804v24.378c0,4.07-3.3,7.37-7.37,7.37
			c-4.07,0-7.37-3.3-7.37-7.37v-24.378c0-4.07,3.3-7.37,7.37-7.37C226.59,269.434,229.89,272.733,229.89,276.804z M205.511,276.804
			v24.378c0,4.07-3.3,7.37-7.37,7.37c-4.07,0-7.37-3.3-7.37-7.37v-24.378c0-4.07,3.3-7.37,7.37-7.37
			C202.212,269.434,205.511,272.733,205.511,276.804z M181.134,276.804c0,4.07-3.3,7.37-7.37,7.37s-7.37-3.3-7.37-7.37
			s3.3-7.37,7.37-7.37S181.134,272.733,181.134,276.804z M205.511,179.292v24.378c0,4.07-3.3,7.37-7.37,7.37
			c-4.07,0-7.37-3.3-7.37-7.37v-24.378c0-4.07,3.3-7.37,7.37-7.37C202.212,171.922,205.511,175.222,205.511,179.292z
			 M181.134,179.292c0,4.07-3.3,7.37-7.37,7.37s-7.37-3.3-7.37-7.37s3.3-7.37,7.37-7.37S181.134,175.222,181.134,179.292z
			 M173.763,98.788c4.07,0,7.37,3.3,7.37,7.37v24.378c0,4.07-3.3,7.37-7.37,7.37c-4.07,0-7.37-3.3-7.37-7.37v-24.378
			C166.393,102.088,169.693,98.788,173.763,98.788z M166.394,81.78c0-4.07,3.3-7.37,7.37-7.37s7.37,3.3,7.37,7.37
			s-3.3,7.37-7.37,7.37S166.394,85.851,166.394,81.78z M173.763,196.3c4.07,0,7.37,3.3,7.37,7.37v24.378c0,4.07-3.3,7.37-7.37,7.37
			c-4.07,0-7.37-3.3-7.37-7.37V203.67C166.393,199.599,169.693,196.3,173.763,196.3z M173.763,293.812c4.07,0,7.37,3.3,7.37,7.37
			v24.378c0,4.07-3.3,7.37-7.37,7.37c-4.07,0-7.37-3.3-7.37-7.37v-24.378C166.393,297.111,169.693,293.812,173.763,293.812z
			 M246.898,308.552c-4.07,0-7.37-3.3-7.37-7.37s3.3-7.37,7.37-7.37c4.07,0,7.37,3.3,7.37,7.37S250.968,308.552,246.898,308.552z
			 M239.341,276.804v-24.378c0-4.07,3.3-7.37,7.37-7.37c4.07,0,7.37,3.3,7.37,7.37v24.378c0,4.07-3.3,7.37-7.37,7.37
			C242.64,284.174,239.341,280.874,239.341,276.804z M246.898,235.418c-0.163,0-0.322-0.014-0.483-0.024h-47.791
			c-0.16,0.01-0.32,0.024-0.483,0.024s-0.322-0.014-0.483-0.024h-0.085v-0.004c-3.804-0.291-6.803-3.463-6.803-7.341
			s2.998-7.051,6.803-7.341v-0.029h0.566c0,0,0.001,0,0.001,0s0.001,0,0.001,0h48.753c0,0,0.001,0,0.001,0
			c4.07,0,7.37,3.3,7.37,7.37S250.968,235.418,246.898,235.418z M246.898,211.04c-4.07,0-7.37-3.3-7.37-7.37s3.3-7.37,7.37-7.37
			c4.07,0,7.37,3.3,7.37,7.37S250.968,211.04,246.898,211.04z M239.341,179.292v-24.378c0-4.07,3.3-7.37,7.37-7.37
			c4.07,0,7.37,3.3,7.37,7.37v24.378c0,4.07-3.3,7.37-7.37,7.37C242.64,186.662,239.341,183.362,239.341,179.292z M246.898,137.906
			c-0.163,0-0.322-0.014-0.483-0.024h-47.791c-0.16,0.01-0.32,0.024-0.483,0.024s-0.322-0.014-0.483-0.024h-0.085v-0.004
			c-3.804-0.291-6.803-3.463-6.803-7.341s2.998-7.051,6.803-7.341v-0.029h0.566c0,0,0.001,0,0.001,0s0.001,0,0.001,0h48.753
			c0,0,0.001,0,0.001,0c4.07,0,7.37,3.3,7.37,7.37S250.968,137.906,246.898,137.906z M190.771,106.158V81.78
			c0-4.07,3.3-7.37,7.37-7.37c4.07,0,7.37,3.3,7.37,7.37v24.378c0,4.07-3.3,7.37-7.37,7.37
			C194.071,113.528,190.771,110.229,190.771,106.158z M215.15,106.158V81.78c0-4.07,3.3-7.37,7.37-7.37c4.07,0,7.37,3.3,7.37,7.37
			v24.378c0,4.07-3.3,7.37-7.37,7.37C218.449,113.528,215.15,110.229,215.15,106.158z M246.898,113.528c-4.07,0-7.37-3.3-7.37-7.37
			s3.3-7.37,7.37-7.37c4.07,0,7.37,3.3,7.37,7.37S250.968,113.528,246.898,113.528z M239.435,81.874c0-4.07,3.3-7.37,7.37-7.37
			s7.37,3.3,7.37,7.37s-3.3,7.37-7.37,7.37S239.435,85.944,239.435,81.874z M205.512,57.402c0,4.07-3.3,7.37-7.37,7.37h-24.378
			c-4.07,0-7.37-3.3-7.37-7.37c0-4.07,3.3-7.37,7.37-7.37h24.378C202.212,50.032,205.512,53.332,205.512,57.402z M119.622,13.465
			h56.693v15.591h-56.693V13.465z M149.386,381.661c-4.07,0-7.37-3.3-7.37-7.37v-48.756c0-4.07,3.3-7.37,7.37-7.37
			c4.07,0,7.37,3.3,7.37,7.37v48.756C156.756,378.361,153.456,381.661,149.386,381.661z M156.755,398.669v27.237
			c0,4.07-3.3,7.37-7.37,7.37c-4.07,0-7.37-3.3-7.37-7.37v-27.237c0-4.07,3.3-7.37,7.37-7.37
			C153.455,391.299,156.755,394.599,156.755,398.669z M142.015,154.914v-24.378c0-4.07,3.3-7.37,7.37-7.37
			c4.07,0,7.37,3.3,7.37,7.37v24.378c0,4.07-3.3,7.37-7.37,7.37C145.314,162.284,142.015,158.984,142.015,154.914z M149.386,308.552
			c-4.07,0-7.37-3.3-7.37-7.37v-48.756c0-4.07,3.3-7.37,7.37-7.37c4.07,0,7.37,3.3,7.37,7.37v48.756
			C156.756,305.252,153.456,308.552,149.386,308.552z M149.386,235.418c-4.07,0-7.37-3.3-7.37-7.37v-48.756
			c0-4.07,3.3-7.37,7.37-7.37c4.07,0,7.37,3.3,7.37,7.37v48.756C156.756,232.118,153.456,235.418,149.386,235.418z M149.386,113.528
			c-4.07,0-7.37-3.3-7.37-7.37V57.402c0-4.07,3.3-7.37,7.37-7.37c4.07,0,7.37,3.3,7.37,7.37v48.756
			C156.756,110.229,153.456,113.528,149.386,113.528z M117.638,57.402c0-4.07,3.3-7.37,7.37-7.37c4.07,0,7.37,3.3,7.37,7.37V81.78
			c0,4.07-3.3,7.37-7.37,7.37c-4.07,0-7.37-3.3-7.37-7.37V57.402z M125.008,332.93c-4.07,0-7.37-3.3-7.37-7.37v-24.378
			c0-4.07,3.3-7.37,7.37-7.37c4.07,0,7.37,3.3,7.37,7.37v24.378C132.378,329.63,129.078,332.93,125.008,332.93z M132.378,349.937
			v24.378c0,4.07-3.3,7.37-7.37,7.37c-4.07,0-7.37-3.3-7.37-7.37v-24.378c0-4.07,3.3-7.37,7.37-7.37
			C129.078,342.567,132.378,345.867,132.378,349.937z M125.008,284.174c-4.07,0-7.37-3.3-7.37-7.37v-24.378
			c0-4.07,3.3-7.37,7.37-7.37c4.07,0,7.37,3.3,7.37,7.37v24.378C132.378,280.874,129.078,284.174,125.008,284.174z M125.008,235.418
			c-4.07,0-7.37-3.3-7.37-7.37V203.67c0-4.07,3.3-7.37,7.37-7.37c4.07,0,7.37,3.3,7.37,7.37v24.378
			C132.378,232.118,129.078,235.418,125.008,235.418z M125.008,186.662c-4.07,0-7.37-3.3-7.37-7.37v-24.378
			c0-4.07,3.3-7.37,7.37-7.37c4.07,0,7.37,3.3,7.37,7.37v24.378C132.378,183.362,129.078,186.662,125.008,186.662z M44.69,106.158
			c0-4.07,3.3-7.37,7.37-7.37c4.07,0,7.37,3.3,7.37,7.37v24.378c0,4.07-3.3,7.37-7.37,7.37c-4.07,0-7.37-3.3-7.37-7.37V106.158z
			 M44.691,81.78c0-4.07,3.3-7.37,7.37-7.37s7.37,3.3,7.37,7.37s-3.3,7.37-7.37,7.37S44.691,85.851,44.691,81.78z M20.312,130.536
			c0-4.07,3.3-7.37,7.37-7.37c4.07,0,7.37,3.3,7.37,7.37v24.378c0,4.07-3.3,7.37-7.37,7.37c-4.07,0-7.37-3.3-7.37-7.37V130.536z
			 M35.052,276.804c0,4.07-3.3,7.37-7.37,7.37c-4.07,0-7.37-3.3-7.37-7.37v-24.378c0-4.07,3.3-7.37,7.37-7.37
			c4.07,0,7.37,3.3,7.37,7.37V276.804z M35.053,228.048c0,4.07-3.3,7.37-7.37,7.37c-4.07,0-7.37-3.3-7.37-7.37v-48.756
			c0-4.07,3.3-7.37,7.37-7.37c4.07,0,7.37,3.3,7.37,7.37V228.048z M35.053,106.158c0,4.07-3.3,7.37-7.37,7.37
			c-4.07,0-7.37-3.3-7.37-7.37V57.402c0-4.07,3.3-7.37,7.37-7.37c4.07,0,7.37,3.3,7.37,7.37V106.158z M44.69,228.048
			c0-4.07,3.3-7.37,7.37-7.37c4.07,0,7.37,3.3,7.37,7.37v24.378c0,4.07-3.3,7.37-7.37,7.37c-4.07,0-7.37-3.3-7.37-7.37V228.048z
			 M44.691,203.67c0-4.07,3.3-7.37,7.37-7.37s7.37,3.3,7.37,7.37s-3.3,7.37-7.37,7.37S44.691,207.74,44.691,203.67z
			 M100.817,284.174c-0.163,0-0.322-0.014-0.483-0.024H52.544c-0.16,0.01-0.32,0.024-0.483,0.024s-0.322-0.014-0.483-0.024h-0.085
			v-0.004c-3.804-0.291-6.803-3.463-6.803-7.341s2.998-7.051,6.803-7.341v-0.029h0.566c0,0,0.001,0,0.001,0s0.001,0,0.001,0h48.753
			c0,0,0.001,0,0.001,0c4.07,0,7.37,3.3,7.37,7.37S104.887,284.174,100.817,284.174z M76.439,245.056h24.378
			c4.07,0,7.37,3.3,7.37,7.37c0,4.07-3.3,7.37-7.37,7.37H76.439c-4.07,0-7.37-3.3-7.37-7.37
			C69.068,248.355,72.368,245.056,76.439,245.056z M69.068,228.048V203.67c0-4.07,3.3-7.37,7.37-7.37c4.07,0,7.37,3.3,7.37,7.37
			v24.378c0,4.07-3.3,7.37-7.37,7.37C72.368,235.418,69.068,232.118,69.068,228.048z M108.187,228.048c0,4.07-3.3,7.37-7.37,7.37
			c-4.07,0-7.37-3.3-7.37-7.37V203.67c0-4.07,3.3-7.37,7.37-7.37c4.07,0,7.37,3.3,7.37,7.37V228.048z M100.817,186.662
			c-0.163,0-0.322-0.014-0.483-0.024H52.544c-0.16,0.01-0.32,0.024-0.483,0.024s-0.322-0.014-0.483-0.024h-0.085v-0.004
			c-3.804-0.291-6.803-3.463-6.803-7.341s2.998-7.051,6.803-7.341v-0.029h0.566c0,0,0.001,0,0.001,0s0.001,0,0.001,0h48.753
			c0,0,0.001,0,0.001,0c4.07,0,7.37,3.3,7.37,7.37S104.887,186.662,100.817,186.662z M100.817,162.284
			c-0.163,0-0.322-0.014-0.483-0.024H52.544c-0.16,0.01-0.32,0.024-0.483,0.024s-0.322-0.014-0.483-0.024h-0.085v-0.004
			c-3.804-0.291-6.803-3.463-6.803-7.341s2.998-7.051,6.803-7.341v-0.029h0.566c0,0,0.001,0,0.001,0s0.001,0,0.001,0h48.753
			c0,0,0.001,0,0.001,0c4.07,0,7.37,3.3,7.37,7.37S104.887,162.284,100.817,162.284z M76.439,123.166h24.378
			c4.07,0,7.37,3.3,7.37,7.37c0,4.07-3.3,7.37-7.37,7.37H76.439c-4.07,0-7.37-3.3-7.37-7.37
			C69.068,126.466,72.368,123.166,76.439,123.166z M69.068,106.158V81.78c0-4.07,3.3-7.37,7.37-7.37c4.07,0,7.37,3.3,7.37,7.37
			v24.378c0,4.07-3.3,7.37-7.37,7.37C72.368,113.528,69.068,110.229,69.068,106.158z M108.187,106.158c0,4.07-3.3,7.37-7.37,7.37
			c-4.07,0-7.37-3.3-7.37-7.37V81.78c0-4.07,3.3-7.37,7.37-7.37c4.07,0,7.37,3.3,7.37,7.37V106.158z M100.817,64.772
			c-0.163,0-0.322-0.014-0.483-0.024H52.544c-0.16,0.01-0.32,0.024-0.483,0.024s-0.322-0.014-0.483-0.024h-0.085v-0.004
			c-3.804-0.291-6.803-3.463-6.803-7.341s2.998-7.051,6.803-7.341v-0.029h0.566c0,0,0.001,0,0.001,0s0.001,0,0.001,0h48.753
			c0,0,0.001,0,0.001,0c4.07,0,7.37,3.3,7.37,7.37S104.887,64.772,100.817,64.772z M117.637,106.159c0-4.07,3.3-7.37,7.37-7.37
			c4.07,0,7.37,3.3,7.37,7.37v24.378c0,4.07-3.3,7.37-7.37,7.37c-4.07,0-7.37-3.3-7.37-7.37V106.159z M117.638,398.669
			c0-4.07,3.3-7.37,7.37-7.37c4.07,0,7.37,3.3,7.37,7.37v27.237c0,4.07-3.3,7.37-7.37,7.37c-4.07,0-7.37-3.3-7.37-7.37V398.669z
			 M176.315,469.844h-56.693v-15.591h56.693V469.844z M181.133,425.906c0,4.07-3.3,7.37-7.37,7.37c-4.07,0-7.37-3.3-7.37-7.37
			v-27.213c0-4.07,3.3-7.37,7.37-7.37c4.07,0,7.37,3.3,7.37,7.37V425.906z M173.764,381.685c-4.07,0-7.37-3.3-7.37-7.37
			c0-4.07,3.3-7.37,7.37-7.37s7.37,3.3,7.37,7.37C181.134,378.386,177.834,381.685,173.764,381.685z M190.771,425.931
			c0-4.07,3.3-7.37,7.37-7.37h48.569c4.07,0,7.37,3.3,7.37,7.37c0,4.07-3.3,7.37-7.37,7.37h-48.569
			C194.071,433.301,190.771,430.001,190.771,425.931z M298.205,469.844h-56.693v-15.591h56.693V469.844z M263.812,57.309
			c0-4.07,3.3-7.37,7.37-7.37h17.125c4.07,0,7.37,3.3,7.37,7.37c0,4.07-3.3,7.37-7.37,7.37h-9.755v17.195c0,4.07-3.3,7.37-7.37,7.37
			c-4.07,0-7.37-3.3-7.37-7.37V57.496c0-0.032,0.004-0.062,0.005-0.093C263.816,57.371,263.812,57.34,263.812,57.309z
			 M263.906,106.158c0-0.163,0.014-0.322,0.024-0.483v-0.085h0.004c0.291-3.804,3.463-6.803,7.341-6.803s7.051,2.998,7.341,6.803
			h0.029v0.566c0,0,0,0.001,0,0.001s0,0.001,0,0.001v48.753c0,0,0,0.001,0,0.001c0,4.07-3.3,7.37-7.37,7.37s-7.37-3.3-7.37-7.37
			c0-0.163,0.014-0.322,0.024-0.483v-47.791C263.919,106.481,263.906,106.321,263.906,106.158z M278.646,276.804
			c0,4.07-3.3,7.37-7.37,7.37s-7.37-3.3-7.37-7.37c0-0.163,0.014-0.322,0.024-0.483V228.53c-0.01-0.16-0.024-0.32-0.024-0.483
			s0.014-0.322,0.024-0.483v-0.085h0.004c0.291-3.804,3.463-6.803,7.341-6.803s7.051,2.998,7.341,6.803h0.029v0.566
			c0,0,0,0.001,0,0.001s0,0.001,0,0.001v48.753C278.646,276.803,278.646,276.803,278.646,276.804z M278.646,374.315
			c0,4.07-3.3,7.37-7.37,7.37s-7.37-3.3-7.37-7.37l0.024-72.651c-0.01-0.16-0.024-0.32-0.024-0.483s0.014-0.322,0.024-0.483v-0.085
			h0.004c0.291-3.804,3.463-6.803,7.341-6.803s7.051,2.998,7.341,6.803h0.029v0.566c0,0,0,0.001,0,0.001s0,0.001,0,0.001v48.753
			C278.646,349.937,278.646,374.315,278.646,374.315z M271.276,171.922c4.07,0,7.37,3.3,7.37,7.37v24.378c0,4.07-3.3,7.37-7.37,7.37
			c-4.07,0-7.37-3.3-7.37-7.37v-24.378C263.906,175.222,267.205,171.922,271.276,171.922z M271.276,391.323
			c4.07,0,7.37,3.3,7.37,7.37v19.867h9.661c4.07,0,7.37,3.3,7.37,7.37c0,4.07-3.3,7.37-7.37,7.37h-16.335
			c-0.118,0-0.233-0.012-0.349-0.018c-0.116,0.005-0.23,0.018-0.348,0.018c-4.07,0-7.37-3.3-7.37-7.37v-27.237
			C263.906,394.623,267.205,391.323,271.276,391.323z M298.205,29.055h-56.693V13.465h56.693V29.055z M332.221,411.454H316.63
			V269.721h15.591V411.454z M332.221,212.741H316.63V71.009h15.591V212.741z"/>
	</g>
</g>
</svg>
