<svg xmlns="http://www.w3.org/2000/svg" xml:space="preserve" viewBox="0 0 2200.395 2358.23"><path d="M1225.858 1060.315V635.118h-102.047v425.197zm-35.433-323.32c0-4.07 3.3-7.37 7.37-7.37s7.37 3.3 7.37 7.37v73.457c0 4.07-3.3 7.37-7.37 7.37s-7.37-3.3-7.37-7.37zm0 147.807c0-4.07 3.3-7.37 7.37-7.37s7.37 3.3 7.37 7.37v73.457c0 4.07-3.3 7.37-7.37 7.37s-7.37-3.3-7.37-7.37zm-37.462-192.084h19.552c4.07 0 7.37 3.3 7.37 7.37s-3.3 7.37-7.37 7.37h-19.552c-4.07 0-7.37-3.3-7.37-7.37s3.3-7.37 7.37-7.37m0 36.907h19.552c4.07 0 7.37 3.3 7.37 7.37s-3.3 7.37-7.37 7.37h-19.552c-4.07 0-7.37-3.3-7.37-7.37s3.3-7.37 7.37-7.37m0 36.907h19.552c4.07 0 7.37 3.3 7.37 7.37s-3.3 7.37-7.37 7.37h-19.552c-4.07 0-7.37-3.3-7.37-7.37s3.3-7.37 7.37-7.37m0 36.907h19.552c4.07 0 7.37 3.3 7.37 7.37s-3.3 7.37-7.37 7.37h-19.552c-4.07 0-7.37-3.3-7.37-7.37s3.3-7.37 7.37-7.37m0 36.907h19.552c4.07 0 7.37 3.3 7.37 7.37s-3.3 7.37-7.37 7.37h-19.552c-4.07 0-7.37-3.3-7.37-7.37s3.3-7.37 7.37-7.37m0 36.907h19.552c4.07 0 7.37 3.3 7.37 7.37s-3.3 7.37-7.37 7.37h-19.552c-4.07 0-7.37-3.3-7.37-7.37s3.3-7.37 7.37-7.37m0 36.908h19.552c4.07 0 7.37 3.3 7.37 7.37s-3.3 7.37-7.37 7.37h-19.552c-4.07 0-7.37-3.3-7.37-7.37 0-4.071 3.3-7.37 7.37-7.37m0 36.907h19.552c4.07 0 7.37 3.3 7.37 7.37s-3.3 7.37-7.37 7.37h-19.552c-4.07 0-7.37-3.3-7.37-7.37 0-4.071 3.3-7.37 7.37-7.37m0 36.907h19.552c4.07 0 7.37 3.3 7.37 7.37s-3.3 7.37-7.37 7.37h-19.552c-4.07 0-7.37-3.3-7.37-7.37 0-4.071 3.3-7.37 7.37-7.37" style="fill:#2e3192"/><path d="M1225.858 625.118h102.047V199.921h-204.094v425.197zm66.614-323.32c0-4.07 3.3-7.37 7.37-7.37s7.37 3.3 7.37 7.37v73.457c0 4.07-3.3 7.37-7.37 7.37s-7.37-3.3-7.37-7.37zm0 147.807c0-4.07 3.3-7.37 7.37-7.37s7.37 3.3 7.37 7.37v73.457c0 4.07-3.3 7.37-7.37 7.37s-7.37-3.3-7.37-7.37zm-140.599-192.084h122.688c4.07 0 7.37 3.3 7.37 7.37s-3.3 7.37-7.37 7.37h-122.688c-4.07 0-7.37-3.3-7.37-7.37s3.3-7.37 7.37-7.37m0 36.907h122.688c4.07 0 7.37 3.3 7.37 7.37s-3.3 7.37-7.37 7.37h-122.688c-4.07 0-7.37-3.3-7.37-7.37s3.3-7.37 7.37-7.37m0 36.907h122.688c4.07 0 7.37 3.3 7.37 7.37s-3.3 7.37-7.37 7.37h-122.688c-4.07 0-7.37-3.3-7.37-7.37s3.3-7.37 7.37-7.37m0 36.907h122.688c4.07 0 7.37 3.3 7.37 7.37s-3.3 7.37-7.37 7.37h-122.688c-4.07 0-7.37-3.3-7.37-7.37s3.3-7.37 7.37-7.37m0 36.907h122.688c4.07 0 7.37 3.3 7.37 7.37s-3.3 7.37-7.37 7.37h-122.688c-4.07 0-7.37-3.3-7.37-7.37s3.3-7.37 7.37-7.37m0 36.907h122.688c4.07 0 7.37 3.3 7.37 7.37s-3.3 7.37-7.37 7.37h-122.688c-4.07 0-7.37-3.3-7.37-7.37s3.3-7.37 7.37-7.37m0 36.907h122.688c4.07 0 7.37 3.3 7.37 7.37s-3.3 7.37-7.37 7.37h-122.688c-4.07 0-7.37-3.3-7.37-7.37s3.3-7.37 7.37-7.37m0 36.907h122.688c4.07 0 7.37 3.3 7.37 7.37s-3.3 7.37-7.37 7.37h-122.688c-4.07 0-7.37-3.3-7.37-7.37s3.3-7.37 7.37-7.37m0 36.908h122.688c4.07 0 7.37 3.3 7.37 7.37s-3.3 7.37-7.37 7.37h-122.688c-4.07 0-7.37-3.3-7.37-7.37 0-4.071 3.3-7.37 7.37-7.37" style="fill:#00aeef"/><path d="M204.094 1060.315V635.118H102.047v425.197zM155.39 692.718h19.552c4.07 0 7.37 3.3 7.37 7.37s-3.3 7.37-7.37 7.37H155.39c-4.07 0-7.37-3.3-7.37-7.37s3.3-7.37 7.37-7.37m0 36.907h19.552c4.07 0 7.37 3.3 7.37 7.37s-3.3 7.37-7.37 7.37H155.39c-4.07 0-7.37-3.3-7.37-7.37s3.3-7.37 7.37-7.37m0 36.907h19.552c4.07 0 7.37 3.3 7.37 7.37s-3.3 7.37-7.37 7.37H155.39c-4.07 0-7.37-3.3-7.37-7.37s3.3-7.37 7.37-7.37m0 36.907h19.552c4.07 0 7.37 3.3 7.37 7.37s-3.3 7.37-7.37 7.37H155.39c-4.07 0-7.37-3.3-7.37-7.37s3.3-7.37 7.37-7.37m0 36.907h19.552c4.07 0 7.37 3.3 7.37 7.37s-3.3 7.37-7.37 7.37H155.39c-4.07 0-7.37-3.3-7.37-7.37s3.3-7.37 7.37-7.37m0 36.907h19.552c4.07 0 7.37 3.3 7.37 7.37s-3.3 7.37-7.37 7.37H155.39c-4.07 0-7.37-3.3-7.37-7.37s3.3-7.37 7.37-7.37m0 36.908h19.552c4.07 0 7.37 3.3 7.37 7.37s-3.3 7.37-7.37 7.37H155.39c-4.07 0-7.37-3.3-7.37-7.37 0-4.071 3.3-7.37 7.37-7.37m0 36.907h19.552c4.07 0 7.37 3.3 7.37 7.37s-3.3 7.37-7.37 7.37H155.39c-4.07 0-7.37-3.3-7.37-7.37 0-4.071 3.3-7.37 7.37-7.37m0 36.907h19.552c4.07 0 7.37 3.3 7.37 7.37s-3.3 7.37-7.37 7.37H155.39c-4.07 0-7.37-3.3-7.37-7.37 0-4.071 3.3-7.37 7.37-7.37m-32.651-250.98c0-4.07 3.3-7.37 7.37-7.37s7.37 3.3 7.37 7.37v73.457c0 4.07-3.3 7.37-7.37 7.37s-7.37-3.3-7.37-7.37zm0 147.807c0-4.07 3.3-7.37 7.37-7.37s7.37 3.3 7.37 7.37v73.457c0 4.07-3.3 7.37-7.37 7.37s-7.37-3.3-7.37-7.37z"/><path d="M102.047 625.118h102.047V199.921H0v425.197zM53.343 257.521h122.688c4.07 0 7.37 3.3 7.37 7.37s-3.3 7.37-7.37 7.37H53.343c-4.07 0-7.37-3.3-7.37-7.37s3.3-7.37 7.37-7.37m0 36.907h122.688c4.07 0 7.37 3.3 7.37 7.37s-3.3 7.37-7.37 7.37H53.343c-4.07 0-7.37-3.3-7.37-7.37s3.3-7.37 7.37-7.37m0 36.907h122.688c4.07 0 7.37 3.3 7.37 7.37s-3.3 7.37-7.37 7.37H53.343c-4.07 0-7.37-3.3-7.37-7.37s3.3-7.37 7.37-7.37m0 36.907h122.688c4.07 0 7.37 3.3 7.37 7.37s-3.3 7.37-7.37 7.37H53.343c-4.07 0-7.37-3.3-7.37-7.37s3.3-7.37 7.37-7.37m0 36.907h122.688c4.07 0 7.37 3.3 7.37 7.37s-3.3 7.37-7.37 7.37H53.343c-4.07 0-7.37-3.3-7.37-7.37s3.3-7.37 7.37-7.37m0 36.907h122.688c4.07 0 7.37 3.3 7.37 7.37s-3.3 7.37-7.37 7.37H53.343c-4.07 0-7.37-3.3-7.37-7.37s3.3-7.37 7.37-7.37m0 36.907h122.688c4.07 0 7.37 3.3 7.37 7.37s-3.3 7.37-7.37 7.37H53.343c-4.07 0-7.37-3.3-7.37-7.37s3.3-7.37 7.37-7.37m0 36.907h122.688c4.07 0 7.37 3.3 7.37 7.37s-3.3 7.37-7.37 7.37H53.343c-4.07 0-7.37-3.3-7.37-7.37s3.3-7.37 7.37-7.37m0 36.908h122.688c4.07 0 7.37 3.3 7.37 7.37s-3.3 7.37-7.37 7.37H53.343c-4.07 0-7.37-3.3-7.37-7.37 0-4.071 3.3-7.37 7.37-7.37m-32.651-250.98c0-4.07 3.3-7.37 7.37-7.37s7.37 3.3 7.37 7.37v73.457c0 4.07-3.3 7.37-7.37 7.37s-7.37-3.3-7.37-7.37zm0 147.807c0-4.07 3.3-7.37 7.37-7.37s7.37 3.3 7.37 7.37v73.457c0 4.07-3.3 7.37-7.37 7.37s-7.37-3.3-7.37-7.37z" style="fill:#00a99d"/><path d="M214.094 0v204.094h899.717V0zm123.629 161.858c0 4.07-3.3 7.37-7.37 7.37s-7.37-3.3-7.37-7.37v-16.441c0-4.07 3.3-7.37 7.37-7.37s7.37 3.3 7.37 7.37zm166.799 0c0 4.07-3.3 7.37-7.37 7.37s-7.37-3.3-7.37-7.37v-16.441c0-4.07 3.3-7.37 7.37-7.37s7.37 3.3 7.37 7.37zm166.799 0c0 4.07-3.3 7.37-7.37 7.37s-7.37-3.3-7.37-7.37v-16.441c0-4.07 3.3-7.37 7.37-7.37s7.37 3.3 7.37 7.37zm166.799 0c0 4.07-3.3 7.37-7.37 7.37s-7.37-3.3-7.37-7.37v-16.441c0-4.07 3.3-7.37 7.37-7.37s7.37 3.3 7.37 7.37zm166.799 0c0 4.07-3.3 7.37-7.37 7.37s-7.37-3.3-7.37-7.37v-16.441c0-4.07 3.3-7.37 7.37-7.37s7.37 3.3 7.37 7.37z" style="fill:#ef4136"/><path d="M214.094 1056.142v102.047h899.717v-102.047zm123.633 58.677c0 4.07-3.3 7.37-7.37 7.37s-7.37-3.3-7.37-7.37v-16.441c0-4.07 3.3-7.37 7.37-7.37s7.37 3.3 7.37 7.37zm166.799 0c0 4.07-3.3 7.37-7.37 7.37s-7.37-3.3-7.37-7.37v-16.441c0-4.07 3.3-7.37 7.37-7.37s7.37 3.3 7.37 7.37zm166.798 0c0 4.07-3.3 7.37-7.37 7.37s-7.37-3.3-7.37-7.37v-16.441c0-4.07 3.3-7.37 7.37-7.37s7.37 3.3 7.37 7.37zm166.799 0c0 4.07-3.3 7.37-7.37 7.37s-7.37-3.3-7.37-7.37v-16.441c0-4.07 3.3-7.37 7.37-7.37s7.37 3.3 7.37 7.37zm166.799 0c0 4.07-3.3 7.37-7.37 7.37s-7.37-3.3-7.37-7.37v-16.441c0-4.07 3.3-7.37 7.37-7.37s7.37 3.3 7.37 7.37z" style="fill:#00a651"/><path d="M214.094 635.118v411.024h899.717V635.118zm44.504 330.69h-16.441c-4.07 0-7.37-3.3-7.37-7.37s3.3-7.37 7.37-7.37h16.441c4.07 0 7.37 3.3 7.37 7.37.001 4.07-3.299 7.37-7.37 7.37m0-221.443h-16.441c-4.07 0-7.37-3.3-7.37-7.37s3.3-7.37 7.37-7.37h16.441c4.07 0 7.37 3.3 7.37 7.37.001 4.071-3.299 7.37-7.37 7.37m79.129 273.714c0 4.07-3.3 7.37-7.37 7.37s-7.37-3.3-7.37-7.37v-16.441c0-4.07 3.3-7.37 7.37-7.37s7.37 3.3 7.37 7.37zm166.799 0c0 4.07-3.3 7.37-7.37 7.37s-7.37-3.3-7.37-7.37v-16.441c0-4.07 3.3-7.37 7.37-7.37s7.37 3.3 7.37 7.37zm166.798 0c0 4.07-3.3 7.37-7.37 7.37s-7.37-3.3-7.37-7.37v-16.441c0-4.07 3.3-7.37 7.37-7.37s7.37 3.3 7.37 7.37zm166.799 0c0 4.07-3.3 7.37-7.37 7.37s-7.37-3.3-7.37-7.37v-16.441c0-4.07 3.3-7.37 7.37-7.37s7.37 3.3 7.37 7.37zm166.799 0c0 4.07-3.3 7.37-7.37 7.37s-7.37-3.3-7.37-7.37v-16.441c0-4.07 3.3-7.37 7.37-7.37s7.37 3.3 7.37 7.37zm80.823-52.271h-16.441c-4.07 0-7.37-3.3-7.37-7.37s3.3-7.37 7.37-7.37h16.441c4.07 0 7.37 3.3 7.37 7.37s-3.3 7.37-7.37 7.37m0-221.443h-16.441c-4.07 0-7.37-3.3-7.37-7.37s3.3-7.37 7.37-7.37h16.441c4.07 0 7.37 3.3 7.37 7.37 0 4.071-3.3 7.37-7.37 7.37" style="fill:#fff200"/><path d="M214.094 214.094v411.024h899.717V214.094zm44.508 316.517h-16.441c-4.07 0-7.37-3.3-7.37-7.37s3.3-7.37 7.37-7.37h16.441c4.07 0 7.37 3.3 7.37 7.37s-3.3 7.37-7.37 7.37m0-221.442h-16.441c-4.07 0-7.37-3.3-7.37-7.37s3.3-7.37 7.37-7.37h16.441c4.07 0 7.37 3.3 7.37 7.37s-3.3 7.37-7.37 7.37m79.121-50.571c0 4.07-3.3 7.37-7.37 7.37s-7.37-3.3-7.37-7.37v-16.441c0-4.07 3.3-7.37 7.37-7.37s7.37 3.3 7.37 7.37zm166.799 0c0 4.07-3.3 7.37-7.37 7.37s-7.37-3.3-7.37-7.37v-16.441c0-4.07 3.3-7.37 7.37-7.37s7.37 3.3 7.37 7.37zm166.799 0c0 4.07-3.3 7.37-7.37 7.37s-7.37-3.3-7.37-7.37v-16.441c0-4.07 3.3-7.37 7.37-7.37s7.37 3.3 7.37 7.37zm166.799 0c0 4.07-3.3 7.37-7.37 7.37s-7.37-3.3-7.37-7.37v-16.441c0-4.07 3.3-7.37 7.37-7.37s7.37 3.3 7.37 7.37zm166.799 0c0 4.07-3.3 7.37-7.37 7.37s-7.37-3.3-7.37-7.37v-16.441c0-4.07 3.3-7.37 7.37-7.37s7.37 3.3 7.37 7.37zm80.829 272.013h-16.441c-4.07 0-7.37-3.3-7.37-7.37s3.3-7.37 7.37-7.37h16.441c4.07 0 7.37 3.3 7.37 7.37s-3.3 7.37-7.37 7.37m0-221.442h-16.441c-4.07 0-7.37-3.3-7.37-7.37s3.3-7.37 7.37-7.37h16.441c4.07 0 7.37 3.3 7.37 7.37s-3.3 7.37-7.37 7.37" style="fill:#ed1c24"/><path d="M676.15 1388.702v822.047h449.858v-822.047zm58.397 793.985c0 4.07-3.3 7.37-7.37 7.37s-7.37-3.3-7.37-7.37v-16.441c0-4.07 3.3-7.37 7.37-7.37s7.37 3.3 7.37 7.37zm0-749.481c0 4.07-3.3 7.37-7.37 7.37s-7.37-3.3-7.37-7.37v-16.441c0-4.07 3.3-7.37 7.37-7.37s7.37 3.3 7.37 7.37zm282.572 749.481c0 4.07-3.3 7.37-7.37 7.37s-7.37-3.3-7.37-7.37v-16.441c0-4.07 3.3-7.37 7.37-7.37s7.37 3.3 7.37 7.37zm0-749.481c0 4.07-3.3 7.37-7.37 7.37s-7.37-3.3-7.37-7.37v-16.441c0-4.07 3.3-7.37 7.37-7.37s7.37 3.3 7.37 7.37zm80.823 738.142h-16.441c-4.07 0-7.37-3.3-7.37-7.37 0-4.071 3.3-7.37 7.37-7.37h16.441c4.07 0 7.37 3.3 7.37 7.37s-3.3 7.37-7.37 7.37m.003-728.504h-16.441c-4.07 0-7.37-3.3-7.37-7.37s3.3-7.37 7.37-7.37h16.441c4.07 0 7.37 3.3 7.37 7.37s-3.299 7.37-7.37 7.37" style="fill:#939598"/><path d="M216.292 1388.702v822.047H666.15v-822.047zm44.504 782.646h-16.441c-4.07 0-7.37-3.3-7.37-7.37 0-4.071 3.3-7.37 7.37-7.37h16.441c4.07 0 7.37 3.3 7.37 7.37s-3.3 7.37-7.37 7.37m.003-728.504h-16.441c-4.07 0-7.37-3.3-7.37-7.37s3.3-7.37 7.37-7.37h16.441c4.07 0 7.37 3.3 7.37 7.37s-3.3 7.37-7.37 7.37m79.122 739.843c0 4.07-3.3 7.37-7.37 7.37s-7.37-3.3-7.37-7.37v-16.441c0-4.07 3.3-7.37 7.37-7.37s7.37 3.3 7.37 7.37zm0-749.481c0 4.07-3.3 7.37-7.37 7.37s-7.37-3.3-7.37-7.37v-16.441c0-4.07 3.3-7.37 7.37-7.37s7.37 3.3 7.37 7.37zm282.572 749.481c0 4.07-3.3 7.37-7.37 7.37s-7.37-3.3-7.37-7.37v-16.441c0-4.07 3.3-7.37 7.37-7.37s7.37 3.3 7.37 7.37zm0-749.481c0 4.07-3.3 7.37-7.37 7.37s-7.37-3.3-7.37-7.37v-16.441c0-4.07 3.3-7.37 7.37-7.37s7.37 3.3 7.37 7.37z" style="fill:#a7a9ac"/><path d="M1141.008 1374.529v850.394h116.22v-850.394zm58.679 796.819h-16.441c-4.07 0-7.37-3.3-7.37-7.37 0-4.071 3.3-7.37 7.37-7.37h16.441c4.07 0 7.37 3.3 7.37 7.37s-3.299 7.37-7.37 7.37m0-728.504h-16.441c-4.07 0-7.37-3.3-7.37-7.37s3.3-7.37 7.37-7.37h16.441c4.07 0 7.37 3.3 7.37 7.37s-3.299 7.37-7.37 7.37" style="fill:#808285"/><path d="M85.42 1374.529v850.394h116.22v-850.394zm73.983 796.819h-16.441c-4.07 0-7.37-3.3-7.37-7.37 0-4.071 3.3-7.37 7.37-7.37h16.441c4.07 0 7.37 3.3 7.37 7.37s-3.3 7.37-7.37 7.37m0-728.504h-16.441c-4.07 0-7.37-3.3-7.37-7.37s3.3-7.37 7.37-7.37h16.441c4.07 0 7.37 3.3 7.37 7.37s-3.3 7.37-7.37 7.37" style="fill:#662d91"/><path d="M221.292 2220.75v137.48h899.717v-137.48zm123.632 58.677c0 4.07-3.3 7.37-7.37 7.37s-7.37-3.3-7.37-7.37v-16.441c0-4.07 3.3-7.37 7.37-7.37s7.37 3.3 7.37 7.37zm282.572 0c0 4.07-3.3 7.37-7.37 7.37s-7.37-3.3-7.37-7.37v-16.441c0-4.07 3.3-7.37 7.37-7.37s7.37 3.3 7.37 7.37zm102.051 0c0 4.07-3.3 7.37-7.37 7.37s-7.37-3.3-7.37-7.37v-16.441c0-4.07 3.3-7.37 7.37-7.37s7.37 3.3 7.37 7.37zm282.572 0c0 4.07-3.3 7.37-7.37 7.37s-7.37-3.3-7.37-7.37v-16.441c0-4.07 3.3-7.37 7.37-7.37s7.37 3.3 7.37 7.37z" style="fill:#58595b"/><path d="M221.292 1241.222v137.48h899.717v-137.48zm123.629 95.244c0 4.07-3.3 7.37-7.37 7.37s-7.37-3.3-7.37-7.37v-16.441c0-4.07 3.3-7.37 7.37-7.37s7.37 3.3 7.37 7.37zm282.572 0c0 4.07-3.3 7.37-7.37 7.37s-7.37-3.3-7.37-7.37v-16.441c0-4.07 3.3-7.37 7.37-7.37s7.37 3.3 7.37 7.37zm102.051 0c0 4.07-3.3 7.37-7.37 7.37s-7.37-3.3-7.37-7.37v-16.441c0-4.07 3.3-7.37 7.37-7.37s7.37 3.3 7.37 7.37zm282.572 0c0 4.07-3.3 7.37-7.37 7.37s-7.37-3.3-7.37-7.37v-16.441c0-4.07 3.3-7.37 7.37-7.37s7.37 3.3 7.37 7.37z" style="fill:#a97c50"/><path d="M1444.88 1339.946v170.079h85.039v-85.039h85.039v85.039h415.358v-85.039h85.039v85.039h85.04v-170.079z" style="fill:#e179dd"/><path d="M1444.88 1658.613v170.078h85.039v-85.039h85.039v85.039h415.358v-85.039h85.039v85.039h85.04v-170.078z" style="fill:#e1d57f"/><path d="m1635.139 356.52 11.485 46.323 8.98 36.217-13.757 3.411-8.98-36.217-11.485-46.323-.843-3.401-29.151.219 102.324 412.701-57.78 14.326 20.465 82.54-13.756 3.411-20.465-82.541-27.512 6.822 102.324 412.7 22.677-.169-6.374-850.704-22.676.17-55.501.416z" style="fill:#ec008c"/><path d="m2007.764 355.356-10.886 46.467-8.512 36.33 13.8 3.233 8.511-36.33 10.886-46.467.8-3.412 29.15-.158-96.984 413.988 57.961 13.579-19.397 82.797 13.799 3.233 19.397-82.798 27.598 6.465-96.985 413.989-22.676.123-4.618-850.715 22.677-.123 55.502-.301z" style="fill:#9e1f63"/></svg>