<svg xmlns="http://www.w3.org/2000/svg" xml:space="preserve" viewBox="0 0 1327.905 2358.23"><path d="M1225.858 625.118h102.047V199.921h-204.094v425.197zm66.614-323.32c0-4.07 3.3-7.37 7.37-7.37s7.37 3.3 7.37 7.37v73.457c0 4.07-3.3 7.37-7.37 7.37s-7.37-3.3-7.37-7.37zm0 147.807c0-4.07 3.3-7.37 7.37-7.37s7.37 3.3 7.37 7.37v73.457c0 4.07-3.3 7.37-7.37 7.37s-7.37-3.3-7.37-7.37zm-140.599-192.084h122.688c4.07 0 7.37 3.3 7.37 7.37s-3.3 7.37-7.37 7.37h-122.688c-4.07 0-7.37-3.3-7.37-7.37s3.3-7.37 7.37-7.37m0 36.907h122.688c4.07 0 7.37 3.3 7.37 7.37s-3.3 7.37-7.37 7.37h-122.688c-4.07 0-7.37-3.3-7.37-7.37s3.3-7.37 7.37-7.37m0 36.907h122.688c4.07 0 7.37 3.3 7.37 7.37s-3.3 7.37-7.37 7.37h-122.688c-4.07 0-7.37-3.3-7.37-7.37s3.3-7.37 7.37-7.37m0 36.907h122.688c4.07 0 7.37 3.3 7.37 7.37s-3.3 7.37-7.37 7.37h-122.688c-4.07 0-7.37-3.3-7.37-7.37s3.3-7.37 7.37-7.37m0 36.907h122.688c4.07 0 7.37 3.3 7.37 7.37s-3.3 7.37-7.37 7.37h-122.688c-4.07 0-7.37-3.3-7.37-7.37s3.3-7.37 7.37-7.37m0 36.907h122.688c4.07 0 7.37 3.3 7.37 7.37s-3.3 7.37-7.37 7.37h-122.688c-4.07 0-7.37-3.3-7.37-7.37s3.3-7.37 7.37-7.37m0 36.907h122.688c4.07 0 7.37 3.3 7.37 7.37s-3.3 7.37-7.37 7.37h-122.688c-4.07 0-7.37-3.3-7.37-7.37s3.3-7.37 7.37-7.37m0 36.907h122.688c4.07 0 7.37 3.3 7.37 7.37s-3.3 7.37-7.37 7.37h-122.688c-4.07 0-7.37-3.3-7.37-7.37s3.3-7.37 7.37-7.37m0 36.908h122.688c4.07 0 7.37 3.3 7.37 7.37s-3.3 7.37-7.37 7.37h-122.688c-4.07 0-7.37-3.3-7.37-7.37 0-4.071 3.3-7.37 7.37-7.37" style="fill:#00aeef"/><path d="M102.047 625.118h102.047V199.921H0v425.197zM53.343 257.521h122.688c4.07 0 7.37 3.3 7.37 7.37s-3.3 7.37-7.37 7.37H53.343c-4.07 0-7.37-3.3-7.37-7.37s3.3-7.37 7.37-7.37m0 36.907h122.688c4.07 0 7.37 3.3 7.37 7.37s-3.3 7.37-7.37 7.37H53.343c-4.07 0-7.37-3.3-7.37-7.37s3.3-7.37 7.37-7.37m0 36.907h122.688c4.07 0 7.37 3.3 7.37 7.37s-3.3 7.37-7.37 7.37H53.343c-4.07 0-7.37-3.3-7.37-7.37s3.3-7.37 7.37-7.37m0 36.907h122.688c4.07 0 7.37 3.3 7.37 7.37s-3.3 7.37-7.37 7.37H53.343c-4.07 0-7.37-3.3-7.37-7.37s3.3-7.37 7.37-7.37m0 36.907h122.688c4.07 0 7.37 3.3 7.37 7.37s-3.3 7.37-7.37 7.37H53.343c-4.07 0-7.37-3.3-7.37-7.37s3.3-7.37 7.37-7.37m0 36.907h122.688c4.07 0 7.37 3.3 7.37 7.37s-3.3 7.37-7.37 7.37H53.343c-4.07 0-7.37-3.3-7.37-7.37s3.3-7.37 7.37-7.37m0 36.907h122.688c4.07 0 7.37 3.3 7.37 7.37s-3.3 7.37-7.37 7.37H53.343c-4.07 0-7.37-3.3-7.37-7.37s3.3-7.37 7.37-7.37m0 36.907h122.688c4.07 0 7.37 3.3 7.37 7.37s-3.3 7.37-7.37 7.37H53.343c-4.07 0-7.37-3.3-7.37-7.37s3.3-7.37 7.37-7.37m0 36.908h122.688c4.07 0 7.37 3.3 7.37 7.37s-3.3 7.37-7.37 7.37H53.343c-4.07 0-7.37-3.3-7.37-7.37 0-4.071 3.3-7.37 7.37-7.37m-32.651-250.98c0-4.07 3.3-7.37 7.37-7.37s7.37 3.3 7.37 7.37v73.457c0 4.07-3.3 7.37-7.37 7.37s-7.37-3.3-7.37-7.37zm0 147.807c0-4.07 3.3-7.37 7.37-7.37s7.37 3.3 7.37 7.37v73.457c0 4.07-3.3 7.37-7.37 7.37s-7.37-3.3-7.37-7.37z" style="fill:#00a99d"/><path d="M1225.858 1060.314h102.047V635.117h-204.094v425.197zm66.614-323.32c0-4.07 3.3-7.37 7.37-7.37s7.37 3.3 7.37 7.37v73.457c0 4.07-3.3 7.37-7.37 7.37s-7.37-3.3-7.37-7.37zm0 147.807c0-4.07 3.3-7.37 7.37-7.37s7.37 3.3 7.37 7.37v73.457c0 4.07-3.3 7.37-7.37 7.37s-7.37-3.3-7.37-7.37zm-140.599-192.084h122.688c4.07 0 7.37 3.3 7.37 7.37s-3.3 7.37-7.37 7.37h-122.688c-4.07 0-7.37-3.3-7.37-7.37s3.3-7.37 7.37-7.37m0 36.907h122.688c4.07 0 7.37 3.3 7.37 7.37s-3.3 7.37-7.37 7.37h-122.688c-4.07 0-7.37-3.3-7.37-7.37s3.3-7.37 7.37-7.37m0 36.907h122.688c4.07 0 7.37 3.3 7.37 7.37s-3.3 7.37-7.37 7.37h-122.688c-4.07 0-7.37-3.3-7.37-7.37s3.3-7.37 7.37-7.37m0 36.907h122.688c4.07 0 7.37 3.3 7.37 7.37s-3.3 7.37-7.37 7.37h-122.688c-4.07 0-7.37-3.3-7.37-7.37s3.3-7.37 7.37-7.37m0 36.907h122.688c4.07 0 7.37 3.3 7.37 7.37s-3.3 7.37-7.37 7.37h-122.688c-4.07 0-7.37-3.3-7.37-7.37s3.3-7.37 7.37-7.37m0 36.907h122.688c4.07 0 7.37 3.3 7.37 7.37s-3.3 7.37-7.37 7.37h-122.688c-4.07 0-7.37-3.3-7.37-7.37s3.3-7.37 7.37-7.37m0 36.907h122.688c4.07 0 7.37 3.3 7.37 7.37s-3.3 7.37-7.37 7.37h-122.688c-4.07 0-7.37-3.3-7.37-7.37s3.3-7.37 7.37-7.37m0 36.907h122.688c4.07 0 7.37 3.3 7.37 7.37s-3.3 7.37-7.37 7.37h-122.688c-4.07 0-7.37-3.3-7.37-7.37s3.3-7.37 7.37-7.37m0 36.908h122.688c4.07 0 7.37 3.3 7.37 7.37s-3.3 7.37-7.37 7.37h-122.688c-4.07 0-7.37-3.3-7.37-7.37 0-4.071 3.3-7.37 7.37-7.37" style="fill:#2e3192"/><path d="M102.047 1060.314h102.047V635.117H0v425.197zM53.343 692.717h122.688c4.07 0 7.37 3.3 7.37 7.37s-3.3 7.37-7.37 7.37H53.343c-4.07 0-7.37-3.3-7.37-7.37s3.3-7.37 7.37-7.37m0 36.907h122.688c4.07 0 7.37 3.3 7.37 7.37s-3.3 7.37-7.37 7.37H53.343c-4.07 0-7.37-3.3-7.37-7.37s3.3-7.37 7.37-7.37m0 36.907h122.688c4.07 0 7.37 3.3 7.37 7.37s-3.3 7.37-7.37 7.37H53.343c-4.07 0-7.37-3.3-7.37-7.37s3.3-7.37 7.37-7.37m0 36.907h122.688c4.07 0 7.37 3.3 7.37 7.37s-3.3 7.37-7.37 7.37H53.343c-4.07 0-7.37-3.3-7.37-7.37s3.3-7.37 7.37-7.37m0 36.907h122.688c4.07 0 7.37 3.3 7.37 7.37s-3.3 7.37-7.37 7.37H53.343c-4.07 0-7.37-3.3-7.37-7.37s3.3-7.37 7.37-7.37m0 36.907h122.688c4.07 0 7.37 3.3 7.37 7.37s-3.3 7.37-7.37 7.37H53.343c-4.07 0-7.37-3.3-7.37-7.37s3.3-7.37 7.37-7.37m0 36.907h122.688c4.07 0 7.37 3.3 7.37 7.37s-3.3 7.37-7.37 7.37H53.343c-4.07 0-7.37-3.3-7.37-7.37s3.3-7.37 7.37-7.37m0 36.907h122.688c4.07 0 7.37 3.3 7.37 7.37s-3.3 7.37-7.37 7.37H53.343c-4.07 0-7.37-3.3-7.37-7.37s3.3-7.37 7.37-7.37m0 36.908h122.688c4.07 0 7.37 3.3 7.37 7.37s-3.3 7.37-7.37 7.37H53.343c-4.07 0-7.37-3.3-7.37-7.37 0-4.071 3.3-7.37 7.37-7.37m-32.651-250.98c0-4.07 3.3-7.37 7.37-7.37s7.37 3.3 7.37 7.37v73.457c0 4.07-3.3 7.37-7.37 7.37s-7.37-3.3-7.37-7.37zm0 147.807c0-4.07 3.3-7.37 7.37-7.37s7.37 3.3 7.37 7.37v73.457c0 4.07-3.3 7.37-7.37 7.37s-7.37-3.3-7.37-7.37z"/><path d="M214.094 0v204.094h899.717V0zm123.629 161.858c0 4.07-3.3 7.37-7.37 7.37s-7.37-3.3-7.37-7.37v-16.441c0-4.07 3.3-7.37 7.37-7.37s7.37 3.3 7.37 7.37zm166.799 0c0 4.07-3.3 7.37-7.37 7.37s-7.37-3.3-7.37-7.37v-16.441c0-4.07 3.3-7.37 7.37-7.37s7.37 3.3 7.37 7.37zm166.799 0c0 4.07-3.3 7.37-7.37 7.37s-7.37-3.3-7.37-7.37v-16.441c0-4.07 3.3-7.37 7.37-7.37s7.37 3.3 7.37 7.37zm166.799 0c0 4.07-3.3 7.37-7.37 7.37s-7.37-3.3-7.37-7.37v-16.441c0-4.07 3.3-7.37 7.37-7.37s7.37 3.3 7.37 7.37zm166.799 0c0 4.07-3.3 7.37-7.37 7.37s-7.37-3.3-7.37-7.37v-16.441c0-4.07 3.3-7.37 7.37-7.37s7.37 3.3 7.37 7.37z" style="fill:#ef4136"/><path d="M214.094 1056.142v102.047h899.717v-102.047zm123.633 58.677c0 4.07-3.3 7.37-7.37 7.37s-7.37-3.3-7.37-7.37v-16.441c0-4.07 3.3-7.37 7.37-7.37s7.37 3.3 7.37 7.37zm166.799 0c0 4.07-3.3 7.37-7.37 7.37s-7.37-3.3-7.37-7.37v-16.441c0-4.07 3.3-7.37 7.37-7.37s7.37 3.3 7.37 7.37zm166.798 0c0 4.07-3.3 7.37-7.37 7.37s-7.37-3.3-7.37-7.37v-16.441c0-4.07 3.3-7.37 7.37-7.37s7.37 3.3 7.37 7.37zm166.799 0c0 4.07-3.3 7.37-7.37 7.37s-7.37-3.3-7.37-7.37v-16.441c0-4.07 3.3-7.37 7.37-7.37s7.37 3.3 7.37 7.37zm166.799 0c0 4.07-3.3 7.37-7.37 7.37s-7.37-3.3-7.37-7.37v-16.441c0-4.07 3.3-7.37 7.37-7.37s7.37 3.3 7.37 7.37z" style="fill:#00a651"/><path d="M214.094 635.118v411.024h899.717V635.118zm44.504 330.69h-16.441c-4.07 0-7.37-3.3-7.37-7.37s3.3-7.37 7.37-7.37h16.441c4.07 0 7.37 3.3 7.37 7.37.001 4.07-3.299 7.37-7.37 7.37m0-221.443h-16.441c-4.07 0-7.37-3.3-7.37-7.37s3.3-7.37 7.37-7.37h16.441c4.07 0 7.37 3.3 7.37 7.37.001 4.071-3.299 7.37-7.37 7.37m79.129 273.714c0 4.07-3.3 7.37-7.37 7.37s-7.37-3.3-7.37-7.37v-16.441c0-4.07 3.3-7.37 7.37-7.37s7.37 3.3 7.37 7.37zm166.799 0c0 4.07-3.3 7.37-7.37 7.37s-7.37-3.3-7.37-7.37v-16.441c0-4.07 3.3-7.37 7.37-7.37s7.37 3.3 7.37 7.37zm166.798 0c0 4.07-3.3 7.37-7.37 7.37s-7.37-3.3-7.37-7.37v-16.441c0-4.07 3.3-7.37 7.37-7.37s7.37 3.3 7.37 7.37zm166.799 0c0 4.07-3.3 7.37-7.37 7.37s-7.37-3.3-7.37-7.37v-16.441c0-4.07 3.3-7.37 7.37-7.37s7.37 3.3 7.37 7.37zm166.799 0c0 4.07-3.3 7.37-7.37 7.37s-7.37-3.3-7.37-7.37v-16.441c0-4.07 3.3-7.37 7.37-7.37s7.37 3.3 7.37 7.37zm80.823-52.271h-16.441c-4.07 0-7.37-3.3-7.37-7.37s3.3-7.37 7.37-7.37h16.441c4.07 0 7.37 3.3 7.37 7.37s-3.3 7.37-7.37 7.37m0-221.443h-16.441c-4.07 0-7.37-3.3-7.37-7.37s3.3-7.37 7.37-7.37h16.441c4.07 0 7.37 3.3 7.37 7.37 0 4.071-3.3 7.37-7.37 7.37" style="fill:#fff200"/><path d="M214.094 214.094v411.024h899.717V214.094zm44.508 316.517h-16.441c-4.07 0-7.37-3.3-7.37-7.37s3.3-7.37 7.37-7.37h16.441c4.07 0 7.37 3.3 7.37 7.37s-3.3 7.37-7.37 7.37m0-221.442h-16.441c-4.07 0-7.37-3.3-7.37-7.37s3.3-7.37 7.37-7.37h16.441c4.07 0 7.37 3.3 7.37 7.37s-3.3 7.37-7.37 7.37m79.121-50.571c0 4.07-3.3 7.37-7.37 7.37s-7.37-3.3-7.37-7.37v-16.441c0-4.07 3.3-7.37 7.37-7.37s7.37 3.3 7.37 7.37zm166.799 0c0 4.07-3.3 7.37-7.37 7.37s-7.37-3.3-7.37-7.37v-16.441c0-4.07 3.3-7.37 7.37-7.37s7.37 3.3 7.37 7.37zm166.799 0c0 4.07-3.3 7.37-7.37 7.37s-7.37-3.3-7.37-7.37v-16.441c0-4.07 3.3-7.37 7.37-7.37s7.37 3.3 7.37 7.37zm166.799 0c0 4.07-3.3 7.37-7.37 7.37s-7.37-3.3-7.37-7.37v-16.441c0-4.07 3.3-7.37 7.37-7.37s7.37 3.3 7.37 7.37zm166.799 0c0 4.07-3.3 7.37-7.37 7.37s-7.37-3.3-7.37-7.37v-16.441c0-4.07 3.3-7.37 7.37-7.37s7.37 3.3 7.37 7.37zm80.829 272.013h-16.441c-4.07 0-7.37-3.3-7.37-7.37s3.3-7.37 7.37-7.37h16.441c4.07 0 7.37 3.3 7.37 7.37s-3.3 7.37-7.37 7.37m0-221.442h-16.441c-4.07 0-7.37-3.3-7.37-7.37s3.3-7.37 7.37-7.37h16.441c4.07 0 7.37 3.3 7.37 7.37s-3.3 7.37-7.37 7.37" style="fill:#ed1c24"/><path d="M676.15 1388.702v822.047h449.858v-822.047zm58.397 793.985c0 4.07-3.3 7.37-7.37 7.37s-7.37-3.3-7.37-7.37v-16.441c0-4.07 3.3-7.37 7.37-7.37s7.37 3.3 7.37 7.37zm0-749.481c0 4.07-3.3 7.37-7.37 7.37s-7.37-3.3-7.37-7.37v-16.441c0-4.07 3.3-7.37 7.37-7.37s7.37 3.3 7.37 7.37zm282.572 749.481c0 4.07-3.3 7.37-7.37 7.37s-7.37-3.3-7.37-7.37v-16.441c0-4.07 3.3-7.37 7.37-7.37s7.37 3.3 7.37 7.37zm0-749.481c0 4.07-3.3 7.37-7.37 7.37s-7.37-3.3-7.37-7.37v-16.441c0-4.07 3.3-7.37 7.37-7.37s7.37 3.3 7.37 7.37zm80.823 738.142h-16.441c-4.07 0-7.37-3.3-7.37-7.37 0-4.071 3.3-7.37 7.37-7.37h16.441c4.07 0 7.37 3.3 7.37 7.37s-3.3 7.37-7.37 7.37m.003-728.504h-16.441c-4.07 0-7.37-3.3-7.37-7.37s3.3-7.37 7.37-7.37h16.441c4.07 0 7.37 3.3 7.37 7.37s-3.299 7.37-7.37 7.37" style="fill:#939598"/><path d="M216.292 1388.702v822.047H666.15v-822.047zm44.504 782.646h-16.441c-4.07 0-7.37-3.3-7.37-7.37 0-4.071 3.3-7.37 7.37-7.37h16.441c4.07 0 7.37 3.3 7.37 7.37s-3.3 7.37-7.37 7.37m.003-728.504h-16.441c-4.07 0-7.37-3.3-7.37-7.37s3.3-7.37 7.37-7.37h16.441c4.07 0 7.37 3.3 7.37 7.37s-3.3 7.37-7.37 7.37m79.122 739.843c0 4.07-3.3 7.37-7.37 7.37s-7.37-3.3-7.37-7.37v-16.441c0-4.07 3.3-7.37 7.37-7.37s7.37 3.3 7.37 7.37zm0-749.481c0 4.07-3.3 7.37-7.37 7.37s-7.37-3.3-7.37-7.37v-16.441c0-4.07 3.3-7.37 7.37-7.37s7.37 3.3 7.37 7.37zm282.572 749.481c0 4.07-3.3 7.37-7.37 7.37s-7.37-3.3-7.37-7.37v-16.441c0-4.07 3.3-7.37 7.37-7.37s7.37 3.3 7.37 7.37zm0-749.481c0 4.07-3.3 7.37-7.37 7.37s-7.37-3.3-7.37-7.37v-16.441c0-4.07 3.3-7.37 7.37-7.37s7.37 3.3 7.37 7.37z" style="fill:#a7a9ac"/><path d="M1141.008 1374.529v850.394h116.22v-850.394zm58.679 796.819h-16.441c-4.07 0-7.37-3.3-7.37-7.37 0-4.071 3.3-7.37 7.37-7.37h16.441c4.07 0 7.37 3.3 7.37 7.37s-3.299 7.37-7.37 7.37m0-728.504h-16.441c-4.07 0-7.37-3.3-7.37-7.37s3.3-7.37 7.37-7.37h16.441c4.07 0 7.37 3.3 7.37 7.37s-3.299 7.37-7.37 7.37" style="fill:#808285"/><path d="M85.42 1374.529v850.394h116.22v-850.394zm73.983 796.819h-16.441c-4.07 0-7.37-3.3-7.37-7.37 0-4.071 3.3-7.37 7.37-7.37h16.441c4.07 0 7.37 3.3 7.37 7.37s-3.3 7.37-7.37 7.37m0-728.504h-16.441c-4.07 0-7.37-3.3-7.37-7.37s3.3-7.37 7.37-7.37h16.441c4.07 0 7.37 3.3 7.37 7.37s-3.3 7.37-7.37 7.37" style="fill:#662d91"/><path d="M221.292 2220.75v137.48h899.717v-137.48zm123.632 58.677c0 4.07-3.3 7.37-7.37 7.37s-7.37-3.3-7.37-7.37v-16.441c0-4.07 3.3-7.37 7.37-7.37s7.37 3.3 7.37 7.37zm282.572 0c0 4.07-3.3 7.37-7.37 7.37s-7.37-3.3-7.37-7.37v-16.441c0-4.07 3.3-7.37 7.37-7.37s7.37 3.3 7.37 7.37zm102.051 0c0 4.07-3.3 7.37-7.37 7.37s-7.37-3.3-7.37-7.37v-16.441c0-4.07 3.3-7.37 7.37-7.37s7.37 3.3 7.37 7.37zm282.572 0c0 4.07-3.3 7.37-7.37 7.37s-7.37-3.3-7.37-7.37v-16.441c0-4.07 3.3-7.37 7.37-7.37s7.37 3.3 7.37 7.37z" style="fill:#58595b"/><path d="M221.292 1241.222v137.48h899.717v-137.48zm123.629 95.244c0 4.07-3.3 7.37-7.37 7.37s-7.37-3.3-7.37-7.37v-16.441c0-4.07 3.3-7.37 7.37-7.37s7.37 3.3 7.37 7.37zm282.572 0c0 4.07-3.3 7.37-7.37 7.37s-7.37-3.3-7.37-7.37v-16.441c0-4.07 3.3-7.37 7.37-7.37s7.37 3.3 7.37 7.37zm102.051 0c0 4.07-3.3 7.37-7.37 7.37s-7.37-3.3-7.37-7.37v-16.441c0-4.07 3.3-7.37 7.37-7.37s7.37 3.3 7.37 7.37zm282.572 0c0 4.07-3.3 7.37-7.37 7.37s-7.37-3.3-7.37-7.37v-16.441c0-4.07 3.3-7.37 7.37-7.37s7.37 3.3 7.37 7.37z" style="fill:#a97c50"/></svg>
