<svg xmlns="http://www.w3.org/2000/svg" viewBox="0 0 1369.4 1763.3"><path d="M235.6 234v437.8h899.7V234zm44.5 336.9h-16.4c-4.1 0-7.4-3.3-7.4-7.4s3.3-7.4 7.4-7.4h16.4c4.1 0 7.4 3.3 7.4 7.4s-3.3 7.4-7.4 7.4m0-221.3h-16.4c-4.1 0-7.4-3.3-7.4-7.4s3.3-7.4 7.4-7.4h16.4c4.1 0 7.4 3.3 7.4 7.4s-3.3 7.4-7.4 7.4m79.2 294.2c0 4.1-3.3 7.4-7.4 7.4s-7.4-3.3-7.4-7.4v-16.4c0-4.1 3.3-7.4 7.4-7.4s7.4 3.3 7.4 7.4zm0-365.3c0 4.1-3.3 7.4-7.4 7.4s-7.4-3.3-7.4-7.4v-16.4c0-4.1 3.3-7.4 7.4-7.4s7.4 3.3 7.4 7.4zm166.8 365.3c0 4.1-3.3 7.4-7.4 7.4s-7.4-3.3-7.4-7.4v-16.4c0-4.1 3.3-7.4 7.4-7.4s7.4 3.3 7.4 7.4zm0-365.3c0 4.1-3.3 7.4-7.4 7.4s-7.4-3.3-7.4-7.4v-16.4c0-4.1 3.3-7.4 7.4-7.4s7.4 3.3 7.4 7.4zm166.8 365.3c0 4.1-3.3 7.4-7.4 7.4s-7.4-3.3-7.4-7.4v-16.4c0-4.1 3.3-7.4 7.4-7.4s7.4 3.3 7.4 7.4zm0-365.3c0 4.1-3.3 7.4-7.4 7.4s-7.4-3.3-7.4-7.4v-16.4c0-4.1 3.3-7.4 7.4-7.4s7.4 3.3 7.4 7.4zm166.8 365.3c0 4.1-3.3 7.4-7.4 7.4s-7.4-3.3-7.4-7.4v-16.4c0-4.1 3.3-7.4 7.4-7.4s7.4 3.3 7.4 7.4zm0-365.3c0 4.1-3.3 7.4-7.4 7.4s-7.4-3.3-7.4-7.4v-16.4c0-4.1 3.3-7.4 7.4-7.4s7.4 3.3 7.4 7.4zm166.8 365.3c0 4.1-3.3 7.4-7.4 7.4s-7.4-3.3-7.4-7.4v-16.4c0-4.1 3.3-7.4 7.4-7.4s7.4 3.3 7.4 7.4zm0-365.3c0 4.1-3.3 7.4-7.4 7.4s-7.4-3.3-7.4-7.4v-16.4c0-4.1 3.3-7.4 7.4-7.4s7.4 3.3 7.4 7.4zm80.8 292.5h-16.4c-4.1 0-7.4-3.3-7.4-7.4s3.3-7.4 7.4-7.4h16.4c4.1 0 7.4 3.3 7.4 7.4s-3.3 7.4-7.4 7.4m0-221.4h-16.4c-4.1 0-7.4-3.3-7.4-7.4s3.3-7.4 7.4-7.4h16.4c4.1 0 7.4 3.3 7.4 7.4s-3.3 7.4-7.4 7.4" style="fill:#ed1c24"/><path d="M690.5 1179.2V1617h449.9v-437.8zm58.4 409.8c0 4.1-3.3 7.4-7.4 7.4s-7.4-3.3-7.4-7.4v-16.4c0-4.1 3.3-7.4 7.4-7.4s7.4 3.3 7.4 7.4zm0-365.2c0 4.1-3.3 7.4-7.4 7.4s-7.4-3.3-7.4-7.4v-16.4c0-4.1 3.3-7.4 7.4-7.4s7.4 3.3 7.4 7.4zm282.6 365.2c0 4.1-3.3 7.4-7.4 7.4s-7.4-3.3-7.4-7.4v-16.4c0-4.1 3.3-7.4 7.4-7.4s7.4 3.3 7.4 7.4zm0-365.2c0 4.1-3.3 7.4-7.4 7.4s-7.4-3.3-7.4-7.4v-16.4c0-4.1 3.3-7.4 7.4-7.4s7.4 3.3 7.4 7.4zm80.8 353.9h-16.4c-4.1 0-7.4-3.3-7.4-7.4s3.3-7.4 7.4-7.4h16.4c4.1 0 7.4 3.3 7.4 7.4s-3.3 7.4-7.4 7.4m0-344.3h-16.4c-4.1 0-7.4-3.3-7.4-7.4s3.3-7.4 7.4-7.4h16.4c4.1 0 7.4 3.3 7.4 7.4s-3.3 7.4-7.4 7.4" style="fill:#939598"/><path d="M230.6 1179.2V1617h449.9v-437.8zm44.5 398.5h-16.4c-4.1 0-7.4-3.3-7.4-7.4s3.3-7.4 7.4-7.4h16.4c4.1 0 7.4 3.3 7.4 7.4s-3.3 7.4-7.4 7.4m0-344.3h-16.4c-4.1 0-7.4-3.3-7.4-7.4s3.3-7.4 7.4-7.4h16.4c4.1 0 7.4 3.3 7.4 7.4s-3.3 7.4-7.4 7.4m79.2 355.6c0 4.1-3.3 7.4-7.4 7.4s-7.4-3.3-7.4-7.4v-16.4c0-4.1 3.3-7.4 7.4-7.4s7.4 3.3 7.4 7.4zm0-365.2c0 4.1-3.3 7.4-7.4 7.4s-7.4-3.3-7.4-7.4v-16.4c0-4.1 3.3-7.4 7.4-7.4s7.4 3.3 7.4 7.4zM636.8 1589c0 4.1-3.3 7.4-7.4 7.4s-7.4-3.3-7.4-7.4v-16.4c0-4.1 3.3-7.4 7.4-7.4s7.4 3.3 7.4 7.4zm0-365.2c0 4.1-3.3 7.4-7.4 7.4s-7.4-3.3-7.4-7.4v-16.4c0-4.1 3.3-7.4 7.4-7.4s7.4 3.3 7.4 7.4z" style="fill:#a7a9ac"/><path d="M235.6 1647.1v116.2h899.7v-116.2zm123.7 58.6c0 4.1-3.3 7.4-7.4 7.4s-7.4-3.3-7.4-7.4v-16.4c0-4.1 3.3-7.4 7.4-7.4s7.4 3.3 7.4 7.4zm282.5 0c0 4.1-3.3 7.4-7.4 7.4s-7.4-3.3-7.4-7.4v-16.4c0-4.1 3.3-7.4 7.4-7.4s7.4 3.3 7.4 7.4zm102.1 0c0 4.1-3.3 7.4-7.4 7.4s-7.4-3.3-7.4-7.4v-16.4c0-4.1 3.3-7.4 7.4-7.4s7.4 3.3 7.4 7.4zm282.6 0c0 4.1-3.3 7.4-7.4 7.4s-7.4-3.3-7.4-7.4v-16.4c0-4.1 3.3-7.4 7.4-7.4s7.4 3.3 7.4 7.4z" style="fill:#58595b"/><path d="M235.6 1032.4v116.2h899.7v-116.2zm123.7 74c0 4.1-3.3 7.4-7.4 7.4s-7.4-3.3-7.4-7.4V1090c0-4.1 3.3-7.4 7.4-7.4s7.4 3.3 7.4 7.4zm282.5 0c0 4.1-3.3 7.4-7.4 7.4s-7.4-3.3-7.4-7.4V1090c0-4.1 3.3-7.4 7.4-7.4s7.4 3.3 7.4 7.4zm102.1 0c0 4.1-3.3 7.4-7.4 7.4s-7.4-3.3-7.4-7.4V1090c0-4.1 3.3-7.4 7.4-7.4s7.4 3.3 7.4 7.4zm282.6 0c0 4.1-3.3 7.4-7.4 7.4s-7.4-3.3-7.4-7.4V1090c0-4.1 3.3-7.4 7.4-7.4s7.4 3.3 7.4 7.4z" style="fill:#a97c50"/><path d="M1165.3 1169.2v466.2h116.2v-466.2zm58.7 412.6h-16.4c-4.1 0-7.4-3.3-7.4-7.4s3.3-7.4 7.4-7.4h16.4c4.1 0 7.4 3.3 7.4 7.4s-3.3 7.4-7.4 7.4m0-344.2h-16.4c-4.1 0-7.4-3.3-7.4-7.4s3.3-7.4 7.4-7.4h16.4c4.1 0 7.4 3.3 7.4 7.4s-3.3 7.4-7.4 7.4" style="fill:#808285"/><path d="M89.4 1169.2v466.2h116.2v-466.2zm74 412.6H147c-4.1 0-7.4-3.3-7.4-7.4s3.3-7.4 7.4-7.4h16.4c4.1 0 7.4 3.3 7.4 7.4s-3.3 7.4-7.4 7.4m0-344.2H147c-4.1 0-7.4-3.3-7.4-7.4s3.3-7.4 7.4-7.4h16.4c4.1 0 7.4 3.3 7.4 7.4s-3.3 7.4-7.4 7.4" style="fill:#662d91"/><path d="M103.6 219.8H1.5V686h204.1V219.8zm48.7 388.1H29.6c-4.1 0-7.4-3.3-7.4-7.4s3.3-7.4 7.4-7.4h122.7c4.1 0 7.4 3.3 7.4 7.4s-3.3 7.4-7.4 7.4m0-36.9H29.6c-4.1 0-7.4-3.3-7.4-7.4s3.3-7.4 7.4-7.4h122.7c4.1 0 7.4 3.3 7.4 7.4s-3.3 7.4-7.4 7.4m0-36.9H29.6c-4.1 0-7.4-3.3-7.4-7.4s3.3-7.4 7.4-7.4h122.7c4.1 0 7.4 3.3 7.4 7.4s-3.3 7.4-7.4 7.4m0-36.9H29.6c-4.1 0-7.4-3.3-7.4-7.4s3.3-7.4 7.4-7.4h122.7c4.1 0 7.4 3.3 7.4 7.4s-3.3 7.4-7.4 7.4m0-36.9H29.6c-4.1 0-7.4-3.3-7.4-7.4s3.3-7.4 7.4-7.4h122.7c4.1 0 7.4 3.3 7.4 7.4s-3.3 7.4-7.4 7.4m0-36.9H29.6c-4.1 0-7.4-3.3-7.4-7.4s3.3-7.4 7.4-7.4h122.7c4.1 0 7.4 3.3 7.4 7.4s-3.3 7.4-7.4 7.4m0-36.9H29.6c-4.1 0-7.4-3.3-7.4-7.4s3.3-7.4 7.4-7.4h122.7c4.1 0 7.4 3.3 7.4 7.4s-3.3 7.4-7.4 7.4m0-36.9H29.6c-4.1 0-7.4-3.3-7.4-7.4s3.3-7.4 7.4-7.4h122.7c4.1 0 7.4 3.3 7.4 7.4s-3.3 7.4-7.4 7.4m0-36.9H29.6c-4.1 0-7.4-3.3-7.4-7.4s3.3-7.4 7.4-7.4h122.7c4.1 0 7.4 3.3 7.4 7.4s-3.3 7.4-7.4 7.4m32.6 250.8c0 4.1-3.3 7.4-7.4 7.4s-7.4-3.3-7.4-7.4V490c0-4.1 3.3-7.4 7.4-7.4s7.4 3.3 7.4 7.4zm0-147.9c0 4.1-3.3 7.4-7.4 7.4s-7.4-3.3-7.4-7.4v-73.5c0-4.1 3.3-7.4 7.4-7.4s7.4 3.3 7.4 7.4z" style="fill:#00a99d"/><path d="M1267.4 219.8h-102V686h204.1V219.8h-102Zm-66.6 343.8c0 4.1-3.3 7.4-7.4 7.4s-7.4-3.3-7.4-7.4v-73.5c0-4.1 3.3-7.4 7.4-7.4s7.4 3.3 7.4 7.4zm0-147.8c0 4.1-3.3 7.4-7.4 7.4s-7.4-3.3-7.4-7.4v-73.5c0-4.1 3.3-7.4 7.4-7.4s7.4 3.3 7.4 7.4zm140.6 192.1h-122.7c-4.1 0-7.4-3.3-7.4-7.4s3.3-7.4 7.4-7.4h122.7c4.1 0 7.4 3.3 7.4 7.4s-3.3 7.4-7.4 7.4m0-36.9h-122.7c-4.1 0-7.4-3.3-7.4-7.4s3.3-7.4 7.4-7.4h122.7c4.1 0 7.4 3.3 7.4 7.4s-3.3 7.4-7.4 7.4m0-36.9h-122.7c-4.1 0-7.4-3.3-7.4-7.4s3.3-7.4 7.4-7.4h122.7c4.1 0 7.4 3.3 7.4 7.4s-3.3 7.4-7.4 7.4m0-36.9h-122.7c-4.1 0-7.4-3.3-7.4-7.4s3.3-7.4 7.4-7.4h122.7c4.1 0 7.4 3.3 7.4 7.4s-3.3 7.4-7.4 7.4m0-36.9h-122.7c-4.1 0-7.4-3.3-7.4-7.4s3.3-7.4 7.4-7.4h122.7c4.1 0 7.4 3.3 7.4 7.4s-3.3 7.4-7.4 7.4m0-36.9h-122.7c-4.1 0-7.4-3.3-7.4-7.4s3.3-7.4 7.4-7.4h122.7c4.1 0 7.4 3.3 7.4 7.4s-3.3 7.4-7.4 7.4m0-36.9h-122.7c-4.1 0-7.4-3.3-7.4-7.4s3.3-7.4 7.4-7.4h122.7c4.1 0 7.4 3.3 7.4 7.4s-3.3 7.4-7.4 7.4m0-36.9h-122.7c-4.1 0-7.4-3.3-7.4-7.4s3.3-7.4 7.4-7.4h122.7c4.1 0 7.4 3.3 7.4 7.4s-3.3 7.4-7.4 7.4m0-36.9h-122.7c-4.1 0-7.4-3.3-7.4-7.4s3.3-7.4 7.4-7.4h122.7c4.1 0 7.4 3.3 7.4 7.4s-3.3 7.4-7.4 7.4" style="fill:#00aeef"/><path d="M235.6 0v204.1h899.7V0zm123.7 161.9c0 4.1-3.3 7.4-7.4 7.4s-7.4-3.3-7.4-7.4v-16.4c0-4.1 3.3-7.4 7.4-7.4s7.4 3.3 7.4 7.4zm166.8 0c0 4.1-3.3 7.4-7.4 7.4s-7.4-3.3-7.4-7.4v-16.4c0-4.1 3.3-7.4 7.4-7.4s7.4 3.3 7.4 7.4zm166.8 0c0 4.1-3.3 7.4-7.4 7.4s-7.4-3.3-7.4-7.4v-16.4c0-4.1 3.3-7.4 7.4-7.4s7.4 3.3 7.4 7.4zm166.8 0c0 4.1-3.3 7.4-7.4 7.4s-7.4-3.3-7.4-7.4v-16.4c0-4.1 3.3-7.4 7.4-7.4s7.4 3.3 7.4 7.4zm166.8 0c0 4.1-3.3 7.4-7.4 7.4s-7.4-3.3-7.4-7.4v-16.4c0-4.1 3.3-7.4 7.4-7.4s7.4 3.3 7.4 7.4z" style="fill:#ef4136"/><path d="M235.6 699.8v204.1h899.7V699.8zm123.7 58.7c0 4.1-3.3 7.4-7.4 7.4s-7.4-3.3-7.4-7.4v-16.4c0-4.1 3.3-7.4 7.4-7.4s7.4 3.3 7.4 7.4zm166.8 0c0 4.1-3.3 7.4-7.4 7.4s-7.4-3.3-7.4-7.4v-16.4c0-4.1 3.3-7.4 7.4-7.4s7.4 3.3 7.4 7.4zm166.8 0c0 4.1-3.3 7.4-7.4 7.4s-7.4-3.3-7.4-7.4v-16.4c0-4.1 3.3-7.4 7.4-7.4s7.4 3.3 7.4 7.4zm166.8 0c0 4.1-3.3 7.4-7.4 7.4s-7.4-3.3-7.4-7.4v-16.4c0-4.1 3.3-7.4 7.4-7.4s7.4 3.3 7.4 7.4zm166.8 0c0 4.1-3.3 7.4-7.4 7.4s-7.4-3.3-7.4-7.4v-16.4c0-4.1 3.3-7.4 7.4-7.4s7.4 3.3 7.4 7.4z" style="fill:#00a651"/></svg>