<?xml version="1.0" encoding="UTF-8"?>
<svg id="Layer_1" xmlns="http://www.w3.org/2000/svg" version="1.1" viewBox="0 0 1192.2 1551.2">
  <!-- Generator: Adobe Illustrator 29.8.3, SVG Export Plug-In . SVG Version: 2.1.1 Build 3)  -->
  <defs>
    <style>
      .st0 {
        fill: #662d91;
      }

      .st1 {
        fill: #58595b;
      }

      .st2 {
        fill: #00a99d;
      }

      .st3 {
        fill: #00a651;
      }

      .st4 {
        fill: #ed1c24;
      }

      .st5 {
        fill: #00aeef;
      }

      .st6 {
        fill: #808285;
      }

      .st7 {
        fill: #a97c50;
      }

      .st8 {
        fill: #939598;
      }

      .st9 {
        fill: #ef4136;
      }

      .st10 {
        fill: #a7a9ac;
      }
    </style>
  </defs>
  <path class="st4" d="M146.2,132v437.8h899.7V132H146.2ZM190.7,468.8h-16.4c-4.1,0-7.4-3.3-7.4-7.4s3.3-7.4,7.4-7.4h16.4c4.1,0,7.4,3.3,7.4,7.4s-3.3,7.4-7.4,7.4ZM190.7,247.6h-16.4c-4.1,0-7.4-3.3-7.4-7.4s3.3-7.4,7.4-7.4h16.4c4.1,0,7.4,3.3,7.4,7.4s-3.3,7.4-7.4,7.4ZM269.9,541.7c0,4.1-3.3,7.4-7.4,7.4s-7.4-3.3-7.4-7.4v-16.4c0-4.1,3.3-7.4,7.4-7.4s7.4,3.3,7.4,7.4v16.4ZM269.9,176.5c0,4.1-3.3,7.4-7.4,7.4s-7.4-3.3-7.4-7.4v-16.4c0-4.1,3.3-7.4,7.4-7.4s7.4,3.3,7.4,7.4v16.4ZM436.7,541.7c0,4.1-3.3,7.4-7.4,7.4s-7.4-3.3-7.4-7.4v-16.4c0-4.1,3.3-7.4,7.4-7.4s7.4,3.3,7.4,7.4v16.4ZM436.7,176.5c0,4.1-3.3,7.4-7.4,7.4s-7.4-3.3-7.4-7.4v-16.4c0-4.1,3.3-7.4,7.4-7.4s7.4,3.3,7.4,7.4v16.4ZM603.5,541.7c0,4.1-3.3,7.4-7.4,7.4s-7.4-3.3-7.4-7.4v-16.4c0-4.1,3.3-7.4,7.4-7.4s7.4,3.3,7.4,7.4v16.4ZM603.5,176.5c0,4.1-3.3,7.4-7.4,7.4s-7.4-3.3-7.4-7.4v-16.4c0-4.1,3.3-7.4,7.4-7.4s7.4,3.3,7.4,7.4v16.4ZM770.2,541.7c0,4.1-3.3,7.4-7.4,7.4s-7.4-3.3-7.4-7.4v-16.4c0-4.1,3.3-7.4,7.4-7.4s7.4,3.3,7.4,7.4v16.4ZM770.2,176.5c0,4.1-3.3,7.4-7.4,7.4s-7.4-3.3-7.4-7.4v-16.4c0-4.1,3.3-7.4,7.4-7.4s7.4,3.3,7.4,7.4v16.4ZM937,541.7c0,4.1-3.3,7.4-7.4,7.4s-7.4-3.3-7.4-7.4v-16.4c0-4.1,3.3-7.4,7.4-7.4s7.4,3.3,7.4,7.4v16.4ZM937,176.5c0,4.1-3.3,7.4-7.4,7.4s-7.4-3.3-7.4-7.4v-16.4c0-4.1,3.3-7.4,7.4-7.4s7.4,3.3,7.4,7.4v16.4ZM1017.9,469h-16.4c-4.1,0-7.4-3.3-7.4-7.4s3.3-7.4,7.4-7.4h16.4c4.1,0,7.4,3.3,7.4,7.4s-3.3,7.4-7.4,7.4ZM1017.9,247.5h-16.4c-4.1,0-7.4-3.3-7.4-7.4s3.3-7.4,7.4-7.4h16.4c4.1,0,7.4,3.3,7.4,7.4s-3.3,7.4-7.4,7.4Z"/>
  <path class="st9" d="M146.2,0v102h899.7V0H146.2ZM269.9,59.8c0,4.1-3.3,7.4-7.4,7.4s-7.4-3.3-7.4-7.4v-17.6c0-4.1,3.3-7.4,7.4-7.4s7.4,3.3,7.4,7.4v17.6ZM436.7,59.8c0,4.1-3.3,7.4-7.4,7.4s-7.4-3.3-7.4-7.4v-17.6c0-4.1,3.3-7.4,7.4-7.4s7.4,3.3,7.4,7.4v17.6ZM603.5,59.8c0,4.1-3.3,7.4-7.4,7.4s-7.4-3.3-7.4-7.4v-17.6c0-4.1,3.3-7.4,7.4-7.4s7.4,3.3,7.4,7.4v17.6ZM770.2,59.8c0,4.1-3.3,7.4-7.4,7.4s-7.4-3.3-7.4-7.4v-17.6c0-4.1,3.3-7.4,7.4-7.4s7.4,3.3,7.4,7.4v17.6ZM937,59.8c0,4.1-3.3,7.4-7.4,7.4s-7.4-3.3-7.4-7.4v-17.6c0-4.1,3.3-7.4,7.4-7.4s7.4,3.3,7.4,7.4v17.6Z"/>
  <path class="st3" d="M146.2,597.8v102h899.7v-102H146.2ZM269.8,657.6c0,4.1-3.3,7.4-7.4,7.4s-7.4-3.3-7.4-7.4v-17.6c0-4.1,3.3-7.4,7.4-7.4s7.4,3.3,7.4,7.4v17.6ZM436.6,657.6c0,4.1-3.3,7.4-7.4,7.4s-7.4-3.3-7.4-7.4v-17.6c0-4.1,3.3-7.4,7.4-7.4s7.4,3.3,7.4,7.4v17.6ZM603.4,657.6c0,4.1-3.3,7.4-7.4,7.4s-7.4-3.3-7.4-7.4v-17.6c0-4.1,3.3-7.4,7.4-7.4s7.4,3.3,7.4,7.4v17.6ZM770.2,657.6c0,4.1-3.3,7.4-7.4,7.4s-7.4-3.3-7.4-7.4v-17.6c0-4.1,3.3-7.4,7.4-7.4s7.4,3.3,7.4,7.4v17.6ZM937,657.6c0,4.1-3.3,7.4-7.4,7.4s-7.4-3.3-7.4-7.4v-17.6c0-4.1,3.3-7.4,7.4-7.4s7.4,3.3,7.4,7.4v17.6Z"/>
  <path class="st2" d="M14.2,117.8v466.2h102V117.8H14.2ZM49.6,461.6c0,4.1-3.3,7.4-7.4,7.4s-7.4-3.3-7.4-7.4v-73.5c0-4.1,3.3-7.4,7.4-7.4s7.4,3.3,7.4,7.4v73.5ZM49.6,313.8c0,4.1-3.3,7.4-7.4,7.4s-7.4-3.3-7.4-7.4v-73.5c0-4.1,3.3-7.4,7.4-7.4s7.4,3.3,7.4,7.4v73.5ZM87.1,505.9h-19.6c-4.1,0-7.4-3.3-7.4-7.4s3.3-7.4,7.4-7.4h19.6c4.1,0,7.4,3.3,7.4,7.4s-3.3,7.4-7.4,7.4ZM87.1,469h-19.6c-4.1,0-7.4-3.3-7.4-7.4s3.3-7.4,7.4-7.4h19.6c4.1,0,7.4,3.3,7.4,7.4s-3.3,7.4-7.4,7.4ZM87.1,432h-19.6c-4.1,0-7.4-3.3-7.4-7.4s3.3-7.4,7.4-7.4h19.6c4.1,0,7.4,3.3,7.4,7.4s-3.3,7.4-7.4,7.4ZM87.1,395.1h-19.6c-4.1,0-7.4-3.3-7.4-7.4s3.3-7.4,7.4-7.4h19.6c4.1,0,7.4,3.3,7.4,7.4s-3.3,7.4-7.4,7.4ZM87.1,358.2h-19.6c-4.1,0-7.4-3.3-7.4-7.4s3.3-7.4,7.4-7.4h19.6c4.1,0,7.4,3.3,7.4,7.4s-3.3,7.4-7.4,7.4ZM87.1,321.3h-19.6c-4.1,0-7.4-3.3-7.4-7.4s3.3-7.4,7.4-7.4h19.6c4.1,0,7.4,3.3,7.4,7.4s-3.3,7.4-7.4,7.4ZM87.1,284.4h-19.6c-4.1,0-7.4-3.3-7.4-7.4s3.3-7.4,7.4-7.4h19.6c4.1,0,7.4,3.3,7.4,7.4s-3.3,7.4-7.4,7.4ZM87.1,247.5h-19.6c-4.1,0-7.4-3.3-7.4-7.4s3.3-7.4,7.4-7.4h19.6c4.1,0,7.4,3.3,7.4,7.4s-3.3,7.4-7.4,7.4ZM87.1,210.6h-19.6c-4.1,0-7.4-3.3-7.4-7.4s3.3-7.4,7.4-7.4h19.6c4.1,0,7.4,3.3,7.4,7.4s-3.3,7.4-7.4,7.4Z"/>
  <path class="st5" d="M1075.9,117.8v466.2h102V117.8h-102ZM1124.6,505.9h-19.6c-4.1,0-7.4-3.3-7.4-7.4s3.3-7.4,7.4-7.4h19.6c4.1,0,7.4,3.3,7.4,7.4s-3.3,7.4-7.4,7.4ZM1124.6,469h-19.6c-4.1,0-7.4-3.3-7.4-7.4s3.3-7.4,7.4-7.4h19.6c4.1,0,7.4,3.3,7.4,7.4s-3.3,7.4-7.4,7.4ZM1124.6,432h-19.6c-4.1,0-7.4-3.3-7.4-7.4s3.3-7.4,7.4-7.4h19.6c4.1,0,7.4,3.3,7.4,7.4s-3.3,7.4-7.4,7.4ZM1124.6,395.1h-19.6c-4.1,0-7.4-3.3-7.4-7.4s3.3-7.4,7.4-7.4h19.6c4.1,0,7.4,3.3,7.4,7.4s-3.3,7.4-7.4,7.4ZM1124.6,358.2h-19.6c-4.1,0-7.4-3.3-7.4-7.4s3.3-7.4,7.4-7.4h19.6c4.1,0,7.4,3.3,7.4,7.4s-3.3,7.4-7.4,7.4ZM1124.6,321.3h-19.6c-4.1,0-7.4-3.3-7.4-7.4s3.3-7.4,7.4-7.4h19.6c4.1,0,7.4,3.3,7.4,7.4s-3.3,7.4-7.4,7.4ZM1124.6,284.4h-19.6c-4.1,0-7.4-3.3-7.4-7.4s3.3-7.4,7.4-7.4h19.6c4.1,0,7.4,3.3,7.4,7.4s-3.3,7.4-7.4,7.4ZM1124.6,247.5h-19.6c-4.1,0-7.4-3.3-7.4-7.4s3.3-7.4,7.4-7.4h19.6c4.1,0,7.4,3.3,7.4,7.4s-3.3,7.4-7.4,7.4ZM1124.6,210.6h-19.6c-4.1,0-7.4-3.3-7.4-7.4s3.3-7.4,7.4-7.4h19.6c4.1,0,7.4,3.3,7.4,7.4s-3.3,7.4-7.4,7.4ZM1157.3,461.4c0,4.1-3.3,7.4-7.4,7.4s-7.4-3.3-7.4-7.4v-73.5c0-4.1,3.3-7.4,7.4-7.4s7.4,3.3,7.4,7.4v73.5ZM1157.3,313.6c0,4.1-3.3,7.4-7.4,7.4s-7.4-3.3-7.4-7.4v-73.5c0-4.1,3.3-7.4,7.4-7.4s7.4,3.3,7.4,7.4v73.5Z"/>
  <g>
    <path class="st8" d="M601.1,967.2v437.8h449.9v-437.8h-449.9ZM659.5,1377c0,4.1-3.3,7.4-7.4,7.4s-7.4-3.3-7.4-7.4v-16.4c0-4.1,3.3-7.4,7.4-7.4s7.4,3.3,7.4,7.4v16.4ZM659.5,1011.7c0,4.1-3.3,7.4-7.4,7.4s-7.4-3.3-7.4-7.4v-16.4c0-4.1,3.3-7.4,7.4-7.4s7.4,3.3,7.4,7.4v16.4ZM942,1377c0,4.1-3.3,7.4-7.4,7.4s-7.4-3.3-7.4-7.4v-16.4c0-4.1,3.3-7.4,7.4-7.4s7.4,3.3,7.4,7.4v16.4ZM942,1011.7c0,4.1-3.3,7.4-7.4,7.4s-7.4-3.3-7.4-7.4v-16.4c0-4.1,3.3-7.4,7.4-7.4s7.4,3.3,7.4,7.4v16.4ZM1022.9,1365.6h-16.4c-4.1,0-7.4-3.3-7.4-7.4s3.3-7.4,7.4-7.4h16.4c4.1,0,7.4,3.3,7.4,7.4s-3.3,7.4-7.4,7.4ZM1022.9,1021.3h-16.4c-4.1,0-7.4-3.3-7.4-7.4s3.3-7.4,7.4-7.4h16.4c4.1,0,7.4,3.3,7.4,7.4s-3.3,7.4-7.4,7.4Z"/>
    <path class="st10" d="M141.2,967.2v437.8h449.9v-437.8H141.2ZM185.7,1365.6h-16.4c-4.1,0-7.4-3.3-7.4-7.4s3.3-7.4,7.4-7.4h16.4c4.1,0,7.4,3.3,7.4,7.4s-3.3,7.4-7.4,7.4ZM185.7,1021.3h-16.4c-4.1,0-7.4-3.3-7.4-7.4s3.3-7.4,7.4-7.4h16.4c4.1,0,7.4,3.3,7.4,7.4s-3.3,7.4-7.4,7.4ZM264.8,1377c0,4.1-3.3,7.4-7.4,7.4s-7.4-3.3-7.4-7.4v-16.4c0-4.1,3.3-7.4,7.4-7.4s7.4,3.3,7.4,7.4v16.4ZM264.8,1011.7c0,4.1-3.3,7.4-7.4,7.4s-7.4-3.3-7.4-7.4v-16.4c0-4.1,3.3-7.4,7.4-7.4s7.4,3.3,7.4,7.4v16.4ZM547.4,1377c0,4.1-3.3,7.4-7.4,7.4s-7.4-3.3-7.4-7.4v-16.4c0-4.1,3.3-7.4,7.4-7.4s7.4,3.3,7.4,7.4v16.4ZM547.4,1011.7c0,4.1-3.3,7.4-7.4,7.4s-7.4-3.3-7.4-7.4v-16.4c0-4.1,3.3-7.4,7.4-7.4s7.4,3.3,7.4,7.4v16.4Z"/>
  </g>
  <path class="st1" d="M146.2,1435v116.2h899.7v-116.2H146.2ZM269.9,1493.7c0,4.1-3.3,7.4-7.4,7.4s-7.4-3.3-7.4-7.4v-16.4c0-4.1,3.3-7.4,7.4-7.4s7.4,3.3,7.4,7.4v16.4ZM552.4,1493.7c0,4.1-3.3,7.4-7.4,7.4s-7.4-3.3-7.4-7.4v-16.4c0-4.1,3.3-7.4,7.4-7.4s7.4,3.3,7.4,7.4v16.4ZM654.5,1493.7c0,4.1-3.3,7.4-7.4,7.4s-7.4-3.3-7.4-7.4v-16.4c0-4.1,3.3-7.4,7.4-7.4s7.4,3.3,7.4,7.4v16.4ZM937,1493.7c0,4.1-3.3,7.4-7.4,7.4s-7.4-3.3-7.4-7.4v-16.4c0-4.1,3.3-7.4,7.4-7.4s7.4,3.3,7.4,7.4v16.4Z"/>
  <path class="st7" d="M146.2,820.4v116.2h899.7v-116.2H146.2ZM269.8,894.4c0,4.1-3.3,7.4-7.4,7.4s-7.4-3.3-7.4-7.4v-16.4c0-4.1,3.3-7.4,7.4-7.4s7.4,3.3,7.4,7.4v16.4ZM552.4,894.4c0,4.1-3.3,7.4-7.4,7.4s-7.4-3.3-7.4-7.4v-16.4c0-4.1,3.3-7.4,7.4-7.4s7.4,3.3,7.4,7.4v16.4ZM654.5,894.4c0,4.1-3.3,7.4-7.4,7.4s-7.4-3.3-7.4-7.4v-16.4c0-4.1,3.3-7.4,7.4-7.4s7.4,3.3,7.4,7.4v16.4ZM937,894.4c0,4.1-3.3,7.4-7.4,7.4s-7.4-3.3-7.4-7.4v-16.4c0-4.1,3.3-7.4,7.4-7.4s7.4,3.3,7.4,7.4v16.4Z"/>
  <path class="st6" d="M1075.9,957.2v466.2h116.2v-466.2h-116.2ZM1134.6,1369.8h-16.4c-4.1,0-7.4-3.3-7.4-7.4s3.3-7.4,7.4-7.4h16.4c4.1,0,7.4,3.3,7.4,7.4s-3.3,7.4-7.4,7.4ZM1134.6,1025.5h-16.4c-4.1,0-7.4-3.3-7.4-7.4s3.3-7.4,7.4-7.4h16.4c4.1,0,7.4,3.3,7.4,7.4s-3.3,7.4-7.4,7.4Z"/>
  <path class="st0" d="M0,957.2v466.2h116.2v-466.2H0ZM74,1369.8h-16.4c-4.1,0-7.4-3.3-7.4-7.4s3.3-7.4,7.4-7.4h16.4c4.1,0,7.4,3.3,7.4,7.4s-3.3,7.4-7.4,7.4ZM74,1025.5h-16.4c-4.1,0-7.4-3.3-7.4-7.4s3.3-7.4,7.4-7.4h16.4c4.1,0,7.4,3.3,7.4,7.4s-3.3,7.4-7.4,7.4Z"/>
</svg>