<svg xmlns="http://www.w3.org/2000/svg" viewBox="0 0 1192.2 1551.2"><path d="M146.2 132v437.8h899.7V132zm44.5 336.8h-16.4c-4.1 0-7.4-3.3-7.4-7.4s3.3-7.4 7.4-7.4h16.4c4.1 0 7.4 3.3 7.4 7.4s-3.3 7.4-7.4 7.4m0-221.2h-16.4c-4.1 0-7.4-3.3-7.4-7.4s3.3-7.4 7.4-7.4h16.4c4.1 0 7.4 3.3 7.4 7.4s-3.3 7.4-7.4 7.4m79.2 294.1c0 4.1-3.3 7.4-7.4 7.4s-7.4-3.3-7.4-7.4v-16.4c0-4.1 3.3-7.4 7.4-7.4s7.4 3.3 7.4 7.4zm0-365.2c0 4.1-3.3 7.4-7.4 7.4s-7.4-3.3-7.4-7.4v-16.4c0-4.1 3.3-7.4 7.4-7.4s7.4 3.3 7.4 7.4zm166.8 365.2c0 4.1-3.3 7.4-7.4 7.4s-7.4-3.3-7.4-7.4v-16.4c0-4.1 3.3-7.4 7.4-7.4s7.4 3.3 7.4 7.4zm0-365.2c0 4.1-3.3 7.4-7.4 7.4s-7.4-3.3-7.4-7.4v-16.4c0-4.1 3.3-7.4 7.4-7.4s7.4 3.3 7.4 7.4zm166.8 365.2c0 4.1-3.3 7.4-7.4 7.4s-7.4-3.3-7.4-7.4v-16.4c0-4.1 3.3-7.4 7.4-7.4s7.4 3.3 7.4 7.4zm0-365.2c0 4.1-3.3 7.4-7.4 7.4s-7.4-3.3-7.4-7.4v-16.4c0-4.1 3.3-7.4 7.4-7.4s7.4 3.3 7.4 7.4zm166.7 365.2c0 4.1-3.3 7.4-7.4 7.4s-7.4-3.3-7.4-7.4v-16.4c0-4.1 3.3-7.4 7.4-7.4s7.4 3.3 7.4 7.4zm0-365.2c0 4.1-3.3 7.4-7.4 7.4s-7.4-3.3-7.4-7.4v-16.4c0-4.1 3.3-7.4 7.4-7.4s7.4 3.3 7.4 7.4zM937 541.7c0 4.1-3.3 7.4-7.4 7.4s-7.4-3.3-7.4-7.4v-16.4c0-4.1 3.3-7.4 7.4-7.4s7.4 3.3 7.4 7.4zm0-365.2c0 4.1-3.3 7.4-7.4 7.4s-7.4-3.3-7.4-7.4v-16.4c0-4.1 3.3-7.4 7.4-7.4s7.4 3.3 7.4 7.4zm80.9 292.5h-16.4c-4.1 0-7.4-3.3-7.4-7.4s3.3-7.4 7.4-7.4h16.4c4.1 0 7.4 3.3 7.4 7.4s-3.3 7.4-7.4 7.4m0-221.5h-16.4c-4.1 0-7.4-3.3-7.4-7.4s3.3-7.4 7.4-7.4h16.4c4.1 0 7.4 3.3 7.4 7.4s-3.3 7.4-7.4 7.4" style="fill:#ed1c24"/><path d="M146.2 0v102h899.7V0zm123.7 59.8c0 4.1-3.3 7.4-7.4 7.4s-7.4-3.3-7.4-7.4V42.2c0-4.1 3.3-7.4 7.4-7.4s7.4 3.3 7.4 7.4zm166.8 0c0 4.1-3.3 7.4-7.4 7.4s-7.4-3.3-7.4-7.4V42.2c0-4.1 3.3-7.4 7.4-7.4s7.4 3.3 7.4 7.4zm166.8 0c0 4.1-3.3 7.4-7.4 7.4s-7.4-3.3-7.4-7.4V42.2c0-4.1 3.3-7.4 7.4-7.4s7.4 3.3 7.4 7.4zm166.7 0c0 4.1-3.3 7.4-7.4 7.4s-7.4-3.3-7.4-7.4V42.2c0-4.1 3.3-7.4 7.4-7.4s7.4 3.3 7.4 7.4zm166.8 0c0 4.1-3.3 7.4-7.4 7.4s-7.4-3.3-7.4-7.4V42.2c0-4.1 3.3-7.4 7.4-7.4s7.4 3.3 7.4 7.4z" style="fill:#ef4136"/><path d="M146.2 597.8v102h899.7v-102zm123.6 59.8c0 4.1-3.3 7.4-7.4 7.4s-7.4-3.3-7.4-7.4V640c0-4.1 3.3-7.4 7.4-7.4s7.4 3.3 7.4 7.4zm166.8 0c0 4.1-3.3 7.4-7.4 7.4s-7.4-3.3-7.4-7.4V640c0-4.1 3.3-7.4 7.4-7.4s7.4 3.3 7.4 7.4zm166.8 0c0 4.1-3.3 7.4-7.4 7.4s-7.4-3.3-7.4-7.4V640c0-4.1 3.3-7.4 7.4-7.4s7.4 3.3 7.4 7.4zm166.8 0c0 4.1-3.3 7.4-7.4 7.4s-7.4-3.3-7.4-7.4V640c0-4.1 3.3-7.4 7.4-7.4s7.4 3.3 7.4 7.4zm166.8 0c0 4.1-3.3 7.4-7.4 7.4s-7.4-3.3-7.4-7.4V640c0-4.1 3.3-7.4 7.4-7.4s7.4 3.3 7.4 7.4z" style="fill:#00a651"/><path d="M14.2 117.8V584h102V117.8zm35.4 343.8c0 4.1-3.3 7.4-7.4 7.4s-7.4-3.3-7.4-7.4v-73.5c0-4.1 3.3-7.4 7.4-7.4s7.4 3.3 7.4 7.4zm0-147.8c0 4.1-3.3 7.4-7.4 7.4s-7.4-3.3-7.4-7.4v-73.5c0-4.1 3.3-7.4 7.4-7.4s7.4 3.3 7.4 7.4zm37.5 192.1H67.5c-4.1 0-7.4-3.3-7.4-7.4s3.3-7.4 7.4-7.4h19.6c4.1 0 7.4 3.3 7.4 7.4s-3.3 7.4-7.4 7.4m0-36.9H67.5c-4.1 0-7.4-3.3-7.4-7.4s3.3-7.4 7.4-7.4h19.6c4.1 0 7.4 3.3 7.4 7.4s-3.3 7.4-7.4 7.4m0-37H67.5c-4.1 0-7.4-3.3-7.4-7.4s3.3-7.4 7.4-7.4h19.6c4.1 0 7.4 3.3 7.4 7.4s-3.3 7.4-7.4 7.4m0-36.9H67.5c-4.1 0-7.4-3.3-7.4-7.4s3.3-7.4 7.4-7.4h19.6c4.1 0 7.4 3.3 7.4 7.4s-3.3 7.4-7.4 7.4m0-36.9H67.5c-4.1 0-7.4-3.3-7.4-7.4s3.3-7.4 7.4-7.4h19.6c4.1 0 7.4 3.3 7.4 7.4s-3.3 7.4-7.4 7.4m0-36.9H67.5c-4.1 0-7.4-3.3-7.4-7.4s3.3-7.4 7.4-7.4h19.6c4.1 0 7.4 3.3 7.4 7.4s-3.3 7.4-7.4 7.4m0-36.9H67.5c-4.1 0-7.4-3.3-7.4-7.4s3.3-7.4 7.4-7.4h19.6c4.1 0 7.4 3.3 7.4 7.4s-3.3 7.4-7.4 7.4m0-36.9H67.5c-4.1 0-7.4-3.3-7.4-7.4s3.3-7.4 7.4-7.4h19.6c4.1 0 7.4 3.3 7.4 7.4s-3.3 7.4-7.4 7.4m0-36.9H67.5c-4.1 0-7.4-3.3-7.4-7.4s3.3-7.4 7.4-7.4h19.6c4.1 0 7.4 3.3 7.4 7.4s-3.3 7.4-7.4 7.4" style="fill:#00a99d"/><path d="M1075.9 117.8V584h102V117.8zm48.7 388.1H1105c-4.1 0-7.4-3.3-7.4-7.4s3.3-7.4 7.4-7.4h19.6c4.1 0 7.4 3.3 7.4 7.4s-3.3 7.4-7.4 7.4m0-36.9H1105c-4.1 0-7.4-3.3-7.4-7.4s3.3-7.4 7.4-7.4h19.6c4.1 0 7.4 3.3 7.4 7.4s-3.3 7.4-7.4 7.4m0-37H1105c-4.1 0-7.4-3.3-7.4-7.4s3.3-7.4 7.4-7.4h19.6c4.1 0 7.4 3.3 7.4 7.4s-3.3 7.4-7.4 7.4m0-36.9H1105c-4.1 0-7.4-3.3-7.4-7.4s3.3-7.4 7.4-7.4h19.6c4.1 0 7.4 3.3 7.4 7.4s-3.3 7.4-7.4 7.4m0-36.9H1105c-4.1 0-7.4-3.3-7.4-7.4s3.3-7.4 7.4-7.4h19.6c4.1 0 7.4 3.3 7.4 7.4s-3.3 7.4-7.4 7.4m0-36.9H1105c-4.1 0-7.4-3.3-7.4-7.4s3.3-7.4 7.4-7.4h19.6c4.1 0 7.4 3.3 7.4 7.4s-3.3 7.4-7.4 7.4m0-36.9H1105c-4.1 0-7.4-3.3-7.4-7.4s3.3-7.4 7.4-7.4h19.6c4.1 0 7.4 3.3 7.4 7.4s-3.3 7.4-7.4 7.4m0-36.9H1105c-4.1 0-7.4-3.3-7.4-7.4s3.3-7.4 7.4-7.4h19.6c4.1 0 7.4 3.3 7.4 7.4s-3.3 7.4-7.4 7.4m0-36.9H1105c-4.1 0-7.4-3.3-7.4-7.4s3.3-7.4 7.4-7.4h19.6c4.1 0 7.4 3.3 7.4 7.4s-3.3 7.4-7.4 7.4m32.7 250.8c0 4.1-3.3 7.4-7.4 7.4s-7.4-3.3-7.4-7.4v-73.5c0-4.1 3.3-7.4 7.4-7.4s7.4 3.3 7.4 7.4zm0-147.8c0 4.1-3.3 7.4-7.4 7.4s-7.4-3.3-7.4-7.4v-73.5c0-4.1 3.3-7.4 7.4-7.4s7.4 3.3 7.4 7.4z" style="fill:#00aeef"/><path d="M601.1 967.2V1405H1051V967.2zm58.4 409.8c0 4.1-3.3 7.4-7.4 7.4s-7.4-3.3-7.4-7.4v-16.4c0-4.1 3.3-7.4 7.4-7.4s7.4 3.3 7.4 7.4zm0-365.3c0 4.1-3.3 7.4-7.4 7.4s-7.4-3.3-7.4-7.4v-16.4c0-4.1 3.3-7.4 7.4-7.4s7.4 3.3 7.4 7.4zM942 1377c0 4.1-3.3 7.4-7.4 7.4s-7.4-3.3-7.4-7.4v-16.4c0-4.1 3.3-7.4 7.4-7.4s7.4 3.3 7.4 7.4zm0-365.3c0 4.1-3.3 7.4-7.4 7.4s-7.4-3.3-7.4-7.4v-16.4c0-4.1 3.3-7.4 7.4-7.4s7.4 3.3 7.4 7.4zm80.9 353.9h-16.4c-4.1 0-7.4-3.3-7.4-7.4s3.3-7.4 7.4-7.4h16.4c4.1 0 7.4 3.3 7.4 7.4s-3.3 7.4-7.4 7.4m0-344.3h-16.4c-4.1 0-7.4-3.3-7.4-7.4s3.3-7.4 7.4-7.4h16.4c4.1 0 7.4 3.3 7.4 7.4s-3.3 7.4-7.4 7.4" style="fill:#939598"/><path d="M141.2 967.2V1405h449.9V967.2zm44.5 398.4h-16.4c-4.1 0-7.4-3.3-7.4-7.4s3.3-7.4 7.4-7.4h16.4c4.1 0 7.4 3.3 7.4 7.4s-3.3 7.4-7.4 7.4m0-344.3h-16.4c-4.1 0-7.4-3.3-7.4-7.4s3.3-7.4 7.4-7.4h16.4c4.1 0 7.4 3.3 7.4 7.4s-3.3 7.4-7.4 7.4m79.1 355.7c0 4.1-3.3 7.4-7.4 7.4s-7.4-3.3-7.4-7.4v-16.4c0-4.1 3.3-7.4 7.4-7.4s7.4 3.3 7.4 7.4zm0-365.3c0 4.1-3.3 7.4-7.4 7.4s-7.4-3.3-7.4-7.4v-16.4c0-4.1 3.3-7.4 7.4-7.4s7.4 3.3 7.4 7.4zM547.4 1377c0 4.1-3.3 7.4-7.4 7.4s-7.4-3.3-7.4-7.4v-16.4c0-4.1 3.3-7.4 7.4-7.4s7.4 3.3 7.4 7.4zm0-365.3c0 4.1-3.3 7.4-7.4 7.4s-7.4-3.3-7.4-7.4v-16.4c0-4.1 3.3-7.4 7.4-7.4s7.4 3.3 7.4 7.4z" style="fill:#a7a9ac"/><path d="M146.2 1435v116.2h899.7V1435zm123.7 58.7c0 4.1-3.3 7.4-7.4 7.4s-7.4-3.3-7.4-7.4v-16.4c0-4.1 3.3-7.4 7.4-7.4s7.4 3.3 7.4 7.4zm282.5 0c0 4.1-3.3 7.4-7.4 7.4s-7.4-3.3-7.4-7.4v-16.4c0-4.1 3.3-7.4 7.4-7.4s7.4 3.3 7.4 7.4zm102.1 0c0 4.1-3.3 7.4-7.4 7.4s-7.4-3.3-7.4-7.4v-16.4c0-4.1 3.3-7.4 7.4-7.4s7.4 3.3 7.4 7.4zm282.5 0c0 4.1-3.3 7.4-7.4 7.4s-7.4-3.3-7.4-7.4v-16.4c0-4.1 3.3-7.4 7.4-7.4s7.4 3.3 7.4 7.4z" style="fill:#58595b"/><path d="M146.2 820.4v116.2h899.7V820.4zm123.6 74c0 4.1-3.3 7.4-7.4 7.4s-7.4-3.3-7.4-7.4V878c0-4.1 3.3-7.4 7.4-7.4s7.4 3.3 7.4 7.4zm282.6 0c0 4.1-3.3 7.4-7.4 7.4s-7.4-3.3-7.4-7.4V878c0-4.1 3.3-7.4 7.4-7.4s7.4 3.3 7.4 7.4zm102.1 0c0 4.1-3.3 7.4-7.4 7.4s-7.4-3.3-7.4-7.4V878c0-4.1 3.3-7.4 7.4-7.4s7.4 3.3 7.4 7.4zm282.5 0c0 4.1-3.3 7.4-7.4 7.4s-7.4-3.3-7.4-7.4V878c0-4.1 3.3-7.4 7.4-7.4s7.4 3.3 7.4 7.4z" style="fill:#a97c50"/><path d="M1075.9 957.2v466.2h116.2V957.2zm58.7 412.6h-16.4c-4.1 0-7.4-3.3-7.4-7.4s3.3-7.4 7.4-7.4h16.4c4.1 0 7.4 3.3 7.4 7.4s-3.3 7.4-7.4 7.4m0-344.3h-16.4c-4.1 0-7.4-3.3-7.4-7.4s3.3-7.4 7.4-7.4h16.4c4.1 0 7.4 3.3 7.4 7.4s-3.3 7.4-7.4 7.4" style="fill:#808285"/><path d="M0 957.2v466.2h116.2V957.2zm74 412.6H57.6c-4.1 0-7.4-3.3-7.4-7.4s3.3-7.4 7.4-7.4H74c4.1 0 7.4 3.3 7.4 7.4s-3.3 7.4-7.4 7.4m0-344.3H57.6c-4.1 0-7.4-3.3-7.4-7.4s3.3-7.4 7.4-7.4H74c4.1 0 7.4 3.3 7.4 7.4s-3.3 7.4-7.4 7.4" style="fill:#662d91"/></svg>