<svg xmlns="http://www.w3.org/2000/svg" xml:space="preserve" viewBox="0 0 1872.788 711.231"><path d="M559.542 543.776V173.188l-84.045 145.571-24.549-14.173 108.594-188.092V97.945h-94.494L223.36 516.483 0 387.526v225.759h559.542v-41.162H391.451v-28.347z" style="fill:#fbb040"/><path d="M1313.246 543.776V173.188l84.046 145.571 24.548-14.173-108.594-188.092V97.945h94.494l241.688 418.538 223.36-128.957v225.759h-559.542v-41.162h168.091v-28.347z" style="fill:#ed1e79"/><path d="M630.252 0v336.183h113.816V168.092h28.346v168.091h327.96V168.092h28.346v168.091h113.816V0z" style="fill:#be1e2d"/><path d="M630.252 375.047v336.184h113.816V543.139h28.346v168.092h327.96V543.139h28.346v168.092h113.816V375.047z" style="fill:#ff7bac"/></svg>