<svg xmlns="http://www.w3.org/2000/svg" xml:space="preserve" viewBox="0 0 2159.087 713.775"><path d="M559.542 545.049V174.46l-84.045 145.571-24.549-14.173 108.594-188.091V99.218h-94.494L223.36 517.755 0 388.798v225.759h559.542v-41.162H391.451v-28.346z" style="fill:#fbb040"/><path d="M1599.545 545.049V174.46l84.046 145.571 24.549-14.173-108.595-188.091V99.218h94.494l241.689 418.537 223.359-128.957v225.759h-559.542v-41.162h168.092v-28.346z" style="fill:#ed1e79"/><path d="M744.068 713.775V558.717h28.346v155.058h100.155V558.717h28.347v155.058h357.339V558.717h28.346v155.058h100.072V558.717h28.346v155.058h113.816v-323.15H630.252v323.15z" style="fill:#ff7bac"/><path d="M744.068 323.15V168.092h28.346V323.15h100.155V168.092h28.347V323.15h357.339V168.092h28.346V323.15h100.072V168.092h28.346V323.15h113.816V0H630.252v323.15z" style="fill:#be1e2d"/></svg>