<?xml version="1.0" encoding="iso-8859-1"?>
<!-- Generator: Adobe Illustrator 29.7.1, SVG Export Plug-In . SVG Version: 9.03 Build 0)  -->
<svg version="1.1" id="a" xmlns="http://www.w3.org/2000/svg" xmlns:xlink="http://www.w3.org/1999/xlink" x="0px" y="0px"
	 viewBox="0 0 1670.087 1025.74" style="enable-background:new 0 0 1670.087 1025.74;" xml:space="preserve">
<path style="fill:#8DC63F;" d="M1284.693,344.43v-73.84h-898.59v71.01l0,0v2.83h-14.17v136.06h14.17v2.83l0,0v28.49h187.09v-14.17
	h524.41v14.17h187.09v-31.33h14.17V344.42h-14.17L1284.693,344.43z M431.463,335.36L431.463,335.36h-17l0,0
	c-4.07,0-7.37-3.3-7.37-7.37s3.3-7.37,7.37-7.37l0,0h17.01l0,0c4.07,0,7.37,3.3,7.37,7.37s-3.3,7.37-7.37,7.37H431.463z
	 M574.613,299.64h-96.38v-15.59h96.38V299.64z M1192.563,299.64h-96.38v-15.59h96.38V299.64z M1256.343,335.36L1256.343,335.36h-17
	l0,0c-4.07,0-7.37-3.3-7.37-7.37s3.3-7.37,7.37-7.37l0,0h17.01l0,0c4.07,0,7.37,3.3,7.37,7.37s-3.3,7.37-7.37,7.37H1256.343z"/>
<path style="fill:#39B54A;" d="M1298.863,681.05V544.99h-14.17v-2.83l0,0v-28.49h-187.09v14.17h-524.41v-14.17h-187.09V545h-14.17
	v136.06h14.17v73.84h898.58v-71.01l0,0v-2.83h14.17L1298.863,681.05z M431.463,704.86L431.463,704.86h-17.01l0,0
	c-4.07,0-7.37-3.3-7.37-7.37s3.3-7.37,7.37-7.37l0,0h17l0,0c4.07,0,7.37,3.3,7.37,7.37s-3.3,7.37-7.37,7.37H431.463z
	 M574.613,741.43h-96.38v-15.59h96.38V741.43z M1192.563,741.43h-96.38v-15.59h96.38V741.43z M1256.343,704.86L1256.343,704.86
	h-17.01l0,0c-4.07,0-7.37-3.3-7.37-7.37s3.3-7.37,7.37-7.37l0,0h17l0,0c4.07,0,7.37,3.3,7.37,7.37s-3.3,7.37-7.37,7.37H1256.343z"/>
<path style="fill:#FBB040;" d="M1284.693,34.02V0h-898.59v34.02l0,0h-14.17v53.86h14.17v19.84h93.54v14.17h93.54v-14.17h524.41
	v14.17h93.54v-14.17h93.54V87.88h14.17V34.02h-14.17L1284.693,34.02z M431.463,68.31L431.463,68.31h-17l0,0
	c-2.04,0-3.88-0.82-5.21-2.16c-1.33-1.33-2.16-3.18-2.16-5.21s0.82-3.88,2.16-5.21c1.33-1.33,3.18-2.16,5.21-2.16h17.01
	c4.07,0,7.37,3.3,7.37,7.37s-3.3,7.37-7.37,7.37H431.463z M1261.553,66.16c-1.33,1.33-3.18,2.16-5.21,2.16l0,0h-17l0,0
	c-4.07,0-7.37-3.3-7.37-7.37s3.3-7.37,7.37-7.37l0,0h17.01l0,0c2.04,0,3.88,0.82,5.21,2.16s2.16,3.18,2.16,5.21
	s-0.82,3.88-2.16,5.21L1261.553,66.16z"/>
<path style="fill:#BE1E2D;" d="M1284.693,157.91v-19.84h-93.54V123.9h-93.54v14.17h-524.42V123.9h-93.54v14.17h-93.54v19.84h-14.17
	v53.86h14.17v19.84h93.54v14.17h93.54v-14.17h524.41v14.17h93.54v-14.17h93.54v-19.84h14.17v-53.86h-14.17H1284.693z
	 M431.463,192.22L431.463,192.22h-17l0,0c-4.07,0-7.37-3.3-7.37-7.37l0,0l0,0c0-4.07,3.3-7.37,7.37-7.37c0.12,0,0.23,0.01,0.34,0.02
	h16.67c4.07,0,7.37,3.3,7.37,7.37s-3.3,7.37-7.37,7.37L431.463,192.22z M1263.713,184.85c0,4.07-3.3,7.37-7.37,7.37l0,0h-17l0,0
	c-4.07,0-7.37-3.3-7.37-7.37s3.3-7.37,7.37-7.37l0,0h16.67c0.11,0,0.23-0.02,0.34-0.02c4.07,0,7.37,3.3,7.37,7.37l0,0l0,0
	L1263.713,184.85z"/>
<path style="fill:#C69C6D;" d="M1284.693,937.86v-19.84h-93.54v-14.17h-93.54v14.17h-524.42v-14.17h-93.54v14.17h-93.54v19.84
	h-14.17v53.86h14.17v34.02h898.58v-34.02l0,0h14.17v-53.86H1284.693z M431.463,972.16L431.463,972.16h-17.01l0,0
	c-2.04,0-3.88-0.82-5.21-2.16c-1.33-1.33-2.16-3.18-2.16-5.21s0.82-3.88,2.16-5.21c1.33-1.33,3.18-2.16,5.21-2.16l0,0h17l0,0
	c4.07,0,7.37,3.3,7.37,7.37s-3.3,7.37-7.37,7.37H431.463z M1261.553,970c-1.33,1.33-3.18,2.16-5.21,2.16h-17.01
	c-4.07,0-7.37-3.3-7.37-7.37s3.3-7.37,7.37-7.37l0,0h17l0,0c2.04,0,3.88,0.82,5.21,2.16c1.33,1.33,2.16,3.18,2.16,5.21
	s-0.82,3.88-2.16,5.21H1261.553z"/>
<path style="fill:#F9ED32;" d="M1284.693,813.97v-19.84h-93.54v-14.17h-93.54v14.17h-524.42v-14.17h-93.54v14.17h-93.54v19.84
	h-14.17v53.86h14.17v19.84h93.54v14.17h93.54v-14.17h524.41v14.17h93.54v-14.17h93.54v-19.84h14.17v-53.86h-14.17H1284.693z
	 M431.463,848.25L431.463,848.25h-16.67c-0.11,0-0.23,0.02-0.34,0.02c-4.07,0-7.37-3.3-7.37-7.37l0,0l0,0c0-4.07,3.3-7.37,7.37-7.37
	l0,0h17l0,0c4.07,0,7.37,3.3,7.37,7.37s-3.3,7.37-7.37,7.37L431.463,848.25z M1263.713,840.9c0,4.07-3.3,7.37-7.37,7.37
	c-0.12,0-0.23-0.01-0.34-0.02h-16.67c-4.07,0-7.37-3.3-7.37-7.37s3.3-7.37,7.37-7.37l0,0h17l0,0c4.07,0,7.37,3.3,7.37,7.37l0,0l0,0
	L1263.713,840.9z"/>
<g>
	<g>
		<path style="fill:#FF00FF;" d="M1324.403,270.58l0.04,483.308l257.914,0v-169.96h88.439V270.58L1324.403,270.58z
			 M1635.742,327.982c0-4.07,3.3-7.37,7.37-7.37c4.07,0,7.37,3.3,7.37,7.37v48.756c0,4.07-3.3,7.37-7.37,7.37
			c-4.07,0-7.37-3.3-7.37-7.37V327.982z M1569.978,320.612c0,0,0.001,0,0.001,0h48.753c0,0,0.001,0,0.001,0s0.001,0,0.001,0h0.566
			v0.029c3.804,0.291,6.802,3.463,6.802,7.341s-2.998,7.051-6.802,7.341v0.004h-0.085c-0.16,0.01-0.32,0.024-0.483,0.024
			s-0.322-0.014-0.483-0.024h-47.791c-0.16,0.01-0.32,0.024-0.483,0.024c-4.07,0-7.37-3.3-7.37-7.37
			S1565.908,320.612,1569.978,320.612z M1626.104,352.36c0,4.07-3.3,7.37-7.37,7.37s-7.37-3.3-7.37-7.37s3.3-7.37,7.37-7.37
			S1626.104,348.29,1626.104,352.36z M1594.357,384.108c-4.07,0-7.37-3.3-7.37-7.37V352.36c0-4.07,3.3-7.37,7.37-7.37
			s7.37,3.3,7.37,7.37v24.378C1601.727,380.809,1598.427,384.108,1594.357,384.108z M1601.727,401.116c0,4.07-3.3,7.37-7.37,7.37
			h-24.378c-4.07,0-7.37-3.3-7.37-7.37c0-4.07,3.3-7.37,7.37-7.37h24.378C1598.427,393.746,1601.727,397.046,1601.727,401.116z
			 M1562.608,352.36c0-4.07,3.3-7.37,7.37-7.37c4.07,0,7.37,3.3,7.37,7.37v24.378c0,4.07-3.3,7.37-7.37,7.37
			c-4.07,0-7.37-3.3-7.37-7.37V352.36z M1569.978,418.124c0,0,0.001,0,0.001,0h48.753c0,0,0.001,0,0.001,0s0.001,0,0.001,0h0.566
			v0.029c3.804,0.291,6.802,3.463,6.802,7.341s-2.998,7.051-6.802,7.341v0.004h-0.085c-0.16,0.01-0.32,0.024-0.483,0.024
			s-0.322-0.014-0.483-0.024h-47.791c-0.16,0.01-0.32,0.024-0.483,0.024c-4.07,0-7.37-3.3-7.37-7.37
			S1565.908,418.124,1569.978,418.124z M1569.978,442.502c0,0,0.001,0,0.001,0h48.753c0,0,0.001,0,0.001,0s0.001,0,0.001,0h0.566
			v0.029c3.804,0.291,6.802,3.463,6.802,7.341s-2.998,7.051-6.802,7.341v0.004h-0.085c-0.16,0.01-0.32,0.024-0.483,0.024
			s-0.322-0.014-0.483-0.024h-47.791c-0.16,0.01-0.32,0.024-0.483,0.024c-4.07,0-7.37-3.3-7.37-7.37
			S1565.908,442.502,1569.978,442.502z M1626.104,474.25c0,4.07-3.3,7.37-7.37,7.37s-7.37-3.3-7.37-7.37s3.3-7.37,7.37-7.37
			S1626.104,470.179,1626.104,474.25z M1594.357,505.998c-4.07,0-7.37-3.3-7.37-7.37V474.25c0-4.07,3.3-7.37,7.37-7.37
			s7.37,3.3,7.37,7.37v24.378C1601.727,502.698,1598.427,505.998,1594.357,505.998z M1601.727,523.006c0,4.07-3.3,7.37-7.37,7.37
			h-24.378c-4.07,0-7.37-3.3-7.37-7.37c0-4.07,3.3-7.37,7.37-7.37h24.378C1598.427,515.636,1601.727,518.935,1601.727,523.006z
			 M1562.608,474.25c0-4.07,3.3-7.37,7.37-7.37c4.07,0,7.37,3.3,7.37,7.37v24.378c0,4.07-3.3,7.37-7.37,7.37
			c-4.07,0-7.37-3.3-7.37-7.37V474.25z M1494.48,284.045l56.693,0v15.591l-56.693,0V284.045z M1553.157,327.982v24.378
			c0,4.07-3.3,7.37-7.37,7.37c-4.07,0-7.37-3.3-7.37-7.37v-24.378c0-4.07,3.3-7.37,7.37-7.37
			C1549.858,320.612,1553.157,323.912,1553.157,327.982z M1521.409,515.636c4.071,0,7.37,3.3,7.37,7.37v48.756
			c0,4.07-3.3,7.37-7.37,7.37c-4.07,0-7.37-3.3-7.37-7.37v-48.756C1514.039,518.935,1517.339,515.636,1521.409,515.636z
			 M1514.039,498.628v-48.756c0-4.07,3.3-7.37,7.37-7.37c4.071,0,7.37,3.3,7.37,7.37v48.756c0,4.07-3.3,7.37-7.37,7.37
			C1517.339,505.998,1514.039,502.698,1514.039,498.628z M1521.409,588.745c4.071,0,7.37,3.3,7.37,7.37v48.756
			c0,4.07-3.3,7.37-7.37,7.37c-4.07,0-7.37-3.3-7.37-7.37v-48.756C1514.039,592.045,1517.339,588.745,1521.409,588.745z
			 M1514.041,669.249c0-4.07,3.3-7.37,7.37-7.37s7.37,3.3,7.37,7.37v27.237c0,4.07-3.3,7.37-7.37,7.37s-7.37-3.3-7.37-7.37V669.249z
			 M1521.411,432.864c-4.07,0-7.37-3.3-7.37-7.37v-24.378c0-4.07,3.3-7.37,7.37-7.37s7.37,3.3,7.37,7.37v24.378
			C1528.781,429.564,1525.481,432.864,1521.411,432.864z M1514.039,376.738v-48.756c0-4.07,3.3-7.37,7.37-7.37
			c4.071,0,7.37,3.3,7.37,7.37v48.756c0,4.07-3.3,7.37-7.37,7.37C1517.339,384.108,1514.039,380.808,1514.039,376.738z
			 M1424.084,652.266c-4.07,0-7.37-3.3-7.37-7.37v-24.378c0-4.07,3.3-7.37,7.37-7.37s7.37,3.3,7.37,7.37v24.378
			C1431.454,648.966,1428.155,652.266,1424.084,652.266z M1431.454,669.273c0,4.07-3.3,7.37-7.37,7.37c-4.07,0-7.37-3.3-7.37-7.37
			s3.3-7.37,7.37-7.37C1428.155,661.903,1431.454,665.203,1431.454,669.273z M1424.38,603.485c-0.16,0.01-0.32,0.024-0.483,0.024
			c-4.07,0-7.37-3.3-7.37-7.37s3.3-7.37,7.37-7.37c0,0,0.001,0,0.001,0h48.753c0,0,0.001,0,0.001,0c0,0,0.001,0,0.001,0h0.566v0.029
			c3.804,0.291,6.802,3.463,6.802,7.341s-2.998,7.051-6.802,7.341v0.004h-0.085c-0.16,0.01-0.32,0.024-0.483,0.024
			c-0.163,0-0.322-0.014-0.483-0.024H1424.38z M1423.897,369.368c4.07,0,7.37,3.3,7.37,7.37s-3.3,7.37-7.37,7.37
			c-4.07,0-7.37-3.3-7.37-7.37S1419.827,369.368,1423.897,369.368z M1416.62,352.454c0-4.07,3.3-7.37,7.37-7.37
			c4.07,0,7.37,3.3,7.37,7.37c0,4.07-3.3,7.37-7.37,7.37C1419.919,359.824,1416.62,356.524,1416.62,352.454z M1423.897,393.746
			c0,0,0.001,0,0.001,0h48.753c0,0,0.001,0,0.001,0c0,0,0.001,0,0.001,0h0.566v0.029c3.804,0.291,6.802,3.463,6.802,7.341
			s-2.998,7.051-6.802,7.341v0.004h-0.085c-0.16,0.01-0.32,0.024-0.483,0.024c-0.163,0-0.322-0.014-0.483-0.024h-47.791
			c-0.16,0.01-0.32,0.024-0.483,0.024c-4.07,0-7.37-3.3-7.37-7.37S1419.827,393.746,1423.897,393.746z M1440.905,376.738V352.36
			c0-4.07,3.3-7.37,7.37-7.37c4.07,0,7.37,3.3,7.37,7.37v24.378c0,4.07-3.3,7.37-7.37,7.37
			C1444.205,384.108,1440.905,380.809,1440.905,376.738z M1504.401,425.494c0,3.879-2.998,7.051-6.802,7.341v0.004h-0.085
			c-0.16,0.01-0.32,0.024-0.483,0.024c-0.163,0-0.322-0.014-0.483-0.024h-47.791c-0.16,0.01-0.32,0.024-0.483,0.024
			c-4.07,0-7.37-3.3-7.37-7.37s3.3-7.37,7.37-7.37c0,0,0.001,0,0.001,0h48.753c0,0,0.001,0,0.001,0c0,0,0.001,0,0.001,0h0.566v0.029
			C1501.403,418.443,1504.401,421.615,1504.401,425.494z M1504.401,523.006c0,3.879-2.998,7.051-6.802,7.341v0.004h-0.085
			c-0.16,0.01-0.32,0.024-0.483,0.024c-0.163,0-0.322-0.014-0.483-0.024h-47.791c-0.16,0.01-0.32,0.024-0.483,0.024
			c-4.07,0-7.37-3.3-7.37-7.37s3.3-7.37,7.37-7.37c0,0,0.001,0,0.001,0h48.753c0,0,0.001,0,0.001,0c0,0,0.001,0,0.001,0h0.566v0.029
			C1501.403,515.955,1504.401,519.127,1504.401,523.006z M1504.401,547.384c0,4.07-3.3,7.37-7.37,7.37c-4.07,0-7.37-3.3-7.37-7.37
			c0-4.07,3.3-7.37,7.37-7.37C1501.102,540.014,1504.401,543.313,1504.401,547.384z M1480.024,547.384v24.378
			c0,4.07-3.3,7.37-7.37,7.37c-4.07,0-7.37-3.3-7.37-7.37v-24.378c0-4.07,3.3-7.37,7.37-7.37
			C1476.724,540.014,1480.024,543.313,1480.024,547.384z M1455.646,547.384v24.378c0,4.07-3.3,7.37-7.37,7.37
			c-4.07,0-7.37-3.3-7.37-7.37v-24.378c0-4.07,3.3-7.37,7.37-7.37C1452.346,540.014,1455.646,543.313,1455.646,547.384z
			 M1480.024,474.25c0,4.07-3.3,7.37-7.37,7.37c-4.07,0-7.37-3.3-7.37-7.37v-24.378c0-4.07,3.3-7.37,7.37-7.37
			c4.07,0,7.37,3.3,7.37,7.37V474.25z M1504.401,449.872c0,4.07-3.3,7.37-7.37,7.37c-4.07,0-7.37-3.3-7.37-7.37s3.3-7.37,7.37-7.37
			C1501.102,442.502,1504.401,445.802,1504.401,449.872z M1455.646,449.872v24.378c0,4.07-3.3,7.37-7.37,7.37
			c-4.07,0-7.37-3.3-7.37-7.37v-24.378c0-4.07,3.3-7.37,7.37-7.37C1452.346,442.502,1455.646,445.802,1455.646,449.872z
			 M1480.024,376.738c0,4.07-3.3,7.37-7.37,7.37c-4.07,0-7.37-3.3-7.37-7.37V352.36c0-4.07,3.3-7.37,7.37-7.37
			c4.07,0,7.37,3.3,7.37,7.37V376.738z M1431.454,425.494v24.378c0,4.07-3.3,7.37-7.37,7.37s-7.37-3.3-7.37-7.37v-24.378
			c0-4.07,3.3-7.37,7.37-7.37S1431.454,421.424,1431.454,425.494z M1423.897,466.88c4.07,0,7.37,3.3,7.37,7.37s-3.3,7.37-7.37,7.37
			c-4.07,0-7.37-3.3-7.37-7.37S1419.827,466.88,1423.897,466.88z M1423.897,491.258c0,0,0.001,0,0.001,0h48.753c0,0,0.001,0,0.001,0
			c0,0,0.001,0,0.001,0h0.566v0.029c3.804,0.291,6.802,3.463,6.802,7.341s-2.998,7.051-6.802,7.341v0.004h-0.085
			c-0.16,0.01-0.32,0.024-0.483,0.024c-0.163,0-0.322-0.014-0.483-0.024h-47.791c-0.16,0.01-0.32,0.024-0.483,0.024
			c-4.07,0-7.37-3.3-7.37-7.37S1419.827,491.258,1423.897,491.258z M1431.454,523.006v24.378c0,4.07-3.3,7.37-7.37,7.37
			s-7.37-3.3-7.37-7.37v-24.378c0-4.07,3.3-7.37,7.37-7.37S1431.454,518.935,1431.454,523.006z M1423.897,564.391
			c4.07,0,7.37,3.3,7.37,7.37c0,4.07-3.3,7.37-7.37,7.37c-4.07,0-7.37-3.3-7.37-7.37
			C1416.527,567.691,1419.827,564.391,1423.897,564.391z M1440.905,644.895c0-4.07,3.3-7.37,7.37-7.37c4.07,0,7.37,3.3,7.37,7.37
			v24.378c0,4.07-3.3,7.37-7.37,7.37c-4.07,0-7.37-3.3-7.37-7.37V644.895z M1448.758,627.863c-0.16,0.01-0.32,0.024-0.483,0.024
			c-4.07,0-7.37-3.3-7.37-7.37s3.3-7.37,7.37-7.37c0,0,0.001,0,0.001,0h48.753c0,0,0.001,0,0.001,0c0,0,0.001,0,0.001,0h0.566v0.029
			c3.804,0.291,6.802,3.463,6.802,7.341s-2.998,7.051-6.802,7.341v0.004h-0.085c-0.16,0.01-0.32,0.024-0.483,0.024
			c-0.163,0-0.322-0.014-0.483-0.024H1448.758z M1497.032,603.51c-4.07,0-7.37-3.3-7.37-7.37v-24.378c0-4.07,3.3-7.37,7.37-7.37
			c4.071,0,7.37,3.3,7.37,7.37v24.378C1504.402,600.21,1501.102,603.51,1497.032,603.51z M1497.032,505.998
			c-4.07,0-7.37-3.3-7.37-7.37V474.25c0-4.07,3.3-7.37,7.37-7.37c4.071,0,7.37,3.3,7.37,7.37v24.378
			C1504.402,502.698,1501.102,505.998,1497.032,505.998z M1497.032,408.486c-4.07,0-7.37-3.3-7.37-7.37v-24.378
			c0-4.07,3.3-7.37,7.37-7.37c4.071,0,7.37,3.3,7.37,7.37v24.378C1504.402,405.186,1501.102,408.486,1497.032,408.486z
			 M1489.661,352.36c0-4.07,3.3-7.37,7.37-7.37c4.07,0,7.37,3.3,7.37,7.37s-3.3,7.37-7.37,7.37
			C1492.961,359.73,1489.661,356.431,1489.661,352.36z M1472.653,320.612h24.378c4.07,0,7.37,3.3,7.37,7.37
			c0,4.07-3.3,7.37-7.37,7.37h-24.378c-4.07,0-7.37-3.3-7.37-7.37C1465.283,323.912,1468.583,320.612,1472.653,320.612z
			 M1455.646,327.982c0,4.07-3.3,7.37-7.37,7.37h-24.378c-4.07,0-7.37-3.3-7.37-7.37c0-4.07,3.3-7.37,7.37-7.37h24.378
			C1452.346,320.612,1455.646,323.912,1455.646,327.982z M1372.59,284.045h56.693v15.591h-56.693V284.045z M1406.983,328.076v24.378
			c0,4.07-3.3,7.37-7.37,7.37c-4.07,0-7.37-3.3-7.37-7.37v-17.195h-9.755c-4.07,0-7.37-3.3-7.37-7.37c0-4.07,3.3-7.37,7.37-7.37
			h17.125c4.07,0,7.37,3.3,7.37,7.37c0,0.032-0.004,0.062-0.005,0.093C1406.979,328.014,1406.983,328.044,1406.983,328.076z
			 M1392.149,571.762c0,0,0-0.001,0-0.001v-0.566h0.029c0.291-3.804,3.463-6.803,7.342-6.803c3.879,0,7.051,2.998,7.341,6.803h0.004
			v0.085c0.01,0.16,0.024,0.32,0.024,0.483s-0.014,0.322-0.024,0.483l0.024,72.651c0,4.07-3.3,7.37-7.37,7.37
			c-4.07,0-7.37-3.3-7.37-7.37c0,0,0-24.379,0-24.379v-48.753C1392.149,571.762,1392.149,571.762,1392.149,571.762z
			 M1392.149,498.628c0,0,0-0.001,0-0.001v-0.566h0.029c0.291-3.804,3.463-6.803,7.342-6.803c3.879,0,7.051,2.998,7.341,6.803h0.004
			v0.085c0.01,0.16,0.024,0.32,0.024,0.483s-0.014,0.322-0.024,0.483v47.791c0.01,0.16,0.024,0.32,0.024,0.483
			c0,4.07-3.3,7.37-7.37,7.37c-4.07,0-7.37-3.3-7.37-7.37c0,0,0-0.001,0-0.001v-48.753
			C1392.149,498.629,1392.149,498.628,1392.149,498.628z M1392.149,376.738c0,0,0-0.001,0-0.001v-0.566h0.029
			c0.291-3.804,3.463-6.803,7.342-6.803c3.879,0,7.051,2.998,7.341,6.803h0.004v0.085c0.01,0.16,0.024,0.32,0.024,0.483
			s-0.014,0.322-0.024,0.483v47.791c0.01,0.16,0.024,0.32,0.024,0.483c0,4.07-3.3,7.37-7.37,7.37c-4.07,0-7.37-3.3-7.37-7.37
			c0,0,0-0.001,0-0.001v-48.753C1392.149,376.739,1392.149,376.739,1392.149,376.738z M1392.149,669.273c0-4.07,3.3-7.37,7.37-7.37
			c4.07,0,7.37,3.3,7.37,7.37v27.237c0,4.07-3.3,7.37-7.37,7.37c-0.117,0-0.232-0.012-0.348-0.018
			c-0.116,0.005-0.231,0.018-0.349,0.018h-16.335c-4.07,0-7.37-3.3-7.37-7.37c0-4.07,3.3-7.37,7.37-7.37h9.661V669.273z
			 M1399.52,481.62c-4.07,0-7.37-3.3-7.37-7.37v-24.378c0-4.07,3.3-7.37,7.37-7.37c4.07,0,7.37,3.3,7.37,7.37v24.378
			C1406.89,478.32,1403.59,481.62,1399.52,481.62z M1354.165,682.034h-15.59V540.302h15.59V682.034z M1354.165,483.321h-15.59
			V341.589h15.59V483.321z M1429.283,740.424h-56.693v-15.591h56.693V740.424z M1472.654,703.881h-48.569
			c-4.07,0-7.37-3.3-7.37-7.37c0-4.07,3.3-7.37,7.37-7.37h48.569c4.07,0,7.37,3.3,7.37,7.37
			C1480.024,700.581,1476.724,703.881,1472.654,703.881z M1480.024,669.273c0,4.07-3.3,7.37-7.37,7.37c-4.07,0-7.37-3.3-7.37-7.37
			v-24.378c0-4.07,3.3-7.37,7.37-7.37c4.07,0,7.37,3.3,7.37,7.37V669.273z M1497.031,637.525c4.07,0,7.37,3.3,7.37,7.37
			s-3.3,7.37-7.37,7.37c-4.07,0-7.37-3.3-7.37-7.37S1492.961,637.525,1497.031,637.525z M1489.662,696.486v-27.213
			c0-4.07,3.3-7.37,7.37-7.37c4.071,0,7.37,3.3,7.37,7.37v27.213c0,4.07-3.3,7.37-7.37,7.37
			C1492.961,703.856,1489.662,700.557,1489.662,696.486z M1551.173,740.424l-56.693,0v-15.591l56.693,0V740.424z M1553.157,696.486
			c0,4.07-3.3,7.37-7.37,7.37c-4.07,0-7.37-3.3-7.37-7.37v-27.237c0-4.07,3.3-7.37,7.37-7.37c4.071,0,7.37,3.3,7.37,7.37V696.486z
			 M1553.157,644.895c0,4.07-3.3,7.37-7.37,7.37c-4.07,0-7.37-3.3-7.37-7.37v-24.378c0-4.07,3.3-7.37,7.37-7.37
			c4.071,0,7.37,3.3,7.37,7.37V644.895z M1553.157,596.139c0,4.07-3.3,7.37-7.37,7.37c-4.07,0-7.37-3.3-7.37-7.37v-24.378
			c0-4.07,3.3-7.37,7.37-7.37c4.071,0,7.37,3.3,7.37,7.37V596.139z M1553.157,547.384c0,4.07-3.3,7.37-7.37,7.37
			c-4.07,0-7.37-3.3-7.37-7.37v-24.378c0-4.07,3.3-7.37,7.37-7.37c4.071,0,7.37,3.3,7.37,7.37V547.384z M1553.157,498.628
			c0,4.07-3.3,7.37-7.37,7.37c-4.07,0-7.37-3.3-7.37-7.37V474.25c0-4.07,3.3-7.37,7.37-7.37c4.071,0,7.37,3.3,7.37,7.37V498.628z
			 M1553.157,449.872c0,4.07-3.3,7.37-7.37,7.37c-4.07,0-7.37-3.3-7.37-7.37v-24.378c0-4.07,3.3-7.37,7.37-7.37
			c4.071,0,7.37,3.3,7.37,7.37V449.872z M1553.158,401.117c0,4.07-3.3,7.37-7.37,7.37c-4.07,0-7.37-3.3-7.37-7.37v-24.378
			c0-4.07,3.3-7.37,7.37-7.37c4.07,0,7.37,3.3,7.37,7.37V401.117z M1619.302,554.725v0.004h-0.085
			c-0.16,0.01-0.32,0.024-0.483,0.024s-0.322-0.014-0.483-0.024h-47.791c-0.16,0.01-0.32,0.024-0.483,0.024
			c-4.07,0-7.37-3.3-7.37-7.37s3.3-7.37,7.37-7.37c0,0,0.001,0,0.001,0h48.753c0,0,0.001,0,0.001,0s0.001,0,0.001,0h0.566v0.029
			c3.804,0.291,6.802,3.463,6.802,7.341S1623.106,554.434,1619.302,554.725z M1626.105,523.006c0,4.07-3.3,7.37-7.37,7.37
			c-4.07,0-7.37-3.3-7.37-7.37v-24.378c0-4.07,3.3-7.37,7.37-7.37c4.07,0,7.37,3.3,7.37,7.37V523.006z M1626.105,401.116
			c0,4.07-3.3,7.37-7.37,7.37c-4.07,0-7.37-3.3-7.37-7.37v-24.378c0-4.07,3.3-7.37,7.37-7.37c4.07,0,7.37,3.3,7.37,7.37V401.116z
			 M1635.742,449.872c0-4.07,3.3-7.37,7.37-7.37c4.07,0,7.37,3.3,7.37,7.37v48.756c0,4.07-3.3,7.37-7.37,7.37
			c-4.07,0-7.37-3.3-7.37-7.37V449.872z M1650.483,547.384c0,4.07-3.3,7.37-7.37,7.37c-4.07,0-7.37-3.3-7.37-7.37v-24.378
			c0-4.07,3.3-7.37,7.37-7.37c4.071,0,7.37,3.3,7.37,7.37V547.384z M1650.483,425.494c0,4.07-3.3,7.37-7.37,7.37
			c-4.07,0-7.37-3.3-7.37-7.37v-24.378c0-4.07,3.3-7.37,7.37-7.37c4.071,0,7.37,3.3,7.37,7.37V425.494z"/>
	</g>
</g>
<g>
	<g>
		<path style="fill:#231F20;" d="M0,270.58v313.348h88.439v169.96h257.914l0.04-483.308L0,270.58z M222.52,320.612h24.378
			c4.07,0,7.37,3.3,7.37,7.37c0,4.07-3.3,7.37-7.37,7.37H222.52c-4.07,0-7.37-3.3-7.37-7.37
			C215.149,323.912,218.449,320.612,222.52,320.612z M246.711,652.266c-4.07,0-7.37-3.3-7.37-7.37v-24.378
			c0-4.07,3.3-7.37,7.37-7.37c4.07,0,7.37,3.3,7.37,7.37v24.378C254.081,648.966,250.781,652.266,246.711,652.266z M254.081,669.273
			c0,4.07-3.3,7.37-7.37,7.37s-7.37-3.3-7.37-7.37s3.3-7.37,7.37-7.37S254.081,665.203,254.081,669.273z M246.898,603.51
			c-0.163,0-0.322-0.014-0.483-0.024h-47.791c-0.16,0.01-0.32,0.024-0.483,0.024s-0.322-0.014-0.483-0.024h-0.085v-0.004
			c-3.804-0.291-6.803-3.463-6.803-7.341s2.998-7.051,6.803-7.341v-0.029h0.566c0,0,0.001,0,0.001,0s0.001,0,0.001,0h48.753
			c0,0,0.001,0,0.001,0c4.07,0,7.37,3.3,7.37,7.37S250.968,603.51,246.898,603.51z M222.52,627.888
			c-0.163,0-0.322-0.014-0.483-0.024h-47.791c-0.16,0.01-0.32,0.024-0.483,0.024s-0.322-0.014-0.483-0.024h-0.085v-0.004
			c-3.804-0.291-6.803-3.463-6.803-7.341s2.998-7.051,6.803-7.341v-0.029h0.566c0,0,0.001,0,0.001,0s0.001,0,0.001,0h48.753
			c0,0,0.001,0,0.001,0c4.07,0,7.37,3.3,7.37,7.37S226.59,627.888,222.52,627.888z M229.89,644.895v24.378
			c0,4.07-3.3,7.37-7.37,7.37c-4.07,0-7.37-3.3-7.37-7.37v-24.378c0-4.07,3.3-7.37,7.37-7.37
			C226.59,637.525,229.89,640.825,229.89,644.895z M205.511,644.895v24.378c0,4.07-3.3,7.37-7.37,7.37c-4.07,0-7.37-3.3-7.37-7.37
			v-24.378c0-4.07,3.3-7.37,7.37-7.37C202.212,637.525,205.511,640.825,205.511,644.895z M222.52,432.864
			c-0.163,0-0.322-0.014-0.483-0.024h-47.791c-0.16,0.01-0.32,0.024-0.483,0.024s-0.322-0.014-0.483-0.024h-0.085v-0.004
			c-3.804-0.291-6.803-3.463-6.803-7.341s2.998-7.051,6.803-7.341v-0.029h0.566c0,0,0.001,0,0.001,0s0.001,0,0.001,0h48.753
			c0,0,0.001,0,0.001,0c4.07,0,7.37,3.3,7.37,7.37S226.59,432.864,222.52,432.864z M229.89,449.872v24.378
			c0,4.07-3.3,7.37-7.37,7.37c-4.07,0-7.37-3.3-7.37-7.37v-24.378c0-4.07,3.3-7.37,7.37-7.37
			C226.59,442.502,229.89,445.802,229.89,449.872z M222.52,530.376c-0.163,0-0.322-0.014-0.483-0.024h-47.791
			c-0.16,0.01-0.32,0.024-0.483,0.024s-0.322-0.014-0.483-0.024h-0.085v-0.004c-3.804-0.291-6.803-3.463-6.803-7.341
			s2.998-7.051,6.803-7.341v-0.029h0.566c0,0,0.001,0,0.001,0s0.001,0,0.001,0h48.753c0,0,0.001,0,0.001,0
			c4.07,0,7.37,3.3,7.37,7.37S226.59,530.376,222.52,530.376z M229.89,547.384v24.378c0,4.07-3.3,7.37-7.37,7.37
			c-4.07,0-7.37-3.3-7.37-7.37v-24.378c0-4.07,3.3-7.37,7.37-7.37C226.59,540.014,229.89,543.313,229.89,547.384z M205.511,547.384
			v24.378c0,4.07-3.3,7.37-7.37,7.37c-4.07,0-7.37-3.3-7.37-7.37v-24.378c0-4.07,3.3-7.37,7.37-7.37
			C202.212,540.014,205.511,543.313,205.511,547.384z M181.134,547.384c0,4.07-3.3,7.37-7.37,7.37s-7.37-3.3-7.37-7.37
			c0-4.07,3.3-7.37,7.37-7.37S181.134,543.313,181.134,547.384z M205.511,449.872v24.378c0,4.07-3.3,7.37-7.37,7.37
			c-4.07,0-7.37-3.3-7.37-7.37v-24.378c0-4.07,3.3-7.37,7.37-7.37C202.212,442.502,205.511,445.802,205.511,449.872z
			 M181.134,449.872c0,4.07-3.3,7.37-7.37,7.37s-7.37-3.3-7.37-7.37s3.3-7.37,7.37-7.37S181.134,445.802,181.134,449.872z
			 M173.763,369.368c4.07,0,7.37,3.3,7.37,7.37v24.378c0,4.07-3.3,7.37-7.37,7.37c-4.07,0-7.37-3.3-7.37-7.37v-24.378
			C166.393,372.668,169.693,369.368,173.763,369.368z M166.394,352.36c0-4.07,3.3-7.37,7.37-7.37s7.37,3.3,7.37,7.37
			s-3.3,7.37-7.37,7.37S166.394,356.431,166.394,352.36z M173.763,466.88c4.07,0,7.37,3.3,7.37,7.37v24.378
			c0,4.07-3.3,7.37-7.37,7.37c-4.07,0-7.37-3.3-7.37-7.37V474.25C166.393,470.18,169.693,466.88,173.763,466.88z M173.763,564.392
			c4.07,0,7.37,3.3,7.37,7.37v24.378c0,4.07-3.3,7.37-7.37,7.37c-4.07,0-7.37-3.3-7.37-7.37v-24.378
			C166.393,567.691,169.693,564.392,173.763,564.392z M246.898,579.132c-4.07,0-7.37-3.3-7.37-7.37c0-4.07,3.3-7.37,7.37-7.37
			c4.07,0,7.37,3.3,7.37,7.37C254.268,575.832,250.968,579.132,246.898,579.132z M239.341,547.384v-24.378
			c0-4.07,3.3-7.37,7.37-7.37c4.07,0,7.37,3.3,7.37,7.37v24.378c0,4.07-3.3,7.37-7.37,7.37
			C242.64,554.754,239.341,551.454,239.341,547.384z M246.898,505.998c-0.163,0-0.322-0.014-0.483-0.024h-47.791
			c-0.16,0.01-0.32,0.024-0.483,0.024s-0.322-0.014-0.483-0.024h-0.085v-0.004c-3.804-0.291-6.803-3.463-6.803-7.341
			s2.998-7.051,6.803-7.341v-0.029h0.566c0,0,0.001,0,0.001,0s0.001,0,0.001,0h48.753c0,0,0.001,0,0.001,0
			c4.07,0,7.37,3.3,7.37,7.37S250.968,505.998,246.898,505.998z M246.898,481.62c-4.07,0-7.37-3.3-7.37-7.37s3.3-7.37,7.37-7.37
			c4.07,0,7.37,3.3,7.37,7.37S250.968,481.62,246.898,481.62z M239.341,449.872v-24.378c0-4.07,3.3-7.37,7.37-7.37
			c4.07,0,7.37,3.3,7.37,7.37v24.378c0,4.07-3.3,7.37-7.37,7.37C242.64,457.242,239.341,453.942,239.341,449.872z M246.898,408.486
			c-0.163,0-0.322-0.014-0.483-0.024h-47.791c-0.16,0.01-0.32,0.024-0.483,0.024s-0.322-0.014-0.483-0.024h-0.085v-0.004
			c-3.804-0.291-6.803-3.463-6.803-7.341s2.998-7.051,6.803-7.341v-0.029h0.566c0,0,0.001,0,0.001,0s0.001,0,0.001,0h48.753
			c0,0,0.001,0,0.001,0c4.07,0,7.37,3.3,7.37,7.37S250.968,408.486,246.898,408.486z M190.771,376.738V352.36
			c0-4.07,3.3-7.37,7.37-7.37c4.07,0,7.37,3.3,7.37,7.37v24.378c0,4.07-3.3,7.37-7.37,7.37
			C194.071,384.108,190.771,380.809,190.771,376.738z M215.15,376.738V352.36c0-4.07,3.3-7.37,7.37-7.37c4.07,0,7.37,3.3,7.37,7.37
			v24.378c0,4.07-3.3,7.37-7.37,7.37C218.449,384.108,215.15,380.809,215.15,376.738z M246.898,384.108c-4.07,0-7.37-3.3-7.37-7.37
			s3.3-7.37,7.37-7.37c4.07,0,7.37,3.3,7.37,7.37S250.968,384.108,246.898,384.108z M239.435,352.454c0-4.07,3.3-7.37,7.37-7.37
			s7.37,3.3,7.37,7.37c0,4.07-3.3,7.37-7.37,7.37S239.435,356.524,239.435,352.454z M205.512,327.982c0,4.07-3.3,7.37-7.37,7.37
			h-24.378c-4.07,0-7.37-3.3-7.37-7.37c0-4.07,3.3-7.37,7.37-7.37h24.378C202.212,320.612,205.512,323.912,205.512,327.982z
			 M119.622,284.044h56.693v15.591h-56.693V284.044z M149.386,652.241c-4.07,0-7.37-3.3-7.37-7.37v-48.756
			c0-4.07,3.3-7.37,7.37-7.37c4.07,0,7.37,3.3,7.37,7.37v48.756C156.756,648.941,153.456,652.241,149.386,652.241z M156.755,669.249
			v27.237c0,4.07-3.3,7.37-7.37,7.37c-4.07,0-7.37-3.3-7.37-7.37v-27.237c0-4.07,3.3-7.37,7.37-7.37
			C153.455,661.879,156.755,665.179,156.755,669.249z M142.015,425.494v-24.378c0-4.07,3.3-7.37,7.37-7.37
			c4.07,0,7.37,3.3,7.37,7.37v24.378c0,4.07-3.3,7.37-7.37,7.37C145.314,432.864,142.015,429.564,142.015,425.494z M149.386,579.132
			c-4.07,0-7.37-3.3-7.37-7.37v-48.756c0-4.07,3.3-7.37,7.37-7.37c4.07,0,7.37,3.3,7.37,7.37v48.756
			C156.756,575.832,153.456,579.132,149.386,579.132z M149.386,505.998c-4.07,0-7.37-3.3-7.37-7.37v-48.756
			c0-4.07,3.3-7.37,7.37-7.37c4.07,0,7.37,3.3,7.37,7.37v48.756C156.756,502.698,153.456,505.998,149.386,505.998z M149.386,384.108
			c-4.07,0-7.37-3.3-7.37-7.37v-48.756c0-4.07,3.3-7.37,7.37-7.37c4.07,0,7.37,3.3,7.37,7.37v48.756
			C156.756,380.808,153.456,384.108,149.386,384.108z M117.638,327.982c0-4.07,3.3-7.37,7.37-7.37c4.07,0,7.37,3.3,7.37,7.37v24.378
			c0,4.07-3.3,7.37-7.37,7.37c-4.07,0-7.37-3.3-7.37-7.37V327.982z M125.008,603.51c-4.07,0-7.37-3.3-7.37-7.37v-24.378
			c0-4.07,3.3-7.37,7.37-7.37c4.07,0,7.37,3.3,7.37,7.37v24.378C132.378,600.21,129.078,603.51,125.008,603.51z M132.378,620.517
			v24.378c0,4.07-3.3,7.37-7.37,7.37c-4.07,0-7.37-3.3-7.37-7.37v-24.378c0-4.07,3.3-7.37,7.37-7.37
			C129.078,613.147,132.378,616.447,132.378,620.517z M125.008,554.754c-4.07,0-7.37-3.3-7.37-7.37v-24.378
			c0-4.07,3.3-7.37,7.37-7.37c4.07,0,7.37,3.3,7.37,7.37v24.378C132.378,551.454,129.078,554.754,125.008,554.754z M125.008,505.998
			c-4.07,0-7.37-3.3-7.37-7.37V474.25c0-4.07,3.3-7.37,7.37-7.37c4.07,0,7.37,3.3,7.37,7.37v24.378
			C132.378,502.698,129.078,505.998,125.008,505.998z M125.008,457.242c-4.07,0-7.37-3.3-7.37-7.37v-24.378
			c0-4.07,3.3-7.37,7.37-7.37c4.07,0,7.37,3.3,7.37,7.37v24.378C132.378,453.942,129.078,457.242,125.008,457.242z M44.69,376.738
			c0-4.07,3.3-7.37,7.37-7.37c4.07,0,7.37,3.3,7.37,7.37v24.378c0,4.07-3.3,7.37-7.37,7.37c-4.07,0-7.37-3.3-7.37-7.37V376.738z
			 M44.691,352.36c0-4.07,3.3-7.37,7.37-7.37s7.37,3.3,7.37,7.37s-3.3,7.37-7.37,7.37S44.691,356.431,44.691,352.36z
			 M20.312,401.116c0-4.07,3.3-7.37,7.37-7.37c4.07,0,7.37,3.3,7.37,7.37v24.378c0,4.07-3.3,7.37-7.37,7.37
			c-4.07,0-7.37-3.3-7.37-7.37V401.116z M35.052,547.384c0,4.07-3.3,7.37-7.37,7.37c-4.07,0-7.37-3.3-7.37-7.37v-24.378
			c0-4.07,3.3-7.37,7.37-7.37c4.07,0,7.37,3.3,7.37,7.37V547.384z M35.053,498.628c0,4.07-3.3,7.37-7.37,7.37
			c-4.07,0-7.37-3.3-7.37-7.37v-48.756c0-4.07,3.3-7.37,7.37-7.37c4.07,0,7.37,3.3,7.37,7.37V498.628z M35.053,376.738
			c0,4.07-3.3,7.37-7.37,7.37c-4.07,0-7.37-3.3-7.37-7.37v-48.756c0-4.07,3.3-7.37,7.37-7.37c4.07,0,7.37,3.3,7.37,7.37V376.738z
			 M44.69,498.628c0-4.07,3.3-7.37,7.37-7.37c4.07,0,7.37,3.3,7.37,7.37v24.378c0,4.07-3.3,7.37-7.37,7.37
			c-4.07,0-7.37-3.3-7.37-7.37V498.628z M44.691,474.25c0-4.07,3.3-7.37,7.37-7.37s7.37,3.3,7.37,7.37s-3.3,7.37-7.37,7.37
			S44.691,478.32,44.691,474.25z M100.817,554.754c-0.163,0-0.322-0.014-0.483-0.024H52.544c-0.16,0.01-0.32,0.024-0.483,0.024
			s-0.322-0.014-0.483-0.024h-0.085v-0.004c-3.804-0.291-6.803-3.463-6.803-7.341s2.998-7.051,6.803-7.341v-0.029h0.566
			c0,0,0.001,0,0.001,0s0.001,0,0.001,0h48.753c0,0,0.001,0,0.001,0c4.07,0,7.37,3.3,7.37,7.37S104.887,554.754,100.817,554.754z
			 M76.439,515.636h24.378c4.07,0,7.37,3.3,7.37,7.37c0,4.07-3.3,7.37-7.37,7.37H76.439c-4.07,0-7.37-3.3-7.37-7.37
			C69.068,518.935,72.368,515.636,76.439,515.636z M69.068,498.628V474.25c0-4.07,3.3-7.37,7.37-7.37c4.07,0,7.37,3.3,7.37,7.37
			v24.378c0,4.07-3.3,7.37-7.37,7.37C72.368,505.998,69.068,502.698,69.068,498.628z M108.187,498.628c0,4.07-3.3,7.37-7.37,7.37
			c-4.07,0-7.37-3.3-7.37-7.37V474.25c0-4.07,3.3-7.37,7.37-7.37c4.07,0,7.37,3.3,7.37,7.37V498.628z M100.817,457.242
			c-0.163,0-0.322-0.014-0.483-0.024H52.544c-0.16,0.01-0.32,0.024-0.483,0.024s-0.322-0.014-0.483-0.024h-0.085v-0.004
			c-3.804-0.291-6.803-3.463-6.803-7.341s2.998-7.051,6.803-7.341v-0.029h0.566c0,0,0.001,0,0.001,0s0.001,0,0.001,0h48.753
			c0,0,0.001,0,0.001,0c4.07,0,7.37,3.3,7.37,7.37S104.887,457.242,100.817,457.242z M100.817,432.864
			c-0.163,0-0.322-0.014-0.483-0.024H52.544c-0.16,0.01-0.32,0.024-0.483,0.024s-0.322-0.014-0.483-0.024h-0.085v-0.004
			c-3.804-0.291-6.803-3.463-6.803-7.341s2.998-7.051,6.803-7.341v-0.029h0.566c0,0,0.001,0,0.001,0s0.001,0,0.001,0h48.753
			c0,0,0.001,0,0.001,0c4.07,0,7.37,3.3,7.37,7.37S104.887,432.864,100.817,432.864z M76.439,393.746h24.378
			c4.07,0,7.37,3.3,7.37,7.37c0,4.07-3.3,7.37-7.37,7.37H76.439c-4.07,0-7.37-3.3-7.37-7.37
			C69.068,397.046,72.368,393.746,76.439,393.746z M69.068,376.738V352.36c0-4.07,3.3-7.37,7.37-7.37c4.07,0,7.37,3.3,7.37,7.37
			v24.378c0,4.07-3.3,7.37-7.37,7.37C72.368,384.108,69.068,380.809,69.068,376.738z M108.187,376.738c0,4.07-3.3,7.37-7.37,7.37
			c-4.07,0-7.37-3.3-7.37-7.37V352.36c0-4.07,3.3-7.37,7.37-7.37c4.07,0,7.37,3.3,7.37,7.37V376.738z M100.817,335.352
			c-0.163,0-0.322-0.014-0.483-0.024H52.544c-0.16,0.01-0.32,0.024-0.483,0.024s-0.322-0.014-0.483-0.024h-0.085v-0.004
			c-3.804-0.291-6.803-3.463-6.803-7.341s2.998-7.051,6.803-7.341v-0.029h0.566c0,0,0.001,0,0.001,0s0.001,0,0.001,0h48.753
			c0,0,0.001,0,0.001,0c4.07,0,7.37,3.3,7.37,7.37S104.887,335.352,100.817,335.352z M117.637,376.739c0-4.07,3.3-7.37,7.37-7.37
			c4.07,0,7.37,3.3,7.37,7.37v24.378c0,4.07-3.3,7.37-7.37,7.37c-4.07,0-7.37-3.3-7.37-7.37V376.739z M117.638,669.249
			c0-4.07,3.3-7.37,7.37-7.37c4.07,0,7.37,3.3,7.37,7.37v27.237c0,4.07-3.3,7.37-7.37,7.37c-4.07,0-7.37-3.3-7.37-7.37V669.249z
			 M176.315,740.424h-56.693v-15.591h56.693V740.424z M181.133,696.486c0,4.07-3.3,7.37-7.37,7.37c-4.07,0-7.37-3.3-7.37-7.37
			v-27.213c0-4.07,3.3-7.37,7.37-7.37c4.07,0,7.37,3.3,7.37,7.37V696.486z M173.764,652.265c-4.07,0-7.37-3.3-7.37-7.37
			s3.3-7.37,7.37-7.37s7.37,3.3,7.37,7.37S177.834,652.265,173.764,652.265z M190.771,696.511c0-4.07,3.3-7.37,7.37-7.37h48.569
			c4.07,0,7.37,3.3,7.37,7.37c0,4.07-3.3,7.37-7.37,7.37h-48.569C194.071,703.881,190.771,700.581,190.771,696.511z
			 M298.205,740.424h-56.693v-15.591h56.693V740.424z M263.812,327.889c0-4.07,3.3-7.37,7.37-7.37h17.125c4.07,0,7.37,3.3,7.37,7.37
			c0,4.07-3.3,7.37-7.37,7.37h-9.755v17.195c0,4.07-3.3,7.37-7.37,7.37c-4.07,0-7.37-3.3-7.37-7.37v-24.378
			c0-0.032,0.004-0.062,0.005-0.093C263.816,327.951,263.812,327.92,263.812,327.889z M263.906,376.738
			c0-0.163,0.014-0.322,0.024-0.483v-0.085h0.004c0.291-3.804,3.463-6.803,7.341-6.803s7.051,2.998,7.341,6.803h0.029v0.566
			c0,0,0,0.001,0,0.001s0,0.001,0,0.001v48.753c0,0,0,0.001,0,0.001c0,4.07-3.3,7.37-7.37,7.37s-7.37-3.3-7.37-7.37
			c0-0.163,0.014-0.322,0.024-0.483v-47.791C263.919,377.061,263.906,376.901,263.906,376.738z M278.646,547.384
			c0,4.07-3.3,7.37-7.37,7.37s-7.37-3.3-7.37-7.37c0-0.163,0.014-0.322,0.024-0.483V499.11c-0.01-0.16-0.024-0.32-0.024-0.483
			s0.014-0.322,0.024-0.483v-0.085h0.004c0.291-3.804,3.463-6.803,7.341-6.803s7.051,2.998,7.341,6.803h0.029v0.566
			c0,0,0,0.001,0,0.001s0,0.001,0,0.001v48.753C278.646,547.383,278.646,547.383,278.646,547.384z M278.646,644.895
			c0,4.07-3.3,7.37-7.37,7.37s-7.37-3.3-7.37-7.37l0.024-72.651c-0.01-0.16-0.024-0.32-0.024-0.483s0.014-0.322,0.024-0.483v-0.085
			h0.004c0.291-3.804,3.463-6.803,7.341-6.803s7.051,2.998,7.341,6.803h0.029v0.566c0,0,0,0.001,0,0.001s0,0.001,0,0.001v48.753
			C278.646,620.517,278.646,644.895,278.646,644.895z M271.276,442.502c4.07,0,7.37,3.3,7.37,7.37v24.378c0,4.07-3.3,7.37-7.37,7.37
			c-4.07,0-7.37-3.3-7.37-7.37v-24.378C263.906,445.802,267.205,442.502,271.276,442.502z M271.276,661.903
			c4.07,0,7.37,3.3,7.37,7.37v19.867h9.661c4.07,0,7.37,3.3,7.37,7.37c0,4.07-3.3,7.37-7.37,7.37h-16.335
			c-0.118,0-0.233-0.012-0.349-0.018c-0.116,0.005-0.23,0.018-0.348,0.018c-4.07,0-7.37-3.3-7.37-7.37v-27.237
			C263.906,665.203,267.205,661.903,271.276,661.903z M298.205,299.635h-56.693v-15.591h56.693V299.635z M332.221,682.034H316.63
			V540.302h15.591V682.034z M332.221,483.321H316.63V341.589h15.591V483.321z"/>
	</g>
</g>
</svg>
