<svg xmlns="http://www.w3.org/2000/svg" xml:space="preserve" style="enable-background:new 0 0 1494.53 1510.428" viewBox="0 0 1494.53 1510.428"><defs><style>.a{fill:#231f20;}.b{fill:#f0f;}.c{fill:#9e005d;}.d{fill:#008b8b;}.e{fill:#fbb040;}.f{fill:#be1e2d;}.g{fill:#ff69b4;}.h{fill:#ff1493;}.i{fill:#8dc63f;}.j{fill:#39b54a;}.k{fill:#f9ed32;}.l{fill:#c69c6d;}</style></defs><path d="m0 756.012.029 483.832h258.193l.04-483.832H0zm134.255 50.086h24.404c4.075 0 7.378 3.303 7.378 7.378s-3.303 7.378-7.378 7.378h-24.404c-4.075 0-7.378-3.303-7.378-7.378s3.303-7.378 7.378-7.378zm24.217 332.013c-4.075 0-7.378-3.303-7.378-7.378v-24.404c0-4.075 3.303-7.378 7.378-7.378s7.378 3.303 7.378 7.378v24.404c0 4.074-3.303 7.378-7.378 7.378zm7.378 17.026c0 4.075-3.303 7.378-7.378 7.378s-7.378-3.303-7.378-7.378 3.303-7.378 7.378-7.378 7.378 3.303 7.378 7.378zm-7.191-65.835c-.163 0-.323-.014-.483-.024h-47.842c-.16.01-.32.024-.483.024s-.323-.014-.483-.024h-.085v-.004c-3.808-.291-6.81-3.466-6.81-7.349s3.001-7.058 6.81-7.349v-.029h49.376c4.075 0 7.378 3.303 7.378 7.378.001 4.074-3.303 7.377-7.378 7.377zm-24.404 24.404c-.163 0-.323-.014-.483-.024H85.93c-.16.01-.32.024-.483.024s-.323-.014-.483-.024h-.085v-.004c-3.808-.291-6.81-3.466-6.81-7.349s3.001-7.058 6.81-7.349v-.029h49.376c4.075 0 7.378 3.303 7.378 7.378s-3.303 7.377-7.378 7.377zm7.378 17.027v24.404c0 4.075-3.303 7.378-7.378 7.378s-7.378-3.303-7.378-7.378v-24.404c0-4.075 3.303-7.378 7.378-7.378s7.378 3.303 7.378 7.378zm-24.405 0v24.404c0 4.075-3.303 7.378-7.378 7.378s-7.378-3.303-7.378-7.378v-24.404c0-4.075 3.303-7.378 7.378-7.378s7.378 3.303 7.378 7.378zm17.027-212.261c-.163 0-.323-.014-.483-.024H85.93c-.16.01-.32.024-.483.024s-.323-.014-.483-.024h-.085v-.004c-3.808-.291-6.81-3.466-6.81-7.349s3.001-7.058 6.81-7.349v-.029h49.376c4.075 0 7.378 3.303 7.378 7.378 0 4.073-3.303 7.377-7.378 7.377zm7.378 17.026v24.404c0 4.075-3.303 7.378-7.378 7.378s-7.378-3.303-7.378-7.378v-24.404c0-4.075 3.303-7.378 7.378-7.378s7.378 3.303 7.378 7.378zm-7.378 80.591c-.163 0-.323-.014-.483-.024H85.93c-.16.01-.32.024-.483.024s-.323-.014-.483-.024h-.085v-.004c-3.808-.291-6.81-3.466-6.81-7.349s3.001-7.058 6.81-7.349v-.029h49.376c4.075 0 7.378 3.303 7.378 7.378 0 4.074-3.303 7.377-7.378 7.377zm7.378 17.026v24.404c0 4.075-3.303 7.378-7.378 7.378s-7.378-3.303-7.378-7.378v-24.404c0-4.075 3.303-7.378 7.378-7.378s7.378 3.304 7.378 7.378zm-24.405 0v24.404c0 4.075-3.303 7.378-7.378 7.378s-7.378-3.303-7.378-7.378v-24.404c0-4.075 3.303-7.378 7.378-7.378s7.378 3.304 7.378 7.378zm-24.404 0c0 4.075-3.303 7.378-7.378 7.378s-7.378-3.303-7.378-7.378 3.303-7.378 7.378-7.378 7.378 3.303 7.378 7.378zm24.404-97.617v24.404c0 4.075-3.303 7.378-7.378 7.378s-7.378-3.303-7.378-7.378v-24.404c0-4.075 3.303-7.378 7.378-7.378s7.378 3.303 7.378 7.378zm-24.404 0c0 4.075-3.303 7.378-7.378 7.378s-7.378-3.303-7.378-7.378 3.303-7.378 7.378-7.378 7.378 3.303 7.378 7.378zm-7.378-80.591c4.075 0 7.378 3.303 7.378 7.378v24.404c0 4.075-3.303 7.378-7.378 7.378s-7.378-3.303-7.378-7.378v-24.404c0-4.075 3.303-7.378 7.378-7.378zm-7.378-17.026c0-4.075 3.303-7.378 7.378-7.378s7.378 3.303 7.378 7.378-3.303 7.378-7.378 7.378c-4.074 0-7.378-3.304-7.378-7.378zm7.378 114.643c4.075 0 7.378 3.303 7.378 7.378v24.404c0 4.075-3.303 7.378-7.378 7.378s-7.378-3.303-7.378-7.378v-24.404c0-4.074 3.303-7.378 7.378-7.378zm0 97.618c4.075 0 7.378 3.303 7.378 7.378v24.404c0 4.075-3.303 7.378-7.378 7.378s-7.378-3.303-7.378-7.378v-24.404c0-4.075 3.303-7.378 7.378-7.378zm80.404-17.027c0 4.075-3.303 7.378-7.378 7.378s-7.378-3.303-7.378-7.378v-24.404c0-4.075 3.303-7.378 7.378-7.378s7.378 3.303 7.378 7.378v24.404zm.188 24.405c0 4.075-3.303 7.378-7.378 7.378s-7.378-3.303-7.378-7.378 3.303-7.378 7.378-7.378 7.378 3.303 7.378 7.378zm-7.379-65.835c-.163 0-.323-.014-.483-.024h-47.842c-.16.01-.32.024-.483.024s-.323-.014-.483-.024h-.085v-.004c-3.808-.291-6.81-3.466-6.81-7.349s3.001-7.058 6.81-7.349v-.029h49.376c4.075 0 7.378 3.303 7.378 7.378s-3.303 7.377-7.378 7.377zm7.191-56.187c0 4.075-3.303 7.378-7.378 7.378s-7.378-3.303-7.378-7.378v-24.404c0-4.075 3.303-7.378 7.378-7.378s7.378 3.303 7.378 7.378v24.404zm.188 24.404c0 4.075-3.303 7.378-7.378 7.378s-7.378-3.303-7.378-7.378 3.303-7.378 7.378-7.378 7.378 3.303 7.378 7.378zm-7.379-65.835c-.163 0-.323-.014-.483-.024h-47.842c-.16.01-.32.024-.483.024s-.323-.014-.483-.024h-.085v-.004c-3.808-.291-6.81-3.466-6.81-7.349s3.001-7.058 6.81-7.349v-.029h49.376c4.075 0 7.378 3.303 7.378 7.378s-3.303 7.377-7.378 7.377zm-56.187-31.782v-24.404c0-4.075 3.303-7.378 7.378-7.378s7.378 3.303 7.378 7.378v24.404c0 4.075-3.303 7.378-7.378 7.378-4.074 0-7.378-3.303-7.378-7.378zm24.405 0v-24.404c0-4.075 3.303-7.378 7.378-7.378s7.378 3.303 7.378 7.378v24.404c0 4.075-3.303 7.378-7.378 7.378s-7.378-3.303-7.378-7.378zm31.782 7.378c-4.075 0-7.378-3.303-7.378-7.378s3.303-7.378 7.378-7.378 7.378 3.303 7.378 7.378c.001 4.075-3.303 7.378-7.378 7.378zm-7.47-31.689c0-4.075 3.303-7.378 7.378-7.378s7.378 3.303 7.378 7.378-3.303 7.378-7.378 7.378-7.378-3.303-7.378-7.378zm-33.96-24.498c0 4.075-3.303 7.378-7.378 7.378H85.446c-4.075 0-7.378-3.303-7.378-7.378s3.303-7.378 7.378-7.378h24.404c4.076 0 7.379 3.303 7.379 7.378zm-85.983-43.985H88v15.608H31.246v-15.608zm29.796 368.595c-4.075 0-7.378-3.303-7.378-7.378V1081.9c0-4.075 3.303-7.378 7.378-7.378s7.378 3.303 7.378 7.378v48.809c0 4.074-3.303 7.377-7.378 7.377zm7.377 17.027v27.267c0 4.075-3.303 7.378-7.378 7.378s-7.378-3.303-7.378-7.378v-27.267c0-4.075 3.303-7.378 7.378-7.378s7.378 3.303 7.378 7.378zM53.663 911.094V886.69c0-4.075 3.303-7.378 7.378-7.378s7.378 3.303 7.378 7.378v24.404c0 4.075-3.303 7.378-7.378 7.378s-7.378-3.304-7.378-7.378zm7.379 153.804c-4.075 0-7.378-3.303-7.378-7.378v-48.809c0-4.075 3.303-7.378 7.378-7.378s7.378 3.303 7.378 7.378v48.809c0 4.074-3.303 7.378-7.378 7.378zm0-73.213c-4.075 0-7.378-3.303-7.378-7.378v-48.809c0-4.075 3.303-7.378 7.378-7.378s7.378 3.303 7.378 7.378v48.809c0 4.074-3.303 7.378-7.378 7.378zm0-122.022c-4.075 0-7.378-3.303-7.378-7.378v-48.809c0-4.075 3.303-7.378 7.378-7.378s7.378 3.303 7.378 7.378v48.809c0 4.075-3.303 7.378-7.378 7.378zM29.26 813.476c0-4.075 3.303-7.378 7.378-7.378s7.378 3.303 7.378 7.378v24.404c0 4.075-3.303 7.378-7.378 7.378s-7.378-3.303-7.378-7.378v-24.404zm0 48.809c0-4.075 3.303-7.378 7.378-7.378s7.378 3.303 7.378 7.378v24.404c0 4.075-3.303 7.378-7.378 7.378s-7.378-3.303-7.378-7.378v-24.404zm0 48.809c0-4.075 3.303-7.378 7.378-7.378s7.378 3.303 7.378 7.378v24.404c0 4.075-3.303 7.378-7.378 7.378s-7.378-3.303-7.378-7.378v-24.404zm0 48.808c0-4.075 3.303-7.378 7.378-7.378s7.378 3.303 7.378 7.378v24.404c0 4.075-3.303 7.378-7.378 7.378s-7.378-3.303-7.378-7.378v-24.404zm0 48.809c0-4.075 3.303-7.378 7.378-7.378s7.378 3.303 7.378 7.378v24.404c0 4.075-3.303 7.378-7.378 7.378s-7.378-3.303-7.378-7.378v-24.404zm0 48.809c0-4.075 3.303-7.378 7.378-7.378s7.378 3.303 7.378 7.378v24.404c0 4.075-3.303 7.378-7.378 7.378s-7.378-3.303-7.378-7.378v-24.404zm0 48.808c0-4.075 3.303-7.378 7.378-7.378s7.378 3.303 7.378 7.378v24.404c0 4.075-3.303 7.378-7.378 7.378s-7.378-3.303-7.378-7.378v-24.404zm0 48.785c0-4.075 3.303-7.378 7.378-7.378s7.378 3.303 7.378 7.378v27.267c0 4.075-3.303 7.378-7.378 7.378s-7.378-3.303-7.378-7.378v-27.267zM88 1226.365H31.246v-15.608H88v15.608zm4.824-43.986c0 4.075-3.303 7.378-7.378 7.378s-7.378-3.303-7.378-7.378v-27.242c0-4.075 3.303-7.378 7.378-7.378s7.378 3.303 7.378 7.378v27.242zm-7.378-44.268c-4.075 0-7.378-3.303-7.378-7.378s3.303-7.378 7.378-7.378 7.378 3.303 7.378 7.378c0 4.074-3.303 7.378-7.378 7.378zm17.026 44.293c0-4.075 3.303-7.378 7.378-7.378h48.622c4.075 0 7.378 3.303 7.378 7.378s-3.303 7.378-7.378 7.378H109.85c-4.074 0-7.378-3.303-7.378-7.378zm107.55 43.961h-56.754v-15.607h56.754v15.607zm-34.43-412.982c0-4.075 3.303-7.378 7.378-7.378h17.144c4.075 0 7.378 3.303 7.378 7.378s-3.303 7.378-7.378 7.378h-9.766v17.213c0 4.075-3.303 7.378-7.378 7.378s-7.378-3.303-7.378-7.378V813.57c0-.032.004-.062.005-.094 0-.031-.005-.062-.005-.093zm.094 48.902c0-.163.014-.323.024-.483v-.085h.004c.291-3.808 3.466-6.81 7.349-6.81s7.058 3.001 7.349 6.81h.029v49.376c0 4.075-3.303 7.378-7.378 7.378s-7.378-3.303-7.378-7.378c0-.163.014-.323.024-.483v-47.842c-.009-.16-.023-.32-.023-.483zm14.756 170.83c0 4.075-3.303 7.378-7.378 7.378s-7.378-3.303-7.378-7.378c0-.163.014-.323.024-.483V984.79c-.01-.16-.024-.32-.024-.483s.014-.323.024-.483v-.085h.004c.291-3.808 3.466-6.81 7.349-6.81s7.058 3.001 7.349 6.81h.029v49.375l.001.001zm0 97.618c0 4.075-3.303 7.378-7.378 7.378s-7.378-3.303-7.378-7.378l.024-72.73c-.01-.161-.024-.32-.024-.483s.014-.323.024-.483v-.085h.004c.291-3.808 3.466-6.81 7.349-6.81s7.058 3.002 7.349 6.81h.029v49.375c.001.001.001 24.405.001 24.406zm-7.378-202.613c4.075 0 7.378 3.303 7.378 7.378v24.404c0 4.075-3.303 7.378-7.378 7.378s-7.378-3.303-7.378-7.378v-24.404c0-4.075 3.303-7.378 7.378-7.378zm0 219.639c4.075 0 7.378 3.303 7.378 7.378v19.889h9.672c4.075 0 7.378 3.303 7.378 7.378s-3.303 7.378-7.378 7.378h-16.352c-.118 0-.233-.012-.349-.018-.116.005-.231.018-.348.018-4.075 0-7.378-3.303-7.378-7.378v-27.267c-.001-4.075 3.302-7.378 7.377-7.378zm26.958-362.661h-56.754V769.49h56.754v15.608zm34.053 382.813h-15.607v-141.886h15.607v141.886zm0-198.928h-15.607V827.097h15.607v141.886z" class="a"/><path d="m1236.268 756.012.04 483.832h258.193l.029-483.832h-258.262zm170.262 13.479h56.754v15.608h-56.754v-15.608zm26.958 231.842c4.075 0 7.378 3.303 7.378 7.378v48.809c0 4.075-3.303 7.378-7.378 7.378s-7.378-3.303-7.378-7.378v-48.809c0-4.075 3.303-7.378 7.378-7.378zm-7.378-17.026v-48.809c0-4.075 3.303-7.378 7.378-7.378s7.378 3.303 7.378 7.378v48.809c0 4.075-3.303 7.378-7.378 7.378s-7.378-3.304-7.378-7.378zm7.378 90.214c4.075 0 7.378 3.303 7.378 7.378v48.809c0 4.075-3.303 7.378-7.378 7.378s-7.378-3.303-7.378-7.378V1081.9c0-4.075 3.303-7.379 7.378-7.379zm-7.377 80.592c0-4.075 3.303-7.378 7.378-7.378s7.378 3.303 7.378 7.378v27.267c0 4.075-3.303 7.378-7.378 7.378s-7.378-3.303-7.378-7.378v-27.267zm7.378-236.641c-4.075 0-7.378-3.303-7.378-7.378V886.69c0-4.075 3.303-7.378 7.378-7.378s7.378 3.303 7.378 7.378v24.404c0 4.074-3.303 7.378-7.378 7.378zm-7.379-56.187v-48.809c0-4.075 3.303-7.378 7.378-7.378s7.378 3.303 7.378 7.378v48.809c0 4.075-3.303 7.378-7.378 7.378s-7.378-3.303-7.378-7.378zm-90.052 275.826c-4.075 0-7.378-3.303-7.378-7.378v-24.404c0-4.075 3.303-7.378 7.378-7.378s7.378 3.303 7.378 7.378v24.404c0 4.074-3.304 7.378-7.378 7.378zm7.378 17.026c0 4.075-3.303 7.378-7.378 7.378s-7.378-3.303-7.378-7.378 3.303-7.378 7.378-7.378c4.074 0 7.378 3.303 7.378 7.378zm-7.082-65.859c-.16.01-.32.024-.483.024-4.075 0-7.378-3.303-7.378-7.378s3.303-7.378 7.378-7.378H1385.247v.029c3.808.291 6.81 3.466 6.81 7.349s-3.001 7.058-6.81 7.349v.004h-.085c-.161.01-.32.024-.483.024s-.323-.014-.483-.024h-47.842zm-.484-234.371c4.075 0 7.378 3.303 7.378 7.378s-3.303 7.378-7.378 7.378-7.378-3.303-7.378-7.378 3.304-7.378 7.378-7.378zm-7.285-16.933c0-4.075 3.303-7.378 7.378-7.378s7.378 3.303 7.378 7.378-3.303 7.378-7.378 7.378-7.378-3.303-7.378-7.378zm7.285 41.337H1385.246v.029c3.808.291 6.81 3.466 6.81 7.349s-3.001 7.058-6.81 7.349v.004h-.085c-.161.01-.32.024-.483.024s-.323-.014-.483-.024h-47.843c-.16.01-.32.024-.483.024-4.075 0-7.378-3.303-7.378-7.378s3.305-7.377 7.379-7.377zm17.027-17.026v-24.404c0-4.075 3.303-7.378 7.378-7.378s7.378 3.303 7.378 7.378v24.404c0 4.075-3.303 7.378-7.378 7.378s-7.378-3.303-7.378-7.378zm63.565 48.809c0 3.883-3.001 7.058-6.81 7.349v.004h-.085c-.16.01-.32.024-.483.024s-.323-.014-.483-.024h-47.842c-.161.01-.32.024-.483.024-4.075 0-7.378-3.303-7.378-7.378s3.303-7.378 7.378-7.378H1409.652v.029c3.808.291 6.81 3.467 6.81 7.35zm0 97.617c0 3.883-3.001 7.058-6.81 7.349v.004h-.085c-.16.01-.32.024-.483.024s-.323-.014-.483-.024h-47.842c-.161.01-.32.024-.483.024-4.075 0-7.378-3.303-7.378-7.378s3.303-7.378 7.378-7.378H1409.652v.029c3.808.292 6.81 3.467 6.81 7.35zm0 24.404c0 4.075-3.303 7.378-7.378 7.378s-7.378-3.303-7.378-7.378 3.303-7.378 7.378-7.378c4.074 0 7.378 3.303 7.378 7.378zm-24.404 0v24.404c0 4.075-3.303 7.378-7.378 7.378s-7.378-3.303-7.378-7.378v-24.404c0-4.075 3.303-7.378 7.378-7.378s7.378 3.304 7.378 7.378zm-24.405 0v24.404c0 4.075-3.303 7.378-7.378 7.378s-7.378-3.303-7.378-7.378v-24.404c0-4.075 3.303-7.378 7.378-7.378s7.378 3.304 7.378 7.378zm24.405-73.213c0 4.075-3.303 7.378-7.378 7.378s-7.378-3.303-7.378-7.378v-24.404c0-4.075 3.303-7.378 7.378-7.378s7.378 3.303 7.378 7.378v24.404zm24.404-24.404c0 4.075-3.303 7.378-7.378 7.378s-7.378-3.303-7.378-7.378 3.303-7.378 7.378-7.378c4.074 0 7.378 3.303 7.378 7.378zm-48.809 0v24.404c0 4.075-3.303 7.378-7.378 7.378s-7.378-3.303-7.378-7.378v-24.404c0-4.075 3.303-7.378 7.378-7.378s7.378 3.303 7.378 7.378zm24.405-73.213c0 4.075-3.303 7.378-7.378 7.378s-7.378-3.303-7.378-7.378v-24.404c0-4.075 3.303-7.378 7.378-7.378s7.378 3.303 7.378 7.378v24.404zm-48.622 48.809v24.404c0 4.075-3.303 7.378-7.378 7.378s-7.378-3.303-7.378-7.378v-24.404c0-4.075 3.303-7.378 7.378-7.378 4.074 0 7.378 3.303 7.378 7.378zm-7.566 41.43c4.075 0 7.378 3.303 7.378 7.378s-3.303 7.378-7.378 7.378-7.378-3.303-7.378-7.378 3.304-7.378 7.378-7.378zm0 24.405H1385.246v.029c3.808.291 6.81 3.466 6.81 7.349s-3.001 7.058-6.81 7.349v.004h-.085c-.161.01-.32.024-.483.024s-.323-.014-.483-.024h-47.843c-.16.01-.32.024-.483.024-4.075 0-7.378-3.303-7.378-7.378s3.305-7.377 7.379-7.377zm7.566 31.782v24.404c0 4.075-3.303 7.378-7.378 7.378s-7.378-3.303-7.378-7.378v-24.404c0-4.075 3.303-7.378 7.378-7.378 4.074 0 7.378 3.303 7.378 7.378zm-7.566 41.43c4.075 0 7.378 3.303 7.378 7.378s-3.303 7.378-7.378 7.378-7.378-3.303-7.378-7.378c0-4.074 3.304-7.378 7.378-7.378zm17.027 80.592c0-4.075 3.303-7.378 7.378-7.378s7.378 3.303 7.378 7.378v24.404c0 4.075-3.303 7.378-7.378 7.378s-7.378-3.303-7.378-7.378v-24.404zm7.861-17.051c-.161.01-.32.024-.483.024-4.075 0-7.378-3.303-7.378-7.378s3.303-7.378 7.378-7.378H1409.651v.029c3.809.291 6.81 3.466 6.81 7.349s-3.001 7.058-6.81 7.349v.004h-.085c-.16.01-.32.024-.483.024s-.323-.014-.483-.024h-47.842zm48.326-24.38c-4.075 0-7.378-3.303-7.378-7.378v-24.404c0-4.075 3.303-7.378 7.378-7.378s7.378 3.303 7.378 7.378v24.404c0 4.075-3.303 7.378-7.378 7.378zm0-97.617c-4.075 0-7.378-3.303-7.378-7.378v-24.404c0-4.075 3.303-7.378 7.378-7.378s7.378 3.303 7.378 7.378v24.404c0 4.074-3.303 7.378-7.378 7.378zm0-97.618c-4.075 0-7.378-3.303-7.378-7.378v-24.404c0-4.075 3.303-7.378 7.378-7.378s7.378 3.303 7.378 7.378v24.404c0 4.075-3.303 7.378-7.378 7.378zm-7.379-56.186c0-4.075 3.303-7.378 7.378-7.378s7.378 3.303 7.378 7.378-3.303 7.378-7.378 7.378c-4.074 0-7.378-3.304-7.378-7.378zm-17.026-31.783h24.404c4.075 0 7.378 3.303 7.378 7.378s-3.303 7.378-7.378 7.378h-24.404c-4.075 0-7.378-3.303-7.378-7.378s3.303-7.378 7.378-7.378zm-17.026 7.378c0 4.075-3.303 7.378-7.378 7.378h-24.404c-4.075 0-7.378-3.303-7.378-7.378s3.303-7.378 7.378-7.378h24.404c4.075 0 7.378 3.303 7.378 7.378zm-83.145-43.985h56.754v15.608h-56.754v-15.608zm34.43 44.079v24.404c0 4.075-3.303 7.378-7.378 7.378s-7.378-3.303-7.378-7.378v-17.213h-9.766c-4.075 0-7.378-3.303-7.378-7.378s3.303-7.378 7.378-7.378h17.144c4.075 0 7.378 3.303 7.378 7.378 0 .032-.004.062-.005.094 0 .031.005.061.005.093zm-14.85 243.95v-.568h.029c.291-3.808 3.466-6.81 7.349-6.81s7.058 3.002 7.349 6.81h.004v.085c.01.161.024.32.024.483s-.014.323-.024.483l.024 72.73c0 4.075-3.303 7.378-7.378 7.378s-7.378-3.303-7.378-7.378V1057.521l.001-.001zm0-73.213v-.568h.029c.291-3.808 3.466-6.81 7.349-6.81s7.058 3.001 7.349 6.81h.004v.085c.01.16.024.32.024.483s-.014.323-.024.483v47.842c.01.161.024.32.024.483 0 4.075-3.303 7.378-7.378 7.378s-7.378-3.303-7.378-7.378V984.308l.001-.001zm0-122.022v-.568h.029c.291-3.808 3.466-6.81 7.349-6.81s7.058 3.001 7.349 6.81h.004v.085c.01.16.024.32.024.483s-.014.323-.024.483v47.842c.01.16.024.32.024.483 0 4.075-3.303 7.378-7.378 7.378s-7.378-3.303-7.378-7.378V862.286c.001 0 .001-.001.001-.001zm0 292.852c0-4.075 3.303-7.378 7.378-7.378s7.378 3.303 7.378 7.378v27.267c0 4.075-3.303 7.378-7.378 7.378-.117 0-.232-.012-.348-.018-.117.005-.231.018-.349.018h-16.352c-4.075 0-7.378-3.303-7.378-7.378s3.303-7.378 7.378-7.378h9.672v-19.889zm7.378-187.857c-4.075 0-7.378-3.303-7.378-7.378v-24.404c0-4.075 3.303-7.378 7.378-7.378s7.378 3.303 7.378 7.378v24.404c0 4.075-3.303 7.378-7.378 7.378zm-45.404 200.631h-15.607v-141.886h15.607v141.886zm0-198.928h-15.607V827.097h15.607v141.886zm75.2 257.382h-56.754v-15.607h56.754v15.607zm43.418-36.583h-48.622c-4.075 0-7.378-3.303-7.378-7.378s3.303-7.378 7.378-7.378h48.622c4.075 0 7.378 3.303 7.378 7.378s-3.304 7.378-7.378 7.378zm7.378-34.645c0 4.075-3.303 7.378-7.378 7.378s-7.378-3.303-7.378-7.378v-24.404c0-4.075 3.303-7.378 7.378-7.378s7.378 3.303 7.378 7.378v24.404zm17.025-31.782c4.075 0 7.378 3.303 7.378 7.378s-3.303 7.378-7.378 7.378-7.378-3.303-7.378-7.378 3.304-7.378 7.378-7.378zm-7.377 59.024v-27.242c0-4.075 3.303-7.378 7.378-7.378s7.378 3.303 7.378 7.378v27.242c0 4.075-3.303 7.378-7.378 7.378s-7.378-3.303-7.378-7.378zm61.578 43.986h-56.754v-15.608h56.754v15.608zm1.986-43.986c0 4.075-3.303 7.378-7.378 7.378s-7.378-3.303-7.378-7.378v-27.267c0-4.075 3.303-7.378 7.378-7.378s7.378 3.303 7.378 7.378v27.267zm0-51.646c0 4.075-3.303 7.378-7.378 7.378s-7.378-3.303-7.378-7.378v-24.404c0-4.075 3.303-7.378 7.378-7.378s7.378 3.303 7.378 7.378v24.404zm0-48.809c0 4.075-3.303 7.378-7.378 7.378s-7.378-3.303-7.378-7.378v-24.404c0-4.075 3.303-7.378 7.378-7.378s7.378 3.303 7.378 7.378v24.404zm0-48.809c0 4.075-3.303 7.378-7.378 7.378s-7.378-3.303-7.378-7.378v-24.404c0-4.075 3.303-7.378 7.378-7.378s7.378 3.303 7.378 7.378v24.404zm0-48.808c0 4.075-3.303 7.378-7.378 7.378s-7.378-3.303-7.378-7.378v-24.404c0-4.075 3.303-7.378 7.378-7.378s7.378 3.303 7.378 7.378v24.404zm0-48.809c0 4.075-3.303 7.378-7.378 7.378s-7.378-3.303-7.378-7.378v-24.404c0-4.075 3.303-7.378 7.378-7.378s7.378 3.303 7.378 7.378v24.404zm0-48.809c0 4.075-3.303 7.378-7.378 7.378s-7.378-3.303-7.378-7.378v-24.404c0-4.075 3.303-7.378 7.378-7.378s7.378 3.303 7.378 7.378v24.404zm0-48.808c0 4.075-3.303 7.378-7.378 7.378s-7.378-3.303-7.378-7.378v-24.404c0-4.075 3.303-7.378 7.378-7.378s7.378 3.303 7.378 7.378v24.404z" class="b"/><path d="m.175 270.084.029 483.832h258.193l.04-483.832H.175zm134.255 50.087h24.404c4.075 0 7.378 3.303 7.378 7.378s-3.303 7.378-7.378 7.378H134.43c-4.075 0-7.378-3.303-7.378-7.378s3.303-7.378 7.378-7.378zm24.218 332.012c-4.075 0-7.378-3.303-7.378-7.378v-24.404c0-4.075 3.303-7.378 7.378-7.378s7.378 3.303 7.378 7.378v24.404c0 4.075-3.304 7.378-7.378 7.378zm7.378 17.026c0 4.075-3.303 7.378-7.378 7.378s-7.378-3.303-7.378-7.378 3.303-7.378 7.378-7.378c4.074 0 7.378 3.304 7.378 7.378zm-7.191-65.834c-.163 0-.323-.014-.483-.024H110.51c-.16.01-.32.024-.483.024s-.323-.014-.483-.024h-.085v-.004c-3.808-.291-6.81-3.466-6.81-7.349s3.002-7.058 6.81-7.349v-.029h49.376c4.075 0 7.378 3.303 7.378 7.378 0 4.073-3.303 7.377-7.378 7.377zm-24.405 24.404c-.163 0-.323-.014-.483-.024H86.105c-.16.01-.32.024-.483.024s-.323-.014-.483-.024h-.085v-.004c-3.808-.291-6.81-3.466-6.81-7.349s3.002-7.058 6.81-7.349v-.029h49.376c4.075 0 7.378 3.303 7.378 7.378s-3.303 7.377-7.378 7.377zm7.379 17.026v24.404c0 4.075-3.303 7.378-7.378 7.378s-7.378-3.303-7.378-7.378v-24.404c0-4.075 3.303-7.378 7.378-7.378 4.074 0 7.378 3.303 7.378 7.378zm-24.405 0v24.404c0 4.075-3.303 7.378-7.378 7.378s-7.378-3.303-7.378-7.378v-24.404c0-4.075 3.303-7.378 7.378-7.378 4.074 0 7.378 3.303 7.378 7.378zm17.026-212.261c-.163 0-.323-.014-.483-.024H86.105c-.16.01-.32.024-.483.024s-.323-.014-.483-.024h-.085v-.004c-3.808-.291-6.81-3.466-6.81-7.349s3.002-7.058 6.81-7.349v-.029h49.376c4.075 0 7.378 3.303 7.378 7.378s-3.303 7.377-7.378 7.377zm7.379 17.026v24.404c0 4.075-3.303 7.378-7.378 7.378s-7.378-3.303-7.378-7.378V449.57c0-4.075 3.303-7.378 7.378-7.378 4.074 0 7.378 3.304 7.378 7.378zm-7.379 80.591c-.163 0-.323-.014-.483-.024H86.105c-.16.01-.32.024-.483.024s-.323-.014-.483-.024h-.085v-.004c-3.808-.291-6.81-3.466-6.81-7.349s3.002-7.058 6.81-7.349v-.029h49.376c4.075 0 7.378 3.303 7.378 7.378s-3.303 7.377-7.378 7.377zm7.379 17.027v24.404c0 4.075-3.303 7.378-7.378 7.378s-7.378-3.303-7.378-7.378v-24.404c0-4.075 3.303-7.378 7.378-7.378 4.074 0 7.378 3.303 7.378 7.378zm-24.405 0v24.404c0 4.075-3.303 7.378-7.378 7.378s-7.378-3.303-7.378-7.378v-24.404c0-4.075 3.303-7.378 7.378-7.378 4.074 0 7.378 3.303 7.378 7.378zm-24.404 0c0 4.075-3.303 7.378-7.378 7.378s-7.378-3.303-7.378-7.378 3.303-7.378 7.378-7.378S93 543.113 93 547.188zm24.404-97.618v24.404c0 4.075-3.303 7.378-7.378 7.378s-7.378-3.303-7.378-7.378V449.57c0-4.075 3.303-7.378 7.378-7.378 4.074 0 7.378 3.304 7.378 7.378zm-24.404 0c0 4.075-3.303 7.378-7.378 7.378s-7.378-3.303-7.378-7.378 3.303-7.378 7.378-7.378S93 445.496 93 449.57zm-7.379-80.591c4.075 0 7.378 3.303 7.378 7.378v24.404c0 4.075-3.303 7.378-7.378 7.378s-7.378-3.303-7.378-7.378v-24.404c0-4.074 3.303-7.378 7.378-7.378zm-7.377-17.026c0-4.075 3.303-7.378 7.378-7.378S93 347.878 93 351.953s-3.303 7.378-7.378 7.378-7.378-3.303-7.378-7.378zm7.377 114.644c4.075 0 7.378 3.303 7.378 7.378v24.404c0 4.075-3.303 7.378-7.378 7.378s-7.378-3.303-7.378-7.378v-24.404c0-4.075 3.303-7.378 7.378-7.378zm0 97.617c4.075 0 7.378 3.303 7.378 7.378v24.404c0 4.075-3.303 7.378-7.378 7.378s-7.378-3.303-7.378-7.378v-24.404c0-4.075 3.303-7.378 7.378-7.378zm80.405-17.026c0 4.075-3.303 7.378-7.378 7.378s-7.378-3.303-7.378-7.378v-24.404c0-4.075 3.303-7.378 7.378-7.378s7.378 3.303 7.378 7.378v24.404zm.187 24.404c0 4.075-3.303 7.378-7.378 7.378s-7.378-3.303-7.378-7.378 3.303-7.378 7.378-7.378 7.378 3.303 7.378 7.378zm-7.378-65.835c-.163 0-.323-.014-.483-.024H110.51c-.16.01-.32.024-.483.024s-.323-.014-.483-.024h-.085v-.004c-3.808-.291-6.81-3.466-6.81-7.349s3.002-7.058 6.81-7.349v-.029h49.376c4.075 0 7.378 3.303 7.378 7.378s-3.303 7.377-7.378 7.377zm7.191-56.187c0 4.075-3.303 7.378-7.378 7.378s-7.378-3.303-7.378-7.378v-24.404c0-4.075 3.303-7.378 7.378-7.378s7.378 3.303 7.378 7.378v24.404zm.187 24.405c0 4.075-3.303 7.378-7.378 7.378s-7.378-3.303-7.378-7.378 3.303-7.378 7.378-7.378 7.378 3.303 7.378 7.378zm-7.378-65.835c-.163 0-.323-.014-.483-.024H110.51c-.16.01-.32.024-.483.024s-.323-.014-.483-.024h-.085v-.004c-3.808-.291-6.81-3.466-6.81-7.349s3.002-7.058 6.81-7.349v-.029h49.376c4.075 0 7.378 3.303 7.378 7.378 0 4.073-3.303 7.377-7.378 7.377zm-56.187-31.783v-24.404c0-4.075 3.303-7.378 7.378-7.378s7.378 3.303 7.378 7.378v24.404c0 4.075-3.303 7.378-7.378 7.378s-7.378-3.303-7.378-7.378zm24.404 0v-24.404c0-4.075 3.303-7.378 7.378-7.378s7.378 3.303 7.378 7.378v24.404c0 4.075-3.303 7.378-7.378 7.378-4.074 0-7.378-3.303-7.378-7.378zm31.783 7.378c-4.075 0-7.378-3.303-7.378-7.378s3.303-7.378 7.378-7.378 7.378 3.303 7.378 7.378-3.303 7.378-7.378 7.378zm-7.471-31.688c0-4.075 3.303-7.378 7.378-7.378s7.378 3.303 7.378 7.378-3.303 7.378-7.378 7.378c-4.074 0-7.378-3.304-7.378-7.378zm-33.96-24.498c0 4.075-3.303 7.378-7.378 7.378H85.622c-4.075 0-7.378-3.303-7.378-7.378s3.303-7.378 7.378-7.378h24.404c4.075 0 7.378 3.303 7.378 7.378zm-85.983-43.986h56.754v15.608H31.421v-15.608zm29.796 368.596c-4.075 0-7.378-3.303-7.378-7.378v-48.809c0-4.075 3.303-7.378 7.378-7.378s7.378 3.303 7.378 7.378v48.809c0 4.074-3.303 7.378-7.378 7.378zm7.377 17.026v27.267c0 4.075-3.303 7.378-7.378 7.378s-7.378-3.303-7.378-7.378v-27.267c0-4.075 3.303-7.378 7.378-7.378s7.378 3.303 7.378 7.378zM53.838 425.166v-24.404c0-4.075 3.303-7.378 7.378-7.378s7.378 3.303 7.378 7.378v24.404c0 4.075-3.303 7.378-7.378 7.378s-7.378-3.303-7.378-7.378zm7.379 153.804c-4.075 0-7.378-3.303-7.378-7.378v-48.809c0-4.075 3.303-7.378 7.378-7.378s7.378 3.303 7.378 7.378v48.809c0 4.075-3.303 7.378-7.378 7.378zm0-73.213c-4.075 0-7.378-3.303-7.378-7.378V449.57c0-4.075 3.303-7.378 7.378-7.378s7.378 3.303 7.378 7.378v48.809c0 4.075-3.303 7.378-7.378 7.378zm0-122.022c-4.075 0-7.378-3.303-7.378-7.378v-48.809c0-4.075 3.303-7.378 7.378-7.378s7.378 3.303 7.378 7.378v48.809c0 4.075-3.303 7.378-7.378 7.378zm-31.782-56.186c0-4.075 3.303-7.378 7.378-7.378s7.378 3.303 7.378 7.378v24.404c0 4.075-3.303 7.378-7.378 7.378s-7.378-3.303-7.378-7.378v-24.404zm0 48.808c0-4.075 3.303-7.378 7.378-7.378s7.378 3.303 7.378 7.378v24.404c0 4.075-3.303 7.378-7.378 7.378s-7.378-3.303-7.378-7.378v-24.404zm0 48.809c0-4.075 3.303-7.378 7.378-7.378s7.378 3.303 7.378 7.378v24.404c0 4.075-3.303 7.378-7.378 7.378s-7.378-3.303-7.378-7.378v-24.404zm0 48.809c0-4.075 3.303-7.378 7.378-7.378s7.378 3.303 7.378 7.378v24.404c0 4.075-3.303 7.378-7.378 7.378s-7.378-3.303-7.378-7.378v-24.404zm0 48.808c0-4.075 3.303-7.378 7.378-7.378s7.378 3.303 7.378 7.378v24.404c0 4.075-3.303 7.378-7.378 7.378s-7.378-3.303-7.378-7.378v-24.404zm0 48.809c0-4.075 3.303-7.378 7.378-7.378s7.378 3.303 7.378 7.378v24.404c0 4.075-3.303 7.378-7.378 7.378s-7.378-3.303-7.378-7.378v-24.404zm0 48.809c0-4.075 3.303-7.378 7.378-7.378s7.378 3.303 7.378 7.378v24.404c0 4.075-3.303 7.378-7.378 7.378s-7.378-3.303-7.378-7.378v-24.404zm0 48.784c0-4.075 3.303-7.378 7.378-7.378s7.378 3.303 7.378 7.378v27.267c0 4.075-3.303 7.378-7.378 7.378s-7.378-3.303-7.378-7.378v-27.267zm58.741 71.252H31.421V724.83h56.754v15.607zm4.823-43.985c0 4.075-3.303 7.378-7.378 7.378s-7.378-3.303-7.378-7.378V669.21c0-4.075 3.303-7.378 7.378-7.378s7.378 3.303 7.378 7.378v27.242zm-7.377-44.269c-4.075 0-7.378-3.303-7.378-7.378s3.303-7.378 7.378-7.378S93 640.73 93 644.805s-3.304 7.378-7.378 7.378zm17.026 44.293c0-4.075 3.303-7.378 7.378-7.378h48.622c4.075 0 7.378 3.303 7.378 7.378s-3.303 7.378-7.378 7.378h-48.622c-4.075 0-7.378-3.303-7.378-7.378zm107.55 43.961h-56.754V724.83h56.754v15.607zm-34.43-412.982c0-4.075 3.303-7.378 7.378-7.378h17.144c4.075 0 7.378 3.303 7.378 7.378s-3.303 7.378-7.378 7.378h-9.766v17.213c0 4.075-3.303 7.378-7.378 7.378s-7.378-3.303-7.378-7.378v-24.404c0-.032.004-.062.005-.094-.001-.031-.005-.061-.005-.093zm.093 48.902c0-.163.014-.323.024-.483v-.085h.004c.291-3.808 3.466-6.81 7.349-6.81s7.058 3.001 7.349 6.81h.029v49.376c0 4.075-3.303 7.378-7.378 7.378s-7.378-3.303-7.378-7.378c0-.163.014-.323.024-.483V376.84c-.009-.16-.023-.32-.023-.483zm14.756 170.831c0 4.075-3.303 7.378-7.378 7.378s-7.378-3.303-7.378-7.378c0-.163.014-.323.024-.483v-47.842c-.01-.16-.024-.32-.024-.483s.014-.323.024-.483v-.085h.004c.291-3.808 3.466-6.81 7.349-6.81s7.058 3.002 7.349 6.81h.029v49.375c.001 0 .001 0 .001.001zm0 97.617c0 4.075-3.303 7.378-7.378 7.378s-7.378-3.303-7.378-7.378l.024-72.73c-.01-.16-.024-.32-.024-.483s.014-.323.024-.483v-.085h.004c.291-3.808 3.466-6.81 7.349-6.81s7.058 3.001 7.349 6.81h.029V620.4c.001 0 .001 24.405.001 24.405zm-7.378-202.613c4.075 0 7.378 3.303 7.378 7.378v24.404c0 4.075-3.303 7.378-7.378 7.378s-7.378-3.303-7.378-7.378V449.57c0-4.074 3.303-7.378 7.378-7.378zm0 219.639c4.075 0 7.378 3.303 7.378 7.378v19.889h9.672c4.075 0 7.378 3.303 7.378 7.378s-3.303 7.378-7.378 7.378h-16.352c-.118 0-.233-.012-.349-.018-.116.005-.231.018-.348.018-4.075 0-7.378-3.303-7.378-7.378V669.21c-.001-4.075 3.302-7.379 7.377-7.379zm26.959-362.66h-56.754v-15.608h56.754v15.608zm34.052 382.813h-15.607V540.098h15.607v141.886zm0-198.928h-15.607V341.17h15.607v141.886z" class="c"/><path d="m1236.268 270.084.04 483.832h258.193l.029-483.832h-258.262zm170.262 13.479h56.754v15.608h-56.754v-15.608zm26.958 231.842c4.075 0 7.378 3.303 7.378 7.378v48.809c0 4.075-3.303 7.378-7.378 7.378s-7.378-3.303-7.378-7.378v-48.809c0-4.074 3.303-7.378 7.378-7.378zm-7.378-17.026V449.57c0-4.075 3.303-7.378 7.378-7.378s7.378 3.303 7.378 7.378v48.809c0 4.075-3.303 7.378-7.378 7.378s-7.378-3.303-7.378-7.378zm7.378 90.215c4.075 0 7.378 3.303 7.378 7.378v48.809c0 4.075-3.303 7.378-7.378 7.378s-7.378-3.303-7.378-7.378v-48.809c0-4.075 3.303-7.378 7.378-7.378zm-7.377 80.591c0-4.075 3.303-7.378 7.378-7.378s7.378 3.303 7.378 7.378v27.267c0 4.075-3.303 7.378-7.378 7.378s-7.378-3.303-7.378-7.378v-27.267zm7.378-236.641c-4.075 0-7.378-3.303-7.378-7.378v-24.404c0-4.075 3.303-7.378 7.378-7.378s7.378 3.303 7.378 7.378v24.404c0 4.075-3.303 7.378-7.378 7.378zm-7.379-56.187v-48.809c0-4.075 3.303-7.378 7.378-7.378s7.378 3.303 7.378 7.378v48.809c0 4.075-3.303 7.378-7.378 7.378s-7.378-3.303-7.378-7.378zm-90.052 275.826c-4.075 0-7.378-3.303-7.378-7.378v-24.404c0-4.075 3.303-7.378 7.378-7.378s7.378 3.303 7.378 7.378v24.404c0 4.075-3.304 7.378-7.378 7.378zm7.378 17.026c0 4.075-3.303 7.378-7.378 7.378s-7.378-3.303-7.378-7.378 3.303-7.378 7.378-7.378c4.074 0 7.378 3.304 7.378 7.378zm-7.082-65.859c-.16.01-.32.024-.483.024-4.075 0-7.378-3.303-7.378-7.378s3.303-7.378 7.378-7.378H1385.247v.029c3.808.291 6.81 3.466 6.81 7.349s-3.001 7.058-6.81 7.349v.004h-.085c-.161.01-.32.024-.483.024s-.323-.014-.483-.024h-47.842zm-.484-234.371c4.075 0 7.378 3.303 7.378 7.378s-3.303 7.378-7.378 7.378-7.378-3.303-7.378-7.378 3.304-7.378 7.378-7.378zm-7.285-16.932c0-4.075 3.303-7.378 7.378-7.378s7.378 3.303 7.378 7.378-3.303 7.378-7.378 7.378-7.378-3.304-7.378-7.378zm7.285 41.337H1385.246v.029c3.808.291 6.81 3.466 6.81 7.349s-3.001 7.058-6.81 7.349v.004h-.085c-.161.01-.32.024-.483.024s-.323-.014-.483-.024h-47.843c-.16.01-.32.024-.483.024-4.075 0-7.378-3.303-7.378-7.378.001-4.074 3.305-7.377 7.379-7.377zm17.027-17.027v-24.404c0-4.075 3.303-7.378 7.378-7.378s7.378 3.303 7.378 7.378v24.404c0 4.075-3.303 7.378-7.378 7.378s-7.378-3.303-7.378-7.378zm63.565 48.809c0 3.883-3.001 7.058-6.81 7.349v.004h-.085c-.16.01-.32.024-.483.024s-.323-.014-.483-.024h-47.842c-.161.01-.32.024-.483.024-4.075 0-7.378-3.303-7.378-7.378s3.303-7.378 7.378-7.378H1409.652v.029c3.808.292 6.81 3.467 6.81 7.35zm0 97.617c0 3.883-3.001 7.058-6.81 7.349v.004h-.085c-.16.01-.32.024-.483.024s-.323-.014-.483-.024h-47.842c-.161.01-.32.024-.483.024-4.075 0-7.378-3.303-7.378-7.378s3.303-7.378 7.378-7.378H1409.652v.029c3.808.292 6.81 3.467 6.81 7.35zm0 24.405c0 4.075-3.303 7.378-7.378 7.378s-7.378-3.303-7.378-7.378 3.303-7.378 7.378-7.378c4.074 0 7.378 3.303 7.378 7.378zm-24.404 0v24.404c0 4.075-3.303 7.378-7.378 7.378s-7.378-3.303-7.378-7.378v-24.404c0-4.075 3.303-7.378 7.378-7.378s7.378 3.303 7.378 7.378zm-24.405 0v24.404c0 4.075-3.303 7.378-7.378 7.378s-7.378-3.303-7.378-7.378v-24.404c0-4.075 3.303-7.378 7.378-7.378s7.378 3.303 7.378 7.378zm24.405-73.213c0 4.075-3.303 7.378-7.378 7.378s-7.378-3.303-7.378-7.378V449.57c0-4.075 3.303-7.378 7.378-7.378s7.378 3.303 7.378 7.378v24.405zm24.404-24.405c0 4.075-3.303 7.378-7.378 7.378s-7.378-3.303-7.378-7.378 3.303-7.378 7.378-7.378c4.074 0 7.378 3.304 7.378 7.378zm-48.809 0v24.404c0 4.075-3.303 7.378-7.378 7.378s-7.378-3.303-7.378-7.378V449.57c0-4.075 3.303-7.378 7.378-7.378s7.378 3.304 7.378 7.378zm24.405-73.213c0 4.075-3.303 7.378-7.378 7.378s-7.378-3.303-7.378-7.378v-24.404c0-4.075 3.303-7.378 7.378-7.378s7.378 3.303 7.378 7.378v24.404zm-48.622 48.809v24.404c0 4.075-3.303 7.378-7.378 7.378s-7.378-3.303-7.378-7.378v-24.404c0-4.075 3.303-7.378 7.378-7.378 4.074 0 7.378 3.303 7.378 7.378zm-7.566 41.431c4.075 0 7.378 3.303 7.378 7.378s-3.303 7.378-7.378 7.378-7.378-3.303-7.378-7.378 3.304-7.378 7.378-7.378zm0 24.404H1385.246v.029c3.808.291 6.81 3.466 6.81 7.349s-3.001 7.058-6.81 7.349v.004h-.085c-.161.01-.32.024-.483.024s-.323-.014-.483-.024h-47.843c-.16.01-.32.024-.483.024-4.075 0-7.378-3.303-7.378-7.378s3.305-7.377 7.379-7.377zm7.566 31.782v24.404c0 4.075-3.303 7.378-7.378 7.378s-7.378-3.303-7.378-7.378v-24.404c0-4.075 3.303-7.378 7.378-7.378 4.074 0 7.378 3.304 7.378 7.378zm-7.566 41.431c4.075 0 7.378 3.303 7.378 7.378s-3.303 7.378-7.378 7.378-7.378-3.303-7.378-7.378 3.304-7.378 7.378-7.378zm17.027 80.591c0-4.075 3.303-7.378 7.378-7.378s7.378 3.303 7.378 7.378v24.404c0 4.075-3.303 7.378-7.378 7.378s-7.378-3.303-7.378-7.378v-24.404zm7.861-17.051c-.161.01-.32.024-.483.024-4.075 0-7.378-3.303-7.378-7.378s3.303-7.378 7.378-7.378H1409.651v.029c3.809.291 6.81 3.466 6.81 7.349s-3.001 7.058-6.81 7.349v.004h-.085c-.16.01-.32.024-.483.024s-.323-.014-.483-.024h-47.842zm48.326-24.379c-4.075 0-7.378-3.303-7.378-7.378v-24.404c0-4.075 3.303-7.378 7.378-7.378s7.378 3.303 7.378 7.378v24.404c0 4.074-3.303 7.378-7.378 7.378zm0-97.618c-4.075 0-7.378-3.303-7.378-7.378v-24.404c0-4.075 3.303-7.378 7.378-7.378s7.378 3.303 7.378 7.378v24.404c0 4.075-3.303 7.378-7.378 7.378zm0-97.617c-4.075 0-7.378-3.303-7.378-7.378v-24.404c0-4.075 3.303-7.378 7.378-7.378s7.378 3.303 7.378 7.378v24.404c0 4.075-3.303 7.378-7.378 7.378zm-7.379-56.187c0-4.075 3.303-7.378 7.378-7.378s7.378 3.303 7.378 7.378-3.303 7.378-7.378 7.378c-4.074 0-7.378-3.303-7.378-7.378zm-17.026-31.782h24.404c4.075 0 7.378 3.303 7.378 7.378s-3.303 7.378-7.378 7.378h-24.404c-4.075 0-7.378-3.303-7.378-7.378s3.303-7.378 7.378-7.378zm-17.026 7.378c0 4.075-3.303 7.378-7.378 7.378h-24.404c-4.075 0-7.378-3.303-7.378-7.378s3.303-7.378 7.378-7.378h24.404c4.075 0 7.378 3.303 7.378 7.378zm-83.145-43.986h56.754v15.608h-56.754v-15.608zm34.43 44.079v24.404c0 4.075-3.303 7.378-7.378 7.378s-7.378-3.303-7.378-7.378v-17.213h-9.766c-4.075 0-7.378-3.303-7.378-7.378s3.303-7.378 7.378-7.378h17.144c4.075 0 7.378 3.303 7.378 7.378 0 .032-.004.062-.005.094 0 .031.005.062.005.093zm-14.85 243.95v-.568h.029c.291-3.808 3.466-6.81 7.349-6.81s7.058 3.001 7.349 6.81h.004v.085c.01.16.024.32.024.483s-.014.323-.024.483l.024 72.73c0 4.075-3.303 7.378-7.378 7.378s-7.378-3.303-7.378-7.378V571.593c.001 0 .001 0 .001-.001zm0-73.213v-.568h.029c.291-3.808 3.466-6.81 7.349-6.81s7.058 3.002 7.349 6.81h.004v.085c.01.16.024.32.024.483s-.014.323-.024.483v47.842c.01.16.024.32.024.483 0 4.075-3.303 7.378-7.378 7.378s-7.378-3.303-7.378-7.378V498.38c.001 0 .001 0 .001-.001zm0-122.022v-.568h.029c.291-3.808 3.466-6.81 7.349-6.81s7.058 3.001 7.349 6.81h.004v.085c.01.16.024.32.024.483 0 .163-.014.323-.024.483v47.842c.01.16.024.32.024.483 0 4.075-3.303 7.378-7.378 7.378s-7.378-3.303-7.378-7.378V376.358c.001 0 .001 0 .001-.001zm0 292.853c0-4.075 3.303-7.378 7.378-7.378s7.378 3.303 7.378 7.378v27.267c0 4.075-3.303 7.378-7.378 7.378-.117 0-.232-.012-.348-.018-.117.005-.231.018-.349.018h-16.352c-4.075 0-7.378-3.303-7.378-7.378s3.303-7.378 7.378-7.378h9.672V669.21zm7.378-187.857c-4.075 0-7.378-3.303-7.378-7.378V449.57c0-4.075 3.303-7.378 7.378-7.378s7.378 3.303 7.378 7.378v24.404c0 4.075-3.303 7.379-7.378 7.379zm-45.404 200.631h-15.607V540.098h15.607v141.886zm0-198.928h-15.607V341.17h15.607v141.886zm75.2 257.381h-56.754V724.83h56.754v15.607zm43.418-36.583h-48.622c-4.075 0-7.378-3.303-7.378-7.378s3.303-7.378 7.378-7.378h48.622c4.075 0 7.378 3.303 7.378 7.378s-3.304 7.378-7.378 7.378zm7.378-34.644c0 4.075-3.303 7.378-7.378 7.378s-7.378-3.303-7.378-7.378v-24.404c0-4.075 3.303-7.378 7.378-7.378s7.378 3.303 7.378 7.378v24.404zm17.025-31.783c4.075 0 7.378 3.303 7.378 7.378s-3.303 7.378-7.378 7.378-7.378-3.303-7.378-7.378 3.304-7.378 7.378-7.378zm-7.377 59.025V669.21c0-4.075 3.303-7.378 7.378-7.378s7.378 3.303 7.378 7.378v27.242c0 4.075-3.303 7.378-7.378 7.378s-7.378-3.303-7.378-7.378zm61.578 43.985h-56.754V724.83h56.754v15.607zm1.986-43.985c0 4.075-3.303 7.378-7.378 7.378s-7.378-3.303-7.378-7.378v-27.267c0-4.075 3.303-7.378 7.378-7.378s7.378 3.303 7.378 7.378v27.267zm0-51.647c0 4.075-3.303 7.378-7.378 7.378s-7.378-3.303-7.378-7.378v-24.404c0-4.075 3.303-7.378 7.378-7.378s7.378 3.303 7.378 7.378v24.404zm0-48.809c0 4.075-3.303 7.378-7.378 7.378s-7.378-3.303-7.378-7.378v-24.404c0-4.075 3.303-7.378 7.378-7.378s7.378 3.303 7.378 7.378v24.404zm0-48.808c0 4.075-3.303 7.378-7.378 7.378s-7.378-3.303-7.378-7.378v-24.404c0-4.075 3.303-7.378 7.378-7.378s7.378 3.303 7.378 7.378v24.404zm0-48.809c0 4.075-3.303 7.378-7.378 7.378s-7.378-3.303-7.378-7.378v-24.404c0-4.075 3.303-7.378 7.378-7.378s7.378 3.303 7.378 7.378v24.404zm0-48.809c0 4.075-3.303 7.378-7.378 7.378s-7.378-3.303-7.378-7.378v-24.404c0-4.075 3.303-7.378 7.378-7.378s7.378 3.303 7.378 7.378v24.404zm0-48.808c0 4.075-3.303 7.378-7.378 7.378s-7.378-3.303-7.378-7.378v-24.404c0-4.075 3.303-7.378 7.378-7.378s7.378 3.303 7.378 7.378v24.404zm0-48.809c0 4.075-3.303 7.378-7.378 7.378s-7.378-3.303-7.378-7.378v-24.404c0-4.075 3.303-7.378 7.378-7.378s7.378 3.303 7.378 7.378v24.404z" class="d"/><path d="M1196.544 34.802V.749H297.99v34.053h-14.189v53.917h14.189v19.864h93.645v14.189h93.645v-14.189H1009.254v14.189h93.645v-14.189h93.645V88.719h14.189V34.802h-14.189zM343.393 69.138h-17.025c-2.292 0-4.34-1.045-5.693-2.685-.15-.182-.292-.372-.425-.568a7.3548 7.3548 0 0 1-.68-1.253c-.373-.883-.58-1.853-.58-2.872s.206-1.989.58-2.872a7.3619 7.3619 0 0 1 1.105-1.821c1.353-1.64 3.401-2.685 5.693-2.685h17.026c4.075 0 7.378 3.303 7.378 7.378s-3.304 7.378-7.379 7.378zm831.572-4.506a7.3619 7.3619 0 0 1-1.105 1.821c-1.353 1.64-3.401 2.685-5.693 2.685h-17.025c-4.075 0-7.378-3.303-7.378-7.378s3.303-7.378 7.378-7.378h17.026c2.292 0 4.34 1.045 5.693 2.685.15.182.292.372.425.568.265.393.494.812.68 1.253.373.883.58 1.853.58 2.872s-.208 1.989-.581 2.872z" class="e"/><path d="M1196.544 157.825V137.961h-93.645v-14.189h-93.645v14.189H485.279v-14.189h-93.645v14.189H297.99V157.825h-14.189v53.917h14.189v19.864h93.645v14.189h93.645v-14.189H1009.255v14.189h93.645v-14.189h93.645v-19.864h14.189v-53.917h-14.19zm-853.151 34.354h-17.025c-4.075 0-7.378-3.303-7.378-7.378v-.018c0-4.075 3.303-7.378 7.378-7.378.115 0 .227.012.341.017h16.685c4.075 0 7.378 3.303 7.378 7.378-.001 4.075-3.304 7.379-7.379 7.379zm832.152-7.379c0 4.075-3.303 7.378-7.378 7.378h-17.025c-4.075 0-7.378-3.303-7.378-7.378s3.303-7.378 7.378-7.378h16.686c.114-.005.226-.017.341-.017 4.075 0 7.378 3.303 7.378 7.378v.009c-.003.003-.002.006-.002.008z" class="f"/><path d="M1196.544 1422.459v-19.864h-93.645v-14.189h-93.645v14.189H485.28v-14.189h-93.645v14.189H297.99v19.864h-14.189v53.917h14.189v34.052h898.555v-34.052h14.189v-53.917h-14.19zm-853.151 34.336h-17.026c-2.292 0-4.34-1.045-5.693-2.685-.15-.182-.292-.372-.425-.568a7.3548 7.3548 0 0 1-.68-1.253c-.373-.883-.58-1.853-.58-2.872s.206-1.989.58-2.872a7.3619 7.3619 0 0 1 1.105-1.821c1.353-1.64 3.401-2.685 5.693-2.685h17.025c4.075 0 7.378 3.303 7.378 7.378.001 4.075-3.302 7.378-7.377 7.378zm831.572-4.506a7.3619 7.3619 0 0 1-1.105 1.821c-1.353 1.64-3.401 2.685-5.693 2.685h-17.026c-4.075 0-7.378-3.303-7.378-7.378s3.303-7.378 7.378-7.378h17.025c2.292 0 4.34 1.045 5.693 2.685.15.182.292.372.425.568.265.392.494.812.68 1.253.373.883.58 1.853.58 2.872s-.206 1.989-.579 2.872z" class="l"/><path d="M1196.544 1299.436v-19.864h-93.645v-14.189h-93.645v14.189H485.28v-14.189h-93.645v14.189H297.99v19.864h-14.189v53.917h14.189V1373.217h93.645v14.189h93.645v-14.189h523.975v14.189h93.645v-14.189h93.645V1353.353h14.189v-53.917h-14.19zm-853.151 34.319h-16.684c-.114.005-.227.017-.342.017-4.075 0-7.378-3.303-7.378-7.378v-.018c0-4.075 3.303-7.378 7.378-7.378h17.025c4.075 0 7.378 3.303 7.378 7.378s-3.302 7.379-7.377 7.379zm832.152-7.361c0 4.075-3.303 7.378-7.378 7.378-.115 0-.228-.012-.342-.017h-16.684c-4.075 0-7.378-3.303-7.378-7.378s3.303-7.378 7.378-7.378h17.025c4.075 0 7.378 3.303 7.378 7.378v.009c0 .003.001.005.001.008z" class="k"/><path d="M1196.544 829.935V756.011H297.99V829.935h-14.189v136.21h14.189v31.36h187.289v-14.189h523.975v14.189h187.289v-31.36h14.189v-136.21h-14.188zm-853.151-9.081h-17.025c-4.075 0-7.378-3.303-7.378-7.378s3.303-7.378 7.378-7.378h17.026c4.075 0 7.378 3.303 7.378 7.378-.001 4.075-3.304 7.378-7.379 7.378zm143.305-35.756h-96.482v-15.607h96.482v15.607zm617.62 0h-96.482v-15.607h96.482v15.607zm63.849 35.756h-17.025c-4.075 0-7.378-3.303-7.378-7.378s3.303-7.378 7.378-7.378h17.026c4.075 0 7.378 3.303 7.378 7.378-.001 4.075-3.305 7.378-7.379 7.378z" class="i"/><path d="M1210.732 1165.921v-136.21h-14.189v-31.36h-187.289v14.189H485.279v-14.189H297.99v31.36h-14.189v136.21h14.189V1239.844h898.554V1165.921h14.188zm-867.339 23.836h-17.026c-4.075 0-7.378-3.303-7.378-7.378s3.303-7.378 7.378-7.378h17.025c4.075 0 7.378 3.303 7.378 7.378s-3.302 7.378-7.377 7.378zm143.305 36.608h-96.482v-15.607h96.482v15.607zm617.62 0h-96.482v-15.607h96.482v15.607zm63.849-36.608h-17.026c-4.075 0-7.378-3.303-7.378-7.378s3.303-7.378 7.378-7.378h17.025c4.075 0 7.378 3.303 7.378 7.378s-3.303 7.378-7.377 7.378z" class="j"/><path d="M1196.544 345.257V271.333H297.99V345.257h-14.189v136.21h14.189v31.36h187.289v-14.189h523.975v14.189h187.289v-31.36h14.189v-136.21h-14.188zm-853.151-9.081h-17.025c-4.075 0-7.378-3.303-7.378-7.378s3.303-7.378 7.378-7.378h17.026c4.075 0 7.378 3.303 7.378 7.378-.001 4.075-3.304 7.378-7.379 7.378zm143.305-35.756h-96.482v-15.607h96.482v15.607zm617.62 0h-96.482v-15.607h96.482v15.607zm63.849 35.756h-17.025c-4.075 0-7.378-3.303-7.378-7.378s3.303-7.378 7.378-7.378h17.026c4.075 0 7.378 3.303 7.378 7.378-.001 4.075-3.305 7.378-7.379 7.378z" class="g"/><path d="M1210.732 681.243v-136.21h-14.189v-31.36h-187.289v14.189H485.279v-14.189H297.99v31.36h-14.189v136.21h14.189V755.167h898.554v-73.925h14.188zm-867.339 23.836h-17.026c-4.075 0-7.378-3.303-7.378-7.378s3.303-7.378 7.378-7.378h17.025c4.075 0 7.378 3.303 7.378 7.378s-3.302 7.378-7.377 7.378zm143.305 36.608h-96.482V726.08h96.482v15.607zm617.62 0h-96.482V726.08h96.482v15.607zm63.849-36.608h-17.026c-4.075 0-7.378-3.303-7.378-7.378s3.303-7.378 7.378-7.378h17.025c4.075 0 7.378 3.303 7.378 7.378s-3.303 7.378-7.377 7.378z" class="h"/></svg>