<svg xmlns="http://www.w3.org/2000/svg" xml:space="preserve" style="enable-background:new 0 0 1385.679 1510.428" viewBox="0 0 1385.679 1510.428"><defs><style>.a{fill:#231f20;}.b{fill:#f0f;}.c{fill:#9e005d;}.d{fill:#008b8b;}.e{fill:#fbb040;}.f{fill:#be1e2d;}.g{fill:#ff69b4;}.h{fill:#ff1493;}.i{fill:#8dc63f;}.j{fill:#39b54a;}.k{fill:#f9ed32;}.l{fill:#c69c6d;}</style></defs><path d="M0 270.084v313.348h88.439v169.96h257.914l.04-483.309L0 270.084zm222.52 50.032h24.378c4.07 0 7.37 3.3 7.37 7.37s-3.3 7.37-7.37 7.37H222.52c-4.07 0-7.37-3.3-7.37-7.37-.001-4.07 3.299-7.37 7.37-7.37zm24.191 331.654c-4.07 0-7.37-3.3-7.37-7.37v-24.378c0-4.07 3.3-7.37 7.37-7.37s7.37 3.3 7.37 7.37V644.4c0 4.07-3.3 7.37-7.37 7.37zm7.37 17.007c0 4.07-3.3 7.37-7.37 7.37s-7.37-3.3-7.37-7.37 3.3-7.37 7.37-7.37 7.37 3.3 7.37 7.37zm-7.183-65.763c-.163 0-.322-.014-.483-.024h-47.791c-.16.01-.32.024-.483.024s-.322-.014-.483-.024h-.085v-.004c-3.804-.291-6.803-3.463-6.803-7.341s2.998-7.051 6.803-7.341v-.029H246.895c4.07 0 7.37 3.3 7.37 7.37s-3.297 7.369-7.367 7.369zm-24.378 24.378c-.163 0-.322-.014-.483-.024h-47.791c-.16.01-.32.024-.483.024s-.322-.014-.483-.024h-.085v-.004c-3.804-.291-6.803-3.463-6.803-7.341s2.998-7.051 6.803-7.341v-.029H222.517c4.07 0 7.37 3.3 7.37 7.37s-3.297 7.369-7.367 7.369zm7.37 17.008v24.378c0 4.07-3.3 7.37-7.37 7.37s-7.37-3.3-7.37-7.37V644.4c0-4.07 3.3-7.37 7.37-7.37 4.07-.001 7.37 3.299 7.37 7.37zm-24.379 0v24.378c0 4.07-3.3 7.37-7.37 7.37s-7.37-3.3-7.37-7.37V644.4c0-4.07 3.3-7.37 7.37-7.37 4.071-.001 7.37 3.299 7.37 7.37zm17.009-212.032c-.163 0-.322-.014-.483-.024h-47.791c-.16.01-.32.024-.483.024s-.322-.014-.483-.024h-.085v-.004c-3.804-.291-6.803-3.463-6.803-7.341s2.998-7.051 6.803-7.341v-.029H222.517c4.07 0 7.37 3.3 7.37 7.37s-3.297 7.369-7.367 7.369zm7.37 17.008v24.378c0 4.07-3.3 7.37-7.37 7.37s-7.37-3.3-7.37-7.37v-24.378c0-4.07 3.3-7.37 7.37-7.37s7.37 3.3 7.37 7.37zm-7.37 80.504c-.163 0-.322-.014-.483-.024h-47.791c-.16.01-.32.024-.483.024s-.322-.014-.483-.024h-.085v-.004c-3.804-.291-6.803-3.463-6.803-7.341s2.998-7.051 6.803-7.341v-.029H222.517c4.07 0 7.37 3.3 7.37 7.37s-3.297 7.369-7.367 7.369zm7.37 17.008v24.378c0 4.07-3.3 7.37-7.37 7.37s-7.37-3.3-7.37-7.37v-24.378c0-4.07 3.3-7.37 7.37-7.37s7.37 3.299 7.37 7.37zm-24.379 0v24.378c0 4.07-3.3 7.37-7.37 7.37s-7.37-3.3-7.37-7.37v-24.378c0-4.07 3.3-7.37 7.37-7.37 4.071 0 7.37 3.299 7.37 7.37zm-24.377 0c0 4.07-3.3 7.37-7.37 7.37s-7.37-3.3-7.37-7.37 3.3-7.37 7.37-7.37 7.37 3.299 7.37 7.37zm24.377-97.512v24.378c0 4.07-3.3 7.37-7.37 7.37s-7.37-3.3-7.37-7.37v-24.378c0-4.07 3.3-7.37 7.37-7.37 4.071 0 7.37 3.3 7.37 7.37zm-24.377 0c0 4.07-3.3 7.37-7.37 7.37s-7.37-3.3-7.37-7.37 3.3-7.37 7.37-7.37 7.37 3.3 7.37 7.37zm-7.371-80.504c4.07 0 7.37 3.3 7.37 7.37v24.378c0 4.07-3.3 7.37-7.37 7.37s-7.37-3.3-7.37-7.37v-24.378c0-4.07 3.3-7.37 7.37-7.37zm-7.369-17.008c0-4.07 3.3-7.37 7.37-7.37s7.37 3.3 7.37 7.37-3.3 7.37-7.37 7.37-7.37-3.299-7.37-7.37zm7.369 114.52c4.07 0 7.37 3.3 7.37 7.37v24.378c0 4.07-3.3 7.37-7.37 7.37s-7.37-3.3-7.37-7.37v-24.378c0-4.07 3.3-7.37 7.37-7.37zm0 97.512c4.07 0 7.37 3.3 7.37 7.37v24.378c0 4.07-3.3 7.37-7.37 7.37s-7.37-3.3-7.37-7.37v-24.378c0-4.071 3.3-7.37 7.37-7.37zm73.135 14.74c-4.07 0-7.37-3.3-7.37-7.37s3.3-7.37 7.37-7.37 7.37 3.3 7.37 7.37-3.3 7.37-7.37 7.37zm-7.557-31.748V522.51c0-4.07 3.3-7.37 7.37-7.37s7.37 3.3 7.37 7.37v24.378c0 4.07-3.3 7.37-7.37 7.37-4.071 0-7.37-3.3-7.37-7.37zm7.557-41.386c-.163 0-.322-.014-.483-.024h-47.791c-.16.01-.32.024-.483.024s-.322-.014-.483-.024h-.085v-.004c-3.804-.291-6.803-3.463-6.803-7.341s2.998-7.051 6.803-7.341v-.029H246.895c4.07 0 7.37 3.3 7.37 7.37s-3.297 7.369-7.367 7.369zm0-24.378c-4.07 0-7.37-3.3-7.37-7.37s3.3-7.37 7.37-7.37 7.37 3.3 7.37 7.37-3.3 7.37-7.37 7.37zm-7.557-31.748v-24.378c0-4.07 3.3-7.37 7.37-7.37s7.37 3.3 7.37 7.37v24.378c0 4.07-3.3 7.37-7.37 7.37-4.071 0-7.37-3.299-7.37-7.37zm7.557-41.386c-.163 0-.322-.014-.483-.024h-47.791c-.16.01-.32.024-.483.024s-.322-.014-.483-.024h-.085v-.004c-3.804-.291-6.803-3.463-6.803-7.341s2.998-7.051 6.803-7.341v-.029H246.895c4.07 0 7.37 3.3 7.37 7.37s-3.297 7.369-7.367 7.369zm-56.127-31.748v-24.378c0-4.07 3.3-7.37 7.37-7.37s7.37 3.3 7.37 7.37v24.378c0 4.07-3.3 7.37-7.37 7.37s-7.37-3.299-7.37-7.37zm24.379 0v-24.378c0-4.07 3.3-7.37 7.37-7.37s7.37 3.3 7.37 7.37v24.378c0 4.07-3.3 7.37-7.37 7.37-4.071 0-7.37-3.299-7.37-7.37zm31.748 7.37c-4.07 0-7.37-3.3-7.37-7.37s3.3-7.37 7.37-7.37 7.37 3.3 7.37 7.37-3.3 7.37-7.37 7.37zm-7.463-31.654c0-4.07 3.3-7.37 7.37-7.37s7.37 3.3 7.37 7.37-3.3 7.37-7.37 7.37-7.37-3.3-7.37-7.37zm-33.923-24.472c0 4.07-3.3 7.37-7.37 7.37h-24.378c-4.07 0-7.37-3.3-7.37-7.37s3.3-7.37 7.37-7.37h24.378c4.07 0 7.37 3.3 7.37 7.37zm-85.89-43.937h56.693v15.591h-56.693v-15.591zm29.764 368.196c-4.07 0-7.37-3.3-7.37-7.37v-48.756c0-4.07 3.3-7.37 7.37-7.37s7.37 3.3 7.37 7.37v48.756c0 4.07-3.3 7.37-7.37 7.37zm7.369 17.008v27.237c0 4.07-3.3 7.37-7.37 7.37s-7.37-3.3-7.37-7.37v-27.237c0-4.07 3.3-7.37 7.37-7.37s7.37 3.3 7.37 7.37zm-14.74-243.755V400.62c0-4.07 3.3-7.37 7.37-7.37s7.37 3.3 7.37 7.37v24.378c0 4.07-3.3 7.37-7.37 7.37-4.071 0-7.37-3.299-7.37-7.37zm7.371 153.638c-4.07 0-7.37-3.3-7.37-7.37V522.51c0-4.07 3.3-7.37 7.37-7.37s7.37 3.3 7.37 7.37v48.756c0 4.07-3.3 7.37-7.37 7.37zm0-73.134c-4.07 0-7.37-3.3-7.37-7.37v-48.756c0-4.07 3.3-7.37 7.37-7.37s7.37 3.3 7.37 7.37v48.756c0 4.07-3.3 7.37-7.37 7.37zm0-121.89c-4.07 0-7.37-3.3-7.37-7.37v-48.756c0-4.07 3.3-7.37 7.37-7.37s7.37 3.3 7.37 7.37v48.756c0 4.071-3.3 7.37-7.37 7.37zm-31.748-56.126c0-4.07 3.3-7.37 7.37-7.37s7.37 3.3 7.37 7.37v24.378c0 4.07-3.3 7.37-7.37 7.37s-7.37-3.3-7.37-7.37v-24.378zm7.37 275.528c-4.07 0-7.37-3.3-7.37-7.37v-24.378c0-4.07 3.3-7.37 7.37-7.37s7.37 3.3 7.37 7.37v24.378c0 4.07-3.3 7.37-7.37 7.37zm7.37 17.008V644.4c0 4.07-3.3 7.37-7.37 7.37s-7.37-3.3-7.37-7.37v-24.378c0-4.07 3.3-7.37 7.37-7.37s7.37 3.299 7.37 7.37zm-7.37-65.764c-4.07 0-7.37-3.3-7.37-7.37V522.51c0-4.07 3.3-7.37 7.37-7.37s7.37 3.3 7.37 7.37v24.378c0 4.07-3.3 7.37-7.37 7.37zm0-48.756c-4.07 0-7.37-3.3-7.37-7.37v-24.378c0-4.07 3.3-7.37 7.37-7.37s7.37 3.3 7.37 7.37v24.378c0 4.07-3.3 7.37-7.37 7.37zm0-48.756c-4.07 0-7.37-3.3-7.37-7.37v-24.378c0-4.07 3.3-7.37 7.37-7.37s7.37 3.3 7.37 7.37v24.378c0 4.071-3.3 7.37-7.37 7.37zM44.69 376.242c0-4.07 3.3-7.37 7.37-7.37s7.37 3.3 7.37 7.37v24.378c0 4.07-3.3 7.37-7.37 7.37s-7.37-3.3-7.37-7.37v-24.378zm.001-24.378c0-4.07 3.3-7.37 7.37-7.37s7.37 3.3 7.37 7.37-3.3 7.37-7.37 7.37-7.37-3.299-7.37-7.37zM20.312 400.62c0-4.07 3.3-7.37 7.37-7.37s7.37 3.3 7.37 7.37v24.378c0 4.07-3.3 7.37-7.37 7.37s-7.37-3.3-7.37-7.37V400.62zm14.74 146.268c0 4.07-3.3 7.37-7.37 7.37s-7.37-3.3-7.37-7.37V522.51c0-4.07 3.3-7.37 7.37-7.37s7.37 3.3 7.37 7.37v24.378zm.001-48.756c0 4.07-3.3 7.37-7.37 7.37s-7.37-3.3-7.37-7.37v-48.756c0-4.07 3.3-7.37 7.37-7.37s7.37 3.3 7.37 7.37v48.756zm0-121.89c0 4.07-3.3 7.37-7.37 7.37s-7.37-3.3-7.37-7.37v-48.756c0-4.07 3.3-7.37 7.37-7.37s7.37 3.3 7.37 7.37v48.756zm9.637 121.89c0-4.07 3.3-7.37 7.37-7.37s7.37 3.3 7.37 7.37v24.378c0 4.07-3.3 7.37-7.37 7.37s-7.37-3.3-7.37-7.37v-24.378zm.001-24.378c0-4.07 3.3-7.37 7.37-7.37s7.37 3.3 7.37 7.37-3.3 7.37-7.37 7.37-7.37-3.3-7.37-7.37zm56.126 80.504c-.163 0-.322-.014-.483-.024h-47.79c-.16.01-.32.024-.483.024s-.322-.014-.483-.024h-.085v-.004c-3.804-.291-6.803-3.463-6.803-7.341s2.998-7.051 6.803-7.341v-.029H100.815c4.07 0 7.37 3.3 7.37 7.37s-3.298 7.369-7.368 7.369zM76.439 515.14h24.378c4.07 0 7.37 3.3 7.37 7.37s-3.3 7.37-7.37 7.37H76.439c-4.07 0-7.37-3.3-7.37-7.37-.001-4.071 3.299-7.37 7.37-7.37zm-7.371-17.008v-24.378c0-4.07 3.3-7.37 7.37-7.37s7.37 3.3 7.37 7.37v24.378c0 4.07-3.3 7.37-7.37 7.37s-7.37-3.3-7.37-7.37zm39.119 0c0 4.07-3.3 7.37-7.37 7.37s-7.37-3.3-7.37-7.37v-24.378c0-4.07 3.3-7.37 7.37-7.37s7.37 3.3 7.37 7.37v24.378zm-7.37-41.386c-.163 0-.322-.014-.483-.024h-47.79c-.16.01-.32.024-.483.024s-.322-.014-.483-.024h-.085v-.004c-3.804-.291-6.803-3.463-6.803-7.341s2.998-7.051 6.803-7.341v-.029H100.815c4.07 0 7.37 3.3 7.37 7.37s-3.298 7.369-7.368 7.369zm0-24.378c-.163 0-.322-.014-.483-.024h-47.79c-.16.01-.32.024-.483.024s-.322-.014-.483-.024h-.085v-.004c-3.804-.291-6.803-3.463-6.803-7.341s2.998-7.051 6.803-7.341v-.029H100.815c4.07 0 7.37 3.3 7.37 7.37s-3.298 7.369-7.368 7.369zM76.439 393.25h24.378c4.07 0 7.37 3.3 7.37 7.37s-3.3 7.37-7.37 7.37H76.439c-4.07 0-7.37-3.3-7.37-7.37-.001-4.07 3.299-7.37 7.37-7.37zm-7.371-17.008v-24.378c0-4.07 3.3-7.37 7.37-7.37s7.37 3.3 7.37 7.37v24.378c0 4.07-3.3 7.37-7.37 7.37s-7.37-3.299-7.37-7.37zm39.119 0c0 4.07-3.3 7.37-7.37 7.37s-7.37-3.3-7.37-7.37v-24.378c0-4.07 3.3-7.37 7.37-7.37s7.37 3.3 7.37 7.37v24.378zm-7.37-41.385c-.163 0-.322-.014-.483-.024h-47.79c-.16.01-.32.024-.483.024s-.322-.014-.483-.024h-.085v-.004c-3.804-.291-6.803-3.463-6.803-7.341s2.998-7.051 6.803-7.341v-.029H100.815c4.07 0 7.37 3.3 7.37 7.37s-3.298 7.369-7.368 7.369zm16.82 41.386c0-4.07 3.3-7.37 7.37-7.37s7.37 3.3 7.37 7.37v24.378c0 4.07-3.3 7.37-7.37 7.37s-7.37-3.3-7.37-7.37v-24.378zm.001 292.51c0-4.07 3.3-7.37 7.37-7.37s7.37 3.3 7.37 7.37v27.237c0 4.07-3.3 7.37-7.37 7.37s-7.37-3.3-7.37-7.37v-27.237zm58.677 71.175h-56.693v-15.591h56.693v15.591zm4.818-43.938c0 4.07-3.3 7.37-7.37 7.37s-7.37-3.3-7.37-7.37v-27.213c0-4.07 3.3-7.37 7.37-7.37s7.37 3.3 7.37 7.37v27.213zm-7.369-44.22c-4.07 0-7.37-3.3-7.37-7.37s3.3-7.37 7.37-7.37 7.37 3.3 7.37 7.37-3.3 7.37-7.37 7.37zm17.007 44.245c0-4.07 3.3-7.37 7.37-7.37h48.569c4.07 0 7.37 3.3 7.37 7.37s-3.3 7.37-7.37 7.37h-48.569c-4.07 0-7.37-3.3-7.37-7.37zm107.434 43.913h-56.693v-15.591h56.693v15.591zm-34.393-412.535c0-4.07 3.3-7.37 7.37-7.37h17.125c4.07 0 7.37 3.3 7.37 7.37s-3.3 7.37-7.37 7.37h-9.755v17.195c0 4.07-3.3 7.37-7.37 7.37s-7.37-3.3-7.37-7.37V327.58c0-.032.004-.062.005-.094-.001-.031-.005-.061-.005-.093zm.094 48.849c0-.163.014-.322.024-.483v-.085h.004c.291-3.804 3.463-6.803 7.341-6.803s7.051 2.998 7.341 6.803h.029V424.996c0 4.07-3.3 7.37-7.37 7.37s-7.37-3.3-7.37-7.37c0-.163.014-.322.024-.483v-47.791c-.01-.157-.023-.317-.023-.48zm14.74 170.646c0 4.07-3.3 7.37-7.37 7.37s-7.37-3.3-7.37-7.37c0-.163.014-.322.024-.483v-47.791c-.01-.16-.024-.32-.024-.483s.014-.322.024-.483v-.085h.004c.291-3.804 3.463-6.803 7.341-6.803s7.051 2.998 7.341 6.803h.029v49.321c.001.003.001.003.001.004zm0 97.512c0 4.07-3.3 7.37-7.37 7.37s-7.37-3.3-7.37-7.37l.024-72.651c-.01-.16-.024-.32-.024-.483s.014-.322.024-.483v-.085h.004c.291-3.804 3.463-6.803 7.341-6.803s7.051 2.998 7.341 6.803h.029v49.321c.001.002.001 24.38.001 24.381zm-7.37-202.394c4.07 0 7.37 3.3 7.37 7.37v24.378c0 4.07-3.3 7.37-7.37 7.37s-7.37-3.3-7.37-7.37v-24.378c0-4.07 3.299-7.37 7.37-7.37zm0 219.401c4.07 0 7.37 3.3 7.37 7.37v19.867h9.661c4.07 0 7.37 3.3 7.37 7.37s-3.3 7.37-7.37 7.37h-16.335c-.118 0-.233-.012-.349-.018-.116.005-.23.018-.348.018-4.07 0-7.37-3.3-7.37-7.37v-27.237c.001-4.07 3.3-7.37 7.371-7.37zm26.929-362.268h-56.693v-15.591h56.693v15.591zm34.016 382.399H316.63V539.806h15.591v141.732zm0-198.713H316.63V341.093h15.591v141.732z" class="c"/><path d="m1038.791 270.084.04 483.309h257.914v-169.96h88.439V270.084h-346.393zm311.34 57.402c0-4.07 3.3-7.37 7.37-7.37s7.37 3.3 7.37 7.37v48.756c0 4.07-3.3 7.37-7.37 7.37s-7.37-3.3-7.37-7.37v-48.756zm-65.764-7.37H1333.689v.029c3.804.291 6.803 3.463 6.803 7.341s-2.998 7.051-6.803 7.341v.004h-.085c-.16.01-.32.024-.483.024s-.322-.014-.483-.024h-47.791c-.16.01-.32.024-.483.024-4.07 0-7.37-3.3-7.37-7.37s3.303-7.369 7.373-7.369zm56.126 31.748c0 4.07-3.3 7.37-7.37 7.37s-7.37-3.3-7.37-7.37 3.3-7.37 7.37-7.37 7.37 3.3 7.37 7.37zm-31.748 31.748c-4.07 0-7.37-3.3-7.37-7.37v-24.378c0-4.07 3.3-7.37 7.37-7.37s7.37 3.3 7.37 7.37v24.378c0 4.071-3.299 7.37-7.37 7.37zm7.37 17.008c0 4.07-3.3 7.37-7.37 7.37h-24.378c-4.07 0-7.37-3.3-7.37-7.37s3.3-7.37 7.37-7.37h24.378c4.071 0 7.37 3.3 7.37 7.37zm-39.118-48.756c0-4.07 3.3-7.37 7.37-7.37 4.071 0 7.37 3.3 7.37 7.37v24.378c0 4.07-3.3 7.37-7.37 7.37s-7.37-3.3-7.37-7.37v-24.378zm7.37 65.764H1333.689v.029c3.804.291 6.803 3.463 6.803 7.341s-2.998 7.051-6.803 7.341v.004h-.085c-.16.01-.32.024-.483.024s-.322-.014-.483-.024h-47.791c-.16.01-.32.024-.483.024-4.07 0-7.37-3.3-7.37-7.37s3.303-7.369 7.373-7.369zm0 24.378H1333.689v.029c3.804.291 6.803 3.463 6.803 7.341s-2.998 7.051-6.803 7.341v.004h-.085c-.16.01-.32.024-.483.024s-.322-.014-.483-.024h-47.791c-.16.01-.32.024-.483.024-4.07 0-7.37-3.3-7.37-7.37s3.303-7.369 7.373-7.369zm56.126 31.748c0 4.07-3.3 7.37-7.37 7.37s-7.37-3.3-7.37-7.37 3.3-7.37 7.37-7.37 7.37 3.3 7.37 7.37zm-31.748 31.748c-4.07 0-7.37-3.3-7.37-7.37v-24.378c0-4.07 3.3-7.37 7.37-7.37s7.37 3.3 7.37 7.37v24.378c0 4.07-3.299 7.37-7.37 7.37zm7.37 17.008c0 4.07-3.3 7.37-7.37 7.37h-24.378c-4.07 0-7.37-3.3-7.37-7.37s3.3-7.37 7.37-7.37h24.378c4.071 0 7.37 3.299 7.37 7.37zm-39.118-48.756c0-4.07 3.3-7.37 7.37-7.37 4.071 0 7.37 3.3 7.37 7.37v24.378c0 4.07-3.3 7.37-7.37 7.37s-7.37-3.3-7.37-7.37v-24.378zm-68.128-190.205h56.693v15.591h-56.693v-15.591zm58.677 43.937v24.378c0 4.07-3.3 7.37-7.37 7.37s-7.37-3.3-7.37-7.37v-24.378c0-4.07 3.3-7.37 7.37-7.37s7.37 3.3 7.37 7.37zm-31.748 187.654c4.07 0 7.37 3.3 7.37 7.37v48.756c0 4.07-3.3 7.37-7.37 7.37s-7.37-3.3-7.37-7.37V522.51c0-4.071 3.3-7.37 7.37-7.37zm-7.37-17.008v-48.756c0-4.07 3.3-7.37 7.37-7.37s7.37 3.3 7.37 7.37v48.756c0 4.07-3.3 7.37-7.37 7.37s-7.37-3.3-7.37-7.37zm7.37 90.117c4.07 0 7.37 3.3 7.37 7.37v48.756c0 4.07-3.3 7.37-7.37 7.37s-7.37-3.3-7.37-7.37v-48.756c0-4.07 3.3-7.37 7.37-7.37zm-7.369 80.504c0-4.07 3.3-7.37 7.37-7.37s7.37 3.3 7.37 7.37v27.237c0 4.07-3.3 7.37-7.37 7.37s-7.37-3.3-7.37-7.37v-27.237zm7.37-236.385c-4.07 0-7.37-3.3-7.37-7.37V400.62c0-4.07 3.3-7.37 7.37-7.37s7.37 3.3 7.37 7.37v24.378c0 4.071-3.299 7.37-7.37 7.37zm-7.371-56.126v-48.756c0-4.07 3.3-7.37 7.37-7.37s7.37 3.3 7.37 7.37v48.756c0 4.07-3.3 7.37-7.37 7.37s-7.37-3.299-7.37-7.37zm-89.955 275.528c-4.07 0-7.37-3.3-7.37-7.37v-24.378c0-4.07 3.3-7.37 7.37-7.37 4.071 0 7.37 3.3 7.37 7.37V644.4c0 4.07-3.299 7.37-7.37 7.37zm7.37 17.007c0 4.07-3.3 7.37-7.37 7.37s-7.37-3.3-7.37-7.37 3.3-7.37 7.37-7.37 7.37 3.3 7.37 7.37zm-7.074-65.788c-.16.01-.32.024-.483.024-4.07 0-7.37-3.3-7.37-7.37s3.3-7.37 7.37-7.37H1187.608v.029c3.804.291 6.803 3.463 6.803 7.341s-2.998 7.051-6.803 7.341v.004h-.085c-.16.01-.32.024-.483.024-.163 0-.322-.014-.483-.024h-47.788zm-.483-234.117c4.07 0 7.37 3.3 7.37 7.37s-3.3 7.37-7.37 7.37-7.37-3.3-7.37-7.37 3.3-7.37 7.37-7.37zm-7.278-16.914c0-4.07 3.3-7.37 7.37-7.37s7.37 3.3 7.37 7.37-3.3 7.37-7.37 7.37-7.37-3.3-7.37-7.37zm7.278 41.292H1187.608v.029c3.804.291 6.803 3.463 6.803 7.341s-2.998 7.051-6.803 7.341v.004h-.085c-.16.01-.32.024-.483.024-.163 0-.322-.014-.483-.024h-47.791c-.16.01-.32.024-.483.024-4.07 0-7.37-3.3-7.37-7.37s3.303-7.369 7.373-7.369zm17.008-17.008v-24.378c0-4.07 3.3-7.37 7.37-7.37s7.37 3.3 7.37 7.37v24.378c0 4.07-3.3 7.37-7.37 7.37s-7.37-3.299-7.37-7.37zm63.496 48.756c0 3.879-2.998 7.051-6.803 7.341v.004h-.085c-.16.01-.32.024-.483.024-.163 0-.322-.014-.483-.024h-47.791c-.16.01-.32.024-.483.024-4.07 0-7.37-3.3-7.37-7.37s3.3-7.37 7.37-7.37H1211.984v.029c3.808.291 6.806 3.463 6.806 7.342zm0 97.512c0 3.879-2.998 7.051-6.803 7.341v.004h-.085c-.16.01-.32.024-.483.024-.163 0-.322-.014-.483-.024h-47.791c-.16.01-.32.024-.483.024-4.07 0-7.37-3.3-7.37-7.37s3.3-7.37 7.37-7.37H1211.984v.029c3.808.291 6.806 3.463 6.806 7.342zm0 24.378c0 4.07-3.3 7.37-7.37 7.37s-7.37-3.3-7.37-7.37 3.3-7.37 7.37-7.37 7.37 3.299 7.37 7.37zm-24.377 0v24.378c0 4.07-3.3 7.37-7.37 7.37s-7.37-3.3-7.37-7.37v-24.378c0-4.07 3.3-7.37 7.37-7.37s7.37 3.299 7.37 7.37zm-24.379 0v24.378c0 4.07-3.3 7.37-7.37 7.37s-7.37-3.3-7.37-7.37v-24.378c0-4.07 3.3-7.37 7.37-7.37s7.37 3.299 7.37 7.37zm24.379-73.134c0 4.07-3.3 7.37-7.37 7.37s-7.37-3.3-7.37-7.37v-24.378c0-4.07 3.3-7.37 7.37-7.37s7.37 3.3 7.37 7.37v24.378zm24.377-24.378c0 4.07-3.3 7.37-7.37 7.37s-7.37-3.3-7.37-7.37 3.3-7.37 7.37-7.37 7.37 3.3 7.37 7.37zm-48.756 0v24.378c0 4.07-3.3 7.37-7.37 7.37s-7.37-3.3-7.37-7.37v-24.378c0-4.07 3.3-7.37 7.37-7.37s7.37 3.3 7.37 7.37zm24.379-73.134c0 4.07-3.3 7.37-7.37 7.37s-7.37-3.3-7.37-7.37v-24.378c0-4.07 3.3-7.37 7.37-7.37s7.37 3.3 7.37 7.37v24.378zm-48.57 48.756v24.378c0 4.07-3.3 7.37-7.37 7.37s-7.37-3.3-7.37-7.37v-24.378c0-4.07 3.3-7.37 7.37-7.37 4.071 0 7.37 3.3 7.37 7.37zm-7.557 41.386c4.07 0 7.37 3.3 7.37 7.37s-3.3 7.37-7.37 7.37-7.37-3.3-7.37-7.37 3.3-7.37 7.37-7.37zm0 24.378H1187.608v.029c3.804.291 6.803 3.463 6.803 7.341s-2.998 7.051-6.803 7.341v.004h-.085c-.16.01-.32.024-.483.024-.163 0-.322-.014-.483-.024h-47.791c-.16.01-.32.024-.483.024-4.07 0-7.37-3.3-7.37-7.37s3.303-7.369 7.373-7.369zm7.557 31.748v24.378c0 4.07-3.3 7.37-7.37 7.37s-7.37-3.3-7.37-7.37V522.51c0-4.07 3.3-7.37 7.37-7.37 4.071 0 7.37 3.3 7.37 7.37zm-7.557 41.386c4.07 0 7.37 3.3 7.37 7.37s-3.3 7.37-7.37 7.37-7.37-3.3-7.37-7.37c0-4.071 3.3-7.37 7.37-7.37zm17.008 80.504c0-4.07 3.3-7.37 7.37-7.37s7.37 3.3 7.37 7.37v24.378c0 4.07-3.3 7.37-7.37 7.37s-7.37-3.3-7.37-7.37V644.4zm7.853-17.033c-.16.01-.32.024-.483.024-4.07 0-7.37-3.3-7.37-7.37s3.3-7.37 7.37-7.37H1211.986v.029c3.804.291 6.803 3.463 6.803 7.341s-2.998 7.051-6.803 7.341v.004h-.085c-.16.01-.32.024-.483.024-.163 0-.322-.014-.483-.024h-47.788zm48.274-24.353c-4.07 0-7.37-3.3-7.37-7.37v-24.378c0-4.07 3.3-7.37 7.37-7.37s7.37 3.3 7.37 7.37v24.378c0 4.07-3.3 7.37-7.37 7.37zm0-97.512c-4.07 0-7.37-3.3-7.37-7.37v-24.378c0-4.07 3.3-7.37 7.37-7.37s7.37 3.3 7.37 7.37v24.378c0 4.07-3.3 7.37-7.37 7.37zm0-97.512c-4.07 0-7.37-3.3-7.37-7.37v-24.378c0-4.07 3.3-7.37 7.37-7.37s7.37 3.3 7.37 7.37v24.378c0 4.071-3.3 7.37-7.37 7.37zm-7.371-56.126c0-4.07 3.3-7.37 7.37-7.37s7.37 3.3 7.37 7.37-3.3 7.37-7.37 7.37-7.37-3.299-7.37-7.37zm-17.008-31.748h24.378c4.07 0 7.37 3.3 7.37 7.37s-3.3 7.37-7.37 7.37h-24.378c-4.07 0-7.37-3.3-7.37-7.37s3.3-7.37 7.37-7.37zm-17.008 7.37c0 4.07-3.3 7.37-7.37 7.37h-24.378c-4.07 0-7.37-3.3-7.37-7.37s3.3-7.37 7.37-7.37h24.378c4.071 0 7.37 3.3 7.37 7.37zm-83.055-43.937h56.693v15.591h-56.693v-15.591zm34.393 44.031v24.378c0 4.07-3.3 7.37-7.37 7.37s-7.37-3.3-7.37-7.37v-17.195h-9.755c-4.07 0-7.37-3.3-7.37-7.37s3.3-7.37 7.37-7.37h17.125c4.07 0 7.37 3.3 7.37 7.37 0 .032-.004.062-.005.093 0 .032.005.062.005.094zm-14.834 243.686v-.567h.029c.291-3.804 3.463-6.803 7.341-6.803 3.879 0 7.051 2.998 7.342 6.803h.004v.085c.01.16.024.32.024.483s-.014.322-.024.483l.024 72.651c0 4.07-3.3 7.37-7.37 7.37s-7.37-3.3-7.37-7.37v-73.135zm0-73.134v-.567h.029c.291-3.804 3.463-6.803 7.341-6.803 3.879 0 7.051 2.998 7.342 6.803h.004v.085c.01.16.024.32.024.483s-.014.322-.024.483v47.791c.01.16.024.32.024.483 0 4.07-3.3 7.37-7.37 7.37s-7.37-3.3-7.37-7.37V498.132zm0-121.89v-.567h.029c.291-3.804 3.463-6.803 7.341-6.803 3.879 0 7.051 2.998 7.342 6.803h.004v.085c.01.16.024.32.024.483s-.014.322-.024.483v47.791c.01.16.024.32.024.483 0 4.07-3.3 7.37-7.37 7.37s-7.37-3.3-7.37-7.37V376.242zm0 292.535c0-4.07 3.3-7.37 7.37-7.37s7.37 3.3 7.37 7.37v27.237c0 4.07-3.3 7.37-7.37 7.37-.117 0-.232-.012-.348-.018-.116.005-.231.018-.349.018h-16.335c-4.07 0-7.37-3.3-7.37-7.37s3.3-7.37 7.37-7.37h9.661v-19.867zm7.37-187.653c-4.07 0-7.37-3.3-7.37-7.37v-24.378c0-4.07 3.3-7.37 7.37-7.37s7.37 3.3 7.37 7.37v24.378c0 4.07-3.299 7.37-7.37 7.37zm-45.354 200.414h-15.591V539.806h15.591v141.732zm0-198.713h-15.591V341.093h15.591v141.732zm75.118 257.103h-56.693v-15.591h56.693v15.591zm43.371-36.543h-48.569c-4.07 0-7.37-3.3-7.37-7.37s3.3-7.37 7.37-7.37h48.569c4.07 0 7.37 3.3 7.37 7.37s-3.3 7.37-7.37 7.37zm7.37-34.608c0 4.07-3.3 7.37-7.37 7.37s-7.37-3.3-7.37-7.37V644.4c0-4.07 3.3-7.37 7.37-7.37s7.37 3.3 7.37 7.37v24.377zm17.007-31.748c4.07 0 7.37 3.3 7.37 7.37s-3.3 7.37-7.37 7.37-7.37-3.3-7.37-7.37 3.3-7.37 7.37-7.37zm-7.37 58.961v-27.213c0-4.07 3.3-7.37 7.37-7.37s7.37 3.3 7.37 7.37v27.213c0 4.07-3.3 7.37-7.37 7.37s-7.37-3.299-7.37-7.37zm61.512 43.938h-56.693v-15.591h56.693v15.591zm1.984-43.938c0 4.07-3.3 7.37-7.37 7.37s-7.37-3.3-7.37-7.37v-27.237c0-4.07 3.3-7.37 7.37-7.37s7.37 3.3 7.37 7.37v27.237zm0-51.59c0 4.07-3.3 7.37-7.37 7.37s-7.37-3.3-7.37-7.37v-24.378c0-4.07 3.3-7.37 7.37-7.37s7.37 3.3 7.37 7.37V644.4zm0-48.756c0 4.07-3.3 7.37-7.37 7.37s-7.37-3.3-7.37-7.37v-24.378c0-4.07 3.3-7.37 7.37-7.37s7.37 3.3 7.37 7.37v24.378zm0-48.756c0 4.07-3.3 7.37-7.37 7.37s-7.37-3.3-7.37-7.37V522.51c0-4.07 3.3-7.37 7.37-7.37s7.37 3.3 7.37 7.37v24.378zm0-48.756c0 4.07-3.3 7.37-7.37 7.37s-7.37-3.3-7.37-7.37v-24.378c0-4.07 3.3-7.37 7.37-7.37s7.37 3.3 7.37 7.37v24.378zm0-48.756c0 4.07-3.3 7.37-7.37 7.37s-7.37-3.3-7.37-7.37v-24.378c0-4.07 3.3-7.37 7.37-7.37s7.37 3.3 7.37 7.37v24.378zm.001-48.755c0 4.07-3.3 7.37-7.37 7.37s-7.37-3.3-7.37-7.37v-24.378c0-4.07 3.3-7.37 7.37-7.37 4.071 0 7.37 3.3 7.37 7.37v24.378zm66.143 153.608v.004h-.085c-.16.01-.32.024-.483.024s-.322-.014-.483-.024h-47.791c-.16.01-.32.024-.483.024-4.07 0-7.37-3.3-7.37-7.37s3.3-7.37 7.37-7.37H1333.687v.029c3.804.291 6.803 3.463 6.803 7.341s-2.995 7.051-6.8 7.342zm6.803-31.719c0 4.07-3.3 7.37-7.37 7.37s-7.37-3.3-7.37-7.37v-24.378c0-4.07 3.3-7.37 7.37-7.37s7.37 3.3 7.37 7.37v24.378zm0-121.89c0 4.07-3.3 7.37-7.37 7.37s-7.37-3.3-7.37-7.37v-24.378c0-4.07 3.3-7.37 7.37-7.37s7.37 3.3 7.37 7.37v24.378zm9.638 48.756c0-4.07 3.3-7.37 7.37-7.37s7.37 3.3 7.37 7.37v48.756c0 4.07-3.3 7.37-7.37 7.37s-7.37-3.3-7.37-7.37v-48.756zm14.741 97.512c0 4.07-3.3 7.37-7.37 7.37s-7.37-3.3-7.37-7.37V522.51c0-4.07 3.3-7.37 7.37-7.37s7.37 3.3 7.37 7.37v24.378zm0-121.89c0 4.07-3.3 7.37-7.37 7.37s-7.37-3.3-7.37-7.37V400.62c0-4.07 3.3-7.37 7.37-7.37s7.37 3.3 7.37 7.37v24.378z" class="d"/><path d="m88.129 756.012.029 483.832h258.193l.04-483.832H88.129zm134.254 50.086h24.404c4.075 0 7.378 3.303 7.378 7.378s-3.303 7.378-7.378 7.378h-24.404c-4.075 0-7.378-3.303-7.378-7.378s3.304-7.378 7.378-7.378zm24.218 332.013c-4.075 0-7.378-3.303-7.378-7.378v-24.404c0-4.075 3.303-7.378 7.378-7.378s7.378 3.303 7.378 7.378v24.404c0 4.074-3.303 7.378-7.378 7.378zm7.378 17.026c0 4.075-3.303 7.378-7.378 7.378s-7.378-3.303-7.378-7.378 3.303-7.378 7.378-7.378 7.378 3.303 7.378 7.378zm-7.191-65.835c-.163 0-.323-.014-.483-.024h-47.842c-.16.01-.32.024-.483.024s-.323-.014-.483-.024h-.085v-.004c-3.808-.291-6.81-3.466-6.81-7.349s3.001-7.058 6.81-7.349v-.029h49.376c4.075 0 7.378 3.303 7.378 7.378 0 4.074-3.303 7.377-7.378 7.377zm-24.404 24.404c-.163 0-.323-.014-.483-.024h-47.842c-.16.01-.32.024-.483.024s-.323-.014-.483-.024h-.085v-.004c-3.808-.291-6.81-3.466-6.81-7.349s3.001-7.058 6.81-7.349v-.029h49.376c4.075 0 7.378 3.303 7.378 7.378s-3.304 7.377-7.378 7.377zm7.378 17.027v24.404c0 4.075-3.303 7.378-7.378 7.378s-7.378-3.303-7.378-7.378v-24.404c0-4.075 3.303-7.378 7.378-7.378 4.074 0 7.378 3.303 7.378 7.378zm-24.405 0v24.404c0 4.075-3.303 7.378-7.378 7.378s-7.378-3.303-7.378-7.378v-24.404c0-4.075 3.303-7.378 7.378-7.378s7.378 3.303 7.378 7.378zm17.027-212.261c-.163 0-.323-.014-.483-.024h-47.842c-.16.01-.32.024-.483.024s-.323-.014-.483-.024h-.085v-.004c-3.808-.291-6.81-3.466-6.81-7.349s3.001-7.058 6.81-7.349v-.029h49.376c4.075 0 7.378 3.303 7.378 7.378 0 4.073-3.304 7.377-7.378 7.377zm7.378 17.026v24.404c0 4.075-3.303 7.378-7.378 7.378s-7.378-3.303-7.378-7.378v-24.404c0-4.075 3.303-7.378 7.378-7.378 4.074 0 7.378 3.303 7.378 7.378zm-7.378 80.591c-.163 0-.323-.014-.483-.024h-47.842c-.16.01-.32.024-.483.024s-.323-.014-.483-.024h-.085v-.004c-3.808-.291-6.81-3.466-6.81-7.349s3.001-7.058 6.81-7.349v-.029h49.376c4.075 0 7.378 3.303 7.378 7.378 0 4.074-3.304 7.377-7.378 7.377zm7.378 17.026v24.404c0 4.075-3.303 7.378-7.378 7.378s-7.378-3.303-7.378-7.378v-24.404c0-4.075 3.303-7.378 7.378-7.378 4.074 0 7.378 3.304 7.378 7.378zm-24.405 0v24.404c0 4.075-3.303 7.378-7.378 7.378s-7.378-3.303-7.378-7.378v-24.404c0-4.075 3.303-7.378 7.378-7.378s7.378 3.304 7.378 7.378zm-24.404 0c0 4.075-3.303 7.378-7.378 7.378s-7.378-3.303-7.378-7.378 3.303-7.378 7.378-7.378 7.378 3.303 7.378 7.378zm24.404-97.617v24.404c0 4.075-3.303 7.378-7.378 7.378s-7.378-3.303-7.378-7.378v-24.404c0-4.075 3.303-7.378 7.378-7.378s7.378 3.303 7.378 7.378zm-24.404 0c0 4.075-3.303 7.378-7.378 7.378s-7.378-3.303-7.378-7.378 3.303-7.378 7.378-7.378 7.378 3.303 7.378 7.378zm-7.379-80.591c4.075 0 7.378 3.303 7.378 7.378v24.404c0 4.075-3.303 7.378-7.378 7.378s-7.378-3.303-7.378-7.378v-24.404c0-4.075 3.304-7.378 7.378-7.378zm-7.377-17.026c0-4.075 3.303-7.378 7.378-7.378s7.378 3.303 7.378 7.378-3.303 7.378-7.378 7.378-7.378-3.304-7.378-7.378zm7.377 114.643c4.075 0 7.378 3.303 7.378 7.378v24.404c0 4.075-3.303 7.378-7.378 7.378s-7.378-3.303-7.378-7.378v-24.404c0-4.074 3.304-7.378 7.378-7.378zm0 97.618c4.075 0 7.378 3.303 7.378 7.378v24.404c0 4.075-3.303 7.378-7.378 7.378s-7.378-3.303-7.378-7.378v-24.404c0-4.075 3.304-7.378 7.378-7.378zm80.405-17.027c0 4.075-3.303 7.378-7.378 7.378s-7.378-3.303-7.378-7.378v-24.404c0-4.075 3.303-7.378 7.378-7.378s7.378 3.303 7.378 7.378v24.404zm.187 24.405c0 4.075-3.303 7.378-7.378 7.378s-7.378-3.303-7.378-7.378 3.303-7.378 7.378-7.378 7.378 3.303 7.378 7.378zm-7.378-65.835c-.163 0-.323-.014-.483-.024h-47.842c-.16.01-.32.024-.483.024s-.323-.014-.483-.024h-.085v-.004c-3.808-.291-6.81-3.466-6.81-7.349s3.001-7.058 6.81-7.349v-.029h49.376c4.075 0 7.378 3.303 7.378 7.378s-3.303 7.377-7.378 7.377zm7.191-56.187c0 4.075-3.303 7.378-7.378 7.378s-7.378-3.303-7.378-7.378v-24.404c0-4.075 3.303-7.378 7.378-7.378s7.378 3.303 7.378 7.378v24.404zm.187 24.404c0 4.075-3.303 7.378-7.378 7.378s-7.378-3.303-7.378-7.378 3.303-7.378 7.378-7.378 7.378 3.303 7.378 7.378zm-7.378-65.835c-.163 0-.323-.014-.483-.024h-47.842c-.16.01-.32.024-.483.024s-.323-.014-.483-.024h-.085v-.004c-3.808-.291-6.81-3.466-6.81-7.349s3.001-7.058 6.81-7.349v-.029h49.376c4.075 0 7.378 3.303 7.378 7.378s-3.303 7.377-7.378 7.377zm-56.187-31.782v-24.404c0-4.075 3.303-7.378 7.378-7.378s7.378 3.303 7.378 7.378v24.404c0 4.075-3.303 7.378-7.378 7.378s-7.378-3.303-7.378-7.378zm24.405 0v-24.404c0-4.075 3.303-7.378 7.378-7.378s7.378 3.303 7.378 7.378v24.404c0 4.075-3.303 7.378-7.378 7.378s-7.378-3.303-7.378-7.378zm31.782 7.378c-4.075 0-7.378-3.303-7.378-7.378s3.303-7.378 7.378-7.378 7.378 3.303 7.378 7.378-3.303 7.378-7.378 7.378zm-7.47-31.689c0-4.075 3.303-7.378 7.378-7.378s7.378 3.303 7.378 7.378-3.303 7.378-7.378 7.378-7.378-3.303-7.378-7.378zm-33.961-24.498c0 4.075-3.303 7.378-7.378 7.378h-24.404c-4.075 0-7.378-3.303-7.378-7.378s3.303-7.378 7.378-7.378h24.404c4.075 0 7.378 3.303 7.378 7.378zm-85.982-43.985h56.754v15.608h-56.754v-15.608zm29.796 368.595c-4.075 0-7.378-3.303-7.378-7.378V1081.9c0-4.075 3.303-7.378 7.378-7.378s7.378 3.303 7.378 7.378v48.809c0 4.074-3.304 7.377-7.378 7.377zm7.376 17.027v27.267c0 4.075-3.303 7.378-7.378 7.378s-7.378-3.303-7.378-7.378v-27.267c0-4.075 3.303-7.378 7.378-7.378s7.378 3.303 7.378 7.378zm-14.756-244.019V886.69c0-4.075 3.303-7.378 7.378-7.378s7.378 3.303 7.378 7.378v24.404c0 4.075-3.303 7.378-7.378 7.378s-7.378-3.304-7.378-7.378zm7.38 153.804c-4.075 0-7.378-3.303-7.378-7.378v-48.809c0-4.075 3.303-7.378 7.378-7.378s7.378 3.303 7.378 7.378v48.809c0 4.074-3.304 7.378-7.378 7.378zm0-73.213c-4.075 0-7.378-3.303-7.378-7.378v-48.809c0-4.075 3.303-7.378 7.378-7.378s7.378 3.303 7.378 7.378v48.809c0 4.074-3.304 7.378-7.378 7.378zm0-122.022c-4.075 0-7.378-3.303-7.378-7.378v-48.809c0-4.075 3.303-7.378 7.378-7.378s7.378 3.303 7.378 7.378v48.809c0 4.075-3.304 7.378-7.378 7.378zm-31.783-56.187c0-4.075 3.303-7.378 7.378-7.378s7.378 3.303 7.378 7.378v24.404c0 4.075-3.303 7.378-7.378 7.378s-7.378-3.303-7.378-7.378v-24.404zm0 48.809c0-4.075 3.303-7.378 7.378-7.378s7.378 3.303 7.378 7.378v24.404c0 4.075-3.303 7.378-7.378 7.378s-7.378-3.303-7.378-7.378v-24.404zm0 48.809c0-4.075 3.303-7.378 7.378-7.378s7.378 3.303 7.378 7.378v24.404c0 4.075-3.303 7.378-7.378 7.378s-7.378-3.303-7.378-7.378v-24.404zm0 48.808c0-4.075 3.303-7.378 7.378-7.378s7.378 3.303 7.378 7.378v24.404c0 4.075-3.303 7.378-7.378 7.378s-7.378-3.303-7.378-7.378v-24.404zm0 48.809c0-4.075 3.303-7.378 7.378-7.378s7.378 3.303 7.378 7.378v24.404c0 4.075-3.303 7.378-7.378 7.378s-7.378-3.303-7.378-7.378v-24.404zm0 48.809c0-4.075 3.303-7.378 7.378-7.378s7.378 3.303 7.378 7.378v24.404c0 4.075-3.303 7.378-7.378 7.378s-7.378-3.303-7.378-7.378v-24.404zm0 48.808c0-4.075 3.303-7.378 7.378-7.378s7.378 3.303 7.378 7.378v24.404c0 4.075-3.303 7.378-7.378 7.378s-7.378-3.303-7.378-7.378v-24.404zm0 48.785c0-4.075 3.303-7.378 7.378-7.378s7.378 3.303 7.378 7.378v27.267c0 4.075-3.303 7.378-7.378 7.378s-7.378-3.303-7.378-7.378v-27.267zm58.741 71.252h-56.754v-15.608h56.754v15.608zm4.824-43.986c0 4.075-3.303 7.378-7.378 7.378s-7.378-3.303-7.378-7.378v-27.242c0-4.075 3.303-7.378 7.378-7.378s7.378 3.303 7.378 7.378v27.242zm-7.378-44.268c-4.075 0-7.378-3.303-7.378-7.378s3.303-7.378 7.378-7.378 7.378 3.303 7.378 7.378c0 4.074-3.303 7.378-7.378 7.378zm17.026 44.293c0-4.075 3.303-7.378 7.378-7.378h48.622c4.075 0 7.378 3.303 7.378 7.378s-3.303 7.378-7.378 7.378h-48.622c-4.075 0-7.378-3.303-7.378-7.378zm107.55 43.961h-56.754v-15.607h56.754v15.607zm-34.43-412.982c0-4.075 3.303-7.378 7.378-7.378h17.144c4.075 0 7.378 3.303 7.378 7.378s-3.303 7.378-7.378 7.378h-9.766v17.213c0 4.075-3.303 7.378-7.378 7.378s-7.378-3.303-7.378-7.378V813.57c0-.032.004-.062.005-.094-.001-.031-.005-.062-.005-.093zm.093 48.902c0-.163.014-.323.024-.483v-.085h.004c.291-3.808 3.466-6.81 7.349-6.81s7.058 3.001 7.349 6.81h.029v49.376c0 4.075-3.303 7.378-7.378 7.378s-7.378-3.303-7.378-7.378c0-.163.014-.323.024-.483v-47.842c-.009-.16-.023-.32-.023-.483zm14.756 170.83c0 4.075-3.303 7.378-7.378 7.378s-7.378-3.303-7.378-7.378c0-.163.014-.323.024-.483V984.79c-.01-.16-.024-.32-.024-.483s.014-.323.024-.483v-.085h.004c.291-3.808 3.466-6.81 7.349-6.81s7.058 3.001 7.349 6.81h.029v49.375l.001.001zm0 97.618c0 4.075-3.303 7.378-7.378 7.378s-7.378-3.303-7.378-7.378l.024-72.73c-.01-.161-.024-.32-.024-.483s.014-.323.024-.483v-.085h.004c.291-3.808 3.466-6.81 7.349-6.81s7.058 3.002 7.349 6.81h.029v49.375c.001.001.001 24.405.001 24.406zm-7.378-202.613c4.075 0 7.378 3.303 7.378 7.378v24.404c0 4.075-3.303 7.378-7.378 7.378s-7.378-3.303-7.378-7.378v-24.404c0-4.075 3.304-7.378 7.378-7.378zm0 219.639c4.075 0 7.378 3.303 7.378 7.378v19.889h9.672c4.075 0 7.378 3.303 7.378 7.378s-3.303 7.378-7.378 7.378H271.89c-.118 0-.233-.012-.349-.018-.116.005-.231.018-.348.018-4.075 0-7.378-3.303-7.378-7.378v-27.267c-.001-4.075 3.303-7.378 7.377-7.378zm26.959-362.661h-56.754V769.49h56.754v15.608zm34.052 382.813h-15.607v-141.886h15.607v141.886zm0-198.928h-15.607V827.097h15.607v141.886z" class="a"/><path d="m1038.789 756.012.04 483.832h258.193l.029-483.832h-258.262zm170.262 13.479h56.754v15.608h-56.754v-15.608zm26.959 231.842c4.075 0 7.378 3.303 7.378 7.378v48.809c0 4.075-3.303 7.378-7.378 7.378s-7.378-3.303-7.378-7.378v-48.809c-.001-4.075 3.303-7.378 7.378-7.378zm-7.379-17.026v-48.809c0-4.075 3.303-7.378 7.378-7.378s7.378 3.303 7.378 7.378v48.809c0 4.075-3.303 7.378-7.378 7.378-4.074 0-7.378-3.304-7.378-7.378zm7.379 90.214c4.075 0 7.378 3.303 7.378 7.378v48.809c0 4.075-3.303 7.378-7.378 7.378s-7.378-3.303-7.378-7.378V1081.9c-.001-4.075 3.303-7.379 7.378-7.379zm-7.377 80.592c0-4.075 3.303-7.378 7.378-7.378s7.378 3.303 7.378 7.378v27.267c0 4.075-3.303 7.378-7.378 7.378s-7.378-3.303-7.378-7.378v-27.267zm7.378-236.641c-4.075 0-7.378-3.303-7.378-7.378V886.69c0-4.075 3.303-7.378 7.378-7.378s7.378 3.303 7.378 7.378v24.404c0 4.074-3.303 7.378-7.378 7.378zm-7.38-56.187v-48.809c0-4.075 3.303-7.378 7.378-7.378s7.378 3.303 7.378 7.378v48.809c0 4.075-3.303 7.378-7.378 7.378-4.074 0-7.378-3.303-7.378-7.378zm-90.052 275.826c-4.075 0-7.378-3.303-7.378-7.378v-24.404c0-4.075 3.303-7.378 7.378-7.378s7.378 3.303 7.378 7.378v24.404c0 4.074-3.303 7.378-7.378 7.378zm7.378 17.026c0 4.075-3.303 7.378-7.378 7.378s-7.378-3.303-7.378-7.378 3.303-7.378 7.378-7.378 7.378 3.303 7.378 7.378zm-7.082-65.859c-.161.01-.32.024-.483.024-4.075 0-7.378-3.303-7.378-7.378s3.303-7.378 7.378-7.378H1187.768v.029c3.808.291 6.81 3.466 6.81 7.349s-3.001 7.058-6.81 7.349v.004h-.085c-.16.01-.32.024-.483.024s-.323-.014-.483-.024h-47.842zm-.483-234.371c4.075 0 7.378 3.303 7.378 7.378s-3.303 7.378-7.378 7.378-7.378-3.303-7.378-7.378 3.303-7.378 7.378-7.378zm-7.285-16.933c0-4.075 3.303-7.378 7.378-7.378s7.378 3.303 7.378 7.378-3.303 7.378-7.378 7.378-7.378-3.303-7.378-7.378zm7.285 41.337H1187.768v.029c3.808.291 6.81 3.466 6.81 7.349s-3.001 7.058-6.81 7.349v.004h-.085c-.16.01-.32.024-.483.024s-.323-.014-.483-.024h-47.842c-.161.01-.32.024-.483.024-4.075 0-7.378-3.303-7.378-7.378s3.303-7.377 7.378-7.377zm17.026-17.026v-24.404c0-4.075 3.303-7.378 7.378-7.378s7.378 3.303 7.378 7.378v24.404c0 4.075-3.303 7.378-7.378 7.378s-7.378-3.303-7.378-7.378zm63.565 48.809c0 3.883-3.001 7.058-6.81 7.349v.004h-.085c-.161.01-.32.024-.483.024s-.323-.014-.483-.024h-47.843c-.16.01-.32.024-.483.024-4.075 0-7.378-3.303-7.378-7.378s3.303-7.378 7.378-7.378H1212.172v.029c3.81.291 6.811 3.467 6.811 7.35zm0 97.617c0 3.883-3.001 7.058-6.81 7.349v.004h-.085c-.161.01-.32.024-.483.024s-.323-.014-.483-.024h-47.843c-.16.01-.32.024-.483.024-4.075 0-7.378-3.303-7.378-7.378s3.303-7.378 7.378-7.378H1212.172v.029c3.81.292 6.811 3.467 6.811 7.35zm0 24.404c0 4.075-3.303 7.378-7.378 7.378s-7.378-3.303-7.378-7.378 3.303-7.378 7.378-7.378 7.378 3.303 7.378 7.378zm-24.404 0v24.404c0 4.075-3.303 7.378-7.378 7.378s-7.378-3.303-7.378-7.378v-24.404c0-4.075 3.303-7.378 7.378-7.378s7.378 3.304 7.378 7.378zm-24.404 0v24.404c0 4.075-3.303 7.378-7.378 7.378s-7.378-3.303-7.378-7.378v-24.404c0-4.075 3.303-7.378 7.378-7.378s7.378 3.304 7.378 7.378zm24.404-73.213c0 4.075-3.303 7.378-7.378 7.378s-7.378-3.303-7.378-7.378v-24.404c0-4.075 3.303-7.378 7.378-7.378s7.378 3.303 7.378 7.378v24.404zm24.404-24.404c0 4.075-3.303 7.378-7.378 7.378s-7.378-3.303-7.378-7.378 3.303-7.378 7.378-7.378 7.378 3.303 7.378 7.378zm-48.808 0v24.404c0 4.075-3.303 7.378-7.378 7.378s-7.378-3.303-7.378-7.378v-24.404c0-4.075 3.303-7.378 7.378-7.378s7.378 3.303 7.378 7.378zm24.404-73.213c0 4.075-3.303 7.378-7.378 7.378s-7.378-3.303-7.378-7.378v-24.404c0-4.075 3.303-7.378 7.378-7.378s7.378 3.303 7.378 7.378v24.404zm-48.622 48.809v24.404c0 4.075-3.303 7.378-7.378 7.378s-7.378-3.303-7.378-7.378v-24.404c0-4.075 3.303-7.378 7.378-7.378s7.378 3.303 7.378 7.378zm-7.565 41.43c4.075 0 7.378 3.303 7.378 7.378s-3.303 7.378-7.378 7.378-7.378-3.303-7.378-7.378 3.303-7.378 7.378-7.378zm0 24.405H1187.768v.029c3.808.291 6.81 3.466 6.81 7.349s-3.001 7.058-6.81 7.349v.004h-.085c-.16.01-.32.024-.483.024s-.323-.014-.483-.024h-47.842c-.161.01-.32.024-.483.024-4.075 0-7.378-3.303-7.378-7.378s3.303-7.377 7.378-7.377zm7.565 31.782v24.404c0 4.075-3.303 7.378-7.378 7.378s-7.378-3.303-7.378-7.378v-24.404c0-4.075 3.303-7.378 7.378-7.378s7.378 3.303 7.378 7.378zm-7.565 41.43c4.075 0 7.378 3.303 7.378 7.378s-3.303 7.378-7.378 7.378-7.378-3.303-7.378-7.378c0-4.074 3.303-7.378 7.378-7.378zm17.026 80.592c0-4.075 3.303-7.378 7.378-7.378s7.378 3.303 7.378 7.378v24.404c0 4.075-3.303 7.378-7.378 7.378s-7.378-3.303-7.378-7.378v-24.404zm7.862-17.051c-.16.01-.32.024-.483.024-4.075 0-7.378-3.303-7.378-7.378s3.303-7.378 7.378-7.378H1212.173v.029c3.808.291 6.81 3.466 6.81 7.349s-3.001 7.058-6.81 7.349v.004h-.085c-.161.01-.32.024-.483.024s-.323-.014-.483-.024h-47.842zm48.326-24.38c-4.075 0-7.378-3.303-7.378-7.378v-24.404c0-4.075 3.303-7.378 7.378-7.378s7.378 3.303 7.378 7.378v24.404c0 4.075-3.303 7.378-7.378 7.378zm0-97.617c-4.075 0-7.378-3.303-7.378-7.378v-24.404c0-4.075 3.303-7.378 7.378-7.378s7.378 3.303 7.378 7.378v24.404c0 4.074-3.303 7.378-7.378 7.378zm0-97.618c-4.075 0-7.378-3.303-7.378-7.378v-24.404c0-4.075 3.303-7.378 7.378-7.378s7.378 3.303 7.378 7.378v24.404c0 4.075-3.303 7.378-7.378 7.378zm-7.379-56.186c0-4.075 3.303-7.378 7.378-7.378s7.378 3.303 7.378 7.378-3.303 7.378-7.378 7.378-7.378-3.304-7.378-7.378zm-17.026-31.783h24.404c4.075 0 7.378 3.303 7.378 7.378s-3.303 7.378-7.378 7.378h-24.404c-4.075 0-7.378-3.303-7.378-7.378s3.303-7.378 7.378-7.378zm-17.026 7.378c0 4.075-3.303 7.378-7.378 7.378h-24.404c-4.075 0-7.378-3.303-7.378-7.378s3.303-7.378 7.378-7.378h24.404c4.074 0 7.378 3.303 7.378 7.378zm-83.146-43.985h56.754v15.608h-56.754v-15.608zm34.43 44.079v24.404c0 4.075-3.303 7.378-7.378 7.378s-7.378-3.303-7.378-7.378v-17.213h-9.766c-4.075 0-7.378-3.303-7.378-7.378s3.303-7.378 7.378-7.378h17.144c4.075 0 7.378 3.303 7.378 7.378 0 .032-.004.062-.005.094.001.031.005.061.005.093zm-14.849 243.95v-.568h.029c.291-3.808 3.466-6.81 7.349-6.81s7.058 3.002 7.349 6.81h.004v.085c.01.161.024.32.024.483s-.014.323-.024.483l.024 72.73c0 4.075-3.303 7.378-7.378 7.378s-7.378-3.303-7.378-7.378V1057.521l.001-.001zm0-73.213v-.568h.029c.291-3.808 3.466-6.81 7.349-6.81s7.058 3.001 7.349 6.81h.004v.085c.01.16.024.32.024.483s-.014.323-.024.483v47.842c.01.161.024.32.024.483 0 4.075-3.303 7.378-7.378 7.378s-7.378-3.303-7.378-7.378V984.308l.001-.001zm0-122.022v-.568h.029c.291-3.808 3.466-6.81 7.349-6.81s7.058 3.001 7.349 6.81h.004v.085c.01.16.024.32.024.483s-.014.323-.024.483v47.842c.01.16.024.32.024.483 0 4.075-3.303 7.378-7.378 7.378s-7.378-3.303-7.378-7.378V862.286c.001 0 .001-.001.001-.001zm0 292.852c0-4.075 3.303-7.378 7.378-7.378s7.378 3.303 7.378 7.378v27.267c0 4.075-3.303 7.378-7.378 7.378-.118 0-.232-.012-.348-.018-.117.005-.231.018-.349.018h-16.352c-4.075 0-7.378-3.303-7.378-7.378s3.303-7.378 7.378-7.378h9.672v-19.889zm7.378-187.857c-4.075 0-7.378-3.303-7.378-7.378v-24.404c0-4.075 3.303-7.378 7.378-7.378s7.378 3.303 7.378 7.378v24.404c0 4.075-3.303 7.378-7.378 7.378zm-45.404 200.631h-15.607v-141.886h15.607v141.886zm0-198.928h-15.607V827.097h15.607v141.886zm75.2 257.382h-56.754v-15.607h56.754v15.607zm43.417-36.583h-48.622c-4.075 0-7.378-3.303-7.378-7.378s3.303-7.378 7.378-7.378h48.622c4.075 0 7.378 3.303 7.378 7.378s-3.303 7.378-7.378 7.378zm7.378-34.645c0 4.075-3.303 7.378-7.378 7.378s-7.378-3.303-7.378-7.378v-24.404c0-4.075 3.303-7.378 7.378-7.378s7.378 3.303 7.378 7.378v24.404zm17.026-31.782c4.075 0 7.378 3.303 7.378 7.378s-3.303 7.378-7.378 7.378-7.378-3.303-7.378-7.378 3.303-7.378 7.378-7.378zm-7.377 59.024v-27.242c0-4.075 3.303-7.378 7.378-7.378s7.378 3.303 7.378 7.378v27.242c0 4.075-3.303 7.378-7.378 7.378s-7.378-3.303-7.378-7.378zm61.578 43.986h-56.754v-15.608h56.754v15.608zm1.986-43.986c0 4.075-3.303 7.378-7.378 7.378s-7.378-3.303-7.378-7.378v-27.267c0-4.075 3.303-7.378 7.378-7.378s7.378 3.303 7.378 7.378v27.267zm0-51.646c0 4.075-3.303 7.378-7.378 7.378s-7.378-3.303-7.378-7.378v-24.404c0-4.075 3.303-7.378 7.378-7.378s7.378 3.303 7.378 7.378v24.404zm0-48.809c0 4.075-3.303 7.378-7.378 7.378s-7.378-3.303-7.378-7.378v-24.404c0-4.075 3.303-7.378 7.378-7.378s7.378 3.303 7.378 7.378v24.404zm0-48.809c0 4.075-3.303 7.378-7.378 7.378s-7.378-3.303-7.378-7.378v-24.404c0-4.075 3.303-7.378 7.378-7.378s7.378 3.303 7.378 7.378v24.404zm0-48.808c0 4.075-3.303 7.378-7.378 7.378s-7.378-3.303-7.378-7.378v-24.404c0-4.075 3.303-7.378 7.378-7.378s7.378 3.303 7.378 7.378v24.404zm0-48.809c0 4.075-3.303 7.378-7.378 7.378s-7.378-3.303-7.378-7.378v-24.404c0-4.075 3.303-7.378 7.378-7.378s7.378 3.303 7.378 7.378v24.404zm0-48.809c0 4.075-3.303 7.378-7.378 7.378s-7.378-3.303-7.378-7.378v-24.404c0-4.075 3.303-7.378 7.378-7.378s7.378 3.303 7.378 7.378v24.404zm0-48.808c0 4.075-3.303 7.378-7.378 7.378s-7.378-3.303-7.378-7.378v-24.404c0-4.075 3.303-7.378 7.378-7.378s7.378 3.303 7.378 7.378v24.404z" class="b"/><path d="M999.065 34.802V.749H386.118v34.053H371.93v53.917h14.189v19.864h93.645v14.189h93.645v-14.189h238.368v14.189h93.645v-14.189h93.645V88.719h14.189V34.802h-14.191zM431.522 69.138h-17.025c-2.292 0-4.34-1.045-5.693-2.685-.15-.182-.292-.372-.425-.568a7.3548 7.3548 0 0 1-.68-1.253c-.373-.883-.58-1.853-.58-2.872s.206-1.989.58-2.872a7.3619 7.3619 0 0 1 1.105-1.821c1.353-1.64 3.401-2.685 5.693-2.685h17.026c4.075 0 7.378 3.303 7.378 7.378s-3.304 7.378-7.379 7.378zm545.965-4.506a7.3619 7.3619 0 0 1-1.105 1.821c-1.353 1.64-3.401 2.685-5.693 2.685h-17.025c-4.075 0-7.378-3.303-7.378-7.378s3.303-7.378 7.378-7.378h17.026c2.292 0 4.34 1.045 5.693 2.685.15.182.292.372.425.568.265.393.494.812.68 1.253.373.883.58 1.853.58 2.872s-.208 1.989-.581 2.872z" class="e"/><path d="M999.065 157.825V137.961H905.42v-14.189h-93.645v14.189H573.408v-14.189h-93.645v14.189h-93.645V157.825H371.93v53.917h14.189v19.864h93.645v14.189h93.645v-14.189h238.368v14.189h93.645v-14.189h93.645v-19.864h14.189v-53.917h-14.191zm-567.543 34.354h-17.026c-4.075 0-7.378-3.303-7.378-7.378v-.018c0-4.075 3.303-7.378 7.378-7.378.115 0 .227.012.341.017h16.685c4.075 0 7.378 3.303 7.378 7.378s-3.303 7.379-7.378 7.379zm546.544-7.379c0 4.075-3.303 7.378-7.378 7.378h-17.025c-4.075 0-7.378-3.303-7.378-7.378s3.303-7.378 7.378-7.378h16.685c.114-.005.226-.017.341-.017 4.075 0 7.378 3.303 7.378 7.378v.009c-.001.003-.001.006-.001.008z" class="f"/><path d="M999.065 1422.459v-19.864H905.42v-14.189h-93.645v14.189H573.408v-14.189h-93.645v14.189h-93.645v19.864H371.93v53.917h14.189v34.052h612.948v-34.052h14.189v-53.917h-14.191zm-567.543 34.336h-17.026c-2.292 0-4.34-1.045-5.693-2.685-.15-.182-.292-.372-.425-.568a7.3548 7.3548 0 0 1-.68-1.253c-.373-.883-.58-1.853-.58-2.872s.206-1.989.58-2.872a7.3619 7.3619 0 0 1 1.105-1.821c1.353-1.64 3.401-2.685 5.693-2.685h17.025c4.075 0 7.378 3.303 7.378 7.378.001 4.075-3.302 7.378-7.377 7.378zm545.965-4.506a7.3619 7.3619 0 0 1-1.105 1.821c-1.353 1.64-3.401 2.685-5.693 2.685h-17.026c-4.075 0-7.378-3.303-7.378-7.378s3.303-7.378 7.378-7.378h17.025c2.292 0 4.34 1.045 5.693 2.685.15.182.292.372.425.568.265.392.494.812.68 1.253.373.883.58 1.853.58 2.872s-.206 1.989-.579 2.872z" class="l"/><path d="M999.065 1299.436v-19.864H905.42v-14.189h-93.645v14.189H573.408v-14.189h-93.645v14.189h-93.645v19.864H371.93v53.917h14.189V1373.217h93.645v14.189h93.645v-14.189h238.368v14.189h93.645v-14.189h93.645V1353.353h14.189v-53.917h-14.191zm-567.543 34.319h-16.684c-.114.005-.227.017-.342.017-4.075 0-7.378-3.303-7.378-7.378v-.018c0-4.075 3.303-7.378 7.378-7.378h17.025c4.075 0 7.378 3.303 7.378 7.378s-3.302 7.379-7.377 7.379zm546.544-7.361c0 4.075-3.303 7.378-7.378 7.378-.115 0-.228-.012-.342-.017h-16.684c-4.075 0-7.378-3.303-7.378-7.378s3.303-7.378 7.378-7.378h17.025c4.075 0 7.378 3.303 7.378 7.378v.009c0 .003.001.005.001.008z" class="k"/><path d="M999.065 829.935V756.011H386.118V829.935H371.93v136.21h14.189v31.36h187.289v-14.189h238.368v14.189h187.289v-31.36h14.189v-136.21h-14.189zm-567.543-9.081h-17.025c-4.075 0-7.378-3.303-7.378-7.378s3.303-7.378 7.378-7.378h17.026c4.075 0 7.378 3.303 7.378 7.378-.001 4.075-3.304 7.378-7.379 7.378zm143.305-35.756h-96.482v-15.607h96.482v15.607zm332.013 0h-96.482v-15.607h96.482v15.607zm63.848 35.756h-17.025c-4.075 0-7.378-3.303-7.378-7.378s3.303-7.378 7.378-7.378h17.026c4.075 0 7.378 3.303 7.378 7.378-.001 4.075-3.304 7.378-7.379 7.378z" class="i"/><path d="M1013.254 1165.921v-136.21h-14.189v-31.36H811.776v14.189H573.408v-14.189h-187.29v31.36H371.93v136.21h14.189V1239.844h612.947V1165.921h14.188zm-581.732 23.836h-17.026c-4.075 0-7.378-3.303-7.378-7.378s3.303-7.378 7.378-7.378h17.025c4.075 0 7.378 3.303 7.378 7.378s-3.302 7.378-7.377 7.378zm143.305 36.608h-96.482v-15.607h96.482v15.607zm332.013 0h-96.482v-15.607h96.482v15.607zm63.848-36.608h-17.026c-4.075 0-7.378-3.303-7.378-7.378s3.303-7.378 7.378-7.378h17.025c4.075 0 7.378 3.303 7.378 7.378s-3.302 7.378-7.377 7.378z" class="j"/><path d="M999.065 345.257V271.333H386.118V345.257H371.93v136.21h14.189v31.36h187.289v-14.189h238.368v14.189h187.289v-31.36h14.189v-136.21h-14.189zm-567.543-9.081h-17.025c-4.075 0-7.378-3.303-7.378-7.378s3.303-7.378 7.378-7.378h17.026c4.075 0 7.378 3.303 7.378 7.378-.001 4.075-3.304 7.378-7.379 7.378zm143.305-35.756h-96.482v-15.607h96.482v15.607zm332.013 0h-96.482v-15.607h96.482v15.607zm63.848 35.756h-17.025c-4.075 0-7.378-3.303-7.378-7.378s3.303-7.378 7.378-7.378h17.026c4.075 0 7.378 3.303 7.378 7.378-.001 4.075-3.304 7.378-7.379 7.378z" class="g"/><path d="M1013.254 681.243v-136.21h-14.189v-31.36H811.776v14.189H573.408v-14.189h-187.29v31.36H371.93v136.21h14.189V755.167h612.947v-73.925h14.188zm-581.732 23.836h-17.026c-4.075 0-7.378-3.303-7.378-7.378s3.303-7.378 7.378-7.378h17.025c4.075 0 7.378 3.303 7.378 7.378s-3.302 7.378-7.377 7.378zm143.305 36.608h-96.482V726.08h96.482v15.607zm332.013 0h-96.482V726.08h96.482v15.607zm63.848-36.608h-17.026c-4.075 0-7.378-3.303-7.378-7.378s3.303-7.378 7.378-7.378h17.025c4.075 0 7.378 3.303 7.378 7.378s-3.302 7.378-7.377 7.378z" class="h"/></svg>