<?xml version="1.0" encoding="iso-8859-1"?>
<!-- Generator: Adobe Illustrator 29.8.1, SVG Export Plug-In . SVG Version: 9.03 Build 0)  -->
<svg version="1.1" id="Layer_1" xmlns="http://www.w3.org/2000/svg" xmlns:xlink="http://www.w3.org/1999/xlink" x="0px" y="0px"
	 viewBox="0 0 797.925 483.309" style="enable-background:new 0 0 797.925 483.309;" xml:space="preserve">
<g>
	<g>
		<path style="fill:#9e005d;" d="M88.628,0l0.029,483.832H346.85L346.89,0L88.628,0z M222.883,50.086h24.404
			c4.075,0,7.378,3.303,7.378,7.378s-3.303,7.378-7.378,7.378h-24.404c-4.075,0-7.378-3.303-7.378-7.378
			S218.808,50.086,222.883,50.086z M247.1,382.099c-4.075,0-7.378-3.303-7.378-7.378v-24.404c0-4.075,3.303-7.378,7.378-7.378
			s7.378,3.303,7.378,7.378v24.404C254.478,378.796,251.175,382.099,247.1,382.099z M254.478,399.125
			c0,4.075-3.303,7.378-7.378,7.378c-4.075,0-7.378-3.303-7.378-7.378c0-4.075,3.303-7.378,7.378-7.378
			C251.175,391.747,254.478,395.051,254.478,399.125z M247.287,333.29c-0.163,0-0.323-0.014-0.483-0.024h-47.842
			c-0.16,0.01-0.32,0.024-0.483,0.024s-0.323-0.014-0.483-0.024h-0.085v-0.004c-3.808-0.291-6.81-3.466-6.81-7.349
			s3.001-7.058,6.81-7.349v-0.029h0.567c0,0,0.001,0,0.001,0s0.001,0,0.001,0h48.806c0,0,0.001,0,0.001,0
			c4.075,0,7.378,3.303,7.378,7.378S251.362,333.29,247.287,333.29z M222.883,357.695c-0.163,0-0.323-0.014-0.483-0.024h-47.842
			c-0.16,0.01-0.32,0.024-0.483,0.024s-0.323-0.014-0.483-0.024h-0.085v-0.004c-3.808-0.291-6.81-3.466-6.81-7.349
			s3.001-7.058,6.81-7.349v-0.029h0.567c0,0,0.001,0,0.001,0s0.001,0,0.001,0h48.806c0,0,0.001,0,0.001,0
			c4.075,0,7.378,3.303,7.378,7.378C230.261,354.391,226.957,357.695,222.883,357.695z M230.261,374.721v24.404
			c0,4.075-3.303,7.378-7.378,7.378s-7.378-3.303-7.378-7.378v-24.404c0-4.075,3.303-7.378,7.378-7.378
			S230.261,370.646,230.261,374.721z M205.856,374.721v24.404c0,4.075-3.303,7.378-7.378,7.378c-4.075,0-7.378-3.303-7.378-7.378
			v-24.404c0-4.075,3.303-7.378,7.378-7.378C202.553,367.343,205.856,370.646,205.856,374.721z M222.883,162.46
			c-0.163,0-0.323-0.014-0.483-0.024h-47.842c-0.16,0.01-0.32,0.024-0.483,0.024s-0.323-0.014-0.483-0.024h-0.085v-0.004
			c-3.808-0.291-6.81-3.466-6.81-7.349c0-3.883,3.001-7.058,6.81-7.349v-0.029h0.567c0,0,0.001,0,0.001,0s0.001,0,0.001,0h48.806
			c0,0,0.001,0,0.001,0c4.075,0,7.378,3.303,7.378,7.378C230.261,159.157,226.957,162.46,222.883,162.46z M230.261,179.486v24.404
			c0,4.075-3.303,7.378-7.378,7.378s-7.378-3.303-7.378-7.378v-24.404c0-4.075,3.303-7.378,7.378-7.378
			S230.261,175.411,230.261,179.486z M222.883,260.077c-0.163,0-0.323-0.014-0.483-0.024h-47.842c-0.16,0.01-0.32,0.024-0.483,0.024
			s-0.323-0.014-0.483-0.024h-0.085v-0.004c-3.808-0.291-6.81-3.466-6.81-7.349c0-3.883,3.001-7.058,6.81-7.349v-0.029h0.567
			c0,0,0.001,0,0.001,0s0.001,0,0.001,0h48.806c0,0,0.001,0,0.001,0c4.075,0,7.378,3.303,7.378,7.378
			C230.261,256.774,226.957,260.077,222.883,260.077z M230.261,277.104v24.404c0,4.075-3.303,7.378-7.378,7.378
			s-7.378-3.303-7.378-7.378v-24.404c0-4.075,3.303-7.378,7.378-7.378S230.261,273.029,230.261,277.104z M205.856,277.104v24.404
			c0,4.075-3.303,7.378-7.378,7.378c-4.075,0-7.378-3.303-7.378-7.378v-24.404c0-4.075,3.303-7.378,7.378-7.378
			C202.553,269.726,205.856,273.029,205.856,277.104z M181.452,277.104c0,4.075-3.303,7.378-7.378,7.378
			c-4.075,0-7.378-3.303-7.378-7.378c0-4.075,3.303-7.378,7.378-7.378C178.149,269.726,181.452,273.029,181.452,277.104z
			 M205.856,179.486v24.404c0,4.075-3.303,7.378-7.378,7.378c-4.075,0-7.378-3.303-7.378-7.378v-24.404
			c0-4.075,3.303-7.378,7.378-7.378C202.553,172.108,205.856,175.411,205.856,179.486z M181.452,179.486
			c0,4.075-3.303,7.378-7.378,7.378c-4.075,0-7.378-3.303-7.378-7.378c0-4.075,3.303-7.378,7.378-7.378
			C178.149,172.108,181.452,175.411,181.452,179.486z M174.073,98.895c4.075,0,7.378,3.303,7.378,7.378v24.404
			c0,4.075-3.303,7.378-7.378,7.378s-7.378-3.303-7.378-7.378v-24.404C166.695,102.198,169.999,98.895,174.073,98.895z
			 M166.696,81.869c0-4.075,3.303-7.378,7.378-7.378c4.075,0,7.378,3.303,7.378,7.378c0,4.075-3.303,7.378-7.378,7.378
			C169.999,89.247,166.696,85.944,166.696,81.869z M174.073,196.513c4.075,0,7.378,3.303,7.378,7.378v24.404
			c0,4.075-3.303,7.378-7.378,7.378s-7.378-3.303-7.378-7.378v-24.404C166.695,199.816,169.999,196.513,174.073,196.513z
			 M174.073,294.13c4.075,0,7.378,3.303,7.378,7.378v24.404c0,4.075-3.303,7.378-7.378,7.378s-7.378-3.303-7.378-7.378v-24.404
			C166.695,297.433,169.999,294.13,174.073,294.13z M247.287,308.886c-4.075,0-7.378-3.303-7.378-7.378
			c0-4.075,3.303-7.378,7.378-7.378c4.075,0,7.378,3.303,7.378,7.378C254.665,305.583,251.362,308.886,247.287,308.886z
			 M239.722,277.104v-24.404c0-4.075,3.303-7.378,7.378-7.378s7.378,3.303,7.378,7.378v24.404c0,4.075-3.303,7.378-7.378,7.378
			S239.722,281.178,239.722,277.104z M247.287,235.673c-0.163,0-0.323-0.014-0.483-0.024h-47.842c-0.16,0.01-0.32,0.024-0.483,0.024
			s-0.323-0.014-0.483-0.024h-0.085v-0.004c-3.808-0.291-6.81-3.466-6.81-7.349s3.001-7.058,6.81-7.349v-0.029h0.567
			c0,0,0.001,0,0.001,0s0.001,0,0.001,0h48.806c0,0,0.001,0,0.001,0c4.075,0,7.378,3.303,7.378,7.378
			S251.362,235.673,247.287,235.673z M247.287,211.269c-4.075,0-7.378-3.303-7.378-7.378c0-4.075,3.303-7.378,7.378-7.378
			c4.075,0,7.378,3.303,7.378,7.378C254.665,207.965,251.362,211.269,247.287,211.269z M239.722,179.486v-24.404
			c0-4.075,3.303-7.378,7.378-7.378s7.378,3.303,7.378,7.378v24.404c0,4.075-3.303,7.378-7.378,7.378
			S239.722,183.561,239.722,179.486z M247.287,138.056c-0.163,0-0.323-0.014-0.483-0.024h-47.842c-0.16,0.01-0.32,0.024-0.483,0.024
			s-0.323-0.014-0.483-0.024h-0.085v-0.004c-3.808-0.291-6.81-3.466-6.81-7.349s3.001-7.058,6.81-7.349V123.3h0.567
			c0,0,0.001,0,0.001,0s0.001,0,0.001,0h48.806c0,0,0.001,0,0.001,0c4.075,0,7.378,3.303,7.378,7.378
			C254.665,134.752,251.362,138.056,247.287,138.056z M191.1,106.273V81.869c0-4.075,3.303-7.378,7.378-7.378
			c4.075,0,7.378,3.303,7.378,7.378v24.404c0,4.075-3.303,7.378-7.378,7.378C194.403,113.651,191.1,110.348,191.1,106.273z
			 M215.505,106.273V81.869c0-4.075,3.303-7.378,7.378-7.378s7.378,3.303,7.378,7.378v24.404c0,4.075-3.303,7.378-7.378,7.378
			S215.505,110.348,215.505,106.273z M247.287,113.651c-4.075,0-7.378-3.303-7.378-7.378c0-4.075,3.303-7.378,7.378-7.378
			c4.075,0,7.378,3.303,7.378,7.378C254.665,110.348,251.362,113.651,247.287,113.651z M239.817,81.962
			c0-4.075,3.303-7.378,7.378-7.378c4.075,0,7.378,3.303,7.378,7.378s-3.303,7.378-7.378,7.378
			C243.12,89.34,239.817,86.037,239.817,81.962z M205.856,57.465c0,4.075-3.303,7.378-7.378,7.378h-24.404
			c-4.075,0-7.378-3.303-7.378-7.378s3.303-7.378,7.378-7.378h24.404C202.553,50.086,205.856,53.39,205.856,57.465z M119.874,13.479
			h56.754v15.608h-56.754V13.479z M149.67,382.075c-4.075,0-7.378-3.303-7.378-7.378v-48.809c0-4.075,3.303-7.378,7.378-7.378
			c4.075,0,7.378,3.303,7.378,7.378v48.809C157.048,378.771,153.744,382.075,149.67,382.075z M157.046,399.101v27.267
			c0,4.075-3.303,7.378-7.378,7.378c-4.075,0-7.378-3.303-7.378-7.378v-27.267c0-4.075,3.303-7.378,7.378-7.378
			C153.743,391.723,157.046,395.026,157.046,399.101z M142.29,155.082v-24.404c0-4.075,3.303-7.378,7.378-7.378
			c4.075,0,7.378,3.303,7.378,7.378v24.404c0,4.075-3.303,7.378-7.378,7.378C145.594,162.46,142.29,159.157,142.29,155.082z
			 M149.67,308.886c-4.075,0-7.378-3.303-7.378-7.378v-48.809c0-4.075,3.303-7.378,7.378-7.378c4.075,0,7.378,3.303,7.378,7.378
			v48.809C157.048,305.583,153.744,308.886,149.67,308.886z M149.67,235.673c-4.075,0-7.378-3.303-7.378-7.378v-48.809
			c0-4.075,3.303-7.378,7.378-7.378c4.075,0,7.378,3.303,7.378,7.378v48.809C157.048,232.37,153.744,235.673,149.67,235.673z
			 M149.67,113.651c-4.075,0-7.378-3.303-7.378-7.378V57.464c0-4.075,3.303-7.378,7.378-7.378c4.075,0,7.378,3.303,7.378,7.378
			v48.809C157.048,110.348,153.744,113.651,149.67,113.651z M117.887,57.465c0-4.075,3.303-7.378,7.378-7.378
			c4.075,0,7.378,3.303,7.378,7.378v24.404c0,4.075-3.303,7.378-7.378,7.378c-4.075,0-7.378-3.303-7.378-7.378V57.465z
			 M117.887,106.273c0-4.075,3.303-7.378,7.378-7.378c4.075,0,7.378,3.303,7.378,7.378v24.404c0,4.075-3.303,7.378-7.378,7.378
			c-4.075,0-7.378-3.303-7.378-7.378V106.273z M117.887,155.082c0-4.075,3.303-7.378,7.378-7.378c4.075,0,7.378,3.303,7.378,7.378
			v24.404c0,4.075-3.303,7.378-7.378,7.378c-4.075,0-7.378-3.303-7.378-7.378V155.082z M117.887,203.891
			c0-4.075,3.303-7.378,7.378-7.378c4.075,0,7.378,3.303,7.378,7.378v24.404c0,4.075-3.303,7.378-7.378,7.378
			c-4.075,0-7.378-3.303-7.378-7.378V203.891z M117.887,252.699c0-4.075,3.303-7.378,7.378-7.378c4.075,0,7.378,3.303,7.378,7.378
			v24.404c0,4.075-3.303,7.378-7.378,7.378c-4.075,0-7.378-3.303-7.378-7.378V252.699z M117.887,301.508
			c0-4.075,3.303-7.378,7.378-7.378c4.075,0,7.378,3.303,7.378,7.378v24.404c0,4.075-3.303,7.378-7.378,7.378
			c-4.075,0-7.378-3.303-7.378-7.378V301.508z M117.887,350.317c0-4.075,3.303-7.378,7.378-7.378c4.075,0,7.378,3.303,7.378,7.378
			v24.404c0,4.075-3.303,7.378-7.378,7.378c-4.075,0-7.378-3.303-7.378-7.378V350.317z M117.887,399.101
			c0-4.075,3.303-7.378,7.378-7.378c4.075,0,7.378,3.303,7.378,7.378v27.267c0,4.075-3.303,7.378-7.378,7.378
			c-4.075,0-7.378-3.303-7.378-7.378V399.101z M176.628,470.353h-56.754v-15.608h56.754V470.353z M181.451,426.368
			c0,4.075-3.303,7.378-7.378,7.378s-7.378-3.303-7.378-7.378v-27.242c0-4.075,3.303-7.378,7.378-7.378s7.378,3.303,7.378,7.378
			V426.368z M174.074,382.099c-4.075,0-7.378-3.303-7.378-7.378s3.303-7.378,7.378-7.378c4.075,0,7.378,3.303,7.378,7.378
			S178.149,382.099,174.074,382.099z M191.1,426.392c0-4.075,3.303-7.378,7.378-7.378H247.1c4.075,0,7.378,3.303,7.378,7.378
			s-3.303,7.378-7.378,7.378h-48.622C194.403,433.77,191.1,430.467,191.1,426.392z M298.65,470.353h-56.754v-15.607h56.754V470.353z
			 M264.22,57.371c0-4.075,3.303-7.378,7.378-7.378h17.143c4.075,0,7.378,3.303,7.378,7.378c0,4.075-3.303,7.378-7.378,7.378h-9.766
			v17.213c0,4.075-3.303,7.378-7.378,7.378s-7.378-3.303-7.378-7.378V57.558c0-0.032,0.004-0.062,0.005-0.094
			C264.224,57.433,264.22,57.403,264.22,57.371z M264.313,106.273c0-0.163,0.014-0.323,0.024-0.483v-0.085h0.004
			c0.291-3.808,3.466-6.81,7.349-6.81s7.058,3.001,7.349,6.81h0.029v0.567c0,0,0,0.001,0,0.001s0,0.001,0,0.001v48.806
			c0,0,0,0.001,0,0.001c0,4.075-3.303,7.378-7.378,7.378s-7.378-3.303-7.378-7.378c0-0.163,0.014-0.323,0.024-0.483v-47.842
			C264.327,106.596,264.313,106.436,264.313,106.273z M279.07,277.104c0,4.075-3.303,7.378-7.378,7.378s-7.378-3.303-7.378-7.378
			c0-0.163,0.014-0.323,0.024-0.483v-47.842c-0.01-0.16-0.024-0.32-0.024-0.483s0.014-0.323,0.024-0.483v-0.085h0.004
			c0.291-3.808,3.466-6.81,7.349-6.81s7.058,3.001,7.349,6.81h0.029v0.567c0,0,0,0.001,0,0.001s0,0.001,0,0.001v48.806
			C279.069,277.103,279.07,277.103,279.07,277.104z M279.07,374.721c0,4.075-3.303,7.378-7.378,7.378s-7.378-3.303-7.378-7.378
			l0.024-72.73c-0.01-0.16-0.024-0.32-0.024-0.483s0.014-0.323,0.024-0.483v-0.085h0.004c0.291-3.808,3.466-6.81,7.349-6.81
			s7.058,3.002,7.349,6.81h0.029v0.567c0,0,0,0.001,0,0.001s0,0.001,0,0.001v48.806C279.069,350.316,279.07,374.721,279.07,374.721z
			 M271.691,172.108c4.075,0,7.378,3.303,7.378,7.378v24.404c0,4.075-3.303,7.378-7.378,7.378c-4.075,0-7.378-3.303-7.378-7.378
			v-24.404C264.313,175.411,267.617,172.108,271.691,172.108z M271.691,391.747c4.075,0,7.378,3.303,7.378,7.378v19.889h9.672
			c4.075,0,7.378,3.303,7.378,7.378s-3.303,7.378-7.378,7.378h-16.352c-0.118,0-0.233-0.012-0.349-0.018
			c-0.116,0.005-0.231,0.018-0.348,0.018c-4.075,0-7.378-3.303-7.378-7.378v-27.267
			C264.313,395.051,267.617,391.747,271.691,391.747z M298.65,29.087h-56.754V13.479h56.754V29.087z M332.702,411.9h-15.607V270.014
			h15.607V411.9z M332.702,212.971h-15.607V71.086h15.607V212.971z"/>
	</g>
</g>
<g>
	<g>
		<path style="fill:#00a99d;" d="M452.029,0l0.04,483.832h258.193L710.291,0L452.029,0z M622.291,13.479h56.754v15.608h-56.754
			V13.479z M649.249,245.321c4.075,0,7.378,3.303,7.378,7.378v48.809c0,4.075-3.303,7.378-7.378,7.378
			c-4.075,0-7.378-3.303-7.378-7.378v-48.809C641.871,248.624,645.174,245.321,649.249,245.321z M641.871,228.295v-48.809
			c0-4.075,3.303-7.378,7.378-7.378c4.075,0,7.378,3.303,7.378,7.378v48.809c0,4.075-3.303,7.378-7.378,7.378
			C645.174,235.673,641.871,232.37,641.871,228.295z M649.249,318.51c4.075,0,7.378,3.303,7.378,7.378v48.809
			c0,4.075-3.303,7.378-7.378,7.378c-4.075,0-7.378-3.303-7.378-7.378v-48.809C641.871,321.813,645.174,318.51,649.249,318.51z
			 M641.872,399.101c0-4.075,3.303-7.378,7.378-7.378c4.075,0,7.378,3.303,7.378,7.378v27.267c0,4.075-3.303,7.378-7.378,7.378
			c-4.075,0-7.378-3.303-7.378-7.378V399.101z M649.251,162.46c-4.075,0-7.378-3.303-7.378-7.378v-24.404
			c0-4.075,3.303-7.378,7.378-7.378c4.075,0,7.378,3.303,7.378,7.378v24.404C656.629,159.157,653.325,162.46,649.251,162.46z
			 M641.871,106.273V57.464c0-4.075,3.303-7.378,7.378-7.378c4.075,0,7.378,3.303,7.378,7.378v48.809
			c0,4.075-3.303,7.378-7.378,7.378C645.174,113.651,641.871,110.348,641.871,106.273z M551.819,382.099
			c-4.075,0-7.378-3.303-7.378-7.378v-24.404c0-4.075,3.303-7.378,7.378-7.378c4.075,0,7.378,3.303,7.378,7.378v24.404
			C559.197,378.796,555.894,382.099,551.819,382.099z M559.197,399.125c0,4.075-3.303,7.378-7.378,7.378
			c-4.075,0-7.378-3.303-7.378-7.378c0-4.075,3.303-7.378,7.378-7.378C555.894,391.747,559.197,395.051,559.197,399.125z
			 M552.115,333.266c-0.16,0.01-0.32,0.024-0.483,0.024c-4.075,0-7.378-3.303-7.378-7.378s3.303-7.378,7.378-7.378
			c0,0,0.001,0,0.001,0h48.806c0,0,0.001,0,0.001,0c0,0,0.001,0,0.001,0h0.567v0.029c3.808,0.291,6.81,3.466,6.81,7.349
			s-3.001,7.058-6.81,7.349v0.004h-0.085c-0.16,0.01-0.32,0.024-0.483,0.024c-0.163,0-0.323-0.014-0.483-0.024H552.115z
			 M551.632,98.895c4.075,0,7.378,3.303,7.378,7.378c0,4.075-3.303,7.378-7.378,7.378c-4.075,0-7.378-3.303-7.378-7.378
			C544.254,102.198,547.557,98.895,551.632,98.895z M544.346,81.962c0-4.075,3.303-7.378,7.378-7.378
			c4.075,0,7.378,3.303,7.378,7.378s-3.303,7.378-7.378,7.378C547.649,89.34,544.346,86.037,544.346,81.962z M551.632,123.299
			c0,0,0.001,0,0.001,0h48.806c0,0,0.001,0,0.001,0c0,0,0.001,0,0.001,0h0.567v0.029c3.808,0.291,6.81,3.466,6.81,7.349
			s-3.001,7.058-6.81,7.349v0.004h-0.085c-0.16,0.01-0.32,0.024-0.483,0.024c-0.163,0-0.323-0.014-0.483-0.024h-47.842
			c-0.16,0.01-0.32,0.024-0.483,0.024c-4.075,0-7.378-3.303-7.378-7.378C544.254,126.603,547.557,123.299,551.632,123.299z
			 M568.658,106.273V81.869c0-4.075,3.303-7.378,7.378-7.378c4.075,0,7.378,3.303,7.378,7.378v24.404
			c0,4.075-3.303,7.378-7.378,7.378C571.961,113.651,568.658,110.348,568.658,106.273z M632.223,155.082
			c0,3.883-3.001,7.058-6.81,7.349v0.004h-0.085c-0.16,0.01-0.32,0.024-0.483,0.024c-0.163,0-0.323-0.014-0.483-0.024h-47.842
			c-0.16,0.01-0.32,0.024-0.483,0.024c-4.075,0-7.378-3.303-7.378-7.378c0-4.075,3.303-7.378,7.378-7.378c0,0,0.001,0,0.001,0
			h48.806c0,0,0.001,0,0.001,0s0.001,0,0.001,0h0.567v0.029C629.222,148.023,632.223,151.199,632.223,155.082z M632.223,252.699
			c0,3.883-3.001,7.058-6.81,7.349v0.004h-0.085c-0.16,0.01-0.32,0.024-0.483,0.024c-0.163,0-0.323-0.014-0.483-0.024h-47.842
			c-0.16,0.01-0.32,0.024-0.483,0.024c-4.075,0-7.378-3.303-7.378-7.378c0-4.075,3.303-7.378,7.378-7.378c0,0,0.001,0,0.001,0
			h48.806c0,0,0.001,0,0.001,0s0.001,0,0.001,0h0.567v0.029C629.222,245.641,632.223,248.816,632.223,252.699z M632.223,277.104
			c0,4.075-3.303,7.378-7.378,7.378c-4.075,0-7.378-3.303-7.378-7.378c0-4.075,3.303-7.378,7.378-7.378
			C628.92,269.726,632.223,273.029,632.223,277.104z M607.819,277.104v24.404c0,4.075-3.303,7.378-7.378,7.378
			c-4.075,0-7.378-3.303-7.378-7.378v-24.404c0-4.075,3.303-7.378,7.378-7.378C604.516,269.726,607.819,273.029,607.819,277.104z
			 M583.414,277.104v24.404c0,4.075-3.303,7.378-7.378,7.378c-4.075,0-7.378-3.303-7.378-7.378v-24.404
			c0-4.075,3.303-7.378,7.378-7.378C580.111,269.726,583.414,273.029,583.414,277.104z M607.819,203.891
			c0,4.075-3.303,7.378-7.378,7.378c-4.075,0-7.378-3.303-7.378-7.378v-24.404c0-4.075,3.303-7.378,7.378-7.378
			c4.075,0,7.378,3.303,7.378,7.378V203.891z M632.223,179.486c0,4.075-3.303,7.378-7.378,7.378c-4.075,0-7.378-3.303-7.378-7.378
			c0-4.075,3.303-7.378,7.378-7.378C628.92,172.108,632.223,175.411,632.223,179.486z M583.414,179.486v24.404
			c0,4.075-3.303,7.378-7.378,7.378c-4.075,0-7.378-3.303-7.378-7.378v-24.404c0-4.075,3.303-7.378,7.378-7.378
			C580.111,172.108,583.414,175.411,583.414,179.486z M607.819,106.273c0,4.075-3.303,7.378-7.378,7.378
			c-4.075,0-7.378-3.303-7.378-7.378V81.869c0-4.075,3.303-7.378,7.378-7.378c4.075,0,7.378,3.303,7.378,7.378V106.273z
			 M559.197,155.082v24.404c0,4.075-3.303,7.378-7.378,7.378c-4.075,0-7.378-3.303-7.378-7.378v-24.404
			c0-4.075,3.303-7.378,7.378-7.378C555.894,147.704,559.197,151.007,559.197,155.082z M551.632,196.512
			c4.075,0,7.378,3.303,7.378,7.378c0,4.075-3.303,7.378-7.378,7.378c-4.075,0-7.378-3.303-7.378-7.378
			C544.254,199.816,547.557,196.512,551.632,196.512z M551.632,220.917c0,0,0.001,0,0.001,0h48.806c0,0,0.001,0,0.001,0
			c0,0,0.001,0,0.001,0h0.567v0.029c3.808,0.291,6.81,3.466,6.81,7.349s-3.001,7.058-6.81,7.349v0.004h-0.085
			c-0.16,0.01-0.32,0.024-0.483,0.024c-0.163,0-0.323-0.014-0.483-0.024h-47.842c-0.16,0.01-0.32,0.024-0.483,0.024
			c-4.075,0-7.378-3.303-7.378-7.378S547.557,220.917,551.632,220.917z M559.197,252.699v24.404c0,4.075-3.303,7.378-7.378,7.378
			c-4.075,0-7.378-3.303-7.378-7.378v-24.404c0-4.075,3.303-7.378,7.378-7.378C555.894,245.321,559.197,248.624,559.197,252.699z
			 M551.632,294.13c4.075,0,7.378,3.303,7.378,7.378c0,4.075-3.303,7.378-7.378,7.378c-4.075,0-7.378-3.303-7.378-7.378
			C544.254,297.433,547.557,294.13,551.632,294.13z M568.658,374.721c0-4.075,3.303-7.378,7.378-7.378
			c4.075,0,7.378,3.303,7.378,7.378v24.404c0,4.075-3.303,7.378-7.378,7.378c-4.075,0-7.378-3.303-7.378-7.378V374.721z
			 M576.519,357.67c-0.16,0.01-0.32,0.024-0.483,0.024c-4.075,0-7.378-3.303-7.378-7.378c0-4.075,3.303-7.378,7.378-7.378
			c0,0,0.001,0,0.001,0h48.806c0,0,0.001,0,0.001,0s0.001,0,0.001,0h0.567v0.029c3.808,0.291,6.81,3.466,6.81,7.349
			s-3.001,7.058-6.81,7.349v0.004h-0.085c-0.16,0.01-0.32,0.024-0.483,0.024c-0.163,0-0.323-0.014-0.483-0.024H576.519z
			 M624.845,333.29c-4.075,0-7.378-3.303-7.378-7.378v-24.404c0-4.075,3.303-7.378,7.378-7.378c4.075,0,7.378,3.303,7.378,7.378
			v24.404C632.224,329.987,628.92,333.29,624.845,333.29z M624.845,235.673c-4.075,0-7.378-3.303-7.378-7.378v-24.404
			c0-4.075,3.303-7.378,7.378-7.378c4.075,0,7.378,3.303,7.378,7.378v24.404C632.224,232.37,628.92,235.673,624.845,235.673z
			 M624.845,138.056c-4.075,0-7.378-3.303-7.378-7.378v-24.404c0-4.075,3.303-7.378,7.378-7.378c4.075,0,7.378,3.303,7.378,7.378
			v24.404C632.224,134.752,628.92,138.056,624.845,138.056z M617.467,81.869c0-4.075,3.303-7.378,7.378-7.378
			c4.075,0,7.378,3.303,7.378,7.378c0,4.075-3.303,7.378-7.378,7.378C620.77,89.247,617.467,85.944,617.467,81.869z M600.441,50.086
			h24.404c4.075,0,7.378,3.303,7.378,7.378s-3.303,7.378-7.378,7.378h-24.404c-4.075,0-7.378-3.303-7.378-7.378
			S596.366,50.086,600.441,50.086z M583.414,57.465c0,4.075-3.303,7.378-7.378,7.378h-24.404c-4.075,0-7.378-3.303-7.378-7.378
			s3.303-7.378,7.378-7.378h24.404C580.111,50.086,583.414,53.39,583.414,57.465z M500.269,13.479h56.754v15.608h-56.754V13.479z
			 M534.699,57.558v24.404c0,4.075-3.303,7.378-7.378,7.378c-4.075,0-7.378-3.303-7.378-7.378V64.749h-9.766
			c-4.075,0-7.378-3.303-7.378-7.378c0-4.075,3.303-7.378,7.378-7.378h17.144c4.075,0,7.378,3.303,7.378,7.378
			c0,0.032-0.004,0.062-0.005,0.094C534.695,57.496,534.699,57.527,534.699,57.558z M519.849,301.508c0,0,0-0.001,0-0.001v-0.567
			h0.029c0.291-3.808,3.466-6.81,7.349-6.81s7.058,3.002,7.349,6.81h0.004v0.085c0.01,0.16,0.024,0.32,0.024,0.483
			s-0.014,0.323-0.024,0.483l0.024,72.73c0,4.075-3.303,7.378-7.378,7.378c-4.075,0-7.378-3.303-7.378-7.378c0,0,0-24.405,0-24.406
			v-48.806C519.849,301.509,519.849,301.508,519.849,301.508z M519.849,228.295c0,0,0-0.001,0-0.001v-0.567h0.029
			c0.291-3.808,3.466-6.81,7.349-6.81s7.058,3.001,7.349,6.81h0.004v0.085c0.01,0.16,0.024,0.32,0.024,0.483
			s-0.014,0.323-0.024,0.483v47.842c0.01,0.16,0.024,0.32,0.024,0.483c0,4.075-3.303,7.378-7.378,7.378
			c-4.075,0-7.378-3.303-7.378-7.378c0,0,0-0.001,0-0.001v-48.806C519.849,228.296,519.849,228.295,519.849,228.295z
			 M519.849,106.273c0,0,0-0.001,0-0.001v-0.567h0.029c0.291-3.808,3.466-6.81,7.349-6.81s7.058,3.001,7.349,6.81h0.004v0.085
			c0.01,0.16,0.024,0.32,0.024,0.483s-0.014,0.323-0.024,0.483v47.842c0.01,0.16,0.024,0.32,0.024,0.483
			c0,4.075-3.303,7.378-7.378,7.378c-4.075,0-7.378-3.303-7.378-7.378c0,0,0-0.001,0-0.001v-48.806
			C519.849,106.274,519.849,106.274,519.849,106.273z M519.849,399.125c0-4.075,3.303-7.378,7.378-7.378s7.378,3.303,7.378,7.378
			v27.267c0,4.075-3.303,7.378-7.378,7.378c-0.118,0-0.232-0.012-0.348-0.018c-0.117,0.005-0.231,0.018-0.349,0.018h-16.352
			c-4.075,0-7.378-3.303-7.378-7.378s3.303-7.378,7.378-7.378h9.672V399.125z M527.227,211.269c-4.075,0-7.378-3.303-7.378-7.378
			v-24.404c0-4.075,3.303-7.378,7.378-7.378c4.075,0,7.378,3.303,7.378,7.378v24.404
			C534.606,207.965,531.302,211.269,527.227,211.269z M481.824,411.9h-15.607V270.014h15.607V411.9z M481.824,212.971h-15.607
			V71.086h15.607V212.971z M557.023,470.353h-56.754v-15.607h56.754V470.353z M600.441,433.77h-48.622
			c-4.075,0-7.378-3.303-7.378-7.378s3.303-7.378,7.378-7.378h48.622c4.075,0,7.378,3.303,7.378,7.378
			S604.516,433.77,600.441,433.77z M607.819,399.125c0,4.075-3.303,7.378-7.378,7.378c-4.075,0-7.378-3.303-7.378-7.378v-24.404
			c0-4.075,3.303-7.378,7.378-7.378c4.075,0,7.378,3.303,7.378,7.378V399.125z M624.845,367.343c4.075,0,7.378,3.303,7.378,7.378
			s-3.303,7.378-7.378,7.378c-4.075,0-7.378-3.303-7.378-7.378S620.77,367.343,624.845,367.343z M617.467,426.368v-27.242
			c0-4.075,3.303-7.378,7.378-7.378c4.075,0,7.378,3.303,7.378,7.378v27.242c0,4.075-3.303,7.378-7.378,7.378
			C620.771,433.746,617.467,430.443,617.467,426.368z M679.045,470.353h-56.754v-15.608h56.754V470.353z M681.032,426.368
			c0,4.075-3.303,7.378-7.378,7.378c-4.075,0-7.378-3.303-7.378-7.378v-27.267c0-4.075,3.303-7.378,7.378-7.378
			c4.075,0,7.378,3.303,7.378,7.378V426.368z M681.032,374.721c0,4.075-3.303,7.378-7.378,7.378c-4.075,0-7.378-3.303-7.378-7.378
			v-24.404c0-4.075,3.303-7.378,7.378-7.378c4.075,0,7.378,3.303,7.378,7.378V374.721z M681.032,325.912
			c0,4.075-3.303,7.378-7.378,7.378c-4.075,0-7.378-3.303-7.378-7.378v-24.404c0-4.075,3.303-7.378,7.378-7.378
			c4.075,0,7.378,3.303,7.378,7.378V325.912z M681.032,277.104c0,4.075-3.303,7.378-7.378,7.378c-4.075,0-7.378-3.303-7.378-7.378
			v-24.404c0-4.075,3.303-7.378,7.378-7.378c4.075,0,7.378,3.303,7.378,7.378V277.104z M681.032,228.295
			c0,4.075-3.303,7.378-7.378,7.378c-4.075,0-7.378-3.303-7.378-7.378v-24.404c0-4.075,3.303-7.378,7.378-7.378
			c4.075,0,7.378,3.303,7.378,7.378V228.295z M681.032,179.486c0,4.075-3.303,7.378-7.378,7.378c-4.075,0-7.378-3.303-7.378-7.378
			v-24.404c0-4.075,3.303-7.378,7.378-7.378c4.075,0,7.378,3.303,7.378,7.378V179.486z M681.032,130.678
			c0,4.075-3.303,7.378-7.378,7.378c-4.075,0-7.378-3.303-7.378-7.378v-24.404c0-4.075,3.303-7.378,7.378-7.378
			c4.075,0,7.378,3.303,7.378,7.378V130.678z M681.032,81.869c0,4.075-3.303,7.378-7.378,7.378c-4.075,0-7.378-3.303-7.378-7.378
			V57.465c0-4.075,3.303-7.378,7.378-7.378c4.075,0,7.378,3.303,7.378,7.378V81.869z"/>
	</g>
</g>
</svg>
