<?xml version="1.0" encoding="iso-8859-1"?>
<!-- Generator: Adobe Illustrator 29.8.1, SVG Export Plug-In . SVG Version: 9.03 Build 0)  -->
<svg version="1.1" id="Layer_1" xmlns="http://www.w3.org/2000/svg" xmlns:xlink="http://www.w3.org/1999/xlink" x="0px" y="0px"
	 viewBox="0 0 926.933 1026.692" style="enable-background:new 0 0 926.933 1026.692;" xml:space="preserve">
<g>
	<g>
		<path style="fill:#FBB040;" d="M912.744,34.053v-2.298V14.189V0H819.1h-93.645H201.478h-93.645H14.189v14.189v17.566v2.298v0H0
			v53.917h14.189v19.864h93.645v14.189h93.645v-14.189h0.351h522.344h0.603h0.678v14.189H819.1v-14.189h93.645V87.969h14.189V34.053
			H912.744z M59.592,68.389c-0.001,0-0.002,0-0.003,0H42.568c-0.001,0-0.002,0-0.002,0c-1.783,0-3.418-0.632-4.693-1.685
			c-0.182-0.15-0.357-0.309-0.524-0.476c-0.334-0.334-0.636-0.699-0.901-1.092c-0.796-1.178-1.26-2.597-1.26-4.125
			c0-1.019,0.206-1.989,0.58-2.872c0.187-0.441,0.415-0.861,0.68-1.253c0.133-0.196,0.274-0.386,0.425-0.568
			c1.353-1.64,3.401-2.685,5.693-2.685h17.026v0c4.075,0,7.378,3.303,7.378,7.378C66.97,65.086,63.667,68.389,59.592,68.389z
			 M890.485,65.136c-0.265,0.393-0.567,0.758-0.901,1.092c-0.167,0.167-0.342,0.326-0.524,0.476
			c-1.275,1.053-2.91,1.685-4.693,1.685c-0.001,0-0.002,0-0.002,0h-17.021c-0.001,0-0.002,0-0.002,0
			c-4.075,0-7.378-3.303-7.378-7.378c0-4.075,3.303-7.378,7.378-7.378v0h17.026l0,0c2.292,0,4.34,1.045,5.693,2.685
			c0.15,0.182,0.292,0.372,0.425,0.568c0.265,0.393,0.494,0.812,0.68,1.253c0.373,0.883,0.58,1.853,0.58,2.872
			C891.745,62.539,891.281,63.958,890.485,65.136z"/>
	</g>
</g>
<g>
	<g>
		<path style="fill:#BE1E2D;" d="M912.744,157.075v-2.298v-17.566H819.1v-14.189h-93.645v14.189H201.478v-14.189h-93.645v14.189
			H14.189v17.566v2.298H0v53.917h14.189v19.864h93.645v14.189h93.645v-14.189h0.351h522.344h0.603h0.678v14.189H819.1v-14.189
			h93.645v-19.864h14.189v-53.917H912.744z M59.592,191.429c-0.001,0-0.002,0-0.002,0H42.568c-0.001,0-0.002,0-0.002,0
			c-4.075,0-7.378-3.303-7.378-7.378c0-0.003,0-0.006,0-0.009s0-0.006,0-0.009c0-4.075,3.303-7.378,7.378-7.378
			c0.115,0,0.228,0.012,0.342,0.017h16.684v0c4.075,0,7.378,3.303,7.378,7.378C66.97,188.126,63.667,191.429,59.592,191.429z
			 M891.745,184.051c0,4.075-3.303,7.378-7.378,7.378c-0.001,0-0.002,0-0.002,0h-17.021c-0.001,0-0.002,0-0.002,0
			c-4.075,0-7.378-3.303-7.378-7.378c0-4.075,3.303-7.378,7.378-7.378v0h16.684c0.114-0.005,0.227-0.017,0.342-0.017
			c4.075,0,7.378,3.303,7.378,7.378c0,0.003,0,0.006,0,0.009C891.745,184.046,891.745,184.048,891.745,184.051z"/>
	</g>
</g>
<g>
	<g>
		<path style="fill:#C69C6D;" d="M912.744,938.723v-19.864H819.1V904.67h-93.645v14.189h-0.351H202.76h-0.603h-0.678V904.67h-93.645
			v14.189H14.189v19.864H0v53.917h14.189v2.298v17.566v14.188h93.645h93.645h523.977H819.1h93.645v-14.188v-17.566v-2.298v0h14.189
			v-53.917H912.744z M59.592,973.059L59.592,973.059l-17.026,0l0,0c-2.292,0-4.34-1.045-5.693-2.685
			c-0.15-0.182-0.292-0.372-0.425-0.568c-0.265-0.393-0.494-0.812-0.68-1.253c-0.373-0.883-0.58-1.853-0.58-2.872
			s0.206-1.989,0.58-2.872c0.187-0.441,0.415-0.861,0.68-1.253c0.133-0.196,0.274-0.386,0.425-0.568
			c1.353-1.64,3.401-2.685,5.693-2.685c0.001,0,0.002,0,0.002,0H59.59c0.001,0,0.002,0,0.003,0c4.075,0,7.378,3.303,7.378,7.378
			S63.667,973.059,59.592,973.059z M891.165,968.553c-0.187,0.441-0.415,0.861-0.68,1.253c-0.133,0.196-0.274,0.386-0.425,0.568
			c-1.353,1.64-3.401,2.685-5.693,2.685h-17.026v0c-4.075,0-7.378-3.303-7.378-7.378s3.303-7.378,7.378-7.378
			c0.001,0,0.002,0,0.002,0h17.021c0.001,0,0.002,0,0.002,0c2.292,0,4.34,1.045,5.693,2.685c0.15,0.182,0.292,0.372,0.425,0.568
			c0.265,0.393,0.494,0.812,0.68,1.253c0.373,0.883,0.58,1.853,0.58,2.872S891.539,967.671,891.165,968.553z"/>
	</g>
</g>
<g>
	<g>
		<path style="fill:#F9ED32;" d="M912.744,815.7v-19.864H819.1v-14.189h-93.645v14.189h-0.351H202.76h-0.603h-0.678v-14.189h-93.645
			v14.189H14.189V815.7H0v53.917h14.189v2.298v17.566h93.645v14.189h93.645v-14.189h523.977v14.189H819.1v-14.189h93.645v-17.566
			v-2.298h14.189V815.7H912.744z M59.592,850.019L59.592,850.019l-16.685,0c-0.114,0.005-0.226,0.017-0.341,0.017
			c-4.075,0-7.378-3.303-7.378-7.378c0-0.003,0-0.006,0-0.009c0-0.003,0-0.005,0-0.008c0-4.075,3.303-7.378,7.378-7.378
			c0.001,0,0.002,0,0.002,0H59.59c0.001,0,0.002,0,0.002,0c4.075,0,7.378,3.303,7.378,7.378S63.667,850.019,59.592,850.019z
			 M891.745,842.658c0,4.075-3.303,7.378-7.378,7.378c-0.115,0-0.227-0.012-0.341-0.017h-16.685v0c-4.075,0-7.378-3.303-7.378-7.378
			s3.303-7.378,7.378-7.378c0.001,0,0.002,0,0.002,0h17.021c0.001,0,0.002,0,0.002,0c4.075,0,7.378,3.303,7.378,7.378
			c0,0.003,0,0.006,0,0.009S891.745,842.656,891.745,842.658z"/>
	</g>
</g>
<g>
	<g>
		<path style="fill:#FF7BAC;" d="M912.744,344.507v-2.838v-71.086H14.189v71.086h0v2.838H0v136.21h14.189v2.838h0v28.522h187.289
			v-14.189h523.977v14.189h187.289v-28.522v-2.838h14.189v-136.21H912.744z M59.592,335.427c-0.001,0-0.002,0-0.002,0H42.568
			c-0.001,0-0.002,0-0.002,0c-4.075,0-7.378-3.303-7.378-7.378s3.303-7.378,7.378-7.378v0h17.026v0c4.075,0,7.378,3.303,7.378,7.378
			S63.667,335.427,59.592,335.427z M202.897,299.671h-96.482v-15.607h96.482V299.671z M820.518,299.671h-96.482v-15.607h96.482
			V299.671z M884.367,335.427c-0.001,0-0.002,0-0.002,0h-17.021c-0.001,0-0.002,0-0.002,0c-4.075,0-7.378-3.303-7.378-7.378
			s3.303-7.378,7.378-7.378v0h17.026v0c4.075,0,7.378,3.303,7.378,7.378S888.442,335.427,884.367,335.427z"/>
	</g>
</g>
<g>
	<g>
		<path style="fill:#ED1E79;" d="M926.933,680.493v-136.21h-14.189v-2.838h0v-28.522H725.455v14.189H201.478v-14.189H14.189v28.522
			v2.838H0v136.21h14.189v2.838v71.086h898.556v-71.086h0v-2.838H926.933z M59.592,704.33L59.592,704.33l-17.026,0v0
			c-4.075,0-7.378-3.303-7.378-7.378c0-4.075,3.303-7.378,7.378-7.378c0.001,0,0.002,0,0.002,0H59.59c0.001,0,0.002,0,0.002,0
			c4.075,0,7.378,3.303,7.378,7.378C66.97,701.027,63.667,704.33,59.592,704.33z M202.897,740.937h-96.482V725.33h96.482V740.937z
			 M820.518,740.937h-96.482V725.33h96.482V740.937z M884.367,704.33L884.367,704.33l-17.026,0v0c-4.075,0-7.378-3.303-7.378-7.378
			c0-4.075,3.303-7.378,7.378-7.378c0.001,0,0.002,0,0.002,0h17.021c0.001,0,0.002,0,0.002,0c4.075,0,7.378,3.303,7.378,7.378
			C891.745,701.027,888.442,704.33,884.367,704.33z"/>
	</g>
</g>
</svg>
