<svg xmlns="http://www.w3.org/2000/svg" xml:space="preserve" viewBox="0 0 2218.697 814.776"><path d="M803.207 51.773v336.183h113.815V219.864h28.347v168.092h327.959V219.864h28.347v168.092h113.815V51.773z" style="fill:#be1e2d"/><path d="M803.207 426.82v336.183h113.815V594.912h28.347v168.091h327.959V594.912h28.347v168.091h113.815V426.82z" style="fill:#ff7bac"/><path d="M732.497 731.094V194.628l-84.046 145.571-24.549-14.173 108.595-188.091V0h-94.494L223.439 717.837l-10.014 17.345-31.914-18.425 9.935-17.208L0 589.017v225.759h732.497v-55.335H564.405v-28.347z" style="fill:#fbb040"/><path d="M1486.2 731.094V194.628l84.046 145.571 24.549-14.173L1486.2 137.935V0h94.494l414.564 717.837 10.015 17.345 31.913-18.425-9.935-17.208 191.446-110.532v225.759H1486.2v-55.335h168.092v-28.347z" style="fill:#ed1e79"/></svg>