<?xml version="1.0" encoding="UTF-8"?><svg id="a" xmlns="http://www.w3.org/2000/svg" width="1494.53" height="1025.74" viewBox="0 0 1494.53 1025.74"><defs><style>.b{fill:#231f20;}.c{fill:#f0f;}.d{fill:#8dc63f;}.e{fill:#be1e2d;}.f{fill:#f9ed32;}.g{fill:#39b54a;}.h{fill:#c69c6d;}.i{fill:#fbb040;}</style></defs><path d="m0 270.58.03 483.83h258.19l.04-483.83zm134.25 50.09h24.4c4.07 0 7.38 3.3 7.38 7.38s-3.3 7.38-7.38 7.38h-24.4c-4.07 0-7.38-3.3-7.38-7.38s3.3-7.38 7.38-7.38zm24.22 332.01c-4.07 0-7.38-3.3-7.38-7.38v-24.4c0-4.07 3.3-7.38 7.38-7.38s7.38 3.3 7.38 7.38v24.4c0 4.07-3.3 7.38-7.38 7.38zm7.38 17.03c0 4.07-3.3 7.38-7.38 7.38s-7.38-3.3-7.38-7.38 3.3-7.38 7.38-7.38 7.38 3.3 7.38 7.38zm-7.19-65.84c-.16 0-.32-.01-.48-.02h-47.84c-.16.01-.32.02-.48.02s-.32-.01-.48-.02h-.09c-3.81-.3-6.81-3.47-6.81-7.35s3-7.06 6.81-7.35v-.03h49.38c4.07 0 7.38 3.3 7.38 7.38s-3.3 7.38-7.38 7.38zm-24.4 24.41c-.16 0-.32-.01-.48-.02h-47.84c-.16.01-.32.02-.48.02s-.32-.01-.48-.02h-.09c-3.81-.3-6.81-3.47-6.81-7.35s3-7.06 6.81-7.35v-.03h49.38c4.07 0 7.38 3.3 7.38 7.38s-3.3 7.38-7.38 7.38zm7.37 17.03v24.4c0 4.07-3.3 7.38-7.38 7.38s-7.38-3.3-7.38-7.38v-24.4c0-4.07 3.3-7.38 7.38-7.38s7.38 3.3 7.38 7.38zm-24.4 0v24.4c0 4.07-3.3 7.38-7.38 7.38s-7.38-3.3-7.38-7.38v-24.4c0-4.07 3.3-7.38 7.38-7.38s7.38 3.3 7.38 7.38zm17.03-212.27c-.16 0-.32-.01-.48-.02h-47.84c-.16.01-.32.02-.48.02s-.32-.01-.48-.02h-.09c-3.81-.3-6.81-3.47-6.81-7.35s3-7.06 6.81-7.35v-.03h49.38c4.07 0 7.38 3.3 7.38 7.38s-3.3 7.38-7.38 7.38zm7.37 17.03v24.4c0 4.07-3.3 7.38-7.38 7.38s-7.38-3.3-7.38-7.38v-24.4c0-4.07 3.3-7.38 7.38-7.38s7.38 3.3 7.38 7.38zm-7.37 80.59c-.16 0-.32-.01-.48-.02h-47.84c-.16.01-.32.02-.48.02s-.32-.01-.48-.02h-.09c-3.81-.3-6.81-3.47-6.81-7.35s3-7.06 6.81-7.35v-.03h49.38c4.07 0 7.38 3.3 7.38 7.38s-3.3 7.38-7.38 7.38zm7.37 17.03v24.4c0 4.07-3.3 7.38-7.38 7.38s-7.38-3.3-7.38-7.38v-24.4c0-4.07 3.3-7.38 7.38-7.38s7.38 3.3 7.38 7.38zm-24.4 0v24.4c0 4.07-3.3 7.38-7.38 7.38s-7.38-3.3-7.38-7.38v-24.4c0-4.07 3.3-7.38 7.38-7.38s7.38 3.3 7.38 7.38zm-24.41 0c0 4.07-3.3 7.38-7.38 7.38s-7.38-3.3-7.38-7.38 3.3-7.38 7.38-7.38 7.38 3.3 7.38 7.38zm24.41-97.62v24.4c0 4.07-3.3 7.38-7.38 7.38s-7.38-3.3-7.38-7.38v-24.4c0-4.07 3.3-7.38 7.38-7.38s7.38 3.3 7.38 7.38zm-24.41 0c0 4.07-3.3 7.38-7.38 7.38s-7.38-3.3-7.38-7.38 3.3-7.38 7.38-7.38 7.38 3.3 7.38 7.38zm-7.37-80.59c4.07 0 7.38 3.3 7.38 7.38v24.4c0 4.07-3.3 7.38-7.38 7.38s-7.38-3.3-7.38-7.38v-24.4c0-4.07 3.3-7.38 7.38-7.38zm-7.38-17.03c0-4.07 3.3-7.38 7.38-7.38s7.38 3.3 7.38 7.38-3.3 7.38-7.38 7.38-7.38-3.3-7.38-7.38zm7.38 114.65c4.07 0 7.38 3.3 7.38 7.38v24.4c0 4.07-3.3 7.38-7.38 7.38s-7.38-3.3-7.38-7.38v-24.4c0-4.07 3.3-7.38 7.38-7.38zm0 97.61c4.07 0 7.38 3.3 7.38 7.38v24.4c0 4.07-3.3 7.38-7.38 7.38s-7.38-3.3-7.38-7.38v-24.4c0-4.07 3.3-7.38 7.38-7.38zm80.4-17.02c0 4.07-3.3 7.38-7.38 7.38s-7.38-3.3-7.38-7.38v-24.4c0-4.07 3.3-7.38 7.38-7.38s7.38 3.3 7.38 7.38zm.19 24.4c0 4.07-3.3 7.38-7.38 7.38s-7.38-3.3-7.38-7.38 3.3-7.38 7.38-7.38 7.38 3.3 7.38 7.38zm-7.38-65.83c-.16 0-.32-.01-.48-.02h-47.84c-.16.01-.32.02-.48.02s-.32-.01-.48-.02h-.09c-3.81-.3-6.81-3.47-6.81-7.35s3-7.06 6.81-7.35v-.03h49.38c4.07 0 7.38 3.3 7.38 7.38s-3.3 7.38-7.38 7.38zm7.19-56.19c0 4.07-3.3 7.38-7.38 7.38s-7.38-3.3-7.38-7.38v-24.4c0-4.07 3.3-7.38 7.38-7.38s7.38 3.3 7.38 7.38zm.19 24.4c0 4.07-3.3 7.38-7.38 7.38s-7.38-3.3-7.38-7.38 3.3-7.38 7.38-7.38 7.38 3.3 7.38 7.38zm-7.38-65.83c-.16 0-.32-.01-.48-.02h-47.84c-.16.01-.32.02-.48.02s-.32-.01-.48-.02h-.09c-3.81-.3-6.81-3.47-6.81-7.35s3-7.06 6.81-7.35v-.03h49.38c4.07 0 7.38 3.3 7.38 7.38s-3.3 7.38-7.38 7.38zm-56.19-31.78v-24.4c0-4.07 3.3-7.38 7.38-7.38s7.38 3.3 7.38 7.38v24.4c0 4.07-3.3 7.38-7.38 7.38s-7.38-3.3-7.38-7.38zm24.41 0v-24.4c0-4.07 3.3-7.38 7.38-7.38s7.38 3.3 7.38 7.38v24.4c0 4.07-3.3 7.38-7.38 7.38s-7.38-3.3-7.38-7.38zm31.78 7.38c-4.07 0-7.38-3.3-7.38-7.38s3.3-7.38 7.38-7.38 7.38 3.3 7.38 7.38-3.3 7.38-7.38 7.38zm-7.47-31.69c0-4.07 3.3-7.38 7.38-7.38s7.38 3.3 7.38 7.38-3.3 7.38-7.38 7.38-7.38-3.3-7.38-7.38zm-33.96-24.5c0 4.07-3.3 7.38-7.38 7.38h-24.4c-4.07 0-7.38-3.3-7.38-7.38s3.3-7.38 7.38-7.38h24.4c4.07 0 7.38 3.3 7.38 7.38zm-85.98-43.99h56.75v15.61h-56.75zm29.79 368.6c-4.07 0-7.38-3.3-7.38-7.38v-48.81c0-4.07 3.3-7.38 7.38-7.38s7.38 3.3 7.38 7.38v48.81c0 4.07-3.3 7.38-7.38 7.38zm7.38 17.03v27.27c0 4.07-3.3 7.38-7.38 7.38s-7.38-3.3-7.38-7.38v-27.27c0-4.07 3.3-7.38 7.38-7.38s7.38 3.3 7.38 7.38zm-14.76-244.02v-24.4c0-4.07 3.3-7.38 7.38-7.38s7.38 3.3 7.38 7.38v24.4c0 4.07-3.3 7.38-7.38 7.38s-7.38-3.3-7.38-7.38zm7.38 153.8c-4.07 0-7.38-3.3-7.38-7.38v-48.81c0-4.07 3.3-7.38 7.38-7.38s7.38 3.3 7.38 7.38v48.81c0 4.07-3.3 7.38-7.38 7.38zm0-73.21c-4.07 0-7.38-3.3-7.38-7.38v-48.81c0-4.07 3.3-7.38 7.38-7.38s7.38 3.3 7.38 7.38v48.81c0 4.07-3.3 7.38-7.38 7.38zm0-122.02c-4.07 0-7.38-3.3-7.38-7.38v-48.81c0-4.07 3.3-7.38 7.38-7.38s7.38 3.3 7.38 7.38v48.81c0 4.07-3.3 7.38-7.38 7.38zm-31.78-56.19c0-4.07 3.3-7.38 7.38-7.38s7.38 3.3 7.38 7.38v24.4c0 4.07-3.3 7.38-7.38 7.38s-7.38-3.3-7.38-7.38zm0 48.81c0-4.07 3.3-7.38 7.38-7.38s7.38 3.3 7.38 7.38v24.4c0 4.07-3.3 7.38-7.38 7.38s-7.38-3.3-7.38-7.38zm0 48.81c0-4.07 3.3-7.38 7.38-7.38s7.38 3.3 7.38 7.38v24.4c0 4.07-3.3 7.38-7.38 7.38s-7.38-3.3-7.38-7.38zm0 48.8c0-4.07 3.3-7.38 7.38-7.38s7.38 3.3 7.38 7.38v24.4c0 4.07-3.3 7.38-7.38 7.38s-7.38-3.3-7.38-7.38zm0 48.81c0-4.07 3.3-7.38 7.38-7.38s7.38 3.3 7.38 7.38v24.4c0 4.07-3.3 7.38-7.38 7.38s-7.38-3.3-7.38-7.38zm0 48.81c0-4.07 3.3-7.38 7.38-7.38s7.38 3.3 7.38 7.38v24.4c0 4.07-3.3 7.38-7.38 7.38s-7.38-3.3-7.38-7.38zm0 48.81c0-4.07 3.3-7.38 7.38-7.38s7.38 3.3 7.38 7.38v24.4c0 4.07-3.3 7.38-7.38 7.38s-7.38-3.3-7.38-7.38zm0 48.79c0-4.07 3.3-7.38 7.38-7.38s7.38 3.3 7.38 7.38v27.27c0 4.07-3.3 7.38-7.38 7.38s-7.38-3.3-7.38-7.38zm58.74 71.25h-56.75v-15.61h56.75zm4.82-43.99c0 4.07-3.3 7.38-7.38 7.38s-7.38-3.3-7.38-7.38v-27.24c0-4.07 3.3-7.38 7.38-7.38s7.38 3.3 7.38 7.38zm-7.37-44.27c-4.07 0-7.38-3.3-7.38-7.38s3.3-7.38 7.38-7.38 7.38 3.3 7.38 7.38-3.3 7.38-7.38 7.38zm17.02 44.3c0-4.07 3.3-7.38 7.38-7.38h48.62c4.07 0 7.38 3.3 7.38 7.38s-3.3 7.38-7.38 7.38h-48.62c-4.07 0-7.38-3.3-7.38-7.38zm107.55 43.96h-56.75v-15.61h56.75zm-34.43-412.98c0-4.07 3.3-7.38 7.38-7.38h17.14c4.07 0 7.38 3.3 7.38 7.38s-3.3 7.38-7.38 7.38h-9.77v17.21c0 4.07-3.3 7.38-7.38 7.38s-7.38-3.3-7.38-7.38v-24.58zm.1 48.9c0-.16.01-.32.02-.48v-.09c.29-3.81 3.47-6.81 7.35-6.81s7.06 3 7.35 6.81h.03v49.38c0 4.07-3.3 7.38-7.38 7.38s-7.38-3.3-7.38-7.38c0-.16.01-.32.02-.48v-47.84c-.01-.16-.02-.32-.02-.48zm14.75 170.83c0 4.07-3.3 7.38-7.38 7.38s-7.38-3.3-7.38-7.38c0-.16.01-.32.02-.48v-47.84c-.01-.16-.02-.32-.02-.48s.01-.32.02-.48v-.09c.29-3.81 3.47-6.81 7.35-6.81s7.06 3 7.35 6.81h.03v49.38zm0 97.62c0 4.07-3.3 7.38-7.38 7.38s-7.38-3.3-7.38-7.38l.02-72.73c-.01-.16-.02-.32-.02-.48s.01-.32.02-.48v-.09c.29-3.81 3.47-6.81 7.35-6.81s7.06 3 7.35 6.81h.03v73.79zm-7.38-202.62c4.07 0 7.38 3.3 7.38 7.38v24.4c0 4.07-3.3 7.38-7.38 7.38s-7.38-3.3-7.38-7.38v-24.4c0-4.07 3.3-7.38 7.38-7.38zm0 219.64c4.07 0 7.38 3.3 7.38 7.38v19.89h9.67c4.07 0 7.38 3.3 7.38 7.38s-3.3 7.38-7.38 7.38h-16.35c-.12 0-.23-.01-.35-.02-.12 0-.23.02-.35.02-4.07 0-7.38-3.3-7.38-7.38v-27.27c0-4.07 3.3-7.38 7.38-7.38zm26.96-362.66h-56.75v-15.61h56.75zm34.05 382.81h-15.61v-141.89h15.61zm0-198.92h-15.61v-141.89h15.61z" class="b"/><path d="m1236.27 270.58.04 483.83h258.19l.03-483.83zm170.26 13.48h56.75v15.61h-56.75zm26.96 231.85c4.07 0 7.38 3.3 7.38 7.38v48.81c0 4.07-3.3 7.38-7.38 7.38s-7.38-3.3-7.38-7.38v-48.81c0-4.07 3.3-7.38 7.38-7.38zm-7.38-17.03v-48.81c0-4.07 3.3-7.38 7.38-7.38s7.38 3.3 7.38 7.38v48.81c0 4.07-3.3 7.38-7.38 7.38s-7.38-3.3-7.38-7.38zm7.38 90.21c4.07 0 7.38 3.3 7.38 7.38v48.81c0 4.07-3.3 7.38-7.38 7.38s-7.38-3.3-7.38-7.38v-48.81c0-4.07 3.3-7.38 7.38-7.38zm-7.38 80.6c0-4.07 3.3-7.38 7.38-7.38s7.38 3.3 7.38 7.38v27.27c0 4.07-3.3 7.38-7.38 7.38s-7.38-3.3-7.38-7.38zm7.38-236.65c-4.07 0-7.38-3.3-7.38-7.38v-24.4c0-4.07 3.3-7.38 7.38-7.38s7.38 3.3 7.38 7.38v24.4c0 4.07-3.3 7.38-7.38 7.38zm-7.38-56.18v-48.81c0-4.07 3.3-7.38 7.38-7.38s7.38 3.3 7.38 7.38v48.81c0 4.07-3.3 7.38-7.38 7.38s-7.38-3.3-7.38-7.38zm-90.05 275.82c-4.07 0-7.38-3.3-7.38-7.38v-24.4c0-4.07 3.3-7.38 7.38-7.38s7.38 3.3 7.38 7.38v24.4c0 4.07-3.3 7.38-7.38 7.38zm7.37 17.03c0 4.07-3.3 7.38-7.38 7.38s-7.38-3.3-7.38-7.38 3.3-7.38 7.38-7.38 7.38 3.3 7.38 7.38zm-7.08-65.86c-.16.01-.32.02-.48.02-4.07 0-7.38-3.3-7.38-7.38s3.3-7.38 7.38-7.38h49.38v.03c3.81.29 6.81 3.47 6.81 7.35s-3 7.06-6.81 7.35-.08 0-.08 0c-.16.01-.32.02-.48.02s-.32-.01-.48-.02h-47.84zm-.48-234.37c4.07 0 7.38 3.3 7.38 7.38s-3.3 7.38-7.38 7.38-7.38-3.3-7.38-7.38 3.3-7.38 7.38-7.38zm-7.29-16.93c0-4.07 3.3-7.38 7.38-7.38s7.38 3.3 7.38 7.38-3.3 7.38-7.38 7.38-7.38-3.3-7.38-7.38zm7.29 41.33h49.38v.03c3.81.29 6.81 3.47 6.81 7.35s-3 7.06-6.81 7.35-.08 0-.08 0c-.16.01-.32.02-.48.02s-.32-.01-.48-.02h-47.84c-.16.01-.32.02-.48.02-4.07 0-7.38-3.3-7.38-7.38s3.3-7.38 7.38-7.38zm17.02-17.02v-24.4c0-4.07 3.3-7.38 7.38-7.38s7.38 3.3 7.38 7.38v24.4c0 4.07-3.3 7.38-7.38 7.38s-7.38-3.3-7.38-7.38zm63.57 48.81c0 3.88-3 7.06-6.81 7.35s-.09 0-.09 0c-.16.01-.32.02-.48.02s-.32-.01-.48-.02h-47.84c-.16.01-.32.02-.48.02-4.07 0-7.38-3.3-7.38-7.38s3.3-7.38 7.38-7.38h49.38v.03c3.81.29 6.81 3.47 6.81 7.35zm0 97.61c0 3.88-3 7.06-6.81 7.35s-.09 0-.09 0c-.16.01-.32.02-.48.02s-.32-.01-.48-.02h-47.84c-.16.01-.32.02-.48.02-4.07 0-7.38-3.3-7.38-7.38s3.3-7.38 7.38-7.38h49.38v.03c3.81.29 6.81 3.47 6.81 7.35zm0 24.41c0 4.07-3.3 7.38-7.38 7.38s-7.38-3.3-7.38-7.38 3.3-7.38 7.38-7.38 7.38 3.3 7.38 7.38zm-24.4 0v24.4c0 4.07-3.3 7.38-7.38 7.38s-7.38-3.3-7.38-7.38v-24.4c0-4.07 3.3-7.38 7.38-7.38s7.38 3.3 7.38 7.38zm-24.41 0v24.4c0 4.07-3.3 7.38-7.38 7.38s-7.38-3.3-7.38-7.38v-24.4c0-4.07 3.3-7.38 7.38-7.38s7.38 3.3 7.38 7.38zm24.41-73.22c0 4.07-3.3 7.38-7.38 7.38s-7.38-3.3-7.38-7.38v-24.4c0-4.07 3.3-7.38 7.38-7.38s7.38 3.3 7.38 7.38zm24.4-24.4c0 4.07-3.3 7.38-7.38 7.38s-7.38-3.3-7.38-7.38 3.3-7.38 7.38-7.38 7.38 3.3 7.38 7.38zm-48.81 0v24.4c0 4.07-3.3 7.38-7.38 7.38s-7.38-3.3-7.38-7.38v-24.4c0-4.07 3.3-7.38 7.38-7.38s7.38 3.3 7.38 7.38zm24.41-73.21c0 4.07-3.3 7.38-7.38 7.38s-7.38-3.3-7.38-7.38v-24.4c0-4.07 3.3-7.38 7.38-7.38s7.38 3.3 7.38 7.38zm-56 80.59c-4.07 0-7.38-3.3-7.38-7.38v-24.4c0-4.07 3.3-7.38 7.38-7.38s7.38 3.3 7.38 7.38v24.4c0 4.07-3.3 7.38-7.38 7.38zm7.19 17.02c0 4.07-3.3 7.38-7.38 7.38s-7.38-3.3-7.38-7.38 3.3-7.38 7.38-7.38 7.38 3.3 7.38 7.38zm-7.38 17.03h49.38v.03c3.81.29 6.81 3.47 6.81 7.35s-3 7.06-6.81 7.35-.08 0-.08 0c-.16.01-.32.02-.48.02s-.32-.01-.48-.02h-47.84c-.16.01-.32.02-.48.02-4.07 0-7.38-3.3-7.38-7.38s3.3-7.38 7.38-7.38zm.19 63.57c-4.07 0-7.38-3.3-7.38-7.38v-24.4c0-4.07 3.3-7.38 7.38-7.38s7.38 3.3 7.38 7.38v24.4c0 4.07-3.3 7.38-7.38 7.38zm7.19 17.02c0 4.07-3.3 7.38-7.38 7.38s-7.38-3.3-7.38-7.38 3.3-7.38 7.38-7.38 7.38 3.3 7.38 7.38zm9.64 73.22c0-4.07 3.3-7.38 7.38-7.38s7.38 3.3 7.38 7.38v24.4c0 4.07-3.3 7.38-7.38 7.38s-7.38-3.3-7.38-7.38zm7.87-17.06c-.16.01-.32.02-.48.02-4.07 0-7.38-3.3-7.38-7.38s3.3-7.38 7.38-7.38h49.38v.03c3.81.29 6.81 3.47 6.81 7.35s-3 7.06-6.81 7.35-.09 0-.09 0c-.16.01-.32.02-.48.02s-.32-.01-.48-.02h-47.84zm48.32-24.38c-4.07 0-7.38-3.3-7.38-7.38v-24.4c0-4.07 3.3-7.38 7.38-7.38s7.38 3.3 7.38 7.38v24.4c0 4.07-3.3 7.38-7.38 7.38zm0-97.61c-4.07 0-7.38-3.3-7.38-7.38v-24.4c0-4.07 3.3-7.38 7.38-7.38s7.38 3.3 7.38 7.38v24.4c0 4.07-3.3 7.38-7.38 7.38zm0-97.62c-4.07 0-7.38-3.3-7.38-7.38v-24.4c0-4.07 3.3-7.38 7.38-7.38s7.38 3.3 7.38 7.38v24.4c0 4.07-3.3 7.38-7.38 7.38zm-7.38-56.19c0-4.07 3.3-7.38 7.38-7.38s7.38 3.3 7.38 7.38-3.3 7.38-7.38 7.38-7.38-3.3-7.38-7.38zm-17.02-31.78h24.4c4.07 0 7.38 3.3 7.38 7.38s-3.3 7.38-7.38 7.38h-24.4c-4.07 0-7.38-3.3-7.38-7.38s3.3-7.38 7.38-7.38zm-17.03 7.38c0 4.07-3.3 7.38-7.38 7.38h-24.4c-4.07 0-7.38-3.3-7.38-7.38s3.3-7.38 7.38-7.38h24.4c4.07 0 7.38 3.3 7.38 7.38zm-83.14-43.99h56.75v15.61h-56.75zm34.43 44.08v24.4c0 4.07-3.3 7.38-7.38 7.38s-7.38-3.3-7.38-7.38v-17.21h-9.77c-4.07 0-7.38-3.3-7.38-7.38s3.3-7.38 7.38-7.38h17.14c4.07 0 7.38 3.3 7.38 7.38v.18zm-14.85 243.95v-.57h.03c.29-3.81 3.47-6.81 7.35-6.81s7.06 3 7.35 6.81v.09c.01.16.02.32.02.48s-.01.32-.02.48l.02 72.73c0 4.07-3.3 7.38-7.38 7.38s-7.38-3.3-7.38-7.38v-73.22zm0-73.21v-.57h.03c.29-3.81 3.47-6.81 7.35-6.81s7.06 3 7.35 6.81v.09c.01.16.02.32.02.48s-.01.32-.02.48v47.84c.01.16.02.32.02.48 0 4.07-3.3 7.38-7.38 7.38s-7.38-3.3-7.38-7.38v-48.81zm0-122.02v-.57h.03c.29-3.81 3.47-6.81 7.35-6.81s7.06 3 7.35 6.81v.09c.01.16.02.32.02.48s-.01.32-.02.48v47.84c.01.16.02.32.02.48 0 4.07-3.3 7.38-7.38 7.38s-7.38-3.3-7.38-7.38v-48.81zm0 292.85c0-4.07 3.3-7.38 7.38-7.38s7.38 3.3 7.38 7.38v27.27c0 4.07-3.3 7.38-7.38 7.38-.12 0-.23-.01-.35-.02-.12 0-.23.02-.35.02h-16.35c-4.07 0-7.38-3.3-7.38-7.38s3.3-7.38 7.38-7.38h9.67zm7.37-187.86c-4.07 0-7.38-3.3-7.38-7.38v-24.4c0-4.07 3.3-7.38 7.38-7.38s7.38 3.3 7.38 7.38v24.4c0 4.07-3.3 7.38-7.38 7.38zm-45.4 200.63h-15.61v-141.89h15.61zm0-198.92h-15.61v-141.89h15.61zm75.2 257.38h-56.75v-15.61h56.75zm43.42-36.59h-48.62c-4.07 0-7.38-3.3-7.38-7.38s3.3-7.38 7.38-7.38h48.62c4.07 0 7.38 3.3 7.38 7.38s-3.3 7.38-7.38 7.38zm7.38-34.64c0 4.07-3.3 7.38-7.38 7.38s-7.38-3.3-7.38-7.38v-24.4c0-4.07 3.3-7.38 7.38-7.38s7.38 3.3 7.38 7.38zm17.02-31.78c4.07 0 7.38 3.3 7.38 7.38s-3.3 7.38-7.38 7.38-7.38-3.3-7.38-7.38 3.3-7.38 7.38-7.38zm-7.38 59.02v-27.24c0-4.07 3.3-7.38 7.38-7.38s7.38 3.3 7.38 7.38v27.24c0 4.07-3.3 7.38-7.38 7.38s-7.38-3.3-7.38-7.38zm61.58 43.99h-56.75v-15.61h56.75zm1.99-43.99c0 4.07-3.3 7.38-7.38 7.38s-7.38-3.3-7.38-7.38v-27.27c0-4.07 3.3-7.38 7.38-7.38s7.38 3.3 7.38 7.38zm0-51.64c0 4.07-3.3 7.38-7.38 7.38s-7.38-3.3-7.38-7.38v-24.4c0-4.07 3.3-7.38 7.38-7.38s7.38 3.3 7.38 7.38zm0-48.81c0 4.07-3.3 7.38-7.38 7.38s-7.38-3.3-7.38-7.38v-24.4c0-4.07 3.3-7.38 7.38-7.38s7.38 3.3 7.38 7.38zm0-48.81c0 4.07-3.3 7.38-7.38 7.38s-7.38-3.3-7.38-7.38v-24.4c0-4.07 3.3-7.38 7.38-7.38s7.38 3.3 7.38 7.38zm0-48.81c0 4.07-3.3 7.38-7.38 7.38s-7.38-3.3-7.38-7.38v-24.4c0-4.07 3.3-7.38 7.38-7.38s7.38 3.3 7.38 7.38zm0-48.81c0 4.07-3.3 7.38-7.38 7.38s-7.38-3.3-7.38-7.38v-24.4c0-4.07 3.3-7.38 7.38-7.38s7.38 3.3 7.38 7.38zm0-48.81c0 4.07-3.3 7.38-7.38 7.38s-7.38-3.3-7.38-7.38v-24.4c0-4.07 3.3-7.38 7.38-7.38s7.38 3.3 7.38 7.38zm0-48.81c0 4.07-3.3 7.38-7.38 7.38s-7.38-3.3-7.38-7.38v-24.4c0-4.07 3.3-7.38 7.38-7.38s7.38 3.3 7.38 7.38z" class="c"/><path d="m1196.56 344.43v-73.84h-898.59v73.84h-14.17v136.06h14.17v31.32h187.09v-14.17h524.41v14.17h187.09v-31.33h14.17v-136.06h-14.17zm-853.23-9.07h-17c-4.07 0-7.37-3.3-7.37-7.37s3.3-7.37 7.37-7.37h17.01c4.07 0 7.37 3.3 7.37 7.37s-3.3 7.37-7.37 7.37zm143.15-35.72h-96.38v-15.59h96.38zm617.95 0h-96.38v-15.59h96.38zm63.78 35.72h-17c-4.07 0-7.37-3.3-7.37-7.37s3.3-7.37 7.37-7.37h17.01c4.07 0 7.37 3.3 7.37 7.37s-3.3 7.37-7.37 7.37z" class="d"/><path d="m1210.73 681.05v-136.06h-14.17v-31.32h-187.09v14.17h-524.41v-14.17h-187.09v31.33h-14.17v136.06h14.17v73.84h898.58v-73.84h14.17zm-867.4 23.81h-17.01c-4.07 0-7.37-3.3-7.37-7.37s3.3-7.37 7.37-7.37h17c4.07 0 7.37 3.3 7.37 7.37s-3.3 7.37-7.37 7.37zm143.15 36.57h-96.38v-15.59h96.38zm617.95 0h-96.38v-15.59h96.38zm63.78-36.57h-17.01c-4.07 0-7.37-3.3-7.37-7.37s3.3-7.37 7.37-7.37h17c4.07 0 7.37 3.3 7.37 7.37s-3.3 7.37-7.37 7.37z" class="g"/><path d="m1196.56 34.02v-34.02h-898.59v34.02h-14.17v53.86h14.17v19.84h93.54v14.17h93.54v-14.17h524.41v14.17h93.54v-14.17h93.54v-19.84h14.17v-53.86h-14.17zm-853.23 34.29h-17c-2.04 0-3.88-.82-5.21-2.16-1.33-1.33-2.16-3.18-2.16-5.21s.82-3.88 2.16-5.21c1.33-1.33 3.18-2.16 5.21-2.16h17.01c4.07 0 7.37 3.3 7.37 7.37s-3.3 7.37-7.37 7.37zm830.09-2.15c-1.33 1.33-3.18 2.16-5.21 2.16h-17c-4.07 0-7.37-3.3-7.37-7.37s3.3-7.37 7.37-7.37h17.01c2.04 0 3.88.82 5.21 2.16s2.16 3.18 2.16 5.21-.82 3.88-2.16 5.21z" class="i"/><path d="m1196.56 157.91v-19.84h-93.54v-14.17h-93.54v14.17h-524.42v-14.17h-93.54v14.17h-93.54v19.84h-14.17v53.86h14.17v19.84h93.54v14.17h93.54v-14.17h524.41v14.17h93.54v-14.17h93.54v-19.84h14.17v-53.86h-14.17zm-853.23 34.31h-17c-4.07 0-7.37-3.3-7.37-7.37s3.3-7.37 7.37-7.37c.12 0 .23.01.34.02h16.67c4.07 0 7.37 3.3 7.37 7.37s-3.3 7.37-7.37 7.37zm832.25-7.37c0 4.07-3.3 7.37-7.37 7.37h-17c-4.07 0-7.37-3.3-7.37-7.37s3.3-7.37 7.37-7.37h16.67c.11 0 .23-.02.34-.02 4.07 0 7.37 3.3 7.37 7.37z" class="e"/><path d="m1196.56 937.86v-19.84h-93.54v-14.17h-93.54v14.17h-524.42v-14.17h-93.54v14.17h-93.54v19.84h-14.17v53.86h14.17v34.02h898.58v-34.02h14.17v-53.86zm-853.23 34.3h-17.01c-2.04 0-3.88-.82-5.21-2.16-1.33-1.33-2.16-3.18-2.16-5.21s.82-3.88 2.16-5.21c1.33-1.33 3.18-2.16 5.21-2.16h17c4.07 0 7.37 3.3 7.37 7.37s-3.3 7.37-7.37 7.37zm830.09-2.16c-1.33 1.33-3.18 2.16-5.21 2.16h-17.01c-4.07 0-7.37-3.3-7.37-7.37s3.3-7.37 7.37-7.37h17c2.04 0 3.88.82 5.21 2.16 1.33 1.33 2.16 3.18 2.16 5.21s-.82 3.88-2.16 5.21z" class="h"/><path d="m1196.56 813.97v-19.84h-93.54v-14.17h-93.54v14.17h-524.42v-14.17h-93.54v14.17h-93.54v19.84h-14.17v53.86h14.17v19.84h93.54v14.17h93.54v-14.17h524.41v14.17h93.54v-14.17h93.54v-19.84h14.17v-53.86h-14.17zm-853.23 34.28h-16.67c-.11 0-.23.02-.34.02-4.07 0-7.37-3.3-7.37-7.37s3.3-7.37 7.37-7.37h17c4.07 0 7.37 3.3 7.37 7.37s-3.3 7.37-7.37 7.37zm832.25-7.35c0 4.07-3.3 7.37-7.37 7.37-.12 0-.23-.01-.34-.02h-16.67c-4.07 0-7.37-3.3-7.37-7.37s3.3-7.37 7.37-7.37h17c4.07 0 7.37 3.3 7.37 7.37z" class="f"/></svg>