<?xml version="1.0" encoding="iso-8859-1"?>
<!-- Generator: Adobe Illustrator 29.7.1, SVG Export Plug-In . SVG Version: 9.03 Build 0)  -->
<svg version="1.1" id="Layer_1" xmlns="http://www.w3.org/2000/svg" xmlns:xlink="http://www.w3.org/1999/xlink" x="0px" y="0px"
	 viewBox="0 0 1385.184 1025.001" style="enable-background:new 0 0 1385.184 1025.001;" xml:space="preserve">
<g>
	<g>
		<path style="fill:#FBB040;" d="M999.067,34.053v-2.298V14.189V0h-93.645h-93.645H573.41h-93.645H386.12v14.189v17.566v2.298v0
			h-14.189v53.917h14.189v19.864h93.645v14.189h93.645v-14.189h0.351h236.736h0.603h0.678v14.189h93.645v-14.189h93.645V87.969
			h14.189V34.053H999.067z M431.524,68.389c-0.001,0-0.002,0-0.002,0H414.5c-0.001,0-0.002,0-0.002,0
			c-2.292,0-4.34-1.045-5.693-2.685c-0.15-0.182-0.292-0.372-0.425-0.568c-0.265-0.393-0.494-0.812-0.68-1.253
			c-0.373-0.883-0.58-1.853-0.58-2.872s0.206-1.989,0.58-2.872c0.187-0.441,0.415-0.861,0.68-1.253
			c0.133-0.196,0.274-0.386,0.425-0.568c1.353-1.64,3.401-2.685,5.693-2.685h17.026v0c4.075,0,7.378,3.303,7.378,7.378
			S435.599,68.389,431.524,68.389z M977.488,63.883c-0.187,0.441-0.415,0.861-0.68,1.253c-0.133,0.196-0.274,0.386-0.425,0.568
			c-1.353,1.64-3.401,2.685-5.693,2.685c-0.001,0-0.002,0-0.002,0h-17.021c-0.001,0-0.002,0-0.002,0
			c-4.075,0-7.378-3.303-7.378-7.378s3.303-7.378,7.378-7.378v0h17.026l0,0c2.292,0,4.34,1.045,5.693,2.685
			c0.15,0.182,0.292,0.372,0.425,0.568c0.265,0.393,0.494,0.812,0.68,1.253c0.373,0.883,0.58,1.853,0.58,2.872
			S977.862,63,977.488,63.883z"/>
	</g>
</g>
<g>
	<g>
		<path style="fill:#BE1E2D;" d="M999.067,157.075v-2.298v-17.566h-93.645v-14.189h-93.645v14.189H573.41v-14.189h-93.645v14.189
			H386.12v17.566v2.298h-14.189v53.917h14.189v19.864h93.645v14.189h93.645v-14.189h0.351h236.736h0.603h0.678v14.189h93.645
			v-14.189h93.645v-19.864h14.189v-53.917H999.067z M431.524,191.429c-0.001,0-0.002,0-0.003,0H414.5c-0.001,0-0.002,0-0.002,0
			c-4.075,0-7.378-3.303-7.378-7.378c0-0.003,0-0.006,0-0.009s0-0.006,0-0.009c0-4.075,3.303-7.378,7.378-7.378
			c0.115,0,0.227,0.012,0.341,0.017h16.685v0c4.075,0,7.378,3.303,7.378,7.378S435.599,191.429,431.524,191.429z M978.068,184.051
			c0,4.075-3.303,7.378-7.378,7.378c-0.001,0-0.002,0-0.002,0h-17.021c-0.001,0-0.002,0-0.002,0c-4.075,0-7.378-3.303-7.378-7.378
			s3.303-7.378,7.378-7.378v0h16.685c0.114-0.005,0.226-0.017,0.341-0.017c4.075,0,7.378,3.303,7.378,7.378c0,0.003,0,0.006,0,0.009
			C978.068,184.046,978.068,184.048,978.068,184.051z"/>
	</g>
</g>
<g>
	<g>
		<path style="fill:#C69C6D;" d="M999.067,937.031v-19.864h-93.645v-14.189h-93.645v14.189h-0.351H574.691h-0.603h-0.678v-14.189
			h-93.645v14.189H386.12v19.864h-14.189v53.917h14.189v2.298v17.566V1025h93.645h93.645h238.368h93.645h93.645v-14.189v-17.566
			v-2.298v0h14.189v-53.917H999.067z M431.524,971.368L431.524,971.368l-17.026,0l0,0c-2.292,0-4.34-1.045-5.693-2.685
			c-0.15-0.182-0.292-0.372-0.425-0.568c-0.265-0.393-0.494-0.812-0.68-1.253c-0.373-0.883-0.58-1.853-0.58-2.872
			s0.206-1.989,0.58-2.872c0.187-0.441,0.415-0.861,0.68-1.253c0.133-0.196,0.274-0.386,0.425-0.568
			c1.353-1.64,3.401-2.685,5.693-2.685c0.001,0,0.002,0,0.002,0h17.021c0.001,0,0.002,0,0.002,0c4.075,0,7.378,3.303,7.378,7.378
			S435.599,971.368,431.524,971.368z M977.488,966.862c-0.187,0.441-0.415,0.861-0.68,1.253c-0.133,0.196-0.274,0.386-0.425,0.568
			c-1.353,1.64-3.401,2.685-5.693,2.685h-17.026v0c-4.075,0-7.378-3.303-7.378-7.378s3.303-7.378,7.378-7.378
			c0.001,0,0.002,0,0.002,0h17.021c0.001,0,0.002,0,0.002,0c2.292,0,4.34,1.045,5.693,2.685c0.15,0.182,0.292,0.372,0.425,0.568
			c0.265,0.393,0.494,0.812,0.68,1.253c0.373,0.883,0.58,1.853,0.58,2.872S977.862,965.979,977.488,966.862z"/>
	</g>
</g>
<g>
	<g>
		<path style="fill:#F9ED32;" d="M999.067,814.008v-19.864h-93.645v-14.189h-93.645v14.189h-0.351H574.691h-0.603h-0.678v-14.189
			h-93.645v14.189H386.12v19.864h-14.189v53.917h14.189v2.298v17.566h93.645v14.189h93.645v-14.189h238.368v14.189h93.645v-14.189
			h93.645v-17.566v-2.298h14.189v-53.917H999.067z M431.524,848.328L431.524,848.328l-16.684,0
			c-0.114,0.005-0.227,0.017-0.342,0.017c-4.075,0-7.378-3.303-7.378-7.378c0-0.003,0-0.006,0-0.009s0-0.006,0-0.009
			c0-4.075,3.303-7.378,7.378-7.378c0.001,0,0.002,0,0.002,0h17.021c0.001,0,0.002,0,0.002,0c4.075,0,7.378,3.303,7.378,7.378
			C438.902,845.024,435.599,848.328,431.524,848.328z M978.068,840.967c0,4.075-3.303,7.378-7.378,7.378
			c-0.115,0-0.228-0.012-0.342-0.017h-16.684v0c-4.075,0-7.378-3.303-7.378-7.378c0-4.075,3.303-7.378,7.378-7.378
			c0.001,0,0.002,0,0.002,0h17.021c0.001,0,0.002,0,0.002,0c4.075,0,7.378,3.303,7.378,7.378c0,0.003,0,0.006,0,0.009
			S978.068,840.964,978.068,840.967z"/>
	</g>
</g>
<g>
	<g>
		<path style="fill:#8DC63F;" d="M999.067,344.507v-2.838v-71.086H386.12v71.086h0v2.838h-14.189v136.21h14.189v2.838h0v28.522
			H573.41v-14.189h238.368v14.189h187.289v-28.522v-2.838h14.189v-136.21H999.067z M431.524,335.427c-0.001,0-0.002,0-0.002,0H414.5
			c-0.001,0-0.002,0-0.002,0c-4.075,0-7.378-3.303-7.378-7.378c0-4.075,3.303-7.378,7.378-7.378v0h17.026v0
			c4.075,0,7.378,3.303,7.378,7.378C438.902,332.123,435.599,335.427,431.524,335.427z M574.828,299.671h-96.482v-15.607h96.482
			V299.671z M906.841,299.671h-96.482v-15.607h96.482V299.671z M970.69,335.427c-0.001,0-0.002,0-0.002,0h-17.021
			c-0.001,0-0.002,0-0.002,0c-4.075,0-7.378-3.303-7.378-7.378c0-4.075,3.303-7.378,7.378-7.378v0h17.026v0
			c4.075,0,7.378,3.303,7.378,7.378C978.068,332.123,974.765,335.427,970.69,335.427z"/>
	</g>
</g>
<g>
	<g>
		<path style="fill:#39B54A;" d="M1013.256,680.493v-136.21h-14.189v-2.838h0v-28.522H811.778v14.189H573.41v-14.189H386.12v28.522
			v2.838h-14.189v136.21h14.189v2.838v71.086h612.947v-71.086h0v-2.838H1013.256z M431.524,704.33L431.524,704.33l-17.026,0v0
			c-4.075,0-7.378-3.303-7.378-7.378c0-4.075,3.303-7.378,7.378-7.378c0.001,0,0.002,0,0.002,0h17.021c0.001,0,0.002,0,0.002,0
			c4.075,0,7.378,3.303,7.378,7.378C438.902,701.027,435.599,704.33,431.524,704.33z M574.828,740.937h-96.482V725.33h96.482
			V740.937z M906.841,740.937h-96.482V725.33h96.482V740.937z M970.69,704.33L970.69,704.33l-17.026,0v0
			c-4.075,0-7.378-3.303-7.378-7.378c0-4.075,3.303-7.378,7.378-7.378c0.001,0,0.002,0,0.002,0h17.021c0.001,0,0.002,0,0.002,0
			c4.075,0,7.378,3.303,7.378,7.378C978.068,701.027,974.765,704.33,970.69,704.33z"/>
	</g>
</g>
<g>
	<g>
		<path style="fill:#FF00FF;" d="M1038.791,270.584l0.04,483.308h257.914v-169.96h88.439V270.584L1038.791,270.584z
			 M1350.131,327.986c0-4.07,3.3-7.37,7.37-7.37c4.07,0,7.37,3.3,7.37,7.37v48.756c0,4.07-3.3,7.37-7.37,7.37
			c-4.07,0-7.37-3.3-7.37-7.37V327.986z M1284.367,320.616c0,0,0.001,0,0.001,0h48.753c0,0,0.001,0,0.001,0s0.001,0,0.001,0h0.566
			v0.029c3.804,0.291,6.802,3.463,6.802,7.341s-2.998,7.051-6.802,7.341v0.004h-0.085c-0.16,0.01-0.32,0.024-0.483,0.024
			s-0.322-0.014-0.483-0.024h-47.791c-0.16,0.01-0.32,0.024-0.483,0.024c-4.07,0-7.37-3.3-7.37-7.37
			S1280.297,320.616,1284.367,320.616z M1340.493,352.364c0,4.07-3.3,7.37-7.37,7.37s-7.37-3.3-7.37-7.37s3.3-7.37,7.37-7.37
			S1340.493,348.294,1340.493,352.364z M1308.745,384.112c-4.07,0-7.37-3.3-7.37-7.37v-24.378c0-4.07,3.3-7.37,7.37-7.37
			s7.37,3.3,7.37,7.37v24.378C1316.115,380.813,1312.816,384.112,1308.745,384.112z M1316.115,401.12c0,4.07-3.3,7.37-7.37,7.37
			h-24.378c-4.07,0-7.37-3.3-7.37-7.37c0-4.07,3.3-7.37,7.37-7.37h24.378C1312.816,393.75,1316.115,397.05,1316.115,401.12z
			 M1276.997,352.364c0-4.07,3.3-7.37,7.37-7.37c4.07,0,7.37,3.3,7.37,7.37v24.378c0,4.07-3.3,7.37-7.37,7.37
			c-4.07,0-7.37-3.3-7.37-7.37V352.364z M1284.367,418.128c0,0,0.001,0,0.001,0h48.753c0,0,0.001,0,0.001,0s0.001,0,0.001,0h0.566
			v0.029c3.804,0.291,6.802,3.463,6.802,7.341s-2.998,7.051-6.802,7.341v0.004h-0.085c-0.16,0.01-0.32,0.024-0.483,0.024
			s-0.322-0.014-0.483-0.024h-47.791c-0.16,0.01-0.32,0.024-0.483,0.024c-4.07,0-7.37-3.3-7.37-7.37
			S1280.297,418.128,1284.367,418.128z M1284.367,442.506c0,0,0.001,0,0.001,0h48.753c0,0,0.001,0,0.001,0s0.001,0,0.001,0h0.566
			v0.029c3.804,0.291,6.802,3.463,6.802,7.341s-2.998,7.051-6.802,7.341v0.004h-0.085c-0.16,0.01-0.32,0.024-0.483,0.024
			s-0.322-0.014-0.483-0.024h-47.791c-0.16,0.01-0.32,0.024-0.483,0.024c-4.07,0-7.37-3.3-7.37-7.37
			S1280.297,442.506,1284.367,442.506z M1340.493,474.254c0,4.07-3.3,7.37-7.37,7.37s-7.37-3.3-7.37-7.37c0-4.07,3.3-7.37,7.37-7.37
			S1340.493,470.184,1340.493,474.254z M1308.745,506.002c-4.07,0-7.37-3.3-7.37-7.37v-24.378c0-4.07,3.3-7.37,7.37-7.37
			s7.37,3.3,7.37,7.37v24.378C1316.115,502.702,1312.816,506.002,1308.745,506.002z M1316.115,523.01c0,4.07-3.3,7.37-7.37,7.37
			h-24.378c-4.07,0-7.37-3.3-7.37-7.37c0-4.07,3.3-7.37,7.37-7.37h24.378C1312.816,515.64,1316.115,518.939,1316.115,523.01z
			 M1276.997,474.254c0-4.07,3.3-7.37,7.37-7.37c4.07,0,7.37,3.3,7.37,7.37v24.378c0,4.07-3.3,7.37-7.37,7.37
			c-4.07,0-7.37-3.3-7.37-7.37V474.254z M1208.869,284.049h56.693v15.591h-56.693V284.049z M1267.546,327.986v24.378
			c0,4.07-3.3,7.37-7.37,7.37c-4.07,0-7.37-3.3-7.37-7.37v-24.378c0-4.07,3.3-7.37,7.37-7.37
			C1264.246,320.616,1267.546,323.916,1267.546,327.986z M1235.798,515.64c4.071,0,7.37,3.3,7.37,7.37v48.756
			c0,4.07-3.3,7.37-7.37,7.37c-4.07,0-7.37-3.3-7.37-7.37V523.01C1228.428,518.939,1231.728,515.64,1235.798,515.64z
			 M1228.428,498.632v-48.756c0-4.07,3.3-7.37,7.37-7.37c4.071,0,7.37,3.3,7.37,7.37v48.756c0,4.07-3.3,7.37-7.37,7.37
			C1231.728,506.002,1228.428,502.702,1228.428,498.632z M1235.798,588.749c4.071,0,7.37,3.3,7.37,7.37v48.756
			c0,4.07-3.3,7.37-7.37,7.37c-4.07,0-7.37-3.3-7.37-7.37v-48.756C1228.428,592.049,1231.728,588.749,1235.798,588.749z
			 M1228.429,669.253c0-4.07,3.3-7.37,7.37-7.37s7.37,3.3,7.37,7.37v27.237c0,4.07-3.3,7.37-7.37,7.37s-7.37-3.3-7.37-7.37V669.253z
			 M1235.799,432.868c-4.07,0-7.37-3.3-7.37-7.37V401.12c0-4.07,3.3-7.37,7.37-7.37s7.37,3.3,7.37,7.37v24.378
			C1243.169,429.568,1239.87,432.868,1235.799,432.868z M1228.428,376.742v-48.756c0-4.07,3.3-7.37,7.37-7.37
			c4.071,0,7.37,3.3,7.37,7.37v48.756c0,4.07-3.3,7.37-7.37,7.37C1231.728,384.112,1228.428,380.813,1228.428,376.742z
			 M1138.473,652.27c-4.07,0-7.37-3.3-7.37-7.37v-24.378c0-4.07,3.3-7.37,7.37-7.37c4.07,0,7.37,3.3,7.37,7.37V644.9
			C1145.843,648.97,1142.543,652.27,1138.473,652.27z M1145.843,669.277c0,4.07-3.3,7.37-7.37,7.37c-4.07,0-7.37-3.3-7.37-7.37
			s3.3-7.37,7.37-7.37C1142.543,661.907,1145.843,665.207,1145.843,669.277z M1138.769,603.489c-0.16,0.01-0.32,0.024-0.483,0.024
			c-4.07,0-7.37-3.3-7.37-7.37s3.3-7.37,7.37-7.37c0,0,0.001,0,0.001,0h48.753c0,0,0.001,0,0.001,0c0,0,0.001,0,0.001,0h0.566v0.029
			c3.804,0.291,6.802,3.463,6.802,7.341s-2.998,7.051-6.802,7.341v0.004h-0.085c-0.16,0.01-0.32,0.024-0.483,0.024
			c-0.163,0-0.322-0.014-0.483-0.024H1138.769z M1138.286,369.372c4.07,0,7.37,3.3,7.37,7.37s-3.3,7.37-7.37,7.37
			c-4.07,0-7.37-3.3-7.37-7.37S1134.216,369.372,1138.286,369.372z M1131.008,352.458c0-4.07,3.3-7.37,7.37-7.37
			c4.07,0,7.37,3.3,7.37,7.37c0,4.07-3.3,7.37-7.37,7.37C1134.308,359.828,1131.008,356.528,1131.008,352.458z M1138.286,393.75
			c0,0,0.001,0,0.001,0h48.753c0,0,0.001,0,0.001,0c0,0,0.001,0,0.001,0h0.566v0.029c3.804,0.291,6.802,3.463,6.802,7.341
			s-2.998,7.051-6.802,7.341v0.004h-0.085c-0.16,0.01-0.32,0.024-0.483,0.024c-0.163,0-0.322-0.014-0.483-0.024h-47.791
			c-0.16,0.01-0.32,0.024-0.483,0.024c-4.07,0-7.37-3.3-7.37-7.37S1134.216,393.75,1138.286,393.75z M1155.294,376.742v-24.378
			c0-4.07,3.3-7.37,7.37-7.37c4.07,0,7.37,3.3,7.37,7.37v24.378c0,4.07-3.3,7.37-7.37,7.37
			C1158.594,384.112,1155.294,380.813,1155.294,376.742z M1218.79,425.498c0,3.879-2.998,7.051-6.802,7.341v0.004h-0.085
			c-0.16,0.01-0.32,0.024-0.483,0.024c-0.163,0-0.322-0.014-0.483-0.024h-47.791c-0.16,0.01-0.32,0.024-0.483,0.024
			c-4.07,0-7.37-3.3-7.37-7.37s3.3-7.37,7.37-7.37c0,0,0.001,0,0.001,0h48.753c0,0,0.001,0,0.001,0c0,0,0.001,0,0.001,0h0.566v0.029
			C1215.792,418.447,1218.79,421.619,1218.79,425.498z M1218.79,523.01c0,3.879-2.998,7.051-6.802,7.341v0.004h-0.085
			c-0.16,0.01-0.32,0.024-0.483,0.024c-0.163,0-0.322-0.014-0.483-0.024h-47.791c-0.16,0.01-0.32,0.024-0.483,0.024
			c-4.07,0-7.37-3.3-7.37-7.37s3.3-7.37,7.37-7.37c0,0,0.001,0,0.001,0h48.753c0,0,0.001,0,0.001,0c0,0,0.001,0,0.001,0h0.566v0.029
			C1215.792,515.959,1218.79,519.131,1218.79,523.01z M1218.79,547.388c0,4.07-3.3,7.37-7.37,7.37c-4.07,0-7.37-3.3-7.37-7.37
			s3.3-7.37,7.37-7.37C1215.49,540.018,1218.79,543.317,1218.79,547.388z M1194.413,547.388v24.378c0,4.07-3.3,7.37-7.37,7.37
			c-4.07,0-7.37-3.3-7.37-7.37v-24.378c0-4.07,3.3-7.37,7.37-7.37C1191.113,540.018,1194.413,543.317,1194.413,547.388z
			 M1170.034,547.388v24.378c0,4.07-3.3,7.37-7.37,7.37c-4.07,0-7.37-3.3-7.37-7.37v-24.378c0-4.07,3.3-7.37,7.37-7.37
			C1166.734,540.018,1170.034,543.317,1170.034,547.388z M1194.413,474.254c0,4.07-3.3,7.37-7.37,7.37c-4.07,0-7.37-3.3-7.37-7.37
			v-24.378c0-4.07,3.3-7.37,7.37-7.37c4.07,0,7.37,3.3,7.37,7.37V474.254z M1218.79,449.876c0,4.07-3.3,7.37-7.37,7.37
			c-4.07,0-7.37-3.3-7.37-7.37c0-4.07,3.3-7.37,7.37-7.37C1215.49,442.506,1218.79,445.806,1218.79,449.876z M1170.034,449.876
			v24.378c0,4.07-3.3,7.37-7.37,7.37c-4.07,0-7.37-3.3-7.37-7.37v-24.378c0-4.07,3.3-7.37,7.37-7.37
			C1166.734,442.506,1170.034,445.806,1170.034,449.876z M1194.413,376.742c0,4.07-3.3,7.37-7.37,7.37c-4.07,0-7.37-3.3-7.37-7.37
			v-24.378c0-4.07,3.3-7.37,7.37-7.37c4.07,0,7.37,3.3,7.37,7.37V376.742z M1145.843,425.498v24.378c0,4.07-3.3,7.37-7.37,7.37
			c-4.07,0-7.37-3.3-7.37-7.37v-24.378c0-4.07,3.3-7.37,7.37-7.37C1142.543,418.128,1145.843,421.428,1145.843,425.498z
			 M1138.286,466.884c4.07,0,7.37,3.3,7.37,7.37c0,4.07-3.3,7.37-7.37,7.37c-4.07,0-7.37-3.3-7.37-7.37
			C1130.916,470.184,1134.216,466.884,1138.286,466.884z M1138.286,491.262c0,0,0.001,0,0.001,0h48.753c0,0,0.001,0,0.001,0
			c0,0,0.001,0,0.001,0h0.566v0.029c3.804,0.291,6.802,3.463,6.802,7.341s-2.998,7.051-6.802,7.341v0.004h-0.085
			c-0.16,0.01-0.32,0.024-0.483,0.024c-0.163,0-0.322-0.014-0.483-0.024h-47.791c-0.16,0.01-0.32,0.024-0.483,0.024
			c-4.07,0-7.37-3.3-7.37-7.37S1134.216,491.262,1138.286,491.262z M1145.843,523.01v24.378c0,4.07-3.3,7.37-7.37,7.37
			c-4.07,0-7.37-3.3-7.37-7.37V523.01c0-4.07,3.3-7.37,7.37-7.37C1142.543,515.64,1145.843,518.94,1145.843,523.01z
			 M1138.286,564.396c4.07,0,7.37,3.3,7.37,7.37s-3.3,7.37-7.37,7.37c-4.07,0-7.37-3.3-7.37-7.37S1134.216,564.396,1138.286,564.396
			z M1155.294,644.9c0-4.07,3.3-7.37,7.37-7.37c4.07,0,7.37,3.3,7.37,7.37v24.378c0,4.07-3.3,7.37-7.37,7.37
			c-4.07,0-7.37-3.3-7.37-7.37V644.9z M1163.147,627.867c-0.16,0.01-0.32,0.024-0.483,0.024c-4.07,0-7.37-3.3-7.37-7.37
			s3.3-7.37,7.37-7.37c0,0,0.001,0,0.001,0h48.753c0,0,0.001,0,0.001,0c0,0,0.001,0,0.001,0h0.566v0.029
			c3.804,0.291,6.802,3.463,6.802,7.341s-2.998,7.051-6.802,7.341v0.004h-0.085c-0.16,0.01-0.32,0.024-0.483,0.024
			c-0.163,0-0.322-0.014-0.483-0.024H1163.147z M1211.42,603.514c-4.07,0-7.37-3.3-7.37-7.37v-24.378c0-4.07,3.3-7.37,7.37-7.37
			c4.071,0,7.37,3.3,7.37,7.37v24.378C1218.791,600.214,1215.491,603.514,1211.42,603.514z M1211.42,506.002
			c-4.07,0-7.37-3.3-7.37-7.37v-24.378c0-4.07,3.3-7.37,7.37-7.37c4.071,0,7.37,3.3,7.37,7.37v24.378
			C1218.791,502.702,1215.491,506.002,1211.42,506.002z M1211.42,408.49c-4.07,0-7.37-3.3-7.37-7.37v-24.378
			c0-4.07,3.3-7.37,7.37-7.37c4.071,0,7.37,3.3,7.37,7.37v24.378C1218.791,405.191,1215.491,408.49,1211.42,408.49z
			 M1204.05,352.364c0-4.07,3.3-7.37,7.37-7.37c4.071,0,7.37,3.3,7.37,7.37s-3.3,7.37-7.37,7.37
			C1207.35,359.734,1204.05,356.435,1204.05,352.364z M1187.042,320.616h24.378c4.07,0,7.37,3.3,7.37,7.37
			c0,4.07-3.3,7.37-7.37,7.37h-24.378c-4.07,0-7.37-3.3-7.37-7.37C1179.672,323.916,1182.972,320.616,1187.042,320.616z
			 M1170.034,327.986c0,4.07-3.3,7.37-7.37,7.37h-24.378c-4.07,0-7.37-3.3-7.37-7.37c0-4.07,3.3-7.37,7.37-7.37h24.378
			C1166.735,320.616,1170.034,323.916,1170.034,327.986z M1086.979,284.049h56.693v15.591h-56.693V284.049z M1121.372,328.08v24.378
			c0,4.07-3.3,7.37-7.37,7.37c-4.07,0-7.37-3.3-7.37-7.37v-17.195h-9.755c-4.07,0-7.37-3.3-7.37-7.37c0-4.07,3.3-7.37,7.37-7.37
			h17.125c4.07,0,7.37,3.3,7.37,7.37c0,0.032-0.004,0.062-0.005,0.093C1121.367,328.018,1121.372,328.048,1121.372,328.08z
			 M1106.538,571.766c0,0,0-0.001,0-0.001v-0.566h0.029c0.291-3.804,3.463-6.803,7.342-6.803c3.879,0,7.051,2.998,7.341,6.803h0.004
			v0.085c0.01,0.16,0.024,0.32,0.024,0.483s-0.014,0.322-0.024,0.483l0.024,72.651c0,4.07-3.3,7.37-7.37,7.37
			c-4.07,0-7.37-3.3-7.37-7.37c0,0,0-24.379,0-24.379v-48.753C1106.538,571.767,1106.538,571.766,1106.538,571.766z
			 M1106.538,498.632c0,0,0-0.001,0-0.001v-0.566h0.029c0.291-3.804,3.463-6.803,7.342-6.803c3.879,0,7.051,2.998,7.341,6.803h0.004
			v0.085c0.01,0.16,0.024,0.32,0.024,0.483s-0.014,0.322-0.024,0.483v47.791c0.01,0.16,0.024,0.32,0.024,0.483
			c0,4.07-3.3,7.37-7.37,7.37c-4.07,0-7.37-3.3-7.37-7.37c0,0,0-0.001,0-0.001v-48.753
			C1106.538,498.633,1106.538,498.632,1106.538,498.632z M1106.538,376.742c0,0,0-0.001,0-0.001v-0.566h0.029
			c0.291-3.804,3.463-6.803,7.342-6.803c3.879,0,7.051,2.998,7.341,6.803h0.004v0.085c0.01,0.16,0.024,0.32,0.024,0.483
			s-0.014,0.322-0.024,0.483v47.791c0.01,0.16,0.024,0.32,0.024,0.483c0,4.07-3.3,7.37-7.37,7.37c-4.07,0-7.37-3.3-7.37-7.37
			c0,0,0-0.001,0-0.001v-48.753C1106.538,376.743,1106.538,376.743,1106.538,376.742z M1106.538,669.277c0-4.07,3.3-7.37,7.37-7.37
			s7.37,3.3,7.37,7.37v27.237c0,4.07-3.3,7.37-7.37,7.37c-0.117,0-0.232-0.012-0.348-0.018c-0.117,0.005-0.231,0.018-0.349,0.018
			h-16.335c-4.07,0-7.37-3.3-7.37-7.37c0-4.07,3.3-7.37,7.37-7.37h9.661V669.277z M1113.908,481.624c-4.07,0-7.37-3.3-7.37-7.37
			v-24.378c0-4.07,3.3-7.37,7.37-7.37s7.37,3.3,7.37,7.37v24.378C1121.278,478.324,1117.979,481.624,1113.908,481.624z
			 M1068.554,682.038h-15.591V540.306h15.591V682.038z M1068.554,483.325h-15.591V341.593h15.591V483.325z M1143.672,740.428
			h-56.693v-15.591h56.693V740.428z M1187.042,703.885h-48.569c-4.07,0-7.37-3.3-7.37-7.37c0-4.07,3.3-7.37,7.37-7.37h48.569
			c4.07,0,7.37,3.3,7.37,7.37C1194.413,700.585,1191.113,703.885,1187.042,703.885z M1194.413,669.277c0,4.07-3.3,7.37-7.37,7.37
			c-4.07,0-7.37-3.3-7.37-7.37V644.9c0-4.07,3.3-7.37,7.37-7.37c4.07,0,7.37,3.3,7.37,7.37V669.277z M1211.42,637.529
			c4.071,0,7.37,3.3,7.37,7.37s-3.3,7.37-7.37,7.37c-4.07,0-7.37-3.3-7.37-7.37S1207.35,637.529,1211.42,637.529z M1204.05,696.49
			v-27.213c0-4.07,3.3-7.37,7.37-7.37c4.071,0,7.37,3.3,7.37,7.37v27.213c0,4.07-3.3,7.37-7.37,7.37
			C1207.35,703.86,1204.05,700.561,1204.05,696.49z M1265.562,740.428h-56.693v-15.591h56.693V740.428z M1267.546,696.49
			c0,4.07-3.3,7.37-7.37,7.37c-4.07,0-7.37-3.3-7.37-7.37v-27.237c0-4.07,3.3-7.37,7.37-7.37c4.071,0,7.37,3.3,7.37,7.37V696.49z
			 M1267.546,644.9c0,4.07-3.3,7.37-7.37,7.37c-4.07,0-7.37-3.3-7.37-7.37v-24.378c0-4.07,3.3-7.37,7.37-7.37
			c4.071,0,7.37,3.3,7.37,7.37V644.9z M1267.546,596.144c0,4.07-3.3,7.37-7.37,7.37c-4.07,0-7.37-3.3-7.37-7.37v-24.378
			c0-4.07,3.3-7.37,7.37-7.37c4.071,0,7.37,3.3,7.37,7.37V596.144z M1267.546,547.388c0,4.07-3.3,7.37-7.37,7.37
			c-4.07,0-7.37-3.3-7.37-7.37V523.01c0-4.07,3.3-7.37,7.37-7.37c4.071,0,7.37,3.3,7.37,7.37V547.388z M1267.546,498.632
			c0,4.07-3.3,7.37-7.37,7.37c-4.07,0-7.37-3.3-7.37-7.37v-24.378c0-4.07,3.3-7.37,7.37-7.37c4.071,0,7.37,3.3,7.37,7.37V498.632z
			 M1267.546,449.876c0,4.07-3.3,7.37-7.37,7.37c-4.07,0-7.37-3.3-7.37-7.37v-24.378c0-4.07,3.3-7.37,7.37-7.37
			c4.071,0,7.37,3.3,7.37,7.37V449.876z M1267.547,401.121c0,4.07-3.3,7.37-7.37,7.37c-4.07,0-7.37-3.3-7.37-7.37v-24.378
			c0-4.07,3.3-7.37,7.37-7.37c4.07,0,7.37,3.3,7.37,7.37V401.121z M1333.69,554.729v0.004h-0.085c-0.16,0.01-0.32,0.024-0.483,0.024
			s-0.322-0.014-0.483-0.024h-47.791c-0.16,0.01-0.32,0.024-0.483,0.024c-4.07,0-7.37-3.3-7.37-7.37s3.3-7.37,7.37-7.37
			c0,0,0.001,0,0.001,0h48.753c0,0,0.001,0,0.001,0s0.001,0,0.001,0h0.566v0.029c3.804,0.291,6.802,3.463,6.802,7.341
			S1337.495,554.438,1333.69,554.729z M1340.493,523.01c0,4.07-3.3,7.37-7.37,7.37c-4.07,0-7.37-3.3-7.37-7.37v-24.378
			c0-4.07,3.3-7.37,7.37-7.37c4.07,0,7.37,3.3,7.37,7.37V523.01z M1340.493,401.12c0,4.07-3.3,7.37-7.37,7.37
			c-4.07,0-7.37-3.3-7.37-7.37v-24.378c0-4.07,3.3-7.37,7.37-7.37c4.07,0,7.37,3.3,7.37,7.37V401.12z M1350.131,449.876
			c0-4.07,3.3-7.37,7.37-7.37c4.07,0,7.37,3.3,7.37,7.37v48.756c0,4.07-3.3,7.37-7.37,7.37c-4.07,0-7.37-3.3-7.37-7.37V449.876z
			 M1364.872,547.388c0,4.07-3.3,7.37-7.37,7.37c-4.07,0-7.37-3.3-7.37-7.37V523.01c0-4.07,3.3-7.37,7.37-7.37
			c4.071,0,7.37,3.3,7.37,7.37V547.388z M1364.872,425.498c0,4.07-3.3,7.37-7.37,7.37c-4.07,0-7.37-3.3-7.37-7.37V401.12
			c0-4.07,3.3-7.37,7.37-7.37c4.071,0,7.37,3.3,7.37,7.37V425.498z"/>
	</g>
</g>
<g>
	<g>
		<path style="fill:#231F20;" d="M0,270.584v313.348h88.439v169.96h257.914l0.04-483.308L0,270.584z M222.52,320.616h24.378
			c4.07,0,7.37,3.3,7.37,7.37c0,4.07-3.3,7.37-7.37,7.37H222.52c-4.07,0-7.37-3.3-7.37-7.37
			C215.149,323.916,218.449,320.616,222.52,320.616z M246.711,652.27c-4.07,0-7.37-3.3-7.37-7.37v-24.378c0-4.07,3.3-7.37,7.37-7.37
			c4.07,0,7.37,3.3,7.37,7.37V644.9C254.081,648.97,250.781,652.27,246.711,652.27z M254.081,669.277c0,4.07-3.3,7.37-7.37,7.37
			s-7.37-3.3-7.37-7.37s3.3-7.37,7.37-7.37S254.081,665.207,254.081,669.277z M246.898,603.514c-0.163,0-0.322-0.014-0.483-0.024
			h-47.791c-0.16,0.01-0.32,0.024-0.483,0.024s-0.322-0.014-0.483-0.024h-0.085v-0.004c-3.804-0.291-6.803-3.463-6.803-7.341
			s2.998-7.051,6.803-7.341v-0.029h0.566c0,0,0.001,0,0.001,0s0.001,0,0.001,0h48.753c0,0,0.001,0,0.001,0
			c4.07,0,7.37,3.3,7.37,7.37S250.968,603.514,246.898,603.514z M222.52,627.892c-0.163,0-0.322-0.014-0.483-0.024h-47.791
			c-0.16,0.01-0.32,0.024-0.483,0.024s-0.322-0.014-0.483-0.024h-0.085v-0.004c-3.804-0.291-6.803-3.463-6.803-7.341
			s2.998-7.051,6.803-7.341v-0.029h0.566c0,0,0.001,0,0.001,0s0.001,0,0.001,0h48.753c0,0,0.001,0,0.001,0
			c4.07,0,7.37,3.3,7.37,7.37S226.59,627.892,222.52,627.892z M229.89,644.9v24.378c0,4.07-3.3,7.37-7.37,7.37
			c-4.07,0-7.37-3.3-7.37-7.37V644.9c0-4.07,3.3-7.37,7.37-7.37C226.59,637.529,229.89,640.829,229.89,644.9z M205.511,644.9v24.378
			c0,4.07-3.3,7.37-7.37,7.37c-4.07,0-7.37-3.3-7.37-7.37V644.9c0-4.07,3.3-7.37,7.37-7.37
			C202.212,637.529,205.511,640.829,205.511,644.9z M222.52,432.868c-0.163,0-0.322-0.014-0.483-0.024h-47.791
			c-0.16,0.01-0.32,0.024-0.483,0.024s-0.322-0.014-0.483-0.024h-0.085v-0.004c-3.804-0.291-6.803-3.463-6.803-7.341
			s2.998-7.051,6.803-7.341v-0.029h0.566c0,0,0.001,0,0.001,0s0.001,0,0.001,0h48.753c0,0,0.001,0,0.001,0
			c4.07,0,7.37,3.3,7.37,7.37S226.59,432.868,222.52,432.868z M229.89,449.876v24.378c0,4.07-3.3,7.37-7.37,7.37
			c-4.07,0-7.37-3.3-7.37-7.37v-24.378c0-4.07,3.3-7.37,7.37-7.37C226.59,442.506,229.89,445.806,229.89,449.876z M222.52,530.38
			c-0.163,0-0.322-0.014-0.483-0.024h-47.791c-0.16,0.01-0.32,0.024-0.483,0.024s-0.322-0.014-0.483-0.024h-0.085v-0.004
			c-3.804-0.291-6.803-3.463-6.803-7.341s2.998-7.051,6.803-7.341v-0.029h0.566c0,0,0.001,0,0.001,0s0.001,0,0.001,0h48.753
			c0,0,0.001,0,0.001,0c4.07,0,7.37,3.3,7.37,7.37S226.59,530.38,222.52,530.38z M229.89,547.388v24.378c0,4.07-3.3,7.37-7.37,7.37
			c-4.07,0-7.37-3.3-7.37-7.37v-24.378c0-4.07,3.3-7.37,7.37-7.37C226.59,540.018,229.89,543.317,229.89,547.388z M205.511,547.388
			v24.378c0,4.07-3.3,7.37-7.37,7.37c-4.07,0-7.37-3.3-7.37-7.37v-24.378c0-4.07,3.3-7.37,7.37-7.37
			C202.212,540.018,205.511,543.317,205.511,547.388z M181.134,547.388c0,4.07-3.3,7.37-7.37,7.37s-7.37-3.3-7.37-7.37
			s3.3-7.37,7.37-7.37S181.134,543.317,181.134,547.388z M205.511,449.876v24.378c0,4.07-3.3,7.37-7.37,7.37
			c-4.07,0-7.37-3.3-7.37-7.37v-24.378c0-4.07,3.3-7.37,7.37-7.37C202.212,442.506,205.511,445.806,205.511,449.876z
			 M181.134,449.876c0,4.07-3.3,7.37-7.37,7.37s-7.37-3.3-7.37-7.37c0-4.07,3.3-7.37,7.37-7.37S181.134,445.806,181.134,449.876z
			 M173.763,369.372c4.07,0,7.37,3.3,7.37,7.37v24.378c0,4.07-3.3,7.37-7.37,7.37c-4.07,0-7.37-3.3-7.37-7.37v-24.378
			C166.393,372.672,169.693,369.372,173.763,369.372z M166.394,352.364c0-4.07,3.3-7.37,7.37-7.37s7.37,3.3,7.37,7.37
			s-3.3,7.37-7.37,7.37S166.394,356.435,166.394,352.364z M173.763,466.884c4.07,0,7.37,3.3,7.37,7.37v24.378
			c0,4.07-3.3,7.37-7.37,7.37c-4.07,0-7.37-3.3-7.37-7.37v-24.378C166.393,470.184,169.693,466.884,173.763,466.884z
			 M173.763,564.396c4.07,0,7.37,3.3,7.37,7.37v24.378c0,4.07-3.3,7.37-7.37,7.37c-4.07,0-7.37-3.3-7.37-7.37v-24.378
			C166.393,567.695,169.693,564.396,173.763,564.396z M246.898,579.136c-4.07,0-7.37-3.3-7.37-7.37s3.3-7.37,7.37-7.37
			c4.07,0,7.37,3.3,7.37,7.37S250.968,579.136,246.898,579.136z M239.341,547.388V523.01c0-4.07,3.3-7.37,7.37-7.37
			c4.07,0,7.37,3.3,7.37,7.37v24.378c0,4.07-3.3,7.37-7.37,7.37C242.64,554.758,239.341,551.458,239.341,547.388z M246.898,506.002
			c-0.163,0-0.322-0.014-0.483-0.024h-47.791c-0.16,0.01-0.32,0.024-0.483,0.024s-0.322-0.014-0.483-0.024h-0.085v-0.004
			c-3.804-0.291-6.803-3.463-6.803-7.341s2.998-7.051,6.803-7.341v-0.029h0.566c0,0,0.001,0,0.001,0s0.001,0,0.001,0h48.753
			c0,0,0.001,0,0.001,0c4.07,0,7.37,3.3,7.37,7.37S250.968,506.002,246.898,506.002z M246.898,481.624c-4.07,0-7.37-3.3-7.37-7.37
			c0-4.07,3.3-7.37,7.37-7.37c4.07,0,7.37,3.3,7.37,7.37C254.268,478.324,250.968,481.624,246.898,481.624z M239.341,449.876
			v-24.378c0-4.07,3.3-7.37,7.37-7.37c4.07,0,7.37,3.3,7.37,7.37v24.378c0,4.07-3.3,7.37-7.37,7.37
			C242.64,457.246,239.341,453.946,239.341,449.876z M246.898,408.49c-0.163,0-0.322-0.014-0.483-0.024h-47.791
			c-0.16,0.01-0.32,0.024-0.483,0.024s-0.322-0.014-0.483-0.024h-0.085v-0.004c-3.804-0.291-6.803-3.463-6.803-7.341
			s2.998-7.051,6.803-7.341v-0.029h0.566c0,0,0.001,0,0.001,0s0.001,0,0.001,0h48.753c0,0,0.001,0,0.001,0
			c4.07,0,7.37,3.3,7.37,7.37S250.968,408.49,246.898,408.49z M190.771,376.742v-24.378c0-4.07,3.3-7.37,7.37-7.37
			c4.07,0,7.37,3.3,7.37,7.37v24.378c0,4.07-3.3,7.37-7.37,7.37C194.071,384.112,190.771,380.813,190.771,376.742z M215.15,376.742
			v-24.378c0-4.07,3.3-7.37,7.37-7.37c4.07,0,7.37,3.3,7.37,7.37v24.378c0,4.07-3.3,7.37-7.37,7.37
			C218.449,384.112,215.15,380.813,215.15,376.742z M246.898,384.112c-4.07,0-7.37-3.3-7.37-7.37s3.3-7.37,7.37-7.37
			c4.07,0,7.37,3.3,7.37,7.37S250.968,384.112,246.898,384.112z M239.435,352.458c0-4.07,3.3-7.37,7.37-7.37s7.37,3.3,7.37,7.37
			c0,4.07-3.3,7.37-7.37,7.37S239.435,356.528,239.435,352.458z M205.512,327.986c0,4.07-3.3,7.37-7.37,7.37h-24.378
			c-4.07,0-7.37-3.3-7.37-7.37c0-4.07,3.3-7.37,7.37-7.37h24.378C202.212,320.616,205.512,323.916,205.512,327.986z
			 M119.622,284.049h56.693v15.591h-56.693V284.049z M149.386,652.245c-4.07,0-7.37-3.3-7.37-7.37v-48.756
			c0-4.07,3.3-7.37,7.37-7.37c4.07,0,7.37,3.3,7.37,7.37v48.756C156.756,648.945,153.456,652.245,149.386,652.245z M156.755,669.253
			v27.237c0,4.07-3.3,7.37-7.37,7.37c-4.07,0-7.37-3.3-7.37-7.37v-27.237c0-4.07,3.3-7.37,7.37-7.37
			C153.455,661.883,156.755,665.183,156.755,669.253z M142.015,425.498V401.12c0-4.07,3.3-7.37,7.37-7.37c4.07,0,7.37,3.3,7.37,7.37
			v24.378c0,4.07-3.3,7.37-7.37,7.37C145.314,432.868,142.015,429.568,142.015,425.498z M149.386,579.136
			c-4.07,0-7.37-3.3-7.37-7.37V523.01c0-4.07,3.3-7.37,7.37-7.37c4.07,0,7.37,3.3,7.37,7.37v48.756
			C156.756,575.836,153.456,579.136,149.386,579.136z M149.386,506.002c-4.07,0-7.37-3.3-7.37-7.37v-48.756
			c0-4.07,3.3-7.37,7.37-7.37c4.07,0,7.37,3.3,7.37,7.37v48.756C156.756,502.702,153.456,506.002,149.386,506.002z M149.386,384.112
			c-4.07,0-7.37-3.3-7.37-7.37v-48.756c0-4.07,3.3-7.37,7.37-7.37c4.07,0,7.37,3.3,7.37,7.37v48.756
			C156.756,380.813,153.456,384.112,149.386,384.112z M117.638,327.986c0-4.07,3.3-7.37,7.37-7.37c4.07,0,7.37,3.3,7.37,7.37v24.378
			c0,4.07-3.3,7.37-7.37,7.37c-4.07,0-7.37-3.3-7.37-7.37V327.986z M125.008,603.514c-4.07,0-7.37-3.3-7.37-7.37v-24.378
			c0-4.07,3.3-7.37,7.37-7.37c4.07,0,7.37,3.3,7.37,7.37v24.378C132.378,600.214,129.078,603.514,125.008,603.514z M132.378,620.522
			V644.9c0,4.07-3.3,7.37-7.37,7.37c-4.07,0-7.37-3.3-7.37-7.37v-24.378c0-4.07,3.3-7.37,7.37-7.37
			C129.078,613.152,132.378,616.451,132.378,620.522z M125.008,554.758c-4.07,0-7.37-3.3-7.37-7.37V523.01
			c0-4.07,3.3-7.37,7.37-7.37c4.07,0,7.37,3.3,7.37,7.37v24.378C132.378,551.458,129.078,554.758,125.008,554.758z M125.008,506.002
			c-4.07,0-7.37-3.3-7.37-7.37v-24.378c0-4.07,3.3-7.37,7.37-7.37c4.07,0,7.37,3.3,7.37,7.37v24.378
			C132.378,502.702,129.078,506.002,125.008,506.002z M125.008,457.246c-4.07,0-7.37-3.3-7.37-7.37v-24.378
			c0-4.07,3.3-7.37,7.37-7.37c4.07,0,7.37,3.3,7.37,7.37v24.378C132.378,453.946,129.078,457.246,125.008,457.246z M44.69,376.742
			c0-4.07,3.3-7.37,7.37-7.37c4.07,0,7.37,3.3,7.37,7.37v24.378c0,4.07-3.3,7.37-7.37,7.37c-4.07,0-7.37-3.3-7.37-7.37V376.742z
			 M44.691,352.364c0-4.07,3.3-7.37,7.37-7.37c4.07,0,7.37,3.3,7.37,7.37s-3.3,7.37-7.37,7.37
			C47.991,359.734,44.691,356.435,44.691,352.364z M20.312,401.12c0-4.07,3.3-7.37,7.37-7.37c4.07,0,7.37,3.3,7.37,7.37v24.378
			c0,4.07-3.3,7.37-7.37,7.37c-4.07,0-7.37-3.3-7.37-7.37V401.12z M35.052,547.388c0,4.07-3.3,7.37-7.37,7.37
			c-4.07,0-7.37-3.3-7.37-7.37V523.01c0-4.07,3.3-7.37,7.37-7.37c4.07,0,7.37,3.3,7.37,7.37V547.388z M35.053,498.632
			c0,4.07-3.3,7.37-7.37,7.37c-4.07,0-7.37-3.3-7.37-7.37v-48.756c0-4.07,3.3-7.37,7.37-7.37c4.07,0,7.37,3.3,7.37,7.37V498.632z
			 M35.053,376.742c0,4.07-3.3,7.37-7.37,7.37c-4.07,0-7.37-3.3-7.37-7.37v-48.756c0-4.07,3.3-7.37,7.37-7.37
			c4.07,0,7.37,3.3,7.37,7.37V376.742z M44.69,498.632c0-4.07,3.3-7.37,7.37-7.37c4.07,0,7.37,3.3,7.37,7.37v24.378
			c0,4.07-3.3,7.37-7.37,7.37c-4.07,0-7.37-3.3-7.37-7.37V498.632z M44.691,474.254c0-4.07,3.3-7.37,7.37-7.37
			c4.07,0,7.37,3.3,7.37,7.37c0,4.07-3.3,7.37-7.37,7.37C47.991,481.624,44.691,478.324,44.691,474.254z M100.817,554.758
			c-0.163,0-0.322-0.014-0.483-0.024H52.544c-0.16,0.01-0.32,0.024-0.483,0.024s-0.322-0.014-0.483-0.024h-0.085v-0.004
			c-3.804-0.291-6.803-3.463-6.803-7.341s2.998-7.051,6.803-7.341v-0.029h0.566c0,0,0.001,0,0.001,0s0.001,0,0.001,0h48.753
			c0,0,0.001,0,0.001,0c4.07,0,7.37,3.3,7.37,7.37S104.887,554.758,100.817,554.758z M76.439,515.64h24.378
			c4.07,0,7.37,3.3,7.37,7.37c0,4.07-3.3,7.37-7.37,7.37H76.439c-4.07,0-7.37-3.3-7.37-7.37
			C69.068,518.939,72.368,515.64,76.439,515.64z M69.068,498.632v-24.378c0-4.07,3.3-7.37,7.37-7.37c4.07,0,7.37,3.3,7.37,7.37
			v24.378c0,4.07-3.3,7.37-7.37,7.37C72.368,506.002,69.068,502.702,69.068,498.632z M108.187,498.632c0,4.07-3.3,7.37-7.37,7.37
			c-4.07,0-7.37-3.3-7.37-7.37v-24.378c0-4.07,3.3-7.37,7.37-7.37c4.07,0,7.37,3.3,7.37,7.37V498.632z M100.817,457.246
			c-0.163,0-0.322-0.014-0.483-0.024H52.544c-0.16,0.01-0.32,0.024-0.483,0.024s-0.322-0.014-0.483-0.024h-0.085v-0.004
			c-3.804-0.291-6.803-3.463-6.803-7.341s2.998-7.051,6.803-7.341v-0.029h0.566c0,0,0.001,0,0.001,0s0.001,0,0.001,0h48.753
			c0,0,0.001,0,0.001,0c4.07,0,7.37,3.3,7.37,7.37S104.887,457.246,100.817,457.246z M100.817,432.868
			c-0.163,0-0.322-0.014-0.483-0.024H52.544c-0.16,0.01-0.32,0.024-0.483,0.024s-0.322-0.014-0.483-0.024h-0.085v-0.004
			c-3.804-0.291-6.803-3.463-6.803-7.341s2.998-7.051,6.803-7.341v-0.029h0.566c0,0,0.001,0,0.001,0s0.001,0,0.001,0h48.753
			c0,0,0.001,0,0.001,0c4.07,0,7.37,3.3,7.37,7.37S104.887,432.868,100.817,432.868z M76.439,393.75h24.378
			c4.07,0,7.37,3.3,7.37,7.37c0,4.07-3.3,7.37-7.37,7.37H76.439c-4.07,0-7.37-3.3-7.37-7.37
			C69.068,397.05,72.368,393.75,76.439,393.75z M69.068,376.742v-24.378c0-4.07,3.3-7.37,7.37-7.37c4.07,0,7.37,3.3,7.37,7.37
			v24.378c0,4.07-3.3,7.37-7.37,7.37C72.368,384.112,69.068,380.813,69.068,376.742z M108.187,376.742c0,4.07-3.3,7.37-7.37,7.37
			c-4.07,0-7.37-3.3-7.37-7.37v-24.378c0-4.07,3.3-7.37,7.37-7.37c4.07,0,7.37,3.3,7.37,7.37V376.742z M100.817,335.357
			c-0.163,0-0.322-0.014-0.483-0.024H52.544c-0.16,0.01-0.32,0.024-0.483,0.024s-0.322-0.014-0.483-0.024h-0.085v-0.004
			c-3.804-0.291-6.803-3.463-6.803-7.341s2.998-7.051,6.803-7.341v-0.029h0.566c0,0,0.001,0,0.001,0s0.001,0,0.001,0h48.753
			c0,0,0.001,0,0.001,0c4.07,0,7.37,3.3,7.37,7.37S104.887,335.357,100.817,335.357z M117.637,376.743c0-4.07,3.3-7.37,7.37-7.37
			c4.07,0,7.37,3.3,7.37,7.37v24.378c0,4.07-3.3,7.37-7.37,7.37c-4.07,0-7.37-3.3-7.37-7.37V376.743z M117.638,669.253
			c0-4.07,3.3-7.37,7.37-7.37c4.07,0,7.37,3.3,7.37,7.37v27.237c0,4.07-3.3,7.37-7.37,7.37c-4.07,0-7.37-3.3-7.37-7.37V669.253z
			 M176.315,740.428h-56.693v-15.591h56.693V740.428z M181.133,696.49c0,4.07-3.3,7.37-7.37,7.37c-4.07,0-7.37-3.3-7.37-7.37
			v-27.213c0-4.07,3.3-7.37,7.37-7.37c4.07,0,7.37,3.3,7.37,7.37V696.49z M173.764,652.27c-4.07,0-7.37-3.3-7.37-7.37
			s3.3-7.37,7.37-7.37s7.37,3.3,7.37,7.37S177.834,652.27,173.764,652.27z M190.771,696.515c0-4.07,3.3-7.37,7.37-7.37h48.569
			c4.07,0,7.37,3.3,7.37,7.37c0,4.07-3.3,7.37-7.37,7.37h-48.569C194.071,703.885,190.771,700.585,190.771,696.515z
			 M298.205,740.428h-56.693v-15.591h56.693V740.428z M263.812,327.893c0-4.07,3.3-7.37,7.37-7.37h17.125c4.07,0,7.37,3.3,7.37,7.37
			c0,4.07-3.3,7.37-7.37,7.37h-9.755v17.195c0,4.07-3.3,7.37-7.37,7.37c-4.07,0-7.37-3.3-7.37-7.37V328.08
			c0-0.032,0.004-0.062,0.005-0.093C263.816,327.955,263.812,327.925,263.812,327.893z M263.906,376.742
			c0-0.163,0.014-0.322,0.024-0.483v-0.085h0.004c0.291-3.804,3.463-6.803,7.341-6.803s7.051,2.998,7.341,6.803h0.029v0.566
			c0,0,0,0.001,0,0.001s0,0.001,0,0.001v48.753c0,0,0,0.001,0,0.001c0,4.07-3.3,7.37-7.37,7.37s-7.37-3.3-7.37-7.37
			c0-0.163,0.014-0.322,0.024-0.483v-47.791C263.919,377.065,263.906,376.905,263.906,376.742z M278.646,547.388
			c0,4.07-3.3,7.37-7.37,7.37s-7.37-3.3-7.37-7.37c0-0.163,0.014-0.322,0.024-0.483v-47.791c-0.01-0.16-0.024-0.32-0.024-0.483
			s0.014-0.322,0.024-0.483v-0.085h0.004c0.291-3.804,3.463-6.803,7.341-6.803s7.051,2.998,7.341,6.803h0.029v0.566
			c0,0,0,0.001,0,0.001s0,0.001,0,0.001v48.753C278.646,547.387,278.646,547.387,278.646,547.388z M278.646,644.9
			c0,4.07-3.3,7.37-7.37,7.37s-7.37-3.3-7.37-7.37l0.024-72.651c-0.01-0.16-0.024-0.32-0.024-0.483s0.014-0.322,0.024-0.483v-0.085
			h0.004c0.291-3.804,3.463-6.803,7.341-6.803s7.051,2.998,7.341,6.803h0.029v0.566c0,0,0,0.001,0,0.001s0,0.001,0,0.001v48.753
			C278.646,620.521,278.646,644.899,278.646,644.9z M271.276,442.506c4.07,0,7.37,3.3,7.37,7.37v24.378c0,4.07-3.3,7.37-7.37,7.37
			c-4.07,0-7.37-3.3-7.37-7.37v-24.378C263.906,445.806,267.205,442.506,271.276,442.506z M271.276,661.907
			c4.07,0,7.37,3.3,7.37,7.37v19.867h9.661c4.07,0,7.37,3.3,7.37,7.37c0,4.07-3.3,7.37-7.37,7.37h-16.335
			c-0.118,0-0.233-0.012-0.349-0.018c-0.116,0.005-0.23,0.018-0.348,0.018c-4.07,0-7.37-3.3-7.37-7.37v-27.237
			C263.906,665.207,267.205,661.907,271.276,661.907z M298.205,299.639h-56.693v-15.591h56.693V299.639z M332.221,682.038H316.63
			V540.306h15.591V682.038z M332.221,483.325H316.63V341.593h15.591V483.325z"/>
	</g>
</g>
</svg>
