<?xml version="1.0" encoding="UTF-8"?><svg id="a" xmlns="http://www.w3.org/2000/svg" width="1208.92" height="1025" viewBox="0 0 1208.92 1025"><defs><style>.b{fill:#231f20;}.c{fill:#f0f;}.d{fill:#8dc63f;}.e{fill:#be1e2d;}.f{fill:#f9ed32;}.g{fill:#39b54a;}.h{fill:#c69c6d;}.i{fill:#fbb040;}</style></defs><path class="b" d="M0,270.58l.03,483.83h258.19l.04-483.83H0ZM134.25,320.67h24.4c4.07,0,7.38,3.3,7.38,7.38s-3.3,7.38-7.38,7.38h-24.4c-4.07,0-7.38-3.3-7.38-7.38s3.3-7.38,7.38-7.38ZM158.47,652.68c-4.07,0-7.38-3.3-7.38-7.38v-24.4c0-4.07,3.3-7.38,7.38-7.38s7.38,3.3,7.38,7.38v24.4c0,4.07-3.3,7.38-7.38,7.38ZM165.85,669.71c0,4.07-3.3,7.38-7.38,7.38s-7.38-3.3-7.38-7.38,3.3-7.38,7.38-7.38,7.38,3.3,7.38,7.38ZM158.66,603.87c-.16,0-.32-.01-.48-.02h-47.84c-.16.01-.32.02-.48.02s-.32-.01-.48-.02h-.09c-3.81-.3-6.81-3.47-6.81-7.35s3-7.06,6.81-7.35v-.03h.57s0,0,0,0,0,0,0,0h48.81s0,0,0,0c4.07,0,7.38,3.3,7.38,7.38s-3.3,7.38-7.38,7.38ZM134.26,628.28c-.16,0-.32-.01-.48-.02h-47.84c-.16.01-.32.02-.48.02s-.32-.01-.48-.02h-.09c-3.81-.3-6.81-3.47-6.81-7.35s3-7.06,6.81-7.35v-.03h.57s0,0,0,0,0,0,0,0h48.81s0,0,0,0c4.07,0,7.38,3.3,7.38,7.38s-3.3,7.38-7.38,7.38ZM141.63,645.31v24.4c0,4.07-3.3,7.38-7.38,7.38s-7.38-3.3-7.38-7.38v-24.4c0-4.07,3.3-7.38,7.38-7.38s7.38,3.3,7.38,7.38ZM117.23,645.31v24.4c0,4.07-3.3,7.38-7.38,7.38s-7.38-3.3-7.38-7.38v-24.4c0-4.07,3.3-7.38,7.38-7.38s7.38,3.3,7.38,7.38ZM134.26,433.04c-.16,0-.32-.01-.48-.02h-47.84c-.16.01-.32.02-.48.02s-.32-.01-.48-.02h-.09c-3.81-.3-6.81-3.47-6.81-7.35s3-7.06,6.81-7.35v-.03h.57s0,0,0,0,0,0,0,0h48.81s0,0,0,0c4.07,0,7.38,3.3,7.38,7.38s-3.3,7.38-7.38,7.38ZM141.63,450.07v24.4c0,4.07-3.3,7.38-7.38,7.38s-7.38-3.3-7.38-7.38v-24.4c0-4.07,3.3-7.38,7.38-7.38s7.38,3.3,7.38,7.38ZM134.26,530.66c-.16,0-.32-.01-.48-.02h-47.84c-.16.01-.32.02-.48.02s-.32-.01-.48-.02h-.09c-3.81-.3-6.81-3.47-6.81-7.35s3-7.06,6.81-7.35v-.03h.57s0,0,0,0,0,0,0,0h48.81s0,0,0,0c4.07,0,7.38,3.3,7.38,7.38s-3.3,7.38-7.38,7.38ZM141.63,547.69v24.4c0,4.07-3.3,7.38-7.38,7.38s-7.38-3.3-7.38-7.38v-24.4c0-4.07,3.3-7.38,7.38-7.38s7.38,3.3,7.38,7.38ZM117.23,547.69v24.4c0,4.07-3.3,7.38-7.38,7.38s-7.38-3.3-7.38-7.38v-24.4c0-4.07,3.3-7.38,7.38-7.38s7.38,3.3,7.38,7.38ZM92.82,547.69c0,4.07-3.3,7.38-7.38,7.38s-7.38-3.3-7.38-7.38,3.3-7.38,7.38-7.38,7.38,3.3,7.38,7.38ZM117.23,450.07v24.4c0,4.07-3.3,7.38-7.38,7.38s-7.38-3.3-7.38-7.38v-24.4c0-4.07,3.3-7.38,7.38-7.38s7.38,3.3,7.38,7.38ZM92.82,450.07c0,4.07-3.3,7.38-7.38,7.38s-7.38-3.3-7.38-7.38,3.3-7.38,7.38-7.38,7.38,3.3,7.38,7.38ZM85.45,369.48c4.07,0,7.38,3.3,7.38,7.38v24.4c0,4.07-3.3,7.38-7.38,7.38s-7.38-3.3-7.38-7.38v-24.4c0-4.07,3.3-7.38,7.38-7.38ZM78.07,352.45c0-4.07,3.3-7.38,7.38-7.38s7.38,3.3,7.38,7.38-3.3,7.38-7.38,7.38-7.38-3.3-7.38-7.38ZM85.45,467.1c4.07,0,7.38,3.3,7.38,7.38v24.4c0,4.07-3.3,7.38-7.38,7.38s-7.38-3.3-7.38-7.38v-24.4c0-4.07,3.3-7.38,7.38-7.38ZM85.45,564.71c4.07,0,7.38,3.3,7.38,7.38v24.4c0,4.07-3.3,7.38-7.38,7.38s-7.38-3.3-7.38-7.38v-24.4c0-4.07,3.3-7.38,7.38-7.38ZM165.85,547.69c0,4.07-3.3,7.38-7.38,7.38s-7.38-3.3-7.38-7.38v-24.4c0-4.07,3.3-7.38,7.38-7.38s7.38,3.3,7.38,7.38v24.4ZM166.04,572.09c0,4.07-3.3,7.38-7.38,7.38s-7.38-3.3-7.38-7.38,3.3-7.38,7.38-7.38,7.38,3.3,7.38,7.38ZM158.66,506.26c-.16,0-.32-.01-.48-.02h-47.84c-.16.01-.32.02-.48.02s-.32-.01-.48-.02h-.09c-3.81-.3-6.81-3.47-6.81-7.35s3-7.06,6.81-7.35v-.03h.57s0,0,0,0,0,0,0,0h48.81s0,0,0,0c4.07,0,7.38,3.3,7.38,7.38s-3.3,7.38-7.38,7.38ZM165.85,450.07c0,4.07-3.3,7.38-7.38,7.38s-7.38-3.3-7.38-7.38v-24.4c0-4.07,3.3-7.38,7.38-7.38s7.38,3.3,7.38,7.38v24.4ZM166.04,474.47c0,4.07-3.3,7.38-7.38,7.38s-7.38-3.3-7.38-7.38,3.3-7.38,7.38-7.38,7.38,3.3,7.38,7.38ZM158.66,408.64c-.16,0-.32-.01-.48-.02h-47.84c-.16.01-.32.02-.48.02s-.32-.01-.48-.02h-.09c-3.81-.3-6.81-3.47-6.81-7.35s3-7.06,6.81-7.35v-.03h.57s0,0,0,0,0,0,0,0h48.81s0,0,0,0c4.07,0,7.38,3.3,7.38,7.38s-3.3,7.38-7.38,7.38ZM102.47,376.86v-24.4c0-4.07,3.3-7.38,7.38-7.38s7.38,3.3,7.38,7.38v24.4c0,4.07-3.3,7.38-7.38,7.38s-7.38-3.3-7.38-7.38ZM126.88,376.86v-24.4c0-4.07,3.3-7.38,7.38-7.38s7.38,3.3,7.38,7.38v24.4c0,4.07-3.3,7.38-7.38,7.38s-7.38-3.3-7.38-7.38ZM158.66,384.24c-4.07,0-7.38-3.3-7.38-7.38s3.3-7.38,7.38-7.38,7.38,3.3,7.38,7.38-3.3,7.38-7.38,7.38ZM151.19,352.55c0-4.07,3.3-7.38,7.38-7.38s7.38,3.3,7.38,7.38-3.3,7.38-7.38,7.38-7.38-3.3-7.38-7.38ZM117.23,328.05c0,4.07-3.3,7.38-7.38,7.38h-24.4c-4.07,0-7.38-3.3-7.38-7.38s3.3-7.38,7.38-7.38h24.4c4.07,0,7.38,3.3,7.38,7.38ZM31.25,284.06h56.75v15.61H31.25v-15.61ZM61.04,652.66c-4.07,0-7.38-3.3-7.38-7.38v-48.81c0-4.07,3.3-7.38,7.38-7.38s7.38,3.3,7.38,7.38v48.81c0,4.07-3.3,7.38-7.38,7.38ZM68.42,669.69v27.27c0,4.07-3.3,7.38-7.38,7.38s-7.38-3.3-7.38-7.38v-27.27c0-4.07,3.3-7.38,7.38-7.38s7.38,3.3,7.38,7.38ZM53.66,425.67v-24.4c0-4.07,3.3-7.38,7.38-7.38s7.38,3.3,7.38,7.38v24.4c0,4.07-3.3,7.38-7.38,7.38s-7.38-3.3-7.38-7.38ZM61.04,579.47c-4.07,0-7.38-3.3-7.38-7.38v-48.81c0-4.07,3.3-7.38,7.38-7.38s7.38,3.3,7.38,7.38v48.81c0,4.07-3.3,7.38-7.38,7.38ZM61.04,506.26c-4.07,0-7.38-3.3-7.38-7.38v-48.81c0-4.07,3.3-7.38,7.38-7.38s7.38,3.3,7.38,7.38v48.81c0,4.07-3.3,7.38-7.38,7.38ZM61.04,384.24c-4.07,0-7.38-3.3-7.38-7.38v-48.81c0-4.07,3.3-7.38,7.38-7.38s7.38,3.3,7.38,7.38v48.81c0,4.07-3.3,7.38-7.38,7.38ZM29.26,328.05c0-4.07,3.3-7.38,7.38-7.38s7.38,3.3,7.38,7.38v24.4c0,4.07-3.3,7.38-7.38,7.38s-7.38-3.3-7.38-7.38v-24.4ZM29.26,376.86c0-4.07,3.3-7.38,7.38-7.38s7.38,3.3,7.38,7.38v24.4c0,4.07-3.3,7.38-7.38,7.38s-7.38-3.3-7.38-7.38v-24.4ZM29.26,425.67c0-4.07,3.3-7.38,7.38-7.38s7.38,3.3,7.38,7.38v24.4c0,4.07-3.3,7.38-7.38,7.38s-7.38-3.3-7.38-7.38v-24.4ZM29.26,474.47c0-4.07,3.3-7.38,7.38-7.38s7.38,3.3,7.38,7.38v24.4c0,4.07-3.3,7.38-7.38,7.38s-7.38-3.3-7.38-7.38v-24.4ZM29.26,523.28c0-4.07,3.3-7.38,7.38-7.38s7.38,3.3,7.38,7.38v24.4c0,4.07-3.3,7.38-7.38,7.38s-7.38-3.3-7.38-7.38v-24.4ZM29.26,572.09c0-4.07,3.3-7.38,7.38-7.38s7.38,3.3,7.38,7.38v24.4c0,4.07-3.3,7.38-7.38,7.38s-7.38-3.3-7.38-7.38v-24.4ZM29.26,620.9c0-4.07,3.3-7.38,7.38-7.38s7.38,3.3,7.38,7.38v24.4c0,4.07-3.3,7.38-7.38,7.38s-7.38-3.3-7.38-7.38v-24.4ZM29.26,669.69c0-4.07,3.3-7.38,7.38-7.38s7.38,3.3,7.38,7.38v27.27c0,4.07-3.3,7.38-7.38,7.38s-7.38-3.3-7.38-7.38v-27.27ZM88,740.94H31.25v-15.61h56.75v15.61ZM92.82,696.95c0,4.07-3.3,7.38-7.38,7.38s-7.38-3.3-7.38-7.38v-27.24c0-4.07,3.3-7.38,7.38-7.38s7.38,3.3,7.38,7.38v27.24ZM85.45,652.68c-4.07,0-7.38-3.3-7.38-7.38s3.3-7.38,7.38-7.38,7.38,3.3,7.38,7.38-3.3,7.38-7.38,7.38ZM102.47,696.98c0-4.07,3.3-7.38,7.38-7.38h48.62c4.07,0,7.38,3.3,7.38,7.38s-3.3,7.38-7.38,7.38h-48.62c-4.07,0-7.38-3.3-7.38-7.38ZM210.02,740.94h-56.75v-15.61h56.75v15.61ZM175.59,327.96c0-4.07,3.3-7.38,7.38-7.38h17.14c4.07,0,7.38,3.3,7.38,7.38s-3.3,7.38-7.38,7.38h-9.77v17.21c0,4.07-3.3,7.38-7.38,7.38s-7.38-3.3-7.38-7.38v-24.4s0-.06,0-.09c0-.03,0-.06,0-.09ZM175.69,376.86c0-.16.01-.32.02-.48v-.09h0c.29-3.81,3.47-6.81,7.35-6.81s7.06,3,7.35,6.81h.03v.57s0,0,0,0,0,0,0,0v48.81s0,0,0,0c0,4.07-3.3,7.38-7.38,7.38s-7.38-3.3-7.38-7.38c0-.16.01-.32.02-.48v-47.84c-.01-.16-.02-.32-.02-.48ZM190.44,547.69c0,4.07-3.3,7.38-7.38,7.38s-7.38-3.3-7.38-7.38c0-.16.01-.32.02-.48v-47.84c-.01-.16-.02-.32-.02-.48s.01-.32.02-.48v-.09h0c.29-3.81,3.47-6.81,7.35-6.81s7.06,3,7.35,6.81h.03v.57s0,0,0,0,0,0,0,0v48.81s0,0,0,0ZM190.44,645.31c0,4.07-3.3,7.38-7.38,7.38s-7.38-3.3-7.38-7.38l.02-72.73c-.01-.16-.02-.32-.02-.48s.01-.32.02-.48v-.09h0c.29-3.81,3.47-6.81,7.35-6.81s7.06,3,7.35,6.81h.03v.57s0,0,0,0,0,0,0,0v48.81s0,24.41,0,24.41ZM183.06,442.69c4.07,0,7.38,3.3,7.38,7.38v24.4c0,4.07-3.3,7.38-7.38,7.38s-7.38-3.3-7.38-7.38v-24.4c0-4.07,3.3-7.38,7.38-7.38ZM183.06,662.33c4.07,0,7.38,3.3,7.38,7.38v19.89h9.67c4.07,0,7.38,3.3,7.38,7.38s-3.3,7.38-7.38,7.38h-16.35c-.12,0-.23-.01-.35-.02-.12,0-.23.02-.35.02-4.07,0-7.38-3.3-7.38-7.38v-27.27c0-4.07,3.3-7.38,7.38-7.38ZM210.02,299.67h-56.75v-15.61h56.75v15.61ZM244.07,682.48h-15.61v-141.89h15.61v141.89ZM244.07,483.56h-15.61v-141.89h15.61v141.89Z"/><path class="c" d="M950.66,270.58l.04,483.83h258.19l.03-483.83h-258.26ZM1120.92,284.06h56.75v15.61h-56.75v-15.61ZM1147.88,515.91c4.07,0,7.38,3.3,7.38,7.38v48.81c0,4.07-3.3,7.38-7.38,7.38s-7.38-3.3-7.38-7.38v-48.81c0-4.07,3.3-7.38,7.38-7.38ZM1140.5,498.88v-48.81c0-4.07,3.3-7.38,7.38-7.38s7.38,3.3,7.38,7.38v48.81c0,4.07-3.3,7.38-7.38,7.38s-7.38-3.3-7.38-7.38ZM1147.88,589.09c4.07,0,7.38,3.3,7.38,7.38v48.81c0,4.07-3.3,7.38-7.38,7.38s-7.38-3.3-7.38-7.38v-48.81c0-4.07,3.3-7.38,7.38-7.38ZM1140.5,669.69c0-4.07,3.3-7.38,7.38-7.38s7.38,3.3,7.38,7.38v27.27c0,4.07-3.3,7.38-7.38,7.38s-7.38-3.3-7.38-7.38v-27.27ZM1147.88,433.04c-4.07,0-7.38-3.3-7.38-7.38v-24.4c0-4.07,3.3-7.38,7.38-7.38s7.38,3.3,7.38,7.38v24.4c0,4.07-3.3,7.38-7.38,7.38ZM1140.5,376.86v-48.81c0-4.07,3.3-7.38,7.38-7.38s7.38,3.3,7.38,7.38v48.81c0,4.07-3.3,7.38-7.38,7.38s-7.38-3.3-7.38-7.38ZM1050.45,652.68c-4.07,0-7.38-3.3-7.38-7.38v-24.4c0-4.07,3.3-7.38,7.38-7.38s7.38,3.3,7.38,7.38v24.4c0,4.07-3.3,7.38-7.38,7.38ZM1057.83,669.71c0,4.07-3.3,7.38-7.38,7.38s-7.38-3.3-7.38-7.38,3.3-7.38,7.38-7.38,7.38,3.3,7.38,7.38ZM1050.75,603.85c-.16.01-.32.02-.48.02-4.07,0-7.38-3.3-7.38-7.38s3.3-7.38,7.38-7.38c0,0,0,0,0,0h48.81s0,0,0,0c0,0,0,0,0,0h.57v.03c3.81.29,6.81,3.47,6.81,7.35s-3,7.06-6.81,7.35h0s-.09,0-.09,0c-.16.01-.32.02-.48.02s-.32-.01-.48-.02h-47.84ZM1050.26,369.48c4.07,0,7.38,3.3,7.38,7.38s-3.3,7.38-7.38,7.38-7.38-3.3-7.38-7.38,3.3-7.38,7.38-7.38ZM1042.98,352.55c0-4.07,3.3-7.38,7.38-7.38s7.38,3.3,7.38,7.38-3.3,7.38-7.38,7.38-7.38-3.3-7.38-7.38ZM1050.26,393.88s0,0,0,0h48.81s0,0,0,0c0,0,0,0,0,0h.57v.03c3.81.29,6.81,3.47,6.81,7.35s-3,7.06-6.81,7.35h0s-.09,0-.09,0c-.16.01-.32.02-.48.02s-.32-.01-.48-.02h-47.84c-.16.01-.32.02-.48.02-4.07,0-7.38-3.3-7.38-7.38s3.3-7.38,7.38-7.38ZM1067.29,376.86v-24.4c0-4.07,3.3-7.38,7.38-7.38s7.38,3.3,7.38,7.38v24.4c0,4.07-3.3,7.38-7.38,7.38s-7.38-3.3-7.38-7.38ZM1130.85,425.67c0,3.88-3,7.06-6.81,7.35h0s-.09,0-.09,0c-.16.01-.32.02-.48.02s-.32-.01-.48-.02h-47.84c-.16.01-.32.02-.48.02-4.07,0-7.38-3.3-7.38-7.38s3.3-7.38,7.38-7.38c0,0,0,0,0,0h48.81s0,0,0,0,0,0,0,0h.57v.03c3.81.29,6.81,3.47,6.81,7.35ZM1130.85,523.28c0,3.88-3,7.06-6.81,7.35h0s-.09,0-.09,0c-.16.01-.32.02-.48.02s-.32-.01-.48-.02h-47.84c-.16.01-.32.02-.48.02-4.07,0-7.38-3.3-7.38-7.38s3.3-7.38,7.38-7.38c0,0,0,0,0,0h48.81s0,0,0,0,0,0,0,0h.57v.03c3.81.29,6.81,3.47,6.81,7.35ZM1130.85,547.69c0,4.07-3.3,7.38-7.38,7.38s-7.38-3.3-7.38-7.38,3.3-7.38,7.38-7.38,7.38,3.3,7.38,7.38ZM1106.45,547.69v24.4c0,4.07-3.3,7.38-7.38,7.38s-7.38-3.3-7.38-7.38v-24.4c0-4.07,3.3-7.38,7.38-7.38s7.38,3.3,7.38,7.38ZM1082.05,547.69v24.4c0,4.07-3.3,7.38-7.38,7.38s-7.38-3.3-7.38-7.38v-24.4c0-4.07,3.3-7.38,7.38-7.38s7.38,3.3,7.38,7.38ZM1106.45,474.47c0,4.07-3.3,7.38-7.38,7.38s-7.38-3.3-7.38-7.38v-24.4c0-4.07,3.3-7.38,7.38-7.38s7.38,3.3,7.38,7.38v24.4ZM1130.85,450.07c0,4.07-3.3,7.38-7.38,7.38s-7.38-3.3-7.38-7.38,3.3-7.38,7.38-7.38,7.38,3.3,7.38,7.38ZM1082.05,450.07v24.4c0,4.07-3.3,7.38-7.38,7.38s-7.38-3.3-7.38-7.38v-24.4c0-4.07,3.3-7.38,7.38-7.38s7.38,3.3,7.38,7.38ZM1106.45,376.86c0,4.07-3.3,7.38-7.38,7.38s-7.38-3.3-7.38-7.38v-24.4c0-4.07,3.3-7.38,7.38-7.38s7.38,3.3,7.38,7.38v24.4ZM1057.83,425.67v24.4c0,4.07-3.3,7.38-7.38,7.38s-7.38-3.3-7.38-7.38v-24.4c0-4.07,3.3-7.38,7.38-7.38s7.38,3.3,7.38,7.38ZM1050.26,467.1c4.07,0,7.38,3.3,7.38,7.38s-3.3,7.38-7.38,7.38-7.38-3.3-7.38-7.38,3.3-7.38,7.38-7.38ZM1050.26,491.5s0,0,0,0h48.81s0,0,0,0c0,0,0,0,0,0h.57v.03c3.81.29,6.81,3.47,6.81,7.35s-3,7.06-6.81,7.35h0s-.09,0-.09,0c-.16.01-.32.02-.48.02s-.32-.01-.48-.02h-47.84c-.16.01-.32.02-.48.02-4.07,0-7.38-3.3-7.38-7.38s3.3-7.38,7.38-7.38ZM1057.83,523.28v24.4c0,4.07-3.3,7.38-7.38,7.38s-7.38-3.3-7.38-7.38v-24.4c0-4.07,3.3-7.38,7.38-7.38s7.38,3.3,7.38,7.38ZM1050.26,564.71c4.07,0,7.38,3.3,7.38,7.38s-3.3,7.38-7.38,7.38-7.38-3.3-7.38-7.38,3.3-7.38,7.38-7.38ZM1067.29,645.31c0-4.07,3.3-7.38,7.38-7.38s7.38,3.3,7.38,7.38v24.4c0,4.07-3.3,7.38-7.38,7.38s-7.38-3.3-7.38-7.38v-24.4ZM1075.15,628.25c-.16.01-.32.02-.48.02-4.07,0-7.38-3.3-7.38-7.38s3.3-7.38,7.38-7.38c0,0,0,0,0,0h48.81s0,0,0,0,0,0,0,0h.57v.03c3.81.29,6.81,3.47,6.81,7.35s-3,7.06-6.81,7.35h0s-.09,0-.09,0c-.16.01-.32.02-.48.02s-.32-.01-.48-.02h-47.84ZM1123.48,603.87c-4.07,0-7.38-3.3-7.38-7.38v-24.4c0-4.07,3.3-7.38,7.38-7.38s7.38,3.3,7.38,7.38v24.4c0,4.07-3.3,7.38-7.38,7.38ZM1123.48,506.26c-4.07,0-7.38-3.3-7.38-7.38v-24.4c0-4.07,3.3-7.38,7.38-7.38s7.38,3.3,7.38,7.38v24.4c0,4.07-3.3,7.38-7.38,7.38ZM1123.48,408.64c-4.07,0-7.38-3.3-7.38-7.38v-24.4c0-4.07,3.3-7.38,7.38-7.38s7.38,3.3,7.38,7.38v24.4c0,4.07-3.3,7.38-7.38,7.38ZM1116.1,352.45c0-4.07,3.3-7.38,7.38-7.38s7.38,3.3,7.38,7.38-3.3,7.38-7.38,7.38-7.38-3.3-7.38-7.38ZM1099.07,320.67h24.4c4.07,0,7.38,3.3,7.38,7.38s-3.3,7.38-7.38,7.38h-24.4c-4.07,0-7.38-3.3-7.38-7.38s3.3-7.38,7.38-7.38ZM1082.05,328.05c0,4.07-3.3,7.38-7.38,7.38h-24.4c-4.07,0-7.38-3.3-7.38-7.38s3.3-7.38,7.38-7.38h24.4c4.07,0,7.38,3.3,7.38,7.38ZM998.9,284.06h56.75v15.61h-56.75v-15.61ZM1033.33,328.14v24.4c0,4.07-3.3,7.38-7.38,7.38s-7.38-3.3-7.38-7.38v-17.21h-9.77c-4.07,0-7.38-3.3-7.38-7.38s3.3-7.38,7.38-7.38h17.14c4.07,0,7.38,3.3,7.38,7.38,0,.03,0,.06,0,.09,0,.03,0,.06,0,.09ZM1018.48,572.09s0,0,0,0v-.57h.03c.29-3.81,3.47-6.81,7.35-6.81s7.06,3,7.35,6.81h0v.09c.01.16.02.32.02.48s-.01.32-.02.48l.02,72.73c0,4.07-3.3,7.38-7.38,7.38s-7.38-3.3-7.38-7.38c0,0,0-24.41,0-24.41v-48.81s0,0,0,0ZM1018.48,498.88s0,0,0,0v-.57h.03c.29-3.81,3.47-6.81,7.35-6.81s7.06,3,7.35,6.81h0v.09c.01.16.02.32.02.48s-.01.32-.02.48v47.84c.01.16.02.32.02.48,0,4.07-3.3,7.38-7.38,7.38s-7.38-3.3-7.38-7.38c0,0,0,0,0,0v-48.81s0,0,0,0ZM1018.48,376.86s0,0,0,0v-.57h.03c.29-3.81,3.47-6.81,7.35-6.81s7.06,3,7.35,6.81h0v.09c.01.16.02.32.02.48s-.01.32-.02.48v47.84c.01.16.02.32.02.48,0,4.07-3.3,7.38-7.38,7.38s-7.38-3.3-7.38-7.38c0,0,0,0,0,0v-48.81s0,0,0,0ZM1018.48,669.71c0-4.07,3.3-7.38,7.38-7.38s7.38,3.3,7.38,7.38v27.27c0,4.07-3.3,7.38-7.38,7.38-.12,0-.23-.01-.35-.02-.12,0-.23.02-.35.02h-16.35c-4.07,0-7.38-3.3-7.38-7.38s3.3-7.38,7.38-7.38h9.67v-19.89ZM1025.86,481.85c-4.07,0-7.38-3.3-7.38-7.38v-24.4c0-4.07,3.3-7.38,7.38-7.38s7.38,3.3,7.38,7.38v24.4c0,4.07-3.3,7.38-7.38,7.38ZM980.46,682.48h-15.61v-141.89h15.61v141.89ZM980.46,483.56h-15.61v-141.89h15.61v141.89ZM1055.66,740.94h-56.75v-15.61h56.75v15.61ZM1099.07,704.35h-48.62c-4.07,0-7.38-3.3-7.38-7.38s3.3-7.38,7.38-7.38h48.62c4.07,0,7.38,3.3,7.38,7.38s-3.3,7.38-7.38,7.38ZM1106.45,669.71c0,4.07-3.3,7.38-7.38,7.38s-7.38-3.3-7.38-7.38v-24.4c0-4.07,3.3-7.38,7.38-7.38s7.38,3.3,7.38,7.38v24.4ZM1123.48,637.93c4.07,0,7.38,3.3,7.38,7.38s-3.3,7.38-7.38,7.38-7.38-3.3-7.38-7.38,3.3-7.38,7.38-7.38ZM1116.1,696.95v-27.24c0-4.07,3.3-7.38,7.38-7.38s7.38,3.3,7.38,7.38v27.24c0,4.07-3.3,7.38-7.38,7.38s-7.38-3.3-7.38-7.38ZM1177.68,740.94h-56.75v-15.61h56.75v15.61ZM1179.66,696.95c0,4.07-3.3,7.38-7.38,7.38s-7.38-3.3-7.38-7.38v-27.27c0-4.07,3.3-7.38,7.38-7.38s7.38,3.3,7.38,7.38v27.27ZM1179.66,645.31c0,4.07-3.3,7.38-7.38,7.38s-7.38-3.3-7.38-7.38v-24.4c0-4.07,3.3-7.38,7.38-7.38s7.38,3.3,7.38,7.38v24.4ZM1179.66,596.5c0,4.07-3.3,7.38-7.38,7.38s-7.38-3.3-7.38-7.38v-24.4c0-4.07,3.3-7.38,7.38-7.38s7.38,3.3,7.38,7.38v24.4ZM1179.66,547.69c0,4.07-3.3,7.38-7.38,7.38s-7.38-3.3-7.38-7.38v-24.4c0-4.07,3.3-7.38,7.38-7.38s7.38,3.3,7.38,7.38v24.4ZM1179.66,498.88c0,4.07-3.3,7.38-7.38,7.38s-7.38-3.3-7.38-7.38v-24.4c0-4.07,3.3-7.38,7.38-7.38s7.38,3.3,7.38,7.38v24.4ZM1179.66,450.07c0,4.07-3.3,7.38-7.38,7.38s-7.38-3.3-7.38-7.38v-24.4c0-4.07,3.3-7.38,7.38-7.38s7.38,3.3,7.38,7.38v24.4ZM1179.66,401.26c0,4.07-3.3,7.38-7.38,7.38s-7.38-3.3-7.38-7.38v-24.4c0-4.07,3.3-7.38,7.38-7.38s7.38,3.3,7.38,7.38v24.4ZM1179.66,352.45c0,4.07-3.3,7.38-7.38,7.38s-7.38-3.3-7.38-7.38v-24.4c0-4.07,3.3-7.38,7.38-7.38s7.38,3.3,7.38,7.38v24.4Z"/><path class="i" d="M910.94,34.05V0H297.99v34.05h0s-14.19,0-14.19,0v53.92h14.19v19.86h93.64v14.19h93.64v-14.19h238.37v14.19h93.64v-14.19h93.64v-19.86h14.19v-53.92h-14.19ZM343.39,68.39s0,0,0,0h-17.02s0,0,0,0c-2.29,0-4.34-1.05-5.69-2.68-.15-.18-.29-.37-.42-.57-.27-.39-.49-.81-.68-1.25-.37-.88-.58-1.85-.58-2.87s.21-1.99.58-2.87c.19-.44.42-.86.68-1.25.13-.2.27-.39.42-.57,1.35-1.64,3.4-2.68,5.69-2.68h17.03c4.07,0,7.38,3.3,7.38,7.38s-3.3,7.38-7.38,7.38ZM889.36,63.88c-.19.44-.42.86-.68,1.25-.13.2-.27.39-.42.57-1.35,1.64-3.4,2.68-5.69,2.68,0,0,0,0,0,0h-17.02s0,0,0,0c-4.07,0-7.38-3.3-7.38-7.38s3.3-7.38,7.38-7.38h0s17.03,0,17.03,0h0c2.29,0,4.34,1.05,5.69,2.68.15.18.29.37.42.57.27.39.49.81.68,1.25.37.88.58,1.85.58,2.87s-.21,1.99-.58,2.87Z"/><path class="e" d="M910.94,157.08v-19.86h-93.64v-14.19h-93.64v14.19h-238.37v-14.19h-93.64v14.19h-93.64v19.86h-14.19v53.92h14.19v19.86h93.64v14.19h93.64v-14.19h238.37v14.19h93.64v-14.19h93.64v-19.86h14.19v-53.92h-14.19ZM343.39,191.43s0,0,0,0h-17.02s0,0,0,0c-4.07,0-7.38-3.3-7.38-7.38,0,0,0,0,0,0s0,0,0,0c0-4.07,3.3-7.38,7.38-7.38.12,0,.23.01.34.02h16.69c4.07,0,7.38,3.3,7.38,7.38s-3.3,7.38-7.38,7.38ZM889.94,184.05c0,4.07-3.3,7.38-7.38,7.38,0,0,0,0,0,0h-17.02s0,0,0,0c-4.07,0-7.38-3.3-7.38-7.38s3.3-7.38,7.38-7.38h0s16.69,0,16.69,0c.11,0,.23-.02.34-.02,4.07,0,7.38,3.3,7.38,7.38,0,0,0,0,0,0,0,0,0,0,0,0Z"/><path class="h" d="M910.94,937.03v-19.86h-93.64v-14.19h-93.64v14.19h-238.37v-14.19h-93.64v14.19h-93.64v19.86h-14.19v53.92h14.19v34.05h612.95v-34.05h0s14.19,0,14.19,0v-53.92h-14.19ZM343.39,971.37h0s-17.03,0-17.03,0h0c-2.29,0-4.34-1.05-5.69-2.68-.15-.18-.29-.37-.42-.57-.27-.39-.49-.81-.68-1.25-.37-.88-.58-1.85-.58-2.87s.21-1.99.58-2.87c.19-.44.42-.86.68-1.25.13-.2.27-.39.42-.57,1.35-1.64,3.4-2.68,5.69-2.68,0,0,0,0,0,0h17.02s0,0,0,0c4.07,0,7.38,3.3,7.38,7.38s-3.3,7.38-7.38,7.38ZM889.36,966.86c-.19.44-.42.86-.68,1.25-.13.2-.27.39-.42.57-1.35,1.64-3.4,2.68-5.69,2.68h-17.03c-4.07,0-7.38-3.3-7.38-7.38s3.3-7.38,7.38-7.38c0,0,0,0,0,0h17.02s0,0,0,0c2.29,0,4.34,1.05,5.69,2.68.15.18.29.37.42.57.27.39.49.81.68,1.25.37.88.58,1.85.58,2.87s-.21,1.99-.58,2.87Z"/><path class="f" d="M910.94,814.01v-19.86h-93.64v-14.19h-93.64v14.19h-238.37v-14.19h-93.64v14.19h-93.64v19.86h-14.19v53.92h14.19v19.86h93.64v14.19h93.64v-14.19h238.37v14.19h93.64v-14.19h93.64v-19.86h14.19v-53.92h-14.19ZM343.39,848.33h0s-16.68,0-16.68,0c-.11,0-.23.02-.34.02-4.07,0-7.38-3.3-7.38-7.38,0,0,0,0,0,0s0,0,0,0c0-4.07,3.3-7.38,7.38-7.38,0,0,0,0,0,0h17.02s0,0,0,0c4.07,0,7.38,3.3,7.38,7.38s-3.3,7.38-7.38,7.38ZM889.94,840.97c0,4.07-3.3,7.38-7.38,7.38-.12,0-.23-.01-.34-.02h-16.68c-4.07,0-7.38-3.3-7.38-7.38s3.3-7.38,7.38-7.38c0,0,0,0,0,0h17.02s0,0,0,0c4.07,0,7.38,3.3,7.38,7.38,0,0,0,0,0,0s0,0,0,0Z"/><path class="d" d="M910.94,344.51v-73.92H297.99v71.09h0v2.84h-14.19v136.21h14.19v2.84h0v28.52h187.29v-14.19h238.37v14.19h187.29v-31.36h14.19v-136.21h-14.19ZM343.39,335.43s0,0,0,0h-17.02s0,0,0,0c-4.07,0-7.38-3.3-7.38-7.38s3.3-7.38,7.38-7.38h0s17.03,0,17.03,0h0c4.07,0,7.38,3.3,7.38,7.38s-3.3,7.38-7.38,7.38ZM486.7,299.67h-96.48v-15.61h96.48v15.61ZM818.71,299.67h-96.48v-15.61h96.48v15.61ZM882.56,335.43s0,0,0,0h-17.02s0,0,0,0c-4.07,0-7.38-3.3-7.38-7.38s3.3-7.38,7.38-7.38h0s17.03,0,17.03,0h0c4.07,0,7.38,3.3,7.38,7.38s-3.3,7.38-7.38,7.38Z"/><path class="g" d="M925.13,680.49v-136.21h-14.19v-2.84h0v-28.52h-187.29v14.19h-238.37v-14.19h-187.29v31.36h-14.19v136.21h14.19v73.92h612.95v-71.09h0v-2.84h14.19ZM343.39,704.33h0s-17.03,0-17.03,0h0c-4.07,0-7.38-3.3-7.38-7.38s3.3-7.38,7.38-7.38c0,0,0,0,0,0h17.02s0,0,0,0c4.07,0,7.38,3.3,7.38,7.38s-3.3,7.38-7.38,7.38ZM486.7,740.94h-96.48v-15.61h96.48v15.61ZM818.71,740.94h-96.48v-15.61h96.48v15.61ZM882.56,704.33h0s-17.03,0-17.03,0h0c-4.07,0-7.38-3.3-7.38-7.38s3.3-7.38,7.38-7.38c0,0,0,0,0,0h17.02s0,0,0,0c4.07,0,7.38,3.3,7.38,7.38s-3.3,7.38-7.38,7.38Z"/></svg>