<?xml version="1.0" encoding="iso-8859-1"?>
<!-- Generator: Adobe Illustrator 29.8.1, SVG Export Plug-In . SVG Version: 9.03 Build 0)  -->
<svg version="1.1" id="Layer_1" xmlns="http://www.w3.org/2000/svg" xmlns:xlink="http://www.w3.org/1999/xlink" x="0px" y="0px"
	 viewBox="0 0 797.925 483.309" style="enable-background:new 0 0 797.925 483.309;" xml:space="preserve">
<g>
	<g>
		<path style="fill:#9e005d;" d="M0,0v313.348h88.439v169.96h257.914L346.393,0L0,0z M222.52,50.032h24.378
			c4.07,0,7.37,3.3,7.37,7.37c0,4.07-3.3,7.37-7.37,7.37H222.52c-4.07,0-7.37-3.3-7.37-7.37
			C215.149,53.332,218.449,50.032,222.52,50.032z M246.711,381.686c-4.07,0-7.37-3.3-7.37-7.37v-24.378c0-4.07,3.3-7.37,7.37-7.37
			c4.07,0,7.37,3.3,7.37,7.37v24.378C254.081,378.386,250.781,381.686,246.711,381.686z M254.081,398.693c0,4.07-3.3,7.37-7.37,7.37
			s-7.37-3.3-7.37-7.37s3.3-7.37,7.37-7.37S254.081,394.623,254.081,398.693z M246.898,332.93c-0.163,0-0.322-0.014-0.483-0.024
			h-47.791c-0.16,0.01-0.32,0.024-0.483,0.024s-0.322-0.014-0.483-0.024h-0.085v-0.004c-3.804-0.291-6.803-3.463-6.803-7.341
			s2.998-7.051,6.803-7.341v-0.029h0.566c0,0,0.001,0,0.001,0s0.001,0,0.001,0h48.753c0,0,0.001,0,0.001,0
			c4.07,0,7.37,3.3,7.37,7.37S250.968,332.93,246.898,332.93z M222.52,357.308c-0.163,0-0.322-0.014-0.483-0.024h-47.791
			c-0.16,0.01-0.32,0.024-0.483,0.024s-0.322-0.014-0.483-0.024h-0.085v-0.004c-3.804-0.291-6.803-3.463-6.803-7.341
			s2.998-7.051,6.803-7.341v-0.029h0.566c0,0,0.001,0,0.001,0s0.001,0,0.001,0h48.753c0,0,0.001,0,0.001,0
			c4.07,0,7.37,3.3,7.37,7.37S226.59,357.308,222.52,357.308z M229.89,374.315v24.378c0,4.07-3.3,7.37-7.37,7.37
			c-4.07,0-7.37-3.3-7.37-7.37v-24.378c0-4.07,3.3-7.37,7.37-7.37C226.59,366.945,229.89,370.245,229.89,374.315z M205.511,374.315
			v24.378c0,4.07-3.3,7.37-7.37,7.37c-4.07,0-7.37-3.3-7.37-7.37v-24.378c0-4.07,3.3-7.37,7.37-7.37
			C202.212,366.945,205.511,370.245,205.511,374.315z M222.52,162.284c-0.163,0-0.322-0.014-0.483-0.024h-47.791
			c-0.16,0.01-0.32,0.024-0.483,0.024s-0.322-0.014-0.483-0.024h-0.085v-0.004c-3.804-0.291-6.803-3.463-6.803-7.341
			s2.998-7.051,6.803-7.341v-0.029h0.566c0,0,0.001,0,0.001,0s0.001,0,0.001,0h48.753c0,0,0.001,0,0.001,0
			c4.07,0,7.37,3.3,7.37,7.37S226.59,162.284,222.52,162.284z M229.89,179.292v24.378c0,4.07-3.3,7.37-7.37,7.37
			c-4.07,0-7.37-3.3-7.37-7.37v-24.378c0-4.07,3.3-7.37,7.37-7.37C226.59,171.922,229.89,175.222,229.89,179.292z M222.52,259.796
			c-0.163,0-0.322-0.014-0.483-0.024h-47.791c-0.16,0.01-0.32,0.024-0.483,0.024s-0.322-0.014-0.483-0.024h-0.085v-0.004
			c-3.804-0.291-6.803-3.463-6.803-7.341c0-3.879,2.998-7.051,6.803-7.341v-0.029h0.566c0,0,0.001,0,0.001,0s0.001,0,0.001,0h48.753
			c0,0,0.001,0,0.001,0c4.07,0,7.37,3.3,7.37,7.37C229.89,256.496,226.59,259.796,222.52,259.796z M229.89,276.804v24.378
			c0,4.07-3.3,7.37-7.37,7.37c-4.07,0-7.37-3.3-7.37-7.37v-24.378c0-4.07,3.3-7.37,7.37-7.37
			C226.59,269.434,229.89,272.733,229.89,276.804z M205.511,276.804v24.378c0,4.07-3.3,7.37-7.37,7.37c-4.07,0-7.37-3.3-7.37-7.37
			v-24.378c0-4.07,3.3-7.37,7.37-7.37C202.212,269.434,205.511,272.733,205.511,276.804z M181.134,276.804
			c0,4.07-3.3,7.37-7.37,7.37s-7.37-3.3-7.37-7.37s3.3-7.37,7.37-7.37S181.134,272.733,181.134,276.804z M205.511,179.292v24.378
			c0,4.07-3.3,7.37-7.37,7.37c-4.07,0-7.37-3.3-7.37-7.37v-24.378c0-4.07,3.3-7.37,7.37-7.37
			C202.212,171.922,205.511,175.222,205.511,179.292z M181.134,179.292c0,4.07-3.3,7.37-7.37,7.37s-7.37-3.3-7.37-7.37
			c0-4.07,3.3-7.37,7.37-7.37S181.134,175.222,181.134,179.292z M173.763,98.788c4.07,0,7.37,3.3,7.37,7.37v24.378
			c0,4.07-3.3,7.37-7.37,7.37c-4.07,0-7.37-3.3-7.37-7.37v-24.378C166.393,102.088,169.693,98.788,173.763,98.788z M166.394,81.78
			c0-4.07,3.3-7.37,7.37-7.37s7.37,3.3,7.37,7.37s-3.3,7.37-7.37,7.37S166.394,85.851,166.394,81.78z M173.763,196.3
			c4.07,0,7.37,3.3,7.37,7.37v24.378c0,4.07-3.3,7.37-7.37,7.37c-4.07,0-7.37-3.3-7.37-7.37V203.67
			C166.393,199.6,169.693,196.3,173.763,196.3z M173.763,293.812c4.07,0,7.37,3.3,7.37,7.37v24.378c0,4.07-3.3,7.37-7.37,7.37
			c-4.07,0-7.37-3.3-7.37-7.37v-24.378C166.393,297.111,169.693,293.812,173.763,293.812z M246.898,308.552
			c-4.07,0-7.37-3.3-7.37-7.37s3.3-7.37,7.37-7.37c4.07,0,7.37,3.3,7.37,7.37S250.968,308.552,246.898,308.552z M239.341,276.804
			v-24.378c0-4.07,3.3-7.37,7.37-7.37c4.07,0,7.37,3.3,7.37,7.37v24.378c0,4.07-3.3,7.37-7.37,7.37
			C242.64,284.174,239.341,280.874,239.341,276.804z M246.898,235.418c-0.163,0-0.322-0.014-0.483-0.024h-47.791
			c-0.16,0.01-0.32,0.024-0.483,0.024s-0.322-0.014-0.483-0.024h-0.085v-0.004c-3.804-0.291-6.803-3.463-6.803-7.341
			s2.998-7.051,6.803-7.341v-0.029h0.566c0,0,0.001,0,0.001,0s0.001,0,0.001,0h48.753c0,0,0.001,0,0.001,0
			c4.07,0,7.37,3.3,7.37,7.37S250.968,235.418,246.898,235.418z M246.898,211.04c-4.07,0-7.37-3.3-7.37-7.37
			c0-4.07,3.3-7.37,7.37-7.37c4.07,0,7.37,3.3,7.37,7.37C254.268,207.74,250.968,211.04,246.898,211.04z M239.341,179.292v-24.378
			c0-4.07,3.3-7.37,7.37-7.37c4.07,0,7.37,3.3,7.37,7.37v24.378c0,4.07-3.3,7.37-7.37,7.37
			C242.64,186.662,239.341,183.362,239.341,179.292z M246.898,137.906c-0.163,0-0.322-0.014-0.483-0.024h-47.791
			c-0.16,0.01-0.32,0.024-0.483,0.024s-0.322-0.014-0.483-0.024h-0.085v-0.004c-3.804-0.291-6.803-3.463-6.803-7.341
			s2.998-7.051,6.803-7.341v-0.029h0.566c0,0,0.001,0,0.001,0s0.001,0,0.001,0h48.753c0,0,0.001,0,0.001,0
			c4.07,0,7.37,3.3,7.37,7.37S250.968,137.906,246.898,137.906z M190.771,106.158V81.78c0-4.07,3.3-7.37,7.37-7.37
			c4.07,0,7.37,3.3,7.37,7.37v24.378c0,4.07-3.3,7.37-7.37,7.37C194.071,113.528,190.771,110.229,190.771,106.158z M215.15,106.158
			V81.78c0-4.07,3.3-7.37,7.37-7.37c4.07,0,7.37,3.3,7.37,7.37v24.378c0,4.07-3.3,7.37-7.37,7.37
			C218.449,113.528,215.15,110.229,215.15,106.158z M246.898,113.528c-4.07,0-7.37-3.3-7.37-7.37s3.3-7.37,7.37-7.37
			c4.07,0,7.37,3.3,7.37,7.37S250.968,113.528,246.898,113.528z M239.435,81.874c0-4.07,3.3-7.37,7.37-7.37s7.37,3.3,7.37,7.37
			c0,4.07-3.3,7.37-7.37,7.37S239.435,85.944,239.435,81.874z M205.512,57.402c0,4.07-3.3,7.37-7.37,7.37h-24.378
			c-4.07,0-7.37-3.3-7.37-7.37c0-4.07,3.3-7.37,7.37-7.37h24.378C202.212,50.032,205.512,53.332,205.512,57.402z M119.622,13.465
			h56.693v15.591h-56.693V13.465z M149.386,381.661c-4.07,0-7.37-3.3-7.37-7.37v-48.756c0-4.07,3.3-7.37,7.37-7.37
			c4.07,0,7.37,3.3,7.37,7.37v48.756C156.756,378.361,153.456,381.661,149.386,381.661z M156.755,398.669v27.237
			c0,4.07-3.3,7.37-7.37,7.37c-4.07,0-7.37-3.3-7.37-7.37v-27.237c0-4.07,3.3-7.37,7.37-7.37
			C153.455,391.299,156.755,394.598,156.755,398.669z M142.015,154.914v-24.378c0-4.07,3.3-7.37,7.37-7.37
			c4.07,0,7.37,3.3,7.37,7.37v24.378c0,4.07-3.3,7.37-7.37,7.37C145.314,162.284,142.015,158.984,142.015,154.914z M149.386,308.552
			c-4.07,0-7.37-3.3-7.37-7.37v-48.756c0-4.07,3.3-7.37,7.37-7.37c4.07,0,7.37,3.3,7.37,7.37v48.756
			C156.756,305.252,153.456,308.552,149.386,308.552z M149.386,235.418c-4.07,0-7.37-3.3-7.37-7.37v-48.756
			c0-4.07,3.3-7.37,7.37-7.37c4.07,0,7.37,3.3,7.37,7.37v48.756C156.756,232.118,153.456,235.418,149.386,235.418z M149.386,113.528
			c-4.07,0-7.37-3.3-7.37-7.37V57.402c0-4.07,3.3-7.37,7.37-7.37c4.07,0,7.37,3.3,7.37,7.37v48.756
			C156.756,110.229,153.456,113.528,149.386,113.528z M117.638,57.402c0-4.07,3.3-7.37,7.37-7.37c4.07,0,7.37,3.3,7.37,7.37V81.78
			c0,4.07-3.3,7.37-7.37,7.37c-4.07,0-7.37-3.3-7.37-7.37V57.402z M125.008,332.93c-4.07,0-7.37-3.3-7.37-7.37v-24.378
			c0-4.07,3.3-7.37,7.37-7.37c4.07,0,7.37,3.3,7.37,7.37v24.378C132.378,329.63,129.078,332.93,125.008,332.93z M132.378,349.937
			v24.378c0,4.07-3.3,7.37-7.37,7.37c-4.07,0-7.37-3.3-7.37-7.37v-24.378c0-4.07,3.3-7.37,7.37-7.37
			C129.078,342.567,132.378,345.867,132.378,349.937z M125.008,284.174c-4.07,0-7.37-3.3-7.37-7.37v-24.378
			c0-4.07,3.3-7.37,7.37-7.37c4.07,0,7.37,3.3,7.37,7.37v24.378C132.378,280.874,129.078,284.174,125.008,284.174z M125.008,235.418
			c-4.07,0-7.37-3.3-7.37-7.37V203.67c0-4.07,3.3-7.37,7.37-7.37c4.07,0,7.37,3.3,7.37,7.37v24.378
			C132.378,232.118,129.078,235.418,125.008,235.418z M125.008,186.662c-4.07,0-7.37-3.3-7.37-7.37v-24.378
			c0-4.07,3.3-7.37,7.37-7.37c4.07,0,7.37,3.3,7.37,7.37v24.378C132.378,183.362,129.078,186.662,125.008,186.662z M44.69,106.158
			c0-4.07,3.3-7.37,7.37-7.37c4.07,0,7.37,3.3,7.37,7.37v24.378c0,4.07-3.3,7.37-7.37,7.37c-4.07,0-7.37-3.3-7.37-7.37V106.158z
			 M44.691,81.78c0-4.07,3.3-7.37,7.37-7.37c4.07,0,7.37,3.3,7.37,7.37s-3.3,7.37-7.37,7.37
			C47.991,89.15,44.691,85.851,44.691,81.78z M20.312,130.536c0-4.07,3.3-7.37,7.37-7.37c4.07,0,7.37,3.3,7.37,7.37v24.378
			c0,4.07-3.3,7.37-7.37,7.37c-4.07,0-7.37-3.3-7.37-7.37V130.536z M35.052,276.804c0,4.07-3.3,7.37-7.37,7.37
			c-4.07,0-7.37-3.3-7.37-7.37v-24.378c0-4.07,3.3-7.37,7.37-7.37c4.07,0,7.37,3.3,7.37,7.37V276.804z M35.053,228.048
			c0,4.07-3.3,7.37-7.37,7.37c-4.07,0-7.37-3.3-7.37-7.37v-48.756c0-4.07,3.3-7.37,7.37-7.37c4.07,0,7.37,3.3,7.37,7.37V228.048z
			 M35.053,106.158c0,4.07-3.3,7.37-7.37,7.37c-4.07,0-7.37-3.3-7.37-7.37V57.402c0-4.07,3.3-7.37,7.37-7.37
			c4.07,0,7.37,3.3,7.37,7.37V106.158z M44.69,228.048c0-4.07,3.3-7.37,7.37-7.37c4.07,0,7.37,3.3,7.37,7.37v24.378
			c0,4.07-3.3,7.37-7.37,7.37c-4.07,0-7.37-3.3-7.37-7.37V228.048z M44.691,203.67c0-4.07,3.3-7.37,7.37-7.37
			c4.07,0,7.37,3.3,7.37,7.37c0,4.07-3.3,7.37-7.37,7.37C47.991,211.04,44.691,207.74,44.691,203.67z M100.817,284.174
			c-0.163,0-0.322-0.014-0.483-0.024H52.544c-0.16,0.01-0.32,0.024-0.483,0.024s-0.322-0.014-0.483-0.024h-0.085v-0.004
			c-3.804-0.291-6.803-3.463-6.803-7.341s2.998-7.051,6.803-7.341v-0.029h0.566c0,0,0.001,0,0.001,0s0.001,0,0.001,0h48.753
			c0,0,0.001,0,0.001,0c4.07,0,7.37,3.3,7.37,7.37S104.887,284.174,100.817,284.174z M76.439,245.056h24.378
			c4.07,0,7.37,3.3,7.37,7.37c0,4.07-3.3,7.37-7.37,7.37H76.439c-4.07,0-7.37-3.3-7.37-7.37
			C69.068,248.355,72.368,245.056,76.439,245.056z M69.068,228.048V203.67c0-4.07,3.3-7.37,7.37-7.37c4.07,0,7.37,3.3,7.37,7.37
			v24.378c0,4.07-3.3,7.37-7.37,7.37C72.368,235.418,69.068,232.118,69.068,228.048z M108.187,228.048c0,4.07-3.3,7.37-7.37,7.37
			c-4.07,0-7.37-3.3-7.37-7.37V203.67c0-4.07,3.3-7.37,7.37-7.37c4.07,0,7.37,3.3,7.37,7.37V228.048z M100.817,186.662
			c-0.163,0-0.322-0.014-0.483-0.024H52.544c-0.16,0.01-0.32,0.024-0.483,0.024s-0.322-0.014-0.483-0.024h-0.085v-0.004
			c-3.804-0.291-6.803-3.463-6.803-7.341s2.998-7.051,6.803-7.341v-0.029h0.566c0,0,0.001,0,0.001,0s0.001,0,0.001,0h48.753
			c0,0,0.001,0,0.001,0c4.07,0,7.37,3.3,7.37,7.37S104.887,186.662,100.817,186.662z M100.817,162.284
			c-0.163,0-0.322-0.014-0.483-0.024H52.544c-0.16,0.01-0.32,0.024-0.483,0.024s-0.322-0.014-0.483-0.024h-0.085v-0.004
			c-3.804-0.291-6.803-3.463-6.803-7.341s2.998-7.051,6.803-7.341v-0.029h0.566c0,0,0.001,0,0.001,0s0.001,0,0.001,0h48.753
			c0,0,0.001,0,0.001,0c4.07,0,7.37,3.3,7.37,7.37S104.887,162.284,100.817,162.284z M76.439,123.166h24.378
			c4.07,0,7.37,3.3,7.37,7.37c0,4.07-3.3,7.37-7.37,7.37H76.439c-4.07,0-7.37-3.3-7.37-7.37
			C69.068,126.466,72.368,123.166,76.439,123.166z M69.068,106.158V81.78c0-4.07,3.3-7.37,7.37-7.37c4.07,0,7.37,3.3,7.37,7.37
			v24.378c0,4.07-3.3,7.37-7.37,7.37C72.368,113.528,69.068,110.229,69.068,106.158z M108.187,106.158c0,4.07-3.3,7.37-7.37,7.37
			c-4.07,0-7.37-3.3-7.37-7.37V81.78c0-4.07,3.3-7.37,7.37-7.37c4.07,0,7.37,3.3,7.37,7.37V106.158z M100.817,64.772
			c-0.163,0-0.322-0.014-0.483-0.024H52.544c-0.16,0.01-0.32,0.024-0.483,0.024s-0.322-0.014-0.483-0.024h-0.085v-0.004
			c-3.804-0.291-6.803-3.463-6.803-7.341s2.998-7.051,6.803-7.341v-0.029h0.566c0,0,0.001,0,0.001,0s0.001,0,0.001,0h48.753
			c0,0,0.001,0,0.001,0c4.07,0,7.37,3.3,7.37,7.37S104.887,64.772,100.817,64.772z M117.637,106.159c0-4.07,3.3-7.37,7.37-7.37
			c4.07,0,7.37,3.3,7.37,7.37v24.378c0,4.07-3.3,7.37-7.37,7.37c-4.07,0-7.37-3.3-7.37-7.37V106.159z M117.638,398.669
			c0-4.07,3.3-7.37,7.37-7.37c4.07,0,7.37,3.3,7.37,7.37v27.237c0,4.07-3.3,7.37-7.37,7.37c-4.07,0-7.37-3.3-7.37-7.37V398.669z
			 M176.315,469.844h-56.693v-15.591h56.693V469.844z M181.133,425.906c0,4.07-3.3,7.37-7.37,7.37c-4.07,0-7.37-3.3-7.37-7.37
			v-27.213c0-4.07,3.3-7.37,7.37-7.37c4.07,0,7.37,3.3,7.37,7.37V425.906z M173.764,381.685c-4.07,0-7.37-3.3-7.37-7.37
			s3.3-7.37,7.37-7.37s7.37,3.3,7.37,7.37S177.834,381.685,173.764,381.685z M190.771,425.931c0-4.07,3.3-7.37,7.37-7.37h48.569
			c4.07,0,7.37,3.3,7.37,7.37c0,4.07-3.3,7.37-7.37,7.37h-48.569C194.071,433.301,190.771,430.001,190.771,425.931z
			 M298.205,469.844h-56.693v-15.591h56.693V469.844z M263.812,57.309c0-4.07,3.3-7.37,7.37-7.37h17.125c4.07,0,7.37,3.3,7.37,7.37
			c0,4.07-3.3,7.37-7.37,7.37h-9.755v17.195c0,4.07-3.3,7.37-7.37,7.37c-4.07,0-7.37-3.3-7.37-7.37V57.496
			c0-0.032,0.004-0.062,0.005-0.093C263.816,57.371,263.812,57.34,263.812,57.309z M263.906,106.158
			c0-0.163,0.014-0.322,0.024-0.483v-0.085h0.004c0.291-3.804,3.463-6.803,7.341-6.803s7.051,2.998,7.341,6.803h0.029v0.566
			c0,0,0,0.001,0,0.001s0,0.001,0,0.001v48.753c0,0,0,0.001,0,0.001c0,4.07-3.3,7.37-7.37,7.37s-7.37-3.3-7.37-7.37
			c0-0.163,0.014-0.322,0.024-0.483v-47.791C263.919,106.481,263.906,106.321,263.906,106.158z M278.646,276.804
			c0,4.07-3.3,7.37-7.37,7.37s-7.37-3.3-7.37-7.37c0-0.163,0.014-0.322,0.024-0.483v-47.791c-0.01-0.16-0.024-0.32-0.024-0.483
			s0.014-0.322,0.024-0.483v-0.085h0.004c0.291-3.804,3.463-6.803,7.341-6.803s7.051,2.998,7.341,6.803h0.029v0.566
			c0,0,0,0.001,0,0.001s0,0.001,0,0.001v48.753C278.646,276.803,278.646,276.803,278.646,276.804z M278.646,374.315
			c0,4.07-3.3,7.37-7.37,7.37s-7.37-3.3-7.37-7.37l0.024-72.651c-0.01-0.16-0.024-0.32-0.024-0.483s0.014-0.322,0.024-0.483v-0.085
			h0.004c0.291-3.804,3.463-6.803,7.341-6.803s7.051,2.998,7.341,6.803h0.029v0.566c0,0,0,0.001,0,0.001s0,0.001,0,0.001v48.753
			C278.646,349.937,278.646,374.315,278.646,374.315z M271.276,171.922c4.07,0,7.37,3.3,7.37,7.37v24.378c0,4.07-3.3,7.37-7.37,7.37
			c-4.07,0-7.37-3.3-7.37-7.37v-24.378C263.906,175.222,267.205,171.922,271.276,171.922z M271.276,391.323
			c4.07,0,7.37,3.3,7.37,7.37v19.867h9.661c4.07,0,7.37,3.3,7.37,7.37c0,4.07-3.3,7.37-7.37,7.37h-16.335
			c-0.118,0-0.233-0.012-0.349-0.018c-0.116,0.005-0.23,0.018-0.348,0.018c-4.07,0-7.37-3.3-7.37-7.37v-27.237
			C263.906,394.623,267.205,391.323,271.276,391.323z M298.205,29.055h-56.693V13.465h56.693V29.055z M332.221,411.454H316.63
			V269.722h15.591V411.454z M332.221,212.741H316.63V71.009h15.591V212.741z"/>
	</g>
</g>
<g>
	<g>
		<path style="fill:#00a99d;" d="M451.532,0l0.04,483.308h257.914v-169.96h88.439V0L451.532,0z M762.871,57.402
			c0-4.07,3.3-7.37,7.37-7.37c4.071,0,7.37,3.3,7.37,7.37v48.756c0,4.07-3.3,7.37-7.37,7.37c-4.07,0-7.37-3.3-7.37-7.37V57.402z
			 M697.108,50.032c0,0,0.001,0,0.001,0h48.753c0,0,0.001,0,0.001,0s0.001,0,0.001,0h0.566v0.029
			c3.804,0.291,6.803,3.463,6.803,7.341s-2.998,7.051-6.803,7.341v0.004h-0.085c-0.16,0.01-0.32,0.024-0.483,0.024
			s-0.322-0.014-0.483-0.024H697.59c-0.16,0.01-0.32,0.024-0.483,0.024c-4.07,0-7.37-3.3-7.37-7.37S693.037,50.032,697.108,50.032z
			 M753.234,81.78c0,4.07-3.3,7.37-7.37,7.37s-7.37-3.3-7.37-7.37s3.3-7.37,7.37-7.37S753.234,77.71,753.234,81.78z
			 M721.486,113.528c-4.07,0-7.37-3.3-7.37-7.37V81.78c0-4.07,3.3-7.37,7.37-7.37c4.07,0,7.37,3.3,7.37,7.37v24.378
			C728.856,110.229,725.556,113.528,721.486,113.528z M728.856,130.536c0,4.07-3.3,7.37-7.37,7.37h-24.378
			c-4.07,0-7.37-3.3-7.37-7.37c0-4.07,3.3-7.37,7.37-7.37h24.378C725.556,123.166,728.856,126.466,728.856,130.536z M689.738,81.78
			c0-4.07,3.3-7.37,7.37-7.37c4.071,0,7.37,3.3,7.37,7.37v24.378c0,4.07-3.3,7.37-7.37,7.37c-4.07,0-7.37-3.3-7.37-7.37V81.78z
			 M697.108,147.544c0,0,0.001,0,0.001,0h48.753c0,0,0.001,0,0.001,0s0.001,0,0.001,0h0.566v0.029
			c3.804,0.291,6.803,3.463,6.803,7.341s-2.998,7.051-6.803,7.341v0.004h-0.085c-0.16,0.01-0.32,0.024-0.483,0.024
			s-0.322-0.014-0.483-0.024H697.59c-0.16,0.01-0.32,0.024-0.483,0.024c-4.07,0-7.37-3.3-7.37-7.37S693.037,147.544,697.108,147.544
			z M697.108,171.922c0,0,0.001,0,0.001,0h48.753c0,0,0.001,0,0.001,0s0.001,0,0.001,0h0.566v0.029
			c3.804,0.291,6.803,3.463,6.803,7.341s-2.998,7.051-6.803,7.341v0.004h-0.085c-0.16,0.01-0.32,0.024-0.483,0.024
			s-0.322-0.014-0.483-0.024H697.59c-0.16,0.01-0.32,0.024-0.483,0.024c-4.07,0-7.37-3.3-7.37-7.37S693.037,171.922,697.108,171.922
			z M753.234,203.67c0,4.07-3.3,7.37-7.37,7.37s-7.37-3.3-7.37-7.37c0-4.07,3.3-7.37,7.37-7.37S753.234,199.599,753.234,203.67z
			 M721.486,235.418c-4.07,0-7.37-3.3-7.37-7.37V203.67c0-4.07,3.3-7.37,7.37-7.37c4.07,0,7.37,3.3,7.37,7.37v24.378
			C728.856,232.118,725.556,235.418,721.486,235.418z M728.856,252.426c0,4.07-3.3,7.37-7.37,7.37h-24.378
			c-4.07,0-7.37-3.3-7.37-7.37c0-4.07,3.3-7.37,7.37-7.37h24.378C725.556,245.056,728.856,248.355,728.856,252.426z M689.738,203.67
			c0-4.07,3.3-7.37,7.37-7.37c4.071,0,7.37,3.3,7.37,7.37v24.378c0,4.07-3.3,7.37-7.37,7.37c-4.07,0-7.37-3.3-7.37-7.37V203.67z
			 M621.609,13.465h56.693v15.591h-56.693V13.465z M680.287,57.402V81.78c0,4.07-3.3,7.37-7.37,7.37c-4.07,0-7.37-3.3-7.37-7.37
			V57.402c0-4.07,3.3-7.37,7.37-7.37C676.987,50.032,680.287,53.332,680.287,57.402z M648.539,245.056c4.07,0,7.37,3.3,7.37,7.37
			v48.756c0,4.07-3.3,7.37-7.37,7.37c-4.07,0-7.37-3.3-7.37-7.37v-48.756C641.169,248.355,644.468,245.056,648.539,245.056z
			 M641.169,228.048v-48.756c0-4.07,3.3-7.37,7.37-7.37c4.07,0,7.37,3.3,7.37,7.37v48.756c0,4.07-3.3,7.37-7.37,7.37
			C644.468,235.418,641.169,232.118,641.169,228.048z M648.539,318.165c4.07,0,7.37,3.3,7.37,7.37v48.756c0,4.07-3.3,7.37-7.37,7.37
			c-4.07,0-7.37-3.3-7.37-7.37v-48.756C641.169,321.465,644.468,318.165,648.539,318.165z M641.17,398.669
			c0-4.07,3.3-7.37,7.37-7.37c4.07,0,7.37,3.3,7.37,7.37v27.237c0,4.07-3.3,7.37-7.37,7.37c-4.07,0-7.37-3.3-7.37-7.37V398.669z
			 M648.54,162.284c-4.07,0-7.37-3.3-7.37-7.37v-24.378c0-4.07,3.3-7.37,7.37-7.37c4.07,0,7.37,3.3,7.37,7.37v24.378
			C655.91,158.984,652.61,162.284,648.54,162.284z M641.169,106.158V57.402c0-4.07,3.3-7.37,7.37-7.37c4.07,0,7.37,3.3,7.37,7.37
			v48.756c0,4.07-3.3,7.37-7.37,7.37C644.468,113.528,641.169,110.229,641.169,106.158z M551.214,381.686
			c-4.07,0-7.37-3.3-7.37-7.37v-24.378c0-4.07,3.3-7.37,7.37-7.37c4.07,0,7.37,3.3,7.37,7.37v24.378
			C558.584,378.386,555.284,381.686,551.214,381.686z M558.584,398.693c0,4.07-3.3,7.37-7.37,7.37c-4.07,0-7.37-3.3-7.37-7.37
			s3.3-7.37,7.37-7.37C555.284,391.323,558.584,394.623,558.584,398.693z M551.51,332.905c-0.16,0.01-0.32,0.024-0.483,0.024
			c-4.07,0-7.37-3.3-7.37-7.37s3.3-7.37,7.37-7.37c0,0,0.001,0,0.001,0h48.753c0,0,0.001,0,0.001,0c0,0,0.001,0,0.001,0h0.566v0.029
			c3.804,0.291,6.803,3.463,6.803,7.341s-2.998,7.051-6.803,7.341v0.004h-0.085c-0.16,0.01-0.32,0.024-0.483,0.024
			c-0.163,0-0.322-0.014-0.483-0.024H551.51z M551.027,98.788c4.07,0,7.37,3.3,7.37,7.37s-3.3,7.37-7.37,7.37s-7.37-3.3-7.37-7.37
			S546.956,98.788,551.027,98.788z M543.749,81.874c0-4.07,3.3-7.37,7.37-7.37c4.07,0,7.37,3.3,7.37,7.37c0,4.07-3.3,7.37-7.37,7.37
			C547.049,89.244,543.749,85.944,543.749,81.874z M551.027,123.166c0,0,0.001,0,0.001,0h48.753c0,0,0.001,0,0.001,0
			c0,0,0.001,0,0.001,0h0.566v0.029c3.804,0.291,6.803,3.463,6.803,7.341s-2.998,7.051-6.803,7.341v0.004h-0.085
			c-0.16,0.01-0.32,0.024-0.483,0.024c-0.163,0-0.322-0.014-0.483-0.024H551.51c-0.16,0.01-0.32,0.024-0.483,0.024
			c-4.07,0-7.37-3.3-7.37-7.37S546.957,123.166,551.027,123.166z M568.035,106.158V81.78c0-4.07,3.3-7.37,7.37-7.37
			s7.37,3.3,7.37,7.37v24.378c0,4.07-3.3,7.37-7.37,7.37S568.035,110.229,568.035,106.158z M631.531,154.914
			c0,3.879-2.998,7.051-6.803,7.341v0.004h-0.085c-0.16,0.01-0.32,0.024-0.483,0.024c-0.163,0-0.322-0.014-0.483-0.024h-47.791
			c-0.16,0.01-0.32,0.024-0.483,0.024c-4.07,0-7.37-3.3-7.37-7.37s3.3-7.37,7.37-7.37c0,0,0.001,0,0.001,0h48.753
			c0,0,0.001,0,0.001,0c0,0,0.001,0,0.001,0h0.566v0.029C628.533,147.863,631.531,151.035,631.531,154.914z M631.531,252.426
			c0,3.879-2.998,7.051-6.803,7.341v0.004h-0.085c-0.16,0.01-0.32,0.024-0.483,0.024c-0.163,0-0.322-0.014-0.483-0.024h-47.791
			c-0.16,0.01-0.32,0.024-0.483,0.024c-4.07,0-7.37-3.3-7.37-7.37c0-4.07,3.3-7.37,7.37-7.37c0,0,0.001,0,0.001,0h48.753
			c0,0,0.001,0,0.001,0c0,0,0.001,0,0.001,0h0.566v0.029C628.533,245.375,631.531,248.547,631.531,252.426z M631.531,276.804
			c0,4.07-3.3,7.37-7.37,7.37c-4.07,0-7.37-3.3-7.37-7.37s3.3-7.37,7.37-7.37C628.231,269.434,631.531,272.733,631.531,276.804z
			 M607.153,276.804v24.378c0,4.07-3.3,7.37-7.37,7.37c-4.07,0-7.37-3.3-7.37-7.37v-24.378c0-4.07,3.3-7.37,7.37-7.37
			C603.854,269.434,607.153,272.733,607.153,276.804z M582.775,276.804v24.378c0,4.07-3.3,7.37-7.37,7.37s-7.37-3.3-7.37-7.37
			v-24.378c0-4.07,3.3-7.37,7.37-7.37S582.775,272.733,582.775,276.804z M607.153,203.67c0,4.07-3.3,7.37-7.37,7.37
			c-4.07,0-7.37-3.3-7.37-7.37v-24.378c0-4.07,3.3-7.37,7.37-7.37c4.071,0,7.37,3.3,7.37,7.37V203.67z M631.531,179.292
			c0,4.07-3.3,7.37-7.37,7.37c-4.07,0-7.37-3.3-7.37-7.37c0-4.07,3.3-7.37,7.37-7.37
			C628.231,171.922,631.531,175.222,631.531,179.292z M582.775,179.292v24.378c0,4.07-3.3,7.37-7.37,7.37s-7.37-3.3-7.37-7.37
			v-24.378c0-4.07,3.3-7.37,7.37-7.37S582.775,175.222,582.775,179.292z M607.153,106.158c0,4.07-3.3,7.37-7.37,7.37
			c-4.07,0-7.37-3.3-7.37-7.37V81.78c0-4.07,3.3-7.37,7.37-7.37c4.071,0,7.37,3.3,7.37,7.37V106.158z M558.584,154.914v24.378
			c0,4.07-3.3,7.37-7.37,7.37c-4.07,0-7.37-3.3-7.37-7.37v-24.378c0-4.07,3.3-7.37,7.37-7.37
			C555.284,147.544,558.584,150.844,558.584,154.914z M551.027,196.3c4.07,0,7.37,3.3,7.37,7.37c0,4.07-3.3,7.37-7.37,7.37
			s-7.37-3.3-7.37-7.37C543.657,199.599,546.956,196.3,551.027,196.3z M551.027,220.678c0,0,0.001,0,0.001,0h48.753
			c0,0,0.001,0,0.001,0c0,0,0.001,0,0.001,0h0.566v0.029c3.804,0.291,6.803,3.463,6.803,7.341s-2.998,7.051-6.803,7.341v0.004
			h-0.085c-0.16,0.01-0.32,0.024-0.483,0.024c-0.163,0-0.322-0.014-0.483-0.024H551.51c-0.16,0.01-0.32,0.024-0.483,0.024
			c-4.07,0-7.37-3.3-7.37-7.37S546.957,220.678,551.027,220.678z M558.584,252.426v24.378c0,4.07-3.3,7.37-7.37,7.37
			c-4.07,0-7.37-3.3-7.37-7.37v-24.378c0-4.07,3.3-7.37,7.37-7.37C555.284,245.056,558.584,248.355,558.584,252.426z
			 M551.027,293.811c4.07,0,7.37,3.3,7.37,7.37s-3.3,7.37-7.37,7.37s-7.37-3.3-7.37-7.37S546.956,293.811,551.027,293.811z
			 M568.035,374.315c0-4.07,3.3-7.37,7.37-7.37s7.37,3.3,7.37,7.37v24.378c0,4.07-3.3,7.37-7.37,7.37s-7.37-3.3-7.37-7.37V374.315z
			 M575.887,357.283c-0.16,0.01-0.32,0.024-0.483,0.024c-4.07,0-7.37-3.3-7.37-7.37s3.3-7.37,7.37-7.37c0,0,0.001,0,0.001,0h48.753
			c0,0,0.001,0,0.001,0c0,0,0.001,0,0.001,0h0.566v0.029c3.804,0.291,6.803,3.463,6.803,7.341s-2.998,7.051-6.803,7.341v0.004
			h-0.085c-0.16,0.01-0.32,0.024-0.483,0.024c-0.163,0-0.322-0.014-0.483-0.024H575.887z M624.161,332.93
			c-4.07,0-7.37-3.3-7.37-7.37v-24.378c0-4.07,3.3-7.37,7.37-7.37c4.07,0,7.37,3.3,7.37,7.37v24.378
			C631.531,329.63,628.232,332.93,624.161,332.93z M624.161,235.418c-4.07,0-7.37-3.3-7.37-7.37V203.67c0-4.07,3.3-7.37,7.37-7.37
			c4.07,0,7.37,3.3,7.37,7.37v24.378C631.531,232.118,628.232,235.418,624.161,235.418z M624.161,137.906
			c-4.07,0-7.37-3.3-7.37-7.37v-24.378c0-4.07,3.3-7.37,7.37-7.37c4.07,0,7.37,3.3,7.37,7.37v24.378
			C631.531,134.606,628.232,137.906,624.161,137.906z M616.791,81.78c0-4.07,3.3-7.37,7.37-7.37c4.07,0,7.37,3.3,7.37,7.37
			s-3.3,7.37-7.37,7.37C620.09,89.15,616.791,85.851,616.791,81.78z M599.783,50.032h24.378c4.07,0,7.37,3.3,7.37,7.37
			c0,4.07-3.3,7.37-7.37,7.37h-24.378c-4.07,0-7.37-3.3-7.37-7.37C592.413,53.332,595.712,50.032,599.783,50.032z M582.775,57.402
			c0,4.07-3.3,7.37-7.37,7.37h-24.378c-4.07,0-7.37-3.3-7.37-7.37c0-4.07,3.3-7.37,7.37-7.37h24.378
			C579.475,50.032,582.775,53.332,582.775,57.402z M499.72,13.465h56.693v15.591H499.72V13.465z M534.112,57.496v24.378
			c0,4.07-3.3,7.37-7.37,7.37s-7.37-3.3-7.37-7.37V64.679h-9.755c-4.07,0-7.37-3.3-7.37-7.37c0-4.07,3.3-7.37,7.37-7.37h17.125
			c4.07,0,7.37,3.3,7.37,7.37c0,0.032-0.004,0.062-0.005,0.093C534.108,57.434,534.112,57.464,534.112,57.496z M519.279,301.182
			c0,0,0-0.001,0-0.001v-0.566h0.029c0.291-3.804,3.463-6.803,7.341-6.803c3.879,0,7.051,2.998,7.342,6.803h0.004v0.085
			c0.01,0.16,0.024,0.32,0.024,0.483s-0.014,0.322-0.024,0.483l0.024,72.651c0,4.07-3.3,7.37-7.37,7.37c-4.07,0-7.37-3.3-7.37-7.37
			c0,0,0-24.379,0-24.379v-48.753C519.279,301.182,519.279,301.182,519.279,301.182z M519.279,228.048c0,0,0-0.001,0-0.001v-0.566
			h0.029c0.291-3.804,3.463-6.803,7.341-6.803c3.879,0,7.051,2.998,7.342,6.803h0.004v0.085c0.01,0.16,0.024,0.32,0.024,0.483
			s-0.014,0.322-0.024,0.483v47.791c0.01,0.16,0.024,0.32,0.024,0.483c0,4.07-3.3,7.37-7.37,7.37c-4.07,0-7.37-3.3-7.37-7.37
			c0,0,0-0.001,0-0.001v-48.753C519.279,228.049,519.279,228.048,519.279,228.048z M519.279,106.158c0,0,0-0.001,0-0.001v-0.566
			h0.029c0.291-3.804,3.463-6.803,7.341-6.803c3.879,0,7.051,2.998,7.342,6.803h0.004v0.085c0.01,0.16,0.024,0.32,0.024,0.483
			s-0.014,0.322-0.024,0.483v47.791c0.01,0.16,0.024,0.32,0.024,0.483c0,4.07-3.3,7.37-7.37,7.37c-4.07,0-7.37-3.3-7.37-7.37
			c0,0,0-0.001,0-0.001v-48.753C519.279,106.159,519.279,106.159,519.279,106.158z M519.279,398.693c0-4.07,3.3-7.37,7.37-7.37
			c4.07,0,7.37,3.3,7.37,7.37v27.237c0,4.07-3.3,7.37-7.37,7.37c-0.117,0-0.232-0.012-0.348-0.018
			c-0.117,0.005-0.231,0.018-0.349,0.018h-16.335c-4.07,0-7.37-3.3-7.37-7.37c0-4.07,3.3-7.37,7.37-7.37h9.661V398.693z
			 M526.649,211.04c-4.07,0-7.37-3.3-7.37-7.37v-24.378c0-4.07,3.3-7.37,7.37-7.37s7.37,3.3,7.37,7.37v24.378
			C534.019,207.74,530.719,211.04,526.649,211.04z M481.295,411.454h-15.591V269.722h15.591V411.454z M481.295,212.741h-15.591
			V71.009h15.591V212.741z M556.413,469.844H499.72v-15.591h56.693V469.844z M599.783,433.301h-48.569c-4.07,0-7.37-3.3-7.37-7.37
			c0-4.07,3.3-7.37,7.37-7.37h48.569c4.07,0,7.37,3.3,7.37,7.37C607.153,430.001,603.854,433.301,599.783,433.301z M607.153,398.693
			c0,4.07-3.3,7.37-7.37,7.37c-4.07,0-7.37-3.3-7.37-7.37v-24.378c0-4.07,3.3-7.37,7.37-7.37c4.071,0,7.37,3.3,7.37,7.37V398.693z
			 M624.161,366.945c4.07,0,7.37,3.3,7.37,7.37s-3.3,7.37-7.37,7.37c-4.07,0-7.37-3.3-7.37-7.37S620.09,366.945,624.161,366.945z
			 M616.791,425.906v-27.213c0-4.07,3.3-7.37,7.37-7.37c4.07,0,7.37,3.3,7.37,7.37v27.213c0,4.07-3.3,7.37-7.37,7.37
			C620.091,433.276,616.791,429.977,616.791,425.906z M678.302,469.844h-56.693v-15.591h56.693V469.844z M680.287,425.906
			c0,4.07-3.3,7.37-7.37,7.37c-4.07,0-7.37-3.3-7.37-7.37v-27.237c0-4.07,3.3-7.37,7.37-7.37c4.07,0,7.37,3.3,7.37,7.37V425.906z
			 M680.287,374.315c0,4.07-3.3,7.37-7.37,7.37c-4.07,0-7.37-3.3-7.37-7.37v-24.378c0-4.07,3.3-7.37,7.37-7.37
			c4.07,0,7.37,3.3,7.37,7.37V374.315z M680.287,325.559c0,4.07-3.3,7.37-7.37,7.37c-4.07,0-7.37-3.3-7.37-7.37v-24.378
			c0-4.07,3.3-7.37,7.37-7.37c4.07,0,7.37,3.3,7.37,7.37V325.559z M680.287,276.804c0,4.07-3.3,7.37-7.37,7.37
			c-4.07,0-7.37-3.3-7.37-7.37v-24.378c0-4.07,3.3-7.37,7.37-7.37c4.07,0,7.37,3.3,7.37,7.37V276.804z M680.287,228.048
			c0,4.07-3.3,7.37-7.37,7.37c-4.07,0-7.37-3.3-7.37-7.37V203.67c0-4.07,3.3-7.37,7.37-7.37c4.07,0,7.37,3.3,7.37,7.37V228.048z
			 M680.287,179.292c0,4.07-3.3,7.37-7.37,7.37c-4.07,0-7.37-3.3-7.37-7.37v-24.378c0-4.07,3.3-7.37,7.37-7.37
			c4.07,0,7.37,3.3,7.37,7.37V179.292z M680.287,130.537c0,4.07-3.3,7.37-7.37,7.37c-4.07,0-7.37-3.3-7.37-7.37v-24.378
			c0-4.07,3.3-7.37,7.37-7.37c4.071,0,7.37,3.3,7.37,7.37V130.537z M746.431,284.145v0.004h-0.085
			c-0.16,0.01-0.32,0.024-0.483,0.024s-0.322-0.014-0.483-0.024H697.59c-0.16,0.01-0.32,0.024-0.483,0.024
			c-4.07,0-7.37-3.3-7.37-7.37s3.3-7.37,7.37-7.37c0,0,0.001,0,0.001,0h48.753c0,0,0.001,0,0.001,0s0.001,0,0.001,0h0.566v0.029
			c3.804,0.291,6.803,3.463,6.803,7.341S750.235,283.854,746.431,284.145z M753.234,252.426c0,4.07-3.3,7.37-7.37,7.37
			s-7.37-3.3-7.37-7.37v-24.378c0-4.07,3.3-7.37,7.37-7.37s7.37,3.3,7.37,7.37V252.426z M753.234,130.536c0,4.07-3.3,7.37-7.37,7.37
			s-7.37-3.3-7.37-7.37v-24.378c0-4.07,3.3-7.37,7.37-7.37s7.37,3.3,7.37,7.37V130.536z M762.871,179.292c0-4.07,3.3-7.37,7.37-7.37
			c4.071,0,7.37,3.3,7.37,7.37v48.756c0,4.07-3.3,7.37-7.37,7.37c-4.07,0-7.37-3.3-7.37-7.37V179.292z M777.613,276.804
			c0,4.07-3.3,7.37-7.37,7.37s-7.37-3.3-7.37-7.37v-24.378c0-4.07,3.3-7.37,7.37-7.37s7.37,3.3,7.37,7.37V276.804z M777.613,154.914
			c0,4.07-3.3,7.37-7.37,7.37s-7.37-3.3-7.37-7.37v-24.378c0-4.07,3.3-7.37,7.37-7.37s7.37,3.3,7.37,7.37V154.914z"/>
	</g>
</g>
</svg>
