<svg xmlns="http://www.w3.org/2000/svg" xml:space="preserve" viewBox="0 0 2504.997 814.776"><path d="M732.497 731.094V194.628l-84.046 145.571-24.549-14.173 108.595-188.091V0h-94.494L223.439 717.837l-10.014 17.345-31.914-18.425 9.935-17.208L0 589.017v225.759h732.497v-55.335H564.405v-28.347z" style="fill:#fbb040"/><path d="M1772.5 731.094V194.628l84.046 145.571 24.548-14.173L1772.5 137.935V0h94.494l414.563 717.837 10.015 17.345 31.913-18.425-9.935-17.208 191.447-110.532v225.759H1772.5v-55.335h168.091v-28.347z" style="fill:#ed1e79"/><path d="M917.023 764.276V609.218h28.346v155.058h100.155V609.218h28.346v155.058h357.339V609.218h28.347v155.058h100.072V609.218h28.346v155.058h113.816v-323.15H803.207v323.15z" style="fill:#ff7bac"/><path d="M917.023 373.65V218.592h28.346V373.65h100.155V218.592h28.346V373.65h357.339V218.592h28.347V373.65h100.072V218.592h28.346V373.65h113.816V50.501H803.207V373.65z" style="fill:#be1e2d"/></svg>