<?xml version="1.0" encoding="iso-8859-1"?>
<!-- Generator: Adobe Illustrator 29.7.1, SVG Export Plug-In . SVG Version: 9.03 Build 0)  -->
<svg version="1.1" id="Layer_1" xmlns="http://www.w3.org/2000/svg" xmlns:xlink="http://www.w3.org/1999/xlink" x="0px" y="0px"
	 viewBox="0 0 2834.646 2834.646" style="enable-background:new 0 0 2834.646 2834.646;" xml:space="preserve">
<g>
	<g>
		<path style="fill:#010101;" d="M626.457,73.843v-2.835V0H14.173v71.009h0v2.835H0v136.063h14.173v2.835h0v28.491H201.26v-14.173
			h238.11v14.173h187.087v-28.491v-2.835h14.173V73.843H626.457z M59.528,64.772c-0.001,0-0.002,0-0.002,0H42.522
			c-0.001,0-0.002,0-0.002,0c-4.07,0-7.37-3.3-7.37-7.37s3.3-7.37,7.37-7.37v0h17.008v0c4.07,0,7.37,3.3,7.37,7.37
			S63.598,64.772,59.528,64.772z M202.677,29.055h-96.378V13.464h96.378V29.055z M534.331,29.055h-96.378V13.464h96.378V29.055z
			 M598.11,64.772c-0.001,0-0.002,0-0.002,0h-17.003c-0.001,0-0.002,0-0.002,0c-4.07,0-7.37-3.3-7.37-7.37s3.3-7.37,7.37-7.37v0
			h17.008v0c4.07,0,7.37,3.3,7.37,7.37S602.181,64.772,598.11,64.772z"/>
	</g>
</g>
</svg>
