<?xml version="1.0" encoding="iso-8859-1"?>
<!-- Generator: Adobe Illustrator 29.7.1, SVG Export Plug-In . SVG Version: 9.03 Build 0)  -->
<svg version="1.1" id="Layer_1" xmlns="http://www.w3.org/2000/svg" xmlns:xlink="http://www.w3.org/1999/xlink" x="0px" y="0px"
	 viewBox="0 0 2834.646 2834.646" style="enable-background:new 0 0 2834.646 2834.646;" xml:space="preserve">
<g>
	<g>
		<path style="fill:#010101;" d="M0,0l0.029,483.309h257.914L257.983,0L0,0z M134.11,50.032h24.378c4.07,0,7.37,3.3,7.37,7.37
			c0,4.07-3.3,7.37-7.37,7.37H134.11c-4.07,0-7.37-3.3-7.37-7.37C126.74,53.332,130.039,50.032,134.11,50.032z M158.301,381.685
			c-4.07,0-7.37-3.3-7.37-7.37v-24.378c0-4.07,3.3-7.37,7.37-7.37c4.07,0,7.37,3.3,7.37,7.37v24.378
			C165.671,378.386,162.371,381.685,158.301,381.685z M165.671,398.693c0,4.07-3.3,7.37-7.37,7.37c-4.07,0-7.37-3.3-7.37-7.37
			c0-4.07,3.3-7.37,7.37-7.37C162.371,391.323,165.671,394.623,165.671,398.693z M158.488,332.93c-0.163,0-0.322-0.014-0.483-0.024
			h-47.791c-0.16,0.01-0.32,0.024-0.483,0.024s-0.322-0.014-0.483-0.024h-0.085v-0.004c-3.804-0.291-6.803-3.463-6.803-7.341
			s2.998-7.051,6.803-7.341v-0.029h0.566c0,0,0.001,0,0.001,0s0.001,0,0.001,0h48.753c0,0,0.001,0,0.001,0
			c4.07,0,7.37,3.3,7.37,7.37S162.558,332.93,158.488,332.93z M134.11,357.307c-0.163,0-0.322-0.014-0.483-0.024H85.837
			c-0.16,0.01-0.32,0.024-0.483,0.024s-0.322-0.014-0.483-0.024h-0.085v-0.004c-3.804-0.291-6.803-3.463-6.803-7.341
			s2.998-7.051,6.803-7.341v-0.029h0.566c0,0,0.001,0,0.001,0s0.001,0,0.001,0h48.753c0,0,0.001,0,0.001,0
			c4.07,0,7.37,3.3,7.37,7.37S138.18,357.307,134.11,357.307z M141.48,374.315v24.378c0,4.07-3.3,7.37-7.37,7.37
			c-4.07,0-7.37-3.3-7.37-7.37v-24.378c0-4.07,3.3-7.37,7.37-7.37C138.18,366.945,141.48,370.245,141.48,374.315z M117.102,374.315
			v24.378c0,4.07-3.3,7.37-7.37,7.37c-4.07,0-7.37-3.3-7.37-7.37v-24.378c0-4.07,3.3-7.37,7.37-7.37
			C113.802,366.945,117.102,370.245,117.102,374.315z M134.11,162.284c-0.163,0-0.322-0.014-0.483-0.024H85.837
			c-0.16,0.01-0.32,0.024-0.483,0.024s-0.322-0.014-0.483-0.024h-0.085v-0.004c-3.804-0.291-6.803-3.463-6.803-7.341
			s2.998-7.051,6.803-7.341v-0.029h0.566c0,0,0.001,0,0.001,0s0.001,0,0.001,0h48.753c0,0,0.001,0,0.001,0
			c4.07,0,7.37,3.3,7.37,7.37S138.18,162.284,134.11,162.284z M141.48,179.292v24.378c0,4.07-3.3,7.37-7.37,7.37
			c-4.07,0-7.37-3.3-7.37-7.37v-24.378c0-4.07,3.3-7.37,7.37-7.37C138.18,171.922,141.48,175.222,141.48,179.292z M134.11,259.796
			c-0.163,0-0.322-0.014-0.483-0.024H85.837c-0.16,0.01-0.32,0.024-0.483,0.024s-0.322-0.014-0.483-0.024h-0.085v-0.004
			c-3.804-0.291-6.803-3.463-6.803-7.341s2.998-7.051,6.803-7.341v-0.029h0.566c0,0,0.001,0,0.001,0s0.001,0,0.001,0h48.753
			c0,0,0.001,0,0.001,0c4.07,0,7.37,3.3,7.37,7.37S138.18,259.796,134.11,259.796z M141.48,276.804v24.378
			c0,4.07-3.3,7.37-7.37,7.37c-4.07,0-7.37-3.3-7.37-7.37v-24.378c0-4.07,3.3-7.37,7.37-7.37
			C138.18,269.434,141.48,272.733,141.48,276.804z M117.102,276.804v24.378c0,4.07-3.3,7.37-7.37,7.37c-4.07,0-7.37-3.3-7.37-7.37
			v-24.378c0-4.07,3.3-7.37,7.37-7.37C113.802,269.434,117.102,272.733,117.102,276.804z M92.724,276.804c0,4.07-3.3,7.37-7.37,7.37
			c-4.07,0-7.37-3.3-7.37-7.37s3.3-7.37,7.37-7.37C89.424,269.434,92.724,272.733,92.724,276.804z M117.102,179.292v24.378
			c0,4.07-3.3,7.37-7.37,7.37c-4.07,0-7.37-3.3-7.37-7.37v-24.378c0-4.07,3.3-7.37,7.37-7.37
			C113.802,171.922,117.102,175.222,117.102,179.292z M92.724,179.292c0,4.07-3.3,7.37-7.37,7.37c-4.07,0-7.37-3.3-7.37-7.37
			s3.3-7.37,7.37-7.37C89.424,171.922,92.724,175.222,92.724,179.292z M85.353,98.788c4.07,0,7.37,3.3,7.37,7.37v24.378
			c0,4.07-3.3,7.37-7.37,7.37c-4.07,0-7.37-3.3-7.37-7.37v-24.378C77.983,102.088,81.283,98.788,85.353,98.788z M77.984,81.78
			c0-4.07,3.3-7.37,7.37-7.37c4.07,0,7.37,3.3,7.37,7.37s-3.3,7.37-7.37,7.37C81.284,89.15,77.984,85.851,77.984,81.78z
			 M85.353,196.3c4.07,0,7.37,3.3,7.37,7.37v24.378c0,4.07-3.3,7.37-7.37,7.37c-4.07,0-7.37-3.3-7.37-7.37V203.67
			C77.983,199.599,81.283,196.3,85.353,196.3z M85.353,293.812c4.07,0,7.37,3.3,7.37,7.37v24.378c0,4.07-3.3,7.37-7.37,7.37
			c-4.07,0-7.37-3.3-7.37-7.37v-24.378C77.983,297.111,81.283,293.812,85.353,293.812z M165.671,276.804c0,4.07-3.3,7.37-7.37,7.37
			c-4.07,0-7.37-3.3-7.37-7.37v-24.378c0-4.07,3.3-7.37,7.37-7.37c4.07,0,7.37,3.3,7.37,7.37V276.804z M165.858,301.182
			c0,4.07-3.3,7.37-7.37,7.37s-7.37-3.3-7.37-7.37s3.3-7.37,7.37-7.37S165.858,297.111,165.858,301.182z M158.488,235.418
			c-0.163,0-0.322-0.014-0.483-0.024h-47.791c-0.16,0.01-0.32,0.024-0.483,0.024s-0.322-0.014-0.483-0.024h-0.085v-0.004
			c-3.804-0.291-6.803-3.463-6.803-7.341s2.998-7.051,6.803-7.341v-0.029h0.566c0,0,0.001,0,0.001,0s0.001,0,0.001,0h48.753
			c0,0,0.001,0,0.001,0c4.07,0,7.37,3.3,7.37,7.37S162.558,235.418,158.488,235.418z M165.671,179.292c0,4.07-3.3,7.37-7.37,7.37
			c-4.07,0-7.37-3.3-7.37-7.37v-24.378c0-4.07,3.3-7.37,7.37-7.37c4.07,0,7.37,3.3,7.37,7.37V179.292z M165.858,203.67
			c0,4.07-3.3,7.37-7.37,7.37s-7.37-3.3-7.37-7.37s3.3-7.37,7.37-7.37S165.858,199.599,165.858,203.67z M158.488,137.906
			c-0.163,0-0.322-0.014-0.483-0.024h-47.791c-0.16,0.01-0.32,0.024-0.483,0.024s-0.322-0.014-0.483-0.024h-0.085v-0.004
			c-3.804-0.291-6.803-3.463-6.803-7.341s2.998-7.051,6.803-7.341v-0.029h0.566c0,0,0.001,0,0.001,0s0.001,0,0.001,0h48.753
			c0,0,0.001,0,0.001,0c4.07,0,7.37,3.3,7.37,7.37S162.558,137.906,158.488,137.906z M102.361,106.158V81.78
			c0-4.07,3.3-7.37,7.37-7.37c4.07,0,7.37,3.3,7.37,7.37v24.378c0,4.07-3.3,7.37-7.37,7.37
			C105.661,113.528,102.361,110.229,102.361,106.158z M126.74,106.158V81.78c0-4.07,3.3-7.37,7.37-7.37c4.07,0,7.37,3.3,7.37,7.37
			v24.378c0,4.07-3.3,7.37-7.37,7.37C130.039,113.528,126.74,110.229,126.74,106.158z M158.488,113.528c-4.07,0-7.37-3.3-7.37-7.37
			s3.3-7.37,7.37-7.37s7.37,3.3,7.37,7.37S162.558,113.528,158.488,113.528z M151.025,81.874c0-4.07,3.3-7.37,7.37-7.37
			s7.37,3.3,7.37,7.37s-3.3,7.37-7.37,7.37S151.025,85.944,151.025,81.874z M117.102,57.402c0,4.07-3.3,7.37-7.37,7.37H85.354
			c-4.07,0-7.37-3.3-7.37-7.37c0-4.07,3.3-7.37,7.37-7.37h24.378C113.802,50.032,117.102,53.332,117.102,57.402z M31.212,13.465
			h56.693v15.591H31.212V13.465z M60.976,381.661c-4.07,0-7.37-3.3-7.37-7.37v-48.756c0-4.07,3.3-7.37,7.37-7.37
			c4.07,0,7.37,3.3,7.37,7.37v48.756C68.346,378.361,65.046,381.661,60.976,381.661z M68.345,398.669v27.237
			c0,4.07-3.3,7.37-7.37,7.37c-4.07,0-7.37-3.3-7.37-7.37v-27.237c0-4.07,3.3-7.37,7.37-7.37
			C65.045,391.299,68.345,394.599,68.345,398.669z M53.605,154.914v-24.378c0-4.07,3.3-7.37,7.37-7.37c4.07,0,7.37,3.3,7.37,7.37
			v24.378c0,4.07-3.3,7.37-7.37,7.37C56.904,162.284,53.605,158.984,53.605,154.914z M60.976,308.552c-4.07,0-7.37-3.3-7.37-7.37
			v-48.756c0-4.07,3.3-7.37,7.37-7.37c4.07,0,7.37,3.3,7.37,7.37v48.756C68.346,305.252,65.046,308.552,60.976,308.552z
			 M60.976,235.418c-4.07,0-7.37-3.3-7.37-7.37v-48.756c0-4.07,3.3-7.37,7.37-7.37c4.07,0,7.37,3.3,7.37,7.37v48.756
			C68.346,232.118,65.046,235.418,60.976,235.418z M60.976,113.528c-4.07,0-7.37-3.3-7.37-7.37V57.402c0-4.07,3.3-7.37,7.37-7.37
			c4.07,0,7.37,3.3,7.37,7.37v48.756C68.346,110.229,65.046,113.528,60.976,113.528z M29.228,57.402c0-4.07,3.3-7.37,7.37-7.37
			c4.07,0,7.37,3.3,7.37,7.37V81.78c0,4.07-3.3,7.37-7.37,7.37c-4.07,0-7.37-3.3-7.37-7.37V57.402z M29.228,106.158
			c0-4.07,3.3-7.37,7.37-7.37c4.07,0,7.37,3.3,7.37,7.37v24.378c0,4.07-3.3,7.37-7.37,7.37c-4.07,0-7.37-3.3-7.37-7.37V106.158z
			 M29.228,154.914c0-4.07,3.3-7.37,7.37-7.37c4.07,0,7.37,3.3,7.37,7.37v24.378c0,4.07-3.3,7.37-7.37,7.37
			c-4.07,0-7.37-3.3-7.37-7.37V154.914z M29.228,203.67c0-4.07,3.3-7.37,7.37-7.37c4.07,0,7.37,3.3,7.37,7.37v24.378
			c0,4.07-3.3,7.37-7.37,7.37c-4.07,0-7.37-3.3-7.37-7.37V203.67z M29.228,252.426c0-4.07,3.3-7.37,7.37-7.37
			c4.07,0,7.37,3.3,7.37,7.37v24.378c0,4.07-3.3,7.37-7.37,7.37c-4.07,0-7.37-3.3-7.37-7.37V252.426z M29.228,301.182
			c0-4.07,3.3-7.37,7.37-7.37c4.07,0,7.37,3.3,7.37,7.37v24.378c0,4.07-3.3,7.37-7.37,7.37c-4.07,0-7.37-3.3-7.37-7.37V301.182z
			 M29.228,349.937c0-4.07,3.3-7.37,7.37-7.37c4.07,0,7.37,3.3,7.37,7.37v24.378c0,4.07-3.3,7.37-7.37,7.37
			c-4.07,0-7.37-3.3-7.37-7.37V349.937z M29.228,398.669c0-4.07,3.3-7.37,7.37-7.37c4.07,0,7.37,3.3,7.37,7.37v27.237
			c0,4.07-3.3,7.37-7.37,7.37c-4.07,0-7.37-3.3-7.37-7.37V398.669z M87.905,469.844H31.212v-15.591h56.693V469.844z M92.723,425.906
			c0,4.07-3.3,7.37-7.37,7.37c-4.07,0-7.37-3.3-7.37-7.37v-27.213c0-4.07,3.3-7.37,7.37-7.37c4.07,0,7.37,3.3,7.37,7.37V425.906z
			 M85.354,381.685c-4.07,0-7.37-3.3-7.37-7.37c0-4.07,3.3-7.37,7.37-7.37c4.07,0,7.37,3.3,7.37,7.37
			C92.724,378.386,89.424,381.685,85.354,381.685z M102.361,425.931c0-4.07,3.3-7.37,7.37-7.37h48.569c4.07,0,7.37,3.3,7.37,7.37
			c0,4.07-3.3,7.37-7.37,7.37h-48.569C105.661,433.301,102.361,430.001,102.361,425.931z M209.795,469.844h-56.693v-15.591h56.693
			V469.844z M175.402,57.309c0-4.07,3.3-7.37,7.37-7.37h17.125c4.07,0,7.37,3.3,7.37,7.37c0,4.07-3.3,7.37-7.37,7.37h-9.755v17.195
			c0,4.07-3.3,7.37-7.37,7.37c-4.07,0-7.37-3.3-7.37-7.37V57.496c0-0.032,0.004-0.062,0.005-0.093
			C175.406,57.371,175.402,57.34,175.402,57.309z M175.496,106.158c0-0.163,0.014-0.322,0.024-0.483v-0.085h0.004
			c0.291-3.804,3.463-6.803,7.341-6.803s7.051,2.998,7.341,6.803h0.029v0.566c0,0,0,0.001,0,0.001s0,0.001,0,0.001v48.753
			c0,0,0,0.001,0,0.001c0,4.07-3.3,7.37-7.37,7.37s-7.37-3.3-7.37-7.37c0-0.163,0.014-0.322,0.024-0.483v-47.791
			C175.51,106.481,175.496,106.321,175.496,106.158z M190.236,276.804c0,4.07-3.3,7.37-7.37,7.37s-7.37-3.3-7.37-7.37
			c0-0.163,0.014-0.322,0.024-0.483V228.53c-0.01-0.16-0.024-0.32-0.024-0.483s0.014-0.322,0.024-0.483v-0.085h0.004
			c0.291-3.804,3.463-6.803,7.341-6.803s7.051,2.998,7.341,6.803h0.029v0.566c0,0,0,0.001,0,0.001s0,0.001,0,0.001v48.753
			C190.236,276.803,190.236,276.803,190.236,276.804z M190.236,374.315c0,4.07-3.3,7.37-7.37,7.37s-7.37-3.3-7.37-7.37l0.024-72.651
			c-0.01-0.16-0.024-0.32-0.024-0.483s0.014-0.322,0.024-0.483v-0.085h0.004c0.291-3.804,3.463-6.803,7.341-6.803
			s7.051,2.998,7.341,6.803h0.029v0.566c0,0,0,0.001,0,0.001s0,0.001,0,0.001v48.753
			C190.236,349.937,190.236,374.315,190.236,374.315z M182.866,171.922c4.07,0,7.37,3.3,7.37,7.37v24.378c0,4.07-3.3,7.37-7.37,7.37
			c-4.07,0-7.37-3.3-7.37-7.37v-24.378C175.496,175.222,178.795,171.922,182.866,171.922z M182.866,391.323
			c4.07,0,7.37,3.3,7.37,7.37v19.867h9.661c4.07,0,7.37,3.3,7.37,7.37c0,4.07-3.3,7.37-7.37,7.37h-16.335
			c-0.118,0-0.233-0.012-0.349-0.018c-0.116,0.005-0.23,0.018-0.348,0.018c-4.07,0-7.37-3.3-7.37-7.37v-27.237
			C175.496,394.623,178.795,391.323,182.866,391.323z M209.795,29.055h-56.693V13.465h56.693V29.055z M243.811,411.454H228.22
			V269.721h15.591V411.454z M243.811,212.741H228.22V71.009h15.591V212.741z"/>
	</g>
</g>
</svg>
