<?xml version="1.0" encoding="iso-8859-1"?>
<!-- Generator: Adobe Illustrator 29.7.1, SVG Export Plug-In . SVG Version: 9.03 Build 0)  -->
<svg version="1.1" id="Layer_1" xmlns="http://www.w3.org/2000/svg" xmlns:xlink="http://www.w3.org/1999/xlink" x="0px" y="0px"
	 viewBox="0 0 2834.646 2834.646" style="enable-background:new 0 0 2834.646 2834.646;" xml:space="preserve">
<g>
	<g>
		<path style="fill:#010101;" d="M912.756,34.016v-2.295V14.173V0h-93.543h-93.543H201.26h-93.543H14.173v14.173v17.547v2.295v0H0
			v53.858h14.173v19.842h93.543v14.173h93.543v-14.173h0.351h522.779h0.603h0.678v14.173h93.543v-14.173h93.543V87.874h14.173
			V34.016H912.756z M59.528,68.315c-0.001,0-0.002,0-0.002,0H42.522c-0.001,0-0.002,0-0.002,0c-2.035,0-3.878-0.825-5.211-2.159
			c-1.334-1.334-2.159-3.176-2.159-5.211c0-2.035,0.825-3.878,2.159-5.211c1.334-1.334,3.176-2.159,5.211-2.159h17.008v0
			c4.07,0,7.37,3.3,7.37,7.37S63.598,68.315,59.528,68.315z M889.621,66.156c-1.334,1.334-3.176,2.159-5.211,2.159
			c-0.001,0-0.002,0-0.002,0h-17.003c-0.001,0-0.002,0-0.002,0c-4.07,0-7.37-3.3-7.37-7.37s3.3-7.37,7.37-7.37v0h17.008l0,0
			c2.035,0,3.878,0.825,5.211,2.159s2.159,3.176,2.159,5.211C891.78,62.98,890.955,64.823,889.621,66.156z"/>
	</g>
</g>
</svg>
